G04 Layer_Physical_Order=4*
G04 Layer_Color=16711680*
%FSLAX25Y25*%
%MOIN*%
G70*
G01*
G75*
%ADD10C,0.01969*%
G04:AMPARAMS|DCode=15|XSize=51.18mil|YSize=35.43mil|CornerRadius=3.54mil|HoleSize=0mil|Usage=FLASHONLY|Rotation=90.000|XOffset=0mil|YOffset=0mil|HoleType=Round|Shape=RoundedRectangle|*
%AMROUNDEDRECTD15*
21,1,0.05118,0.02835,0,0,90.0*
21,1,0.04409,0.03543,0,0,90.0*
1,1,0.00709,0.01417,0.02205*
1,1,0.00709,0.01417,-0.02205*
1,1,0.00709,-0.01417,-0.02205*
1,1,0.00709,-0.01417,0.02205*
%
%ADD15ROUNDEDRECTD15*%
%ADD31R,0.03937X0.03543*%
G04:AMPARAMS|DCode=38|XSize=51.18mil|YSize=35.43mil|CornerRadius=3.54mil|HoleSize=0mil|Usage=FLASHONLY|Rotation=0.000|XOffset=0mil|YOffset=0mil|HoleType=Round|Shape=RoundedRectangle|*
%AMROUNDEDRECTD38*
21,1,0.05118,0.02835,0,0,0.0*
21,1,0.04409,0.03543,0,0,0.0*
1,1,0.00709,0.02205,-0.01417*
1,1,0.00709,-0.02205,-0.01417*
1,1,0.00709,-0.02205,0.01417*
1,1,0.00709,0.02205,0.01417*
%
%ADD38ROUNDEDRECTD38*%
%ADD40C,0.00800*%
%ADD41C,0.04000*%
%ADD42C,0.02000*%
%ADD43C,0.01000*%
%ADD44C,0.02500*%
%ADD45C,0.01500*%
%ADD46C,0.03000*%
%ADD47C,0.05000*%
%ADD49R,0.02953X0.00787*%
%ADD51R,0.00787X0.02953*%
%ADD52C,0.05512*%
%ADD53C,0.05512*%
%ADD54R,0.05512X0.05512*%
%ADD55R,0.05906X0.05906*%
%ADD56C,0.05906*%
%ADD57R,0.07000X0.07000*%
%ADD58C,0.07000*%
%ADD59R,0.07000X0.07000*%
%ADD60C,0.03937*%
%ADD61R,0.03937X0.03937*%
%ADD62O,0.06299X0.03150*%
%ADD63C,0.03543*%
%ADD64R,0.05906X0.05906*%
%ADD65C,0.15748*%
%ADD66C,0.01969*%
%ADD67C,0.02400*%
%ADD68C,0.02362*%
%ADD69C,0.04000*%
%ADD70C,0.03000*%
%ADD71C,0.03500*%
G36*
X212960Y150795D02*
X213034Y150423D01*
X213245Y150107D01*
X213561Y149896D01*
X213933Y149822D01*
X214490D01*
X214507Y149797D01*
X214827Y149477D01*
X214825Y149394D01*
X214722Y149159D01*
X214446Y149104D01*
X214131Y148893D01*
X213920Y148577D01*
X213846Y148205D01*
Y143795D01*
X213920Y143423D01*
X214131Y143107D01*
X214446Y142896D01*
X214819Y142822D01*
X217653D01*
X217713Y142774D01*
Y142063D01*
X219287D01*
Y142535D01*
X219578Y142796D01*
X219642Y142789D01*
Y134736D01*
X219642Y134736D01*
X219728Y134307D01*
X219971Y133943D01*
X226525Y127389D01*
X226410Y127113D01*
X213688D01*
X213498Y127398D01*
X212902Y127796D01*
X212200Y127935D01*
X211498Y127796D01*
X210902Y127398D01*
X210712Y127113D01*
X210035D01*
Y137984D01*
X209958Y138374D01*
X209737Y138705D01*
X196740Y151702D01*
X196854Y151978D01*
X212960D01*
Y150795D01*
D02*
G37*
G36*
X224902Y151702D02*
X225498Y151304D01*
X226200Y151165D01*
X226902Y151304D01*
X227481Y151691D01*
X227657Y151654D01*
X227780Y151617D01*
Y141600D01*
X227858Y141210D01*
X228079Y140879D01*
X229979Y138979D01*
X230310Y138758D01*
X230700Y138680D01*
X238300D01*
X238690Y138758D01*
X239021Y138979D01*
X241189Y141147D01*
X246853D01*
Y148253D01*
X247030Y148478D01*
X247200D01*
X247200Y148478D01*
X247629Y148564D01*
X247993Y148807D01*
X248907Y149721D01*
X249172Y149563D01*
X249304Y148898D01*
X249702Y148302D01*
X249980Y148116D01*
Y136200D01*
X250058Y135810D01*
X250279Y135479D01*
X253679Y132079D01*
X254010Y131858D01*
X254400Y131780D01*
X272416D01*
X272602Y131502D01*
X273198Y131104D01*
X273628Y131019D01*
X273599Y130720D01*
X248022D01*
X246921Y131821D01*
X246590Y132042D01*
X246200Y132120D01*
X241784D01*
X241598Y132398D01*
X241002Y132796D01*
X240300Y132935D01*
X239598Y132796D01*
X239002Y132398D01*
X238604Y131802D01*
X238465Y131100D01*
X238604Y130398D01*
X239002Y129802D01*
X239598Y129404D01*
X239859Y129352D01*
Y129048D01*
X239598Y128996D01*
X239002Y128598D01*
X238604Y128002D01*
X238465Y127300D01*
X238311Y127113D01*
X229973D01*
X221885Y135201D01*
Y142822D01*
X222181D01*
X222553Y142896D01*
X222869Y143107D01*
X223080Y143423D01*
X223154Y143795D01*
Y148205D01*
X223080Y148577D01*
X222869Y148893D01*
X222553Y149104D01*
X222181Y149178D01*
X220173D01*
Y149774D01*
X220232Y149822D01*
X223067D01*
X223439Y149896D01*
X223755Y150107D01*
X223966Y150423D01*
X224040Y150795D01*
Y151878D01*
X224785D01*
X224902Y151702D01*
D02*
G37*
G36*
X333524Y284835D02*
Y256363D01*
X333225Y256334D01*
X333149Y256715D01*
X332575Y257575D01*
X331276Y258873D01*
X331075Y259174D01*
X330215Y259749D01*
X329200Y259951D01*
X328186Y259749D01*
X327326Y259174D01*
X326751Y258314D01*
X326549Y257300D01*
Y257200D01*
X326751Y256186D01*
X327326Y255326D01*
X328049Y254602D01*
Y195409D01*
X327763Y195322D01*
X327615Y195543D01*
X326896Y196023D01*
X326047Y196192D01*
X322898D01*
X322049Y196023D01*
X321330Y195543D01*
X320849Y194823D01*
X320680Y193975D01*
X320849Y193126D01*
X321330Y192407D01*
X322049Y191926D01*
X322898Y191757D01*
X326047D01*
X326896Y191926D01*
X327615Y192407D01*
X327763Y192628D01*
X328049Y192541D01*
Y167259D01*
X327763Y167172D01*
X327615Y167393D01*
X326896Y167874D01*
X326047Y168043D01*
X322898D01*
X322049Y167874D01*
X321330Y167393D01*
X320849Y166674D01*
X320680Y165825D01*
X320849Y164977D01*
X321330Y164257D01*
X322049Y163777D01*
X322898Y163608D01*
X326047D01*
X326896Y163777D01*
X327615Y164257D01*
X327763Y164478D01*
X328049Y164391D01*
Y151698D01*
X325002Y148651D01*
X302200D01*
X301185Y148449D01*
X300325Y147874D01*
X299751Y147014D01*
X299712Y146822D01*
X291515D01*
X291398Y146998D01*
X290802Y147396D01*
X290100Y147535D01*
X289398Y147396D01*
X289084Y147186D01*
X288820Y147327D01*
Y154300D01*
X288742Y154690D01*
X288521Y155021D01*
X287620Y155922D01*
Y177900D01*
X287542Y178290D01*
X287321Y178621D01*
X286720Y179222D01*
Y193500D01*
X286642Y193890D01*
X286421Y194221D01*
X284421Y196221D01*
X284090Y196442D01*
X283700Y196520D01*
X279522D01*
X276074Y199968D01*
X275743Y200189D01*
X275353Y200267D01*
X273231D01*
X273045Y200545D01*
X272450Y200943D01*
X271961Y201040D01*
X271896Y201198D01*
X272035Y201900D01*
X271896Y202602D01*
X271498Y203198D01*
X270902Y203596D01*
X270200Y203735D01*
X269992Y203694D01*
X268793Y204893D01*
X268429Y205136D01*
X268000Y205222D01*
X268000Y205222D01*
X255900D01*
X255471Y205136D01*
X255107Y204893D01*
X255107Y204893D01*
X251807Y201593D01*
X251564Y201229D01*
X251478Y200800D01*
X251479Y200800D01*
Y179000D01*
X251478Y179000D01*
X251564Y178571D01*
X251807Y178207D01*
X252179Y177835D01*
Y176365D01*
X251235Y175422D01*
X249600D01*
X249600Y175422D01*
X249171Y175336D01*
X248807Y175093D01*
X248807Y175093D01*
X246801Y173088D01*
X246548Y173257D01*
X246761Y173773D01*
X246883Y174700D01*
X246761Y175627D01*
X246403Y176492D01*
X245834Y177234D01*
X245092Y177803D01*
X244227Y178161D01*
X243300Y178283D01*
X242373Y178161D01*
X241600Y177841D01*
X238721Y180721D01*
X238390Y180942D01*
X238000Y181020D01*
X234480D01*
X234421Y181319D01*
X235092Y181597D01*
X235834Y182166D01*
X236403Y182908D01*
X236761Y183773D01*
X236883Y184700D01*
X236761Y185627D01*
X236403Y186492D01*
X235834Y187234D01*
X235092Y187803D01*
X234227Y188161D01*
X233300Y188283D01*
X232373Y188161D01*
X231508Y187803D01*
X230766Y187234D01*
X230197Y186492D01*
X229839Y185627D01*
X229717Y184700D01*
X229839Y183773D01*
X229877Y183680D01*
X229628Y183514D01*
X227021Y186121D01*
X226690Y186342D01*
X226300Y186420D01*
X220600D01*
X220210Y186342D01*
X219879Y186121D01*
X212379Y178621D01*
X212158Y178290D01*
X212080Y177900D01*
Y175622D01*
X206278Y169820D01*
X195422D01*
X191720Y173522D01*
Y186420D01*
X191642Y186810D01*
X191421Y187141D01*
X190741Y187821D01*
X190410Y188042D01*
X190020Y188120D01*
X172800D01*
X172410Y188042D01*
X172079Y187821D01*
X168478Y184220D01*
X164722D01*
X159720Y189222D01*
Y192700D01*
X159642Y193090D01*
X159421Y193421D01*
X154821Y198021D01*
X154490Y198242D01*
X154100Y198320D01*
X146622D01*
X146384Y198558D01*
X146296Y199002D01*
X145898Y199598D01*
X145302Y199996D01*
X144600Y200135D01*
X143898Y199996D01*
X143302Y199598D01*
X142904Y199002D01*
X142765Y198300D01*
X142904Y197598D01*
X143158Y197219D01*
X142998Y196920D01*
X141322D01*
X139321Y198921D01*
X139023Y199120D01*
X138978Y199188D01*
X138906Y199464D01*
X139196Y199898D01*
X139335Y200600D01*
X139196Y201302D01*
X138798Y201898D01*
X138202Y202296D01*
X137500Y202435D01*
X136798Y202296D01*
X136202Y201898D01*
X135804Y201302D01*
X135665Y200600D01*
X135804Y199898D01*
X136058Y199519D01*
X135898Y199220D01*
X135122D01*
X134221Y200121D01*
X133890Y200342D01*
X133500Y200420D01*
X125705D01*
X125562Y200633D01*
X124967Y201031D01*
X124265Y201171D01*
X123562Y201031D01*
X122967Y200633D01*
X122569Y200038D01*
X122429Y199335D01*
X122504Y198961D01*
X122228Y198814D01*
X118620Y202422D01*
Y209700D01*
X118542Y210090D01*
X118321Y210421D01*
X117114Y211628D01*
X117179Y211956D01*
X117040Y212658D01*
X116965Y212770D01*
X117198Y212961D01*
X119679Y210479D01*
X120010Y210258D01*
X120400Y210180D01*
X144478D01*
X146359Y208299D01*
Y202221D01*
X146437Y201831D01*
X146658Y201500D01*
X146730Y201428D01*
X146665Y201100D01*
X146804Y200398D01*
X147202Y199802D01*
X147798Y199404D01*
X148500Y199265D01*
X149202Y199404D01*
X149798Y199802D01*
X150196Y200398D01*
X150335Y201100D01*
X150196Y201802D01*
X149798Y202398D01*
X149202Y202796D01*
X148500Y202935D01*
X148398Y203019D01*
Y208721D01*
X148321Y209111D01*
X148100Y209442D01*
X145621Y211921D01*
X145290Y212142D01*
X144900Y212220D01*
X138085D01*
X137961Y212519D01*
X142122Y216680D01*
X144012D01*
X144102Y216381D01*
X143813Y216188D01*
X143415Y215592D01*
X143275Y214890D01*
X143415Y214187D01*
X143813Y213592D01*
X144408Y213194D01*
X145110Y213054D01*
X145813Y213194D01*
X146408Y213592D01*
X146806Y214187D01*
X146946Y214890D01*
X146806Y215592D01*
X146408Y216188D01*
X146118Y216381D01*
X146209Y216680D01*
X147611D01*
X147843Y216408D01*
X147812Y216253D01*
X147952Y215550D01*
X148349Y214955D01*
X148945Y214557D01*
X149647Y214418D01*
X150350Y214557D01*
X150945Y214955D01*
X151343Y215550D01*
X151482Y216253D01*
X151343Y216955D01*
X150945Y217550D01*
X150350Y217948D01*
X149647Y218088D01*
X149319Y218023D01*
X148921Y218421D01*
X148590Y218642D01*
X148200Y218720D01*
X141700D01*
X141310Y218642D01*
X140979Y218421D01*
X136578Y214020D01*
X123722D01*
X120320Y217422D01*
Y227900D01*
X120242Y228290D01*
X120021Y228621D01*
X118020Y230622D01*
Y237873D01*
X118070Y237880D01*
X119068Y238293D01*
X119924Y238950D01*
X120581Y239806D01*
X120994Y240804D01*
X121135Y241874D01*
X120994Y242944D01*
X120581Y243942D01*
X119924Y244798D01*
X119068Y245455D01*
X118070Y245868D01*
X117000Y246009D01*
X115930Y245868D01*
X114932Y245455D01*
X114076Y244798D01*
X113519Y244072D01*
X113220Y244174D01*
Y247300D01*
X113142Y247690D01*
X112921Y248021D01*
X111421Y249521D01*
X111090Y249742D01*
X110700Y249820D01*
X105222D01*
X103720Y251322D01*
Y263187D01*
X103642Y263577D01*
X103421Y263908D01*
X100957Y266371D01*
X101277Y267143D01*
X101399Y268071D01*
X101277Y268998D01*
X100919Y269863D01*
X100350Y270605D01*
X99607Y271174D01*
X98743Y271532D01*
X97816Y271654D01*
X96888Y271532D01*
X96024Y271174D01*
X95282Y270605D01*
X94712Y269863D01*
X94354Y268998D01*
X94232Y268071D01*
X94354Y267143D01*
X94712Y266279D01*
X95282Y265537D01*
X96024Y264967D01*
X96888Y264610D01*
X97816Y264487D01*
X98743Y264610D01*
X99515Y264929D01*
X101680Y262764D01*
Y258482D01*
X101588Y258221D01*
X101588Y258221D01*
Y258221D01*
X101381Y258207D01*
X101379Y258226D01*
X101277Y258998D01*
X100919Y259862D01*
X100350Y260605D01*
X99607Y261174D01*
X98743Y261532D01*
X97816Y261654D01*
X96888Y261532D01*
X96116Y261212D01*
X93308Y264021D01*
X92977Y264242D01*
X92587Y264320D01*
X88794D01*
X88743Y264610D01*
X89608Y264967D01*
X90350Y265537D01*
X90919Y266279D01*
X91277Y267143D01*
X91399Y268071D01*
X91277Y268998D01*
X90919Y269863D01*
X90350Y270605D01*
X89608Y271174D01*
X88743Y271532D01*
X87816Y271654D01*
X86888Y271532D01*
X86024Y271174D01*
X85282Y270605D01*
X84712Y269863D01*
X84354Y268998D01*
X84232Y268071D01*
X84354Y267143D01*
X84712Y266279D01*
X85282Y265537D01*
X86024Y264967D01*
X86888Y264610D01*
X86838Y264320D01*
X78794D01*
X78743Y264610D01*
X79607Y264967D01*
X80350Y265537D01*
X80919Y266279D01*
X81277Y267143D01*
X81399Y268071D01*
X81277Y268998D01*
X80919Y269863D01*
X80350Y270605D01*
X79607Y271174D01*
X78743Y271532D01*
X77816Y271654D01*
X76888Y271532D01*
X76024Y271174D01*
X75282Y270605D01*
X74712Y269863D01*
X74354Y268998D01*
X74232Y268071D01*
X74354Y267143D01*
X74712Y266279D01*
X75282Y265537D01*
X76024Y264967D01*
X76888Y264610D01*
X76838Y264320D01*
X67772D01*
X67681Y264619D01*
X67921Y264779D01*
X71247Y268105D01*
X71398Y268004D01*
X72100Y267865D01*
X72802Y268004D01*
X73398Y268402D01*
X73796Y268998D01*
X73935Y269700D01*
X73796Y270402D01*
X73398Y270998D01*
X72802Y271396D01*
X72100Y271535D01*
X71398Y271396D01*
X70802Y270998D01*
X70404Y270402D01*
X70341Y270083D01*
X66778Y266520D01*
X28500D01*
X28110Y266442D01*
X27779Y266221D01*
X23479Y261921D01*
X23258Y261590D01*
X23180Y261200D01*
Y230500D01*
X23258Y230110D01*
X23479Y229779D01*
X26640Y226618D01*
X26971Y226397D01*
X27361Y226319D01*
X27416D01*
X27423Y226268D01*
X27836Y225271D01*
X28493Y224414D01*
X29350Y223757D01*
X29925Y223519D01*
X29866Y223220D01*
X25700D01*
X25310Y223142D01*
X24979Y222921D01*
X22779Y220721D01*
X22558Y220390D01*
X22480Y220000D01*
Y186400D01*
X22558Y186010D01*
X22779Y185679D01*
X33179Y175279D01*
X33510Y175058D01*
X33900Y174980D01*
X133778D01*
X135079Y173679D01*
X135410Y173458D01*
X135800Y173380D01*
X136716D01*
X136902Y173102D01*
X137498Y172704D01*
X138200Y172565D01*
X138902Y172704D01*
X139498Y173102D01*
X139896Y173698D01*
X140035Y174400D01*
X139896Y175102D01*
X139498Y175698D01*
X139419Y175750D01*
Y176050D01*
X139498Y176102D01*
X139896Y176698D01*
X140035Y177400D01*
X139896Y178102D01*
X139498Y178698D01*
X139419Y178750D01*
Y179050D01*
X139498Y179102D01*
X139896Y179698D01*
X140035Y180400D01*
X140009Y180532D01*
X140258Y180698D01*
X140398Y180604D01*
X141100Y180465D01*
X141802Y180604D01*
X141993Y180732D01*
X142326Y180594D01*
X142404Y180198D01*
X142802Y179602D01*
X143398Y179204D01*
X144100Y179065D01*
X144802Y179204D01*
X145398Y179602D01*
X145796Y180198D01*
X145935Y180900D01*
X145796Y181602D01*
X145398Y182198D01*
X144802Y182596D01*
X144100Y182735D01*
X143398Y182596D01*
X143207Y182468D01*
X142874Y182606D01*
X142796Y183002D01*
X142398Y183598D01*
X141802Y183996D01*
X141100Y184135D01*
X140398Y183996D01*
X139802Y183598D01*
X139404Y183002D01*
X139265Y182300D01*
X139291Y182168D01*
X139042Y182002D01*
X138902Y182096D01*
X138200Y182235D01*
X137498Y182096D01*
X136902Y181698D01*
X136716Y181420D01*
X136273D01*
X136158Y181696D01*
X144042Y189580D01*
X146616D01*
X146802Y189302D01*
X147398Y188904D01*
X148100Y188765D01*
X148802Y188904D01*
X149398Y189302D01*
X149796Y189898D01*
X149935Y190600D01*
X149796Y191302D01*
X149398Y191898D01*
X148802Y192296D01*
X148100Y192435D01*
X147398Y192296D01*
X146802Y191898D01*
X146616Y191620D01*
X143620D01*
X143230Y191542D01*
X142899Y191321D01*
X132798Y181220D01*
X112057D01*
X112028Y181519D01*
X112222Y181557D01*
X112834Y181966D01*
X113243Y182578D01*
X113386Y183300D01*
X113243Y184022D01*
X112834Y184634D01*
X112222Y185043D01*
X111500Y185186D01*
X107136D01*
X107107Y185485D01*
X107202Y185504D01*
X107798Y185902D01*
X108196Y186498D01*
X108335Y187200D01*
X108196Y187902D01*
X107798Y188498D01*
X107520Y188684D01*
Y194778D01*
X108622Y195880D01*
X110116D01*
X110302Y195602D01*
X110898Y195204D01*
X111600Y195065D01*
X112302Y195204D01*
X112898Y195602D01*
X113296Y196198D01*
X113435Y196900D01*
X113296Y197602D01*
X112898Y198198D01*
X112302Y198596D01*
X111600Y198735D01*
X110898Y198596D01*
X110302Y198198D01*
X110116Y197920D01*
X108200D01*
X107810Y197842D01*
X107479Y197621D01*
X105779Y195921D01*
X105558Y195590D01*
X105480Y195200D01*
Y188684D01*
X105202Y188498D01*
X104804Y187902D01*
X104665Y187200D01*
X104804Y186498D01*
X105202Y185902D01*
X105798Y185504D01*
X105893Y185485D01*
X105864Y185186D01*
X96081D01*
X90890Y190378D01*
X90985Y191100D01*
X90869Y191976D01*
X90531Y192792D01*
X89994Y193493D01*
X89292Y194031D01*
X88476Y194369D01*
X87600Y194485D01*
X86724Y194369D01*
X85908Y194031D01*
X85207Y193493D01*
X84669Y192792D01*
X84432Y192222D01*
X80956D01*
Y194456D01*
X74244D01*
Y188473D01*
X72213Y186442D01*
X46253D01*
X45434Y186280D01*
X44739Y185815D01*
X44275Y185121D01*
X44112Y184301D01*
X44275Y183482D01*
X44739Y182787D01*
X45434Y182323D01*
X46253Y182160D01*
X73100D01*
X73919Y182323D01*
X74614Y182787D01*
X79214Y187387D01*
X79452Y187744D01*
X80956D01*
Y189978D01*
X84432D01*
X84669Y189408D01*
X85207Y188707D01*
X85908Y188169D01*
X86724Y187830D01*
X87600Y187715D01*
X88146Y187787D01*
X93966Y181966D01*
X94578Y181557D01*
X94772Y181519D01*
X94743Y181220D01*
X44922D01*
X42437Y183705D01*
Y203239D01*
X45517D01*
Y211439D01*
X45450D01*
X45359Y211738D01*
X45421Y211779D01*
X48921Y215279D01*
X49142Y215610D01*
X49220Y216000D01*
Y225100D01*
X49142Y225490D01*
X48921Y225821D01*
X46821Y227921D01*
X46490Y228142D01*
X46100Y228220D01*
X45437D01*
X45412Y228409D01*
X44999Y229406D01*
X44341Y230263D01*
X43485Y230920D01*
X42488Y231333D01*
X41417Y231474D01*
X40347Y231333D01*
X39350Y230920D01*
X38493Y230263D01*
X37836Y229406D01*
X37719Y229123D01*
X37420Y229183D01*
Y231899D01*
X39309Y233788D01*
X39350Y233757D01*
X40347Y233344D01*
X41417Y233203D01*
X42488Y233344D01*
X43485Y233757D01*
X44341Y234414D01*
X44999Y235271D01*
X45412Y236268D01*
X45553Y237339D01*
X45412Y238409D01*
X44999Y239406D01*
X44341Y240263D01*
X43485Y240920D01*
X42488Y241333D01*
X41417Y241474D01*
X40347Y241333D01*
X39350Y240920D01*
X38493Y240263D01*
X37836Y239406D01*
X37423Y238409D01*
X37282Y237339D01*
X37423Y236268D01*
X37836Y235271D01*
X37867Y235230D01*
X35679Y233042D01*
X35458Y232712D01*
X35380Y232321D01*
Y229252D01*
X35087Y229193D01*
X34999Y229406D01*
X34341Y230263D01*
X33485Y230920D01*
X32488Y231333D01*
X31417Y231474D01*
X30347Y231333D01*
X29350Y230920D01*
X28493Y230263D01*
X27836Y229406D01*
X27617Y228877D01*
X27323Y228819D01*
X25220Y230922D01*
Y237915D01*
X25519Y238039D01*
X26940Y236618D01*
X27271Y236397D01*
X27410Y236369D01*
X27423Y236268D01*
X27836Y235271D01*
X28493Y234414D01*
X29350Y233757D01*
X30347Y233344D01*
X31417Y233203D01*
X32488Y233344D01*
X33485Y233757D01*
X34341Y234414D01*
X34999Y235271D01*
X35412Y236268D01*
X35553Y237339D01*
X35412Y238409D01*
X34999Y239406D01*
X34341Y240263D01*
X33485Y240920D01*
X32488Y241333D01*
X31417Y241474D01*
X30347Y241333D01*
X29350Y240920D01*
X28493Y240263D01*
X27836Y239406D01*
X27705Y239089D01*
X27411Y239031D01*
X27120Y239322D01*
Y256279D01*
X27419Y256299D01*
X27423Y256268D01*
X27836Y255271D01*
X28493Y254414D01*
X29350Y253757D01*
X30347Y253344D01*
X31417Y253203D01*
X32488Y253344D01*
X33485Y253757D01*
X34341Y254414D01*
X34999Y255271D01*
X35412Y256268D01*
X35553Y257339D01*
X35412Y258409D01*
X34999Y259406D01*
X34341Y260263D01*
X33485Y260920D01*
X32488Y261333D01*
X31417Y261474D01*
X30347Y261333D01*
X29350Y260920D01*
X28493Y260263D01*
X27836Y259406D01*
X27423Y258409D01*
X27419Y258378D01*
X27120Y258398D01*
Y260178D01*
X29222Y262280D01*
X92164D01*
X94674Y259770D01*
X94354Y258998D01*
X94232Y258071D01*
X94354Y257143D01*
X94712Y256279D01*
X95282Y255537D01*
X96024Y254967D01*
X96888Y254609D01*
X97816Y254487D01*
X98743Y254609D01*
X99607Y254967D01*
X100350Y255537D01*
X100919Y256279D01*
X101277Y257143D01*
X101379Y257916D01*
X101381Y257934D01*
X101588Y257921D01*
Y257921D01*
X101588Y257921D01*
X101680Y257660D01*
Y250900D01*
X101758Y250510D01*
X101979Y250179D01*
X104079Y248079D01*
X104410Y247858D01*
X104800Y247780D01*
X110278D01*
X111180Y246878D01*
Y246240D01*
X111100Y245974D01*
X110881Y245974D01*
X104342D01*
X100395Y249921D01*
X100064Y250142D01*
X99674Y250220D01*
X80122D01*
X78835Y251507D01*
Y254648D01*
X79607Y254967D01*
X80350Y255537D01*
X80919Y256279D01*
X81277Y257143D01*
X81399Y258071D01*
X81277Y258998D01*
X80919Y259862D01*
X80350Y260605D01*
X79607Y261174D01*
X78743Y261532D01*
X77816Y261654D01*
X76888Y261532D01*
X76024Y261174D01*
X75282Y260605D01*
X74712Y259862D01*
X74354Y258998D01*
X74232Y258071D01*
X74354Y257143D01*
X74712Y256279D01*
X75282Y255537D01*
X76024Y254967D01*
X76796Y254648D01*
Y251084D01*
X76874Y250694D01*
X77095Y250363D01*
X78979Y248479D01*
X79310Y248258D01*
X79700Y248180D01*
X99252D01*
X102900Y244532D01*
Y237774D01*
X105980D01*
Y220300D01*
X106058Y219910D01*
X106279Y219579D01*
X113574Y212284D01*
X113509Y211956D01*
X113649Y211253D01*
X114047Y210658D01*
X114642Y210260D01*
X115344Y210121D01*
X115672Y210186D01*
X116580Y209278D01*
Y202000D01*
X116658Y201610D01*
X116879Y201279D01*
X122179Y195979D01*
X122510Y195758D01*
X122900Y195680D01*
X136278D01*
X138379Y193579D01*
X138710Y193358D01*
X139100Y193280D01*
X152598D01*
X154680Y191198D01*
Y186700D01*
X154758Y186310D01*
X154979Y185979D01*
X164379Y176579D01*
X164710Y176358D01*
X165100Y176280D01*
X169100D01*
X169490Y176358D01*
X169821Y176579D01*
X173722Y180480D01*
X178886D01*
X178977Y180181D01*
X178702Y179998D01*
X178304Y179402D01*
X178165Y178700D01*
X178304Y177998D01*
X178369Y177902D01*
Y165500D01*
X178493Y164876D01*
X178847Y164347D01*
X179576Y163617D01*
X179412Y163357D01*
X179100Y163420D01*
X171584D01*
X171398Y163698D01*
X170802Y164096D01*
X170100Y164235D01*
X169398Y164096D01*
X168802Y163698D01*
X168404Y163102D01*
X168265Y162400D01*
X168404Y161698D01*
X168802Y161102D01*
X169398Y160704D01*
X170100Y160565D01*
X170802Y160704D01*
X171398Y161102D01*
X171584Y161380D01*
X178678D01*
X179679Y160379D01*
X180010Y160158D01*
X180400Y160080D01*
X208578D01*
X212279Y156379D01*
X212610Y156158D01*
X213000Y156080D01*
X213028D01*
X213171Y155781D01*
X213034Y155577D01*
X212960Y155205D01*
Y154222D01*
X190865D01*
X187293Y157793D01*
X186929Y158036D01*
X186500Y158122D01*
X186500Y158122D01*
X178815D01*
X178698Y158298D01*
X178102Y158696D01*
X177400Y158835D01*
X176698Y158696D01*
X176102Y158298D01*
X175704Y157702D01*
X175565Y157000D01*
X175704Y156298D01*
X176102Y155702D01*
X176698Y155304D01*
X177400Y155165D01*
X178102Y155304D01*
X178698Y155702D01*
X178815Y155878D01*
X186035D01*
X189018Y152896D01*
X188903Y152620D01*
X177822D01*
X172921Y157521D01*
X172590Y157742D01*
X172200Y157820D01*
X161284D01*
X161098Y158098D01*
X160502Y158496D01*
X159800Y158635D01*
X159472Y158570D01*
X154920Y163122D01*
Y173600D01*
X154842Y173990D01*
X154621Y174321D01*
X153521Y175421D01*
X153190Y175642D01*
X152800Y175720D01*
X145100D01*
X144710Y175642D01*
X144379Y175421D01*
X140078Y171120D01*
X136522D01*
X133321Y174321D01*
X132990Y174542D01*
X132600Y174620D01*
X99300D01*
X98910Y174542D01*
X98579Y174321D01*
X94579Y170321D01*
X94358Y169990D01*
X94280Y169600D01*
Y154922D01*
X89728Y150370D01*
X56678D01*
Y150768D01*
X56726Y150827D01*
X57437D01*
Y154173D01*
X56726D01*
X56678Y154232D01*
Y155028D01*
X58918D01*
X59002Y154902D01*
X59598Y154504D01*
X60300Y154365D01*
X61002Y154504D01*
X61598Y154902D01*
X61996Y155498D01*
X62135Y156200D01*
X61996Y156902D01*
X61598Y157498D01*
X61002Y157896D01*
X60300Y158035D01*
X59598Y157896D01*
X59002Y157498D01*
X58851Y157271D01*
X56637D01*
X56604Y157439D01*
X56393Y157755D01*
X56077Y157966D01*
X55705Y158040D01*
X51295D01*
X50923Y157966D01*
X50607Y157755D01*
X50396Y157439D01*
X50322Y157067D01*
Y154232D01*
X50274Y154173D01*
X49563D01*
Y150827D01*
X50274D01*
X50322Y150768D01*
Y147933D01*
X50396Y147561D01*
X50607Y147245D01*
X50923Y147034D01*
X51295Y146960D01*
X55705D01*
X56077Y147034D01*
X56393Y147245D01*
X56604Y147561D01*
X56678Y147933D01*
Y148331D01*
X90150D01*
X90541Y148408D01*
X90871Y148629D01*
X96021Y153779D01*
X96242Y154110D01*
X96320Y154500D01*
Y169178D01*
X99722Y172580D01*
X132178D01*
X135379Y169379D01*
X135710Y169158D01*
X136100Y169080D01*
X140500D01*
X140890Y169158D01*
X141221Y169379D01*
X145522Y173680D01*
X148454D01*
X148545Y173381D01*
X148049Y173050D01*
X147652Y172455D01*
X147512Y171753D01*
X147652Y171050D01*
X148049Y170455D01*
X148328Y170269D01*
Y163970D01*
X144378Y160020D01*
X119200D01*
X118810Y159942D01*
X118479Y159721D01*
X113779Y155021D01*
X113558Y154690D01*
X113480Y154300D01*
Y139622D01*
X113279Y139421D01*
X113058Y139090D01*
X112980Y138700D01*
Y127113D01*
X112040D01*
Y131105D01*
X111966Y131477D01*
X111755Y131793D01*
X111439Y132004D01*
X111067Y132078D01*
X110320D01*
Y133616D01*
X110598Y133802D01*
X110996Y134398D01*
X111135Y135100D01*
X110996Y135802D01*
X110598Y136398D01*
X110002Y136796D01*
X109300Y136935D01*
X108598Y136796D01*
X108002Y136398D01*
X107604Y135802D01*
X107465Y135100D01*
X107604Y134398D01*
X108002Y133802D01*
X108280Y133616D01*
Y133092D01*
X108173Y132837D01*
X104827D01*
Y132126D01*
X104768Y132078D01*
X101933D01*
X101561Y132004D01*
X101245Y131793D01*
X101034Y131477D01*
X100960Y131105D01*
Y129920D01*
X98454D01*
Y131105D01*
X98380Y131477D01*
X98169Y131793D01*
X97853Y132004D01*
X97481Y132078D01*
X94647D01*
X94587Y132126D01*
Y132837D01*
X93013D01*
Y132126D01*
X92953Y132078D01*
X90119D01*
X89746Y132004D01*
X89431Y131793D01*
X89220Y131477D01*
X89146Y131105D01*
Y127113D01*
X70376D01*
Y144320D01*
X70696Y144798D01*
X70835Y145500D01*
X70696Y146202D01*
X70298Y146798D01*
X69702Y147196D01*
X69000Y147335D01*
X68298Y147196D01*
X67702Y146798D01*
X67304Y146202D01*
X67165Y145500D01*
X67304Y144798D01*
X67624Y144320D01*
Y131165D01*
X67360Y131024D01*
X67102Y131196D01*
X66400Y131335D01*
X65698Y131196D01*
X65102Y130798D01*
X64985Y130622D01*
X64040D01*
Y131705D01*
X63966Y132077D01*
X63755Y132393D01*
X63439Y132604D01*
X63067Y132678D01*
X60232D01*
X60173Y132726D01*
Y133437D01*
X56827D01*
Y132726D01*
X56768Y132678D01*
X54308D01*
X52150Y134836D01*
X51786Y135080D01*
X51357Y135165D01*
X51357Y135165D01*
X45391D01*
X44999Y136111D01*
X44341Y136968D01*
X43485Y137625D01*
X42488Y138038D01*
X41417Y138179D01*
X40347Y138038D01*
X39350Y137625D01*
X38493Y136968D01*
X37836Y136111D01*
X37423Y135114D01*
X37282Y134043D01*
X37423Y132973D01*
X37836Y131976D01*
X38493Y131119D01*
X39350Y130462D01*
X40347Y130049D01*
X41417Y129908D01*
X42488Y130049D01*
X43485Y130462D01*
X44341Y131119D01*
X44999Y131976D01*
X45391Y132922D01*
X50892D01*
X52960Y130854D01*
Y127295D01*
X52810Y127113D01*
X41020D01*
X38020Y130113D01*
X29820Y121913D01*
Y119920D01*
X28722D01*
X27220Y121422D01*
Y132682D01*
X27519Y132741D01*
X27836Y131976D01*
X28493Y131119D01*
X29350Y130462D01*
X30347Y130049D01*
X31417Y129908D01*
X32488Y130049D01*
X33485Y130462D01*
X34341Y131119D01*
X34999Y131976D01*
X35412Y132973D01*
X35553Y134043D01*
X35412Y135114D01*
X34999Y136111D01*
X34341Y136968D01*
X33485Y137625D01*
X32488Y138038D01*
X31417Y138179D01*
X30347Y138038D01*
X29350Y137625D01*
X28493Y136968D01*
X27836Y136111D01*
X27519Y135345D01*
X27220Y135405D01*
Y175000D01*
X27142Y175390D01*
X26921Y175721D01*
X25321Y177321D01*
X24990Y177542D01*
X24600Y177620D01*
X19684D01*
X19498Y177898D01*
X18902Y178296D01*
X18200Y178435D01*
X17498Y178296D01*
X16902Y177898D01*
X16619Y177473D01*
X16320Y177564D01*
Y182078D01*
X16872Y182630D01*
X17200Y182565D01*
X17902Y182704D01*
X18498Y183102D01*
X18896Y183698D01*
X19035Y184400D01*
X18896Y185102D01*
X18498Y185698D01*
X17902Y186096D01*
X17200Y186235D01*
X16498Y186096D01*
X15902Y185698D01*
X15504Y185102D01*
X15365Y184400D01*
X15430Y184072D01*
X14579Y183221D01*
X14358Y182890D01*
X14280Y182500D01*
Y171900D01*
X14358Y171510D01*
X14579Y171179D01*
X16379Y169379D01*
X16710Y169158D01*
X17100Y169080D01*
X21578D01*
X22780Y167878D01*
Y111900D01*
X22858Y111510D01*
X23079Y111179D01*
X26079Y108179D01*
X26410Y107958D01*
X26800Y107880D01*
X29215D01*
X29248Y107816D01*
X29293Y107581D01*
X28493Y106967D01*
X27836Y106111D01*
X27444Y105165D01*
X27243D01*
X27243Y105165D01*
X26814Y105079D01*
X26450Y104836D01*
X24107Y102493D01*
X23864Y102129D01*
X23778Y101700D01*
X23778Y101700D01*
Y91400D01*
X23778Y91400D01*
X23864Y90971D01*
X24107Y90607D01*
X26407Y88307D01*
X26407Y88307D01*
X26771Y88064D01*
X27200Y87978D01*
X27200Y87978D01*
X29422D01*
X29481Y87679D01*
X29350Y87625D01*
X28493Y86967D01*
X27836Y86111D01*
X27423Y85114D01*
X27282Y84043D01*
X27423Y82973D01*
X27836Y81976D01*
X28493Y81119D01*
X29350Y80462D01*
X29820Y80267D01*
Y76413D01*
X5509D01*
X1654Y77804D01*
X1122Y77921D01*
Y78740D01*
Y285035D01*
X2366Y286280D01*
X40768D01*
X40892Y285981D01*
X38906Y283994D01*
X38386Y283217D01*
X38204Y282300D01*
X38204Y282300D01*
Y274994D01*
X38151Y274915D01*
X37949Y273900D01*
X38151Y272885D01*
X38726Y272025D01*
X39586Y271451D01*
X40600Y271249D01*
X41614Y271451D01*
X42474Y272025D01*
X43049Y272885D01*
X43251Y273900D01*
X43049Y274915D01*
X42996Y274994D01*
Y281308D01*
X43844Y282155D01*
X71397D01*
X71457Y281856D01*
X70964Y281652D01*
X70107Y280995D01*
X69450Y280138D01*
X69037Y279141D01*
X68896Y278071D01*
X69037Y277000D01*
X69450Y276003D01*
X70107Y275147D01*
X70964Y274489D01*
X71961Y274076D01*
X73032Y273935D01*
X74102Y274076D01*
X75099Y274489D01*
X75956Y275147D01*
X76613Y276003D01*
X77026Y277000D01*
X77167Y278071D01*
X77026Y279141D01*
X76613Y280138D01*
X75956Y280995D01*
X75099Y281652D01*
X74606Y281856D01*
X74666Y282155D01*
X81397D01*
X81457Y281856D01*
X80964Y281652D01*
X80107Y280995D01*
X79450Y280138D01*
X79037Y279141D01*
X78896Y278071D01*
X79037Y277000D01*
X79450Y276003D01*
X80107Y275147D01*
X80964Y274489D01*
X81961Y274076D01*
X83031Y273935D01*
X84102Y274076D01*
X85099Y274489D01*
X85956Y275147D01*
X86613Y276003D01*
X87026Y277000D01*
X87167Y278071D01*
X87026Y279141D01*
X86613Y280138D01*
X85956Y280995D01*
X85099Y281652D01*
X84606Y281856D01*
X84666Y282155D01*
X91397D01*
X91457Y281856D01*
X90964Y281652D01*
X90107Y280995D01*
X89450Y280138D01*
X89037Y279141D01*
X88896Y278071D01*
X89037Y277000D01*
X89450Y276003D01*
X90107Y275147D01*
X90964Y274489D01*
X91961Y274076D01*
X93032Y273935D01*
X94102Y274076D01*
X95099Y274489D01*
X95956Y275147D01*
X96613Y276003D01*
X97026Y277000D01*
X97167Y278071D01*
X97026Y279141D01*
X96613Y280138D01*
X95956Y280995D01*
X95099Y281652D01*
X94606Y281856D01*
X94666Y282155D01*
X111397D01*
X111457Y281856D01*
X110964Y281652D01*
X110107Y280995D01*
X109450Y280138D01*
X109037Y279141D01*
X108896Y278071D01*
X109037Y277000D01*
X109450Y276003D01*
X110107Y275147D01*
X110964Y274489D01*
X111386Y274315D01*
X111392Y274185D01*
X111340Y274010D01*
X110971Y273936D01*
X110607Y273693D01*
X110607Y273693D01*
X108481Y271567D01*
X107816Y271654D01*
X106888Y271532D01*
X106024Y271174D01*
X105282Y270605D01*
X104712Y269863D01*
X104354Y268998D01*
X104232Y268071D01*
X104354Y267143D01*
X104712Y266279D01*
X105282Y265537D01*
X106024Y264967D01*
X106888Y264610D01*
X107816Y264487D01*
X108743Y264610D01*
X109608Y264967D01*
X110350Y265537D01*
X110919Y266279D01*
X111277Y267143D01*
X111399Y268071D01*
X111277Y268998D01*
X110919Y269863D01*
X110498Y270412D01*
X111865Y271778D01*
X116701D01*
X116761Y271479D01*
X116024Y271174D01*
X115282Y270605D01*
X114712Y269863D01*
X114354Y268998D01*
X114232Y268071D01*
X114354Y267143D01*
X114712Y266279D01*
X115282Y265537D01*
X116024Y264967D01*
X116888Y264610D01*
X117816Y264487D01*
X118743Y264610D01*
X119607Y264967D01*
X120350Y265537D01*
X120919Y266279D01*
X121277Y267143D01*
X121399Y268071D01*
X121277Y268998D01*
X120919Y269863D01*
X120350Y270605D01*
X119607Y271174D01*
X118871Y271479D01*
X118930Y271778D01*
X126701D01*
X126761Y271479D01*
X126024Y271174D01*
X125282Y270605D01*
X124712Y269863D01*
X124354Y268998D01*
X124232Y268071D01*
X124354Y267143D01*
X124712Y266279D01*
X125282Y265537D01*
X126024Y264967D01*
X126888Y264610D01*
X127816Y264487D01*
X128743Y264610D01*
X129607Y264967D01*
X130350Y265537D01*
X130919Y266279D01*
X131277Y267143D01*
X131399Y268071D01*
X131277Y268998D01*
X130919Y269863D01*
X130350Y270605D01*
X129607Y271174D01*
X128871Y271479D01*
X128930Y271778D01*
X136701D01*
X136761Y271479D01*
X136024Y271174D01*
X135282Y270605D01*
X134712Y269863D01*
X134354Y268998D01*
X134232Y268071D01*
X134354Y267143D01*
X134712Y266279D01*
X135282Y265537D01*
X136024Y264967D01*
X136888Y264610D01*
X137816Y264487D01*
X138743Y264610D01*
X139515Y264929D01*
X141680Y262764D01*
Y258482D01*
X141588Y258221D01*
X141588Y258221D01*
Y258221D01*
X141381Y258207D01*
X141379Y258226D01*
X141277Y258998D01*
X140919Y259862D01*
X140350Y260605D01*
X139608Y261174D01*
X138743Y261532D01*
X137816Y261654D01*
X136888Y261532D01*
X136024Y261174D01*
X135282Y260605D01*
X134712Y259862D01*
X134354Y258998D01*
X134232Y258071D01*
X134354Y257143D01*
X134712Y256279D01*
X135282Y255537D01*
X136024Y254967D01*
X136888Y254609D01*
X137816Y254487D01*
X138743Y254609D01*
X139608Y254967D01*
X140350Y255537D01*
X140919Y256279D01*
X141277Y257143D01*
X141379Y257916D01*
X141381Y257934D01*
X141588Y257921D01*
Y257921D01*
X141588Y257921D01*
X141680Y257660D01*
Y255400D01*
X141758Y255010D01*
X141979Y254679D01*
X143779Y252879D01*
X144110Y252658D01*
X144500Y252580D01*
X155316D01*
X155354Y252457D01*
X155391Y252281D01*
X155004Y251702D01*
X154865Y251000D01*
X155004Y250298D01*
X155402Y249702D01*
X155998Y249304D01*
X156700Y249165D01*
X157402Y249304D01*
X157998Y249702D01*
X158396Y250298D01*
X158535Y251000D01*
X158396Y251702D01*
X158009Y252281D01*
X158046Y252457D01*
X158083Y252580D01*
X162978D01*
X168179Y247379D01*
X168510Y247158D01*
X168900Y247080D01*
X174473D01*
X174614Y246816D01*
X174404Y246502D01*
X174265Y245800D01*
X174404Y245098D01*
X174533Y244905D01*
X174392Y244641D01*
X171820D01*
X171000Y244478D01*
X170306Y244014D01*
X170073Y243781D01*
X159047D01*
X153014Y249814D01*
X152319Y250278D01*
X151500Y250441D01*
X146200D01*
X145381Y250278D01*
X144686Y249814D01*
X142686Y247814D01*
X142222Y247119D01*
X142059Y246300D01*
Y237987D01*
X136286Y232214D01*
X135919Y231664D01*
X135620Y231755D01*
Y246200D01*
X135542Y246590D01*
X135321Y246921D01*
X128835Y253407D01*
Y254648D01*
X129607Y254967D01*
X130350Y255537D01*
X130919Y256279D01*
X131277Y257143D01*
X131399Y258071D01*
X131277Y258998D01*
X130919Y259862D01*
X130350Y260605D01*
X129607Y261174D01*
X128743Y261532D01*
X127816Y261654D01*
X126888Y261532D01*
X126024Y261174D01*
X125282Y260605D01*
X124712Y259862D01*
X124354Y258998D01*
X124232Y258071D01*
X124354Y257143D01*
X124712Y256279D01*
X125282Y255537D01*
X126024Y254967D01*
X126796Y254648D01*
Y252984D01*
X126874Y252594D01*
X127095Y252263D01*
X133580Y245778D01*
Y223100D01*
X133658Y222710D01*
X133879Y222379D01*
X136179Y220079D01*
X136510Y219858D01*
X136900Y219780D01*
X152278D01*
X156980Y215078D01*
Y201984D01*
X156702Y201798D01*
X156304Y201202D01*
X156165Y200500D01*
X156304Y199798D01*
X156702Y199202D01*
X157298Y198804D01*
X158000Y198665D01*
X158702Y198804D01*
X159298Y199202D01*
X159696Y199798D01*
X159835Y200500D01*
X159696Y201202D01*
X159298Y201798D01*
X159020Y201984D01*
Y215500D01*
X158942Y215890D01*
X158721Y216221D01*
X153421Y221521D01*
X153090Y221742D01*
X152700Y221820D01*
X137322D01*
X135620Y223522D01*
Y229645D01*
X135919Y229735D01*
X136286Y229186D01*
X136981Y228722D01*
X137800Y228559D01*
X138619Y228722D01*
X139314Y229186D01*
X145714Y235586D01*
X146178Y236281D01*
X146341Y237100D01*
Y242283D01*
X146640Y242443D01*
X146998Y242204D01*
X147111Y242182D01*
X157346Y231946D01*
X157876Y231593D01*
X158500Y231469D01*
X169500D01*
X170124Y231593D01*
X170653Y231946D01*
X176376Y237669D01*
X177161D01*
X177317Y237369D01*
X177004Y236902D01*
X176865Y236200D01*
X177004Y235498D01*
X177402Y234902D01*
X177680Y234716D01*
Y226851D01*
X167791Y216961D01*
X163542D01*
X163356Y217239D01*
X162761Y217637D01*
X162058Y217777D01*
X161356Y217637D01*
X160760Y217239D01*
X160363Y216644D01*
X160223Y215942D01*
X160363Y215239D01*
X160760Y214644D01*
X161356Y214246D01*
X162058Y214106D01*
X162761Y214246D01*
X163356Y214644D01*
X163542Y214922D01*
X168213D01*
X168604Y215000D01*
X168934Y215221D01*
X179421Y225708D01*
X179642Y226038D01*
X179720Y226428D01*
Y234716D01*
X179998Y234902D01*
X180396Y235498D01*
X180475Y235895D01*
X180799Y235994D01*
X182669Y234124D01*
Y216076D01*
X179246Y212653D01*
X178893Y212124D01*
X178769Y211500D01*
Y204431D01*
X167300D01*
X166676Y204307D01*
X166147Y203954D01*
X164169Y201976D01*
X163902Y201798D01*
X163724Y201531D01*
X162747Y200553D01*
X162393Y200024D01*
X162269Y199400D01*
Y197201D01*
X162005Y197060D01*
X161802Y197196D01*
X161100Y197335D01*
X160398Y197196D01*
X159802Y196798D01*
X159404Y196202D01*
X159265Y195500D01*
X159404Y194798D01*
X159802Y194202D01*
X160398Y193804D01*
X161100Y193665D01*
X161802Y193804D01*
X162005Y193940D01*
X162269Y193799D01*
Y192900D01*
X162393Y192276D01*
X162747Y191746D01*
X163257Y191236D01*
X163170Y190950D01*
X162898Y190896D01*
X162302Y190498D01*
X161904Y189902D01*
X161765Y189200D01*
X161904Y188498D01*
X162302Y187902D01*
X162898Y187504D01*
X163600Y187365D01*
X164302Y187504D01*
X164898Y187902D01*
X165296Y188498D01*
X165375Y188895D01*
X165603Y188990D01*
X165698Y188988D01*
X166300Y188869D01*
X191124D01*
X192569Y187424D01*
Y174900D01*
X192693Y174276D01*
X193046Y173747D01*
X195346Y171447D01*
X195876Y171093D01*
X196500Y170969D01*
X201902D01*
X201998Y170904D01*
X202700Y170765D01*
X203402Y170904D01*
X203998Y171302D01*
X204396Y171898D01*
X204535Y172600D01*
X204396Y173302D01*
X203998Y173898D01*
X203402Y174296D01*
X202700Y174435D01*
X201998Y174296D01*
X201902Y174231D01*
X197176D01*
X195831Y175576D01*
Y187808D01*
X196131Y187837D01*
X196246Y187256D01*
X196644Y186661D01*
X197239Y186263D01*
X197942Y186123D01*
X198644Y186263D01*
X199240Y186661D01*
X199357Y186837D01*
X200946D01*
Y185995D01*
X201020Y185623D01*
X201231Y185307D01*
X201547Y185096D01*
X201919Y185022D01*
X204753D01*
X204813Y184974D01*
Y184263D01*
X206387D01*
Y184974D01*
X206447Y185022D01*
X209281D01*
X209653Y185096D01*
X209969Y185307D01*
X210180Y185623D01*
X210254Y185995D01*
Y186378D01*
X214300D01*
X214300Y186378D01*
X214729Y186464D01*
X215093Y186707D01*
X216915Y188529D01*
X217217Y188413D01*
X217239Y188225D01*
X210434Y181420D01*
X210055Y181464D01*
X209969Y181593D01*
X209653Y181804D01*
X209281Y181878D01*
X206447D01*
X206387Y181926D01*
Y182637D01*
X204813D01*
Y181926D01*
X204753Y181878D01*
X201919D01*
X201547Y181804D01*
X201231Y181593D01*
X201020Y181277D01*
X200946Y180905D01*
Y178844D01*
X199437D01*
X199320Y179020D01*
X198724Y179418D01*
X198022Y179557D01*
X197320Y179418D01*
X196724Y179020D01*
X196326Y178424D01*
X196187Y177722D01*
X196326Y177020D01*
X196724Y176424D01*
X197320Y176026D01*
X198022Y175887D01*
X198724Y176026D01*
X199320Y176424D01*
X199437Y176601D01*
X200946D01*
Y176495D01*
X201020Y176123D01*
X201231Y175807D01*
X201547Y175596D01*
X201919Y175522D01*
X204753D01*
X204813Y175474D01*
Y174763D01*
X206387D01*
Y175474D01*
X206447Y175522D01*
X209281D01*
X209653Y175596D01*
X209969Y175807D01*
X210180Y176123D01*
X210254Y176495D01*
Y178068D01*
X219193Y187007D01*
X219436Y187371D01*
X219522Y187800D01*
X219521Y187800D01*
Y240785D01*
X219698Y240902D01*
X220096Y241498D01*
X220235Y242200D01*
X220096Y242902D01*
X219698Y243498D01*
X219455Y243660D01*
X219546Y243959D01*
X219913D01*
X221136Y242736D01*
X221209Y242687D01*
Y220289D01*
X221134Y220177D01*
X221060Y219805D01*
Y215395D01*
X221134Y215023D01*
X221345Y214707D01*
X221661Y214496D01*
X222033Y214422D01*
X224868D01*
X224927Y214374D01*
Y213663D01*
X227863D01*
Y212150D01*
X228007Y211428D01*
X228416Y210817D01*
X229966Y209266D01*
X230578Y208857D01*
X231300Y208714D01*
X240719D01*
X241414Y208019D01*
Y207731D01*
X240766Y207234D01*
X240197Y206492D01*
X239839Y205627D01*
X239717Y204700D01*
X239839Y203773D01*
X240197Y202908D01*
X240766Y202166D01*
X241508Y201597D01*
X242373Y201239D01*
X243300Y201117D01*
X244227Y201239D01*
X245092Y201597D01*
X245834Y202166D01*
X246403Y202908D01*
X246761Y203773D01*
X246883Y204700D01*
X246761Y205627D01*
X246403Y206492D01*
X245834Y207234D01*
X245186Y207731D01*
Y208800D01*
X245043Y209522D01*
X244634Y210134D01*
X242834Y211934D01*
X242222Y212343D01*
X241500Y212486D01*
X232081D01*
X231636Y212932D01*
Y214561D01*
X231855Y214707D01*
X232066Y215023D01*
X232140Y215395D01*
Y219805D01*
X232066Y220177D01*
X231855Y220493D01*
X231539Y220704D01*
X231167Y220778D01*
X228332D01*
X228273Y220826D01*
Y221537D01*
X225491D01*
Y243363D01*
X237314Y255186D01*
X237778Y255881D01*
X237941Y256700D01*
Y262613D01*
X241387Y266059D01*
X255000D01*
X255819Y266222D01*
X256514Y266686D01*
X259214Y269386D01*
X259678Y270081D01*
X259841Y270900D01*
Y283526D01*
X259914Y283635D01*
X260096Y284552D01*
X259914Y285469D01*
X259571Y285981D01*
X259731Y286280D01*
X332080D01*
X333524Y284835D01*
D02*
G37*
G36*
X205196Y135862D02*
Y127113D01*
X190072D01*
X190052Y127213D01*
X189809Y127577D01*
X189809Y127577D01*
X186793Y130593D01*
X186429Y130836D01*
X186000Y130922D01*
X186000Y130922D01*
X166965D01*
X166522Y131365D01*
Y139200D01*
X166522Y139200D01*
X166436Y139629D01*
X166193Y139993D01*
X166193Y139993D01*
X163386Y142800D01*
X164988Y144402D01*
X165502Y144504D01*
X166098Y144902D01*
X166496Y145498D01*
X166635Y146200D01*
X166496Y146902D01*
X166109Y147481D01*
X166146Y147657D01*
X166183Y147780D01*
X193278D01*
X205196Y135862D01*
D02*
G37*
G36*
X217345Y243660D02*
X217102Y243498D01*
X216704Y242902D01*
X216565Y242200D01*
X216704Y241498D01*
X217102Y240902D01*
X217279Y240785D01*
Y238999D01*
X217002Y238884D01*
X216694Y239192D01*
X216735Y239400D01*
X216596Y240102D01*
X216198Y240698D01*
X215602Y241096D01*
X214900Y241235D01*
X214198Y241096D01*
X213602Y240698D01*
X213204Y240102D01*
X213065Y239400D01*
X213204Y238698D01*
X213452Y238327D01*
X213439Y238254D01*
X213300Y238016D01*
X212698Y237896D01*
X212102Y237498D01*
X211704Y236902D01*
X211565Y236200D01*
X211704Y235498D01*
X212102Y234902D01*
X212191Y234843D01*
X212224Y234466D01*
X210779Y233021D01*
X210558Y232690D01*
X210480Y232300D01*
Y231840D01*
X209295D01*
X208923Y231766D01*
X208607Y231555D01*
X208396Y231239D01*
X208322Y230867D01*
Y228032D01*
X208274Y227973D01*
X207563D01*
Y224627D01*
X208274D01*
X208322Y224568D01*
Y221733D01*
X208396Y221361D01*
X208580Y221085D01*
Y219284D01*
X208302Y219098D01*
X207904Y218502D01*
X207765Y217800D01*
X207904Y217098D01*
X208302Y216502D01*
X208898Y216104D01*
X209600Y215965D01*
X210302Y216104D01*
X210898Y216502D01*
X211296Y217098D01*
X211435Y217800D01*
X211296Y218502D01*
X210898Y219098D01*
X210620Y219284D01*
Y220760D01*
X213705D01*
X214077Y220834D01*
X214393Y221045D01*
X214604Y221361D01*
X214678Y221733D01*
Y224568D01*
X214726Y224627D01*
X215378D01*
Y190165D01*
X213835Y188622D01*
X210254D01*
Y190405D01*
X210180Y190777D01*
X209969Y191093D01*
X209653Y191304D01*
X209281Y191378D01*
X206447D01*
X206387Y191426D01*
Y192137D01*
X204813D01*
Y191426D01*
X204753Y191378D01*
X201919D01*
X201547Y191304D01*
X201231Y191093D01*
X201020Y190777D01*
X200946Y190405D01*
Y189080D01*
X199357D01*
X199240Y189256D01*
X198644Y189654D01*
X197942Y189794D01*
X197239Y189654D01*
X196644Y189256D01*
X196246Y188661D01*
X196131Y188079D01*
X195831Y188100D01*
X195707Y188724D01*
X195353Y189253D01*
X192954Y191654D01*
X192424Y192007D01*
X191800Y192131D01*
X179961D01*
X179932Y192430D01*
X180220Y192488D01*
X180551Y192709D01*
X184821Y196979D01*
X185042Y197310D01*
X185120Y197700D01*
Y208516D01*
X185398Y208702D01*
X185796Y209298D01*
X185935Y210000D01*
X185796Y210702D01*
X185398Y211298D01*
X184802Y211696D01*
X184100Y211835D01*
X183398Y211696D01*
X183181Y211551D01*
X182990Y211783D01*
X185453Y214247D01*
X185807Y214776D01*
X185931Y215400D01*
Y234800D01*
X185807Y235424D01*
X185453Y235953D01*
X181325Y240082D01*
X181439Y240359D01*
X205200D01*
X206019Y240522D01*
X206714Y240986D01*
X209687Y243959D01*
X217254D01*
X217345Y243660D01*
D02*
G37*
G36*
X156646Y240126D02*
X157341Y239662D01*
X158160Y239499D01*
X170960D01*
X171779Y239662D01*
X172474Y240126D01*
X172707Y240359D01*
X174061D01*
X174175Y240082D01*
X168824Y234731D01*
X159176D01*
X149418Y244489D01*
X149396Y244602D01*
X148998Y245198D01*
X148402Y245596D01*
X147700Y245735D01*
X146998Y245596D01*
X146844Y245493D01*
X146653Y245725D01*
X147087Y246159D01*
X150613D01*
X156646Y240126D01*
D02*
G37*
G36*
X333524Y149937D02*
Y78136D01*
X332954Y78109D01*
X331815Y77747D01*
X328122Y76013D01*
X298920D01*
X296920Y78013D01*
Y117003D01*
X297077Y117034D01*
X297393Y117245D01*
X297604Y117561D01*
X297678Y117933D01*
Y120768D01*
X297726Y120827D01*
X298437D01*
Y124173D01*
X297726D01*
X297678Y124232D01*
Y127067D01*
X297655Y127179D01*
X297901Y127478D01*
X298635D01*
X299678Y126435D01*
Y120400D01*
X299678Y120400D01*
X299764Y119971D01*
X300007Y119607D01*
X301667Y117947D01*
X301667Y117947D01*
X302031Y117704D01*
X302460Y117619D01*
X308832D01*
X309069Y117048D01*
X309607Y116347D01*
X310308Y115809D01*
X311124Y115471D01*
X312000Y115355D01*
X312876Y115471D01*
X313692Y115809D01*
X314393Y116347D01*
X314931Y117048D01*
X315269Y117864D01*
X315385Y118740D01*
X315269Y119616D01*
X314931Y120432D01*
X314393Y121134D01*
X313692Y121671D01*
X312876Y122010D01*
X312000Y122125D01*
X311124Y122010D01*
X310308Y121671D01*
X309607Y121134D01*
X309069Y120432D01*
X308832Y119862D01*
X302924D01*
X301922Y120865D01*
Y126900D01*
X301836Y127329D01*
X301593Y127693D01*
X301593Y127693D01*
X299893Y129393D01*
X299529Y129636D01*
X299100Y129722D01*
X299100Y129722D01*
X295965D01*
X293293Y132393D01*
X292929Y132636D01*
X292500Y132722D01*
X292500Y132722D01*
X289428D01*
X289287Y132985D01*
X289496Y133298D01*
X289635Y134000D01*
X289496Y134702D01*
X289098Y135298D01*
X288820Y135484D01*
Y144073D01*
X289084Y144214D01*
X289398Y144004D01*
X290100Y143865D01*
X290802Y144004D01*
X291398Y144402D01*
X291515Y144578D01*
X300023D01*
X300325Y144125D01*
X301185Y143551D01*
X302200Y143349D01*
X326100D01*
X327115Y143551D01*
X327975Y144125D01*
X332575Y148725D01*
X333149Y149585D01*
X333225Y149967D01*
X333524Y149937D01*
D02*
G37*
G36*
X264312Y200537D02*
X264265Y200300D01*
X264404Y199598D01*
X264802Y199002D01*
X265398Y198604D01*
X266100Y198465D01*
X266802Y198604D01*
X267398Y199002D01*
X267624Y199341D01*
X268030Y199418D01*
X268078Y199385D01*
Y197100D01*
X268078Y197100D01*
X268164Y196671D01*
X268407Y196307D01*
X271707Y193007D01*
X271707Y193007D01*
X272070Y192764D01*
X272071Y192762D01*
X272070Y192459D01*
X271917Y192429D01*
X271392Y192078D01*
X271042Y191554D01*
X270919Y190936D01*
X271042Y190318D01*
X271392Y189794D01*
X271917Y189444D01*
X272535Y189321D01*
X273153Y189444D01*
X273677Y189794D01*
X274027Y190318D01*
X274150Y190936D01*
X274027Y191554D01*
X273677Y192078D01*
X273226Y192379D01*
X273313Y192678D01*
X276087D01*
X276173Y192379D01*
X275723Y192078D01*
X275373Y191554D01*
X275250Y190936D01*
X275373Y190318D01*
X275723Y189794D01*
X276247Y189444D01*
X276865Y189321D01*
X277484Y189444D01*
X278008Y189794D01*
X278358Y190318D01*
X278481Y190936D01*
X278358Y191554D01*
X278008Y192078D01*
X277557Y192379D01*
X277644Y192678D01*
X280417D01*
X280504Y192379D01*
X280054Y192078D01*
X279704Y191554D01*
X279581Y190936D01*
X279704Y190318D01*
X280054Y189794D01*
X280578Y189444D01*
X281196Y189321D01*
X281814Y189444D01*
X282338Y189794D01*
X282479Y190005D01*
X282779Y189914D01*
Y187627D01*
X282479Y187537D01*
X282338Y187748D01*
X281814Y188098D01*
X281196Y188221D01*
X280578Y188098D01*
X280054Y187748D01*
X279704Y187224D01*
X279581Y186606D01*
X279704Y185987D01*
X280054Y185463D01*
X280578Y185113D01*
X281196Y184990D01*
X281814Y185113D01*
X282338Y185463D01*
X282479Y185674D01*
X282779Y185584D01*
Y183297D01*
X282479Y183206D01*
X282338Y183417D01*
X281814Y183767D01*
X281196Y183890D01*
X280578Y183767D01*
X280054Y183417D01*
X279704Y182893D01*
X279581Y182275D01*
X279704Y181657D01*
X280054Y181133D01*
X280578Y180782D01*
X281196Y180659D01*
X281814Y180782D01*
X282338Y181133D01*
X282479Y181344D01*
X282779Y181253D01*
Y178966D01*
X282479Y178875D01*
X282338Y179086D01*
X281814Y179436D01*
X281196Y179559D01*
X280578Y179436D01*
X280054Y179086D01*
X279704Y178562D01*
X279581Y177944D01*
X279704Y177326D01*
X280054Y176802D01*
X280578Y176452D01*
X281196Y176329D01*
X281814Y176452D01*
X282338Y176802D01*
X282534Y177095D01*
X282852Y177032D01*
X282864Y176971D01*
X283107Y176607D01*
X283979Y175735D01*
Y154400D01*
X283978Y154400D01*
X284064Y153971D01*
X284307Y153607D01*
X284379Y153535D01*
Y132600D01*
X284378Y132600D01*
X284464Y132171D01*
X284707Y131807D01*
X285495Y131019D01*
X285371Y130720D01*
X274201D01*
X274172Y131019D01*
X274602Y131104D01*
X275198Y131502D01*
X275596Y132098D01*
X275735Y132800D01*
X275596Y133502D01*
X275198Y134098D01*
X274602Y134496D01*
X273900Y134635D01*
X273198Y134496D01*
X272602Y134098D01*
X272416Y133820D01*
X254822D01*
X252020Y136622D01*
Y148116D01*
X252298Y148302D01*
X252696Y148898D01*
X252835Y149600D01*
X252696Y150302D01*
X252298Y150898D01*
X251702Y151296D01*
X251025Y151430D01*
X251020Y151434D01*
X250954Y151533D01*
X250868Y151714D01*
X251046Y151980D01*
X251131Y152410D01*
Y169594D01*
X251307Y169712D01*
X251705Y170307D01*
X251845Y171010D01*
X251705Y171712D01*
X251307Y172307D01*
X250712Y172705D01*
X250395Y172768D01*
X250260Y173100D01*
X250314Y173178D01*
X251700D01*
X251700Y173178D01*
X252129Y173264D01*
X252493Y173507D01*
X253804Y174818D01*
X254080Y174703D01*
Y170900D01*
X254158Y170510D01*
X254379Y170179D01*
X256779Y167779D01*
X257110Y167558D01*
X257500Y167480D01*
X257916D01*
X258102Y167202D01*
X258698Y166804D01*
X259400Y166665D01*
X260102Y166804D01*
X260698Y167202D01*
X261096Y167798D01*
X261235Y168500D01*
X261096Y169202D01*
X260698Y169798D01*
X260102Y170196D01*
X259400Y170335D01*
X258698Y170196D01*
X258102Y169798D01*
X258050Y169719D01*
X257752Y169690D01*
X256120Y171322D01*
Y198378D01*
X258522Y200780D01*
X260414D01*
X260574Y200481D01*
X260355Y200153D01*
X260215Y199450D01*
X260355Y198748D01*
X260753Y198153D01*
X260929Y198035D01*
Y191965D01*
X258307Y189343D01*
X258064Y188979D01*
X257978Y188550D01*
X257979Y188549D01*
Y188115D01*
X257802Y187998D01*
X257404Y187402D01*
X257265Y186700D01*
X257404Y185998D01*
X257802Y185402D01*
X258398Y185004D01*
X259100Y184865D01*
X259429Y184930D01*
X262123Y182236D01*
Y168900D01*
X262228Y168373D01*
X262527Y167927D01*
X264827Y165627D01*
X265273Y165328D01*
X265800Y165224D01*
X273620D01*
X274098Y164904D01*
X274800Y164765D01*
X275502Y164904D01*
X276098Y165302D01*
X276496Y165898D01*
X276635Y166600D01*
X276496Y167302D01*
X276098Y167898D01*
X275502Y168296D01*
X274800Y168435D01*
X274098Y168296D01*
X273620Y167976D01*
X266370D01*
X264877Y169470D01*
Y182806D01*
X264877Y182806D01*
X264772Y183333D01*
X264473Y183780D01*
X260685Y187568D01*
X260398Y187998D01*
X260374Y188238D01*
X262843Y190707D01*
X262843Y190707D01*
X263087Y191071D01*
X263172Y191500D01*
X263172Y191500D01*
Y198035D01*
X263348Y198153D01*
X263746Y198748D01*
X263886Y199450D01*
X263746Y200153D01*
X263527Y200481D01*
X263686Y200780D01*
X264099D01*
X264312Y200537D01*
D02*
G37*
G36*
X333005Y66087D02*
X333352Y65249D01*
X333406Y64837D01*
X333455Y64844D01*
X333509Y64571D01*
X333524Y64549D01*
Y2110D01*
X332535Y1122D01*
X330453D01*
X330256Y1347D01*
X330276Y1500D01*
Y3400D01*
X330120Y4584D01*
X329663Y5688D01*
X328936Y6636D01*
X327988Y7363D01*
X326884Y7820D01*
X325700Y7976D01*
X324516Y7820D01*
X323412Y7363D01*
X322464Y6636D01*
X321737Y5688D01*
X321280Y4584D01*
X321124Y3400D01*
Y1500D01*
X321144Y1347D01*
X320947Y1122D01*
X13801D01*
X13603Y1347D01*
X13676Y1900D01*
Y3300D01*
X13520Y4484D01*
X13063Y5588D01*
X12336Y6536D01*
X11388Y7263D01*
X10284Y7720D01*
X9100Y7876D01*
X7916Y7720D01*
X6812Y7263D01*
X5864Y6536D01*
X5137Y5588D01*
X4680Y4484D01*
X4524Y3300D01*
Y1900D01*
X4597Y1347D01*
X4399Y1122D01*
X2465D01*
X1122Y2465D01*
Y63360D01*
X1139Y63363D01*
X1122Y63498D01*
Y64202D01*
X1194Y64749D01*
X1541Y65587D01*
X2093Y66307D01*
X2214Y66400D01*
X72761D01*
X72786Y66102D01*
X71398Y65866D01*
X68104Y64917D01*
X64937Y63605D01*
X61936Y61947D01*
X59140Y59963D01*
X56584Y57679D01*
X54300Y55123D01*
X52316Y52327D01*
X50658Y49327D01*
X49346Y46159D01*
X48397Y42865D01*
X47823Y39486D01*
X47631Y36063D01*
X47823Y32640D01*
X48397Y29261D01*
X49346Y25967D01*
X50658Y22799D01*
X52316Y19799D01*
X54300Y17003D01*
X56584Y14447D01*
X59140Y12163D01*
X61936Y10179D01*
X64937Y8521D01*
X68104Y7209D01*
X71398Y6260D01*
X74777Y5686D01*
X78200Y5494D01*
X81623Y5686D01*
X85002Y6260D01*
X88296Y7209D01*
X91464Y8521D01*
X94464Y10179D01*
X97260Y12163D01*
X99816Y14447D01*
X102100Y17003D01*
X104084Y19799D01*
X105742Y22799D01*
X107054Y25967D01*
X108003Y29261D01*
X108577Y32640D01*
X108769Y36063D01*
X108577Y39486D01*
X108003Y42865D01*
X107054Y46159D01*
X105742Y49327D01*
X104084Y52327D01*
X102100Y55123D01*
X99816Y57679D01*
X97260Y59963D01*
X94464Y61947D01*
X91464Y63605D01*
X88296Y64917D01*
X85002Y65866D01*
X83614Y66102D01*
X83639Y66400D01*
X160116D01*
X160141Y66102D01*
X158752Y65866D01*
X155458Y64917D01*
X152291Y63605D01*
X149291Y61947D01*
X146495Y59963D01*
X143939Y57679D01*
X141654Y55123D01*
X139671Y52327D01*
X138012Y49327D01*
X136700Y46159D01*
X135751Y42865D01*
X135177Y39486D01*
X134985Y36063D01*
X135177Y32640D01*
X135751Y29261D01*
X136700Y25967D01*
X138012Y22799D01*
X139671Y19799D01*
X141654Y17003D01*
X143939Y14447D01*
X146495Y12163D01*
X149291Y10179D01*
X152291Y8521D01*
X155458Y7209D01*
X158752Y6260D01*
X162132Y5686D01*
X165554Y5494D01*
X168977Y5686D01*
X172357Y6260D01*
X175651Y7209D01*
X178818Y8521D01*
X181818Y10179D01*
X184614Y12163D01*
X187170Y14447D01*
X189454Y17003D01*
X191438Y19799D01*
X193096Y22799D01*
X194408Y25967D01*
X195357Y29261D01*
X195931Y32640D01*
X196124Y36063D01*
X195931Y39486D01*
X195357Y42865D01*
X194408Y46159D01*
X193096Y49327D01*
X191438Y52327D01*
X189454Y55123D01*
X187170Y57679D01*
X184614Y59963D01*
X181818Y61947D01*
X178818Y63605D01*
X175651Y64917D01*
X172357Y65866D01*
X170968Y66102D01*
X170993Y66400D01*
X247859D01*
X247884Y66102D01*
X246899Y65934D01*
X243604Y64985D01*
X240437Y63674D01*
X237437Y62015D01*
X234641Y60032D01*
X232085Y57747D01*
X229801Y55191D01*
X227817Y52395D01*
X226159Y49395D01*
X224847Y46228D01*
X223898Y42934D01*
X223324Y39554D01*
X223131Y36132D01*
X223324Y32709D01*
X223898Y29329D01*
X224847Y26035D01*
X226159Y22868D01*
X227817Y19868D01*
X229801Y17072D01*
X232085Y14516D01*
X234641Y12231D01*
X237437Y10248D01*
X240437Y8590D01*
X243604Y7278D01*
X246899Y6329D01*
X250278Y5754D01*
X253701Y5562D01*
X257123Y5754D01*
X260503Y6329D01*
X263797Y7278D01*
X266964Y8590D01*
X269965Y10248D01*
X272761Y12231D01*
X275317Y14516D01*
X277601Y17072D01*
X279585Y19868D01*
X281243Y22868D01*
X282555Y26035D01*
X283504Y29329D01*
X284078Y32709D01*
X284270Y36132D01*
X284078Y39554D01*
X283504Y42934D01*
X282555Y46228D01*
X281243Y49395D01*
X279585Y52395D01*
X277601Y55191D01*
X275317Y57747D01*
X272761Y60032D01*
X269965Y62015D01*
X266964Y63674D01*
X263797Y64985D01*
X260503Y65934D01*
X259518Y66102D01*
X259543Y66400D01*
X332765D01*
X333005Y66087D01*
D02*
G37*
G36*
X217441Y281856D02*
X216948Y281652D01*
X216092Y280995D01*
X215434Y280138D01*
X215021Y279141D01*
X214880Y278071D01*
X215021Y277000D01*
X215434Y276003D01*
X216092Y275147D01*
X216649Y274719D01*
X216548Y274420D01*
X215300D01*
X214910Y274342D01*
X214579Y274121D01*
X211779Y271321D01*
X211558Y270990D01*
X211480Y270600D01*
Y269289D01*
X211181Y269230D01*
X210919Y269863D01*
X210350Y270605D01*
X209608Y271174D01*
X208743Y271532D01*
X207816Y271654D01*
X206888Y271532D01*
X206024Y271174D01*
X205282Y270605D01*
X204712Y269863D01*
X204354Y268998D01*
X204232Y268071D01*
X204354Y267143D01*
X204712Y266279D01*
X205282Y265537D01*
X206024Y264967D01*
X206888Y264610D01*
X207816Y264487D01*
X208743Y264610D01*
X209608Y264967D01*
X210350Y265537D01*
X210919Y266279D01*
X211181Y266912D01*
X211480Y266852D01*
Y259289D01*
X211181Y259230D01*
X210919Y259862D01*
X210350Y260605D01*
X209608Y261174D01*
X208743Y261532D01*
X207816Y261654D01*
X206888Y261532D01*
X206024Y261174D01*
X205282Y260605D01*
X204712Y259862D01*
X204354Y258998D01*
X204232Y258071D01*
X204354Y257143D01*
X204712Y256279D01*
X205282Y255537D01*
X206024Y254967D01*
X206888Y254609D01*
X207816Y254487D01*
X208743Y254609D01*
X209608Y254967D01*
X210350Y255537D01*
X210919Y256279D01*
X211181Y256912D01*
X211480Y256853D01*
Y255922D01*
X204278Y248720D01*
X190564D01*
X190473Y249019D01*
X190898Y249302D01*
X191296Y249898D01*
X191435Y250600D01*
X191296Y251302D01*
X190898Y251898D01*
X190302Y252296D01*
X190233Y252309D01*
X189121Y253421D01*
X188790Y253642D01*
X188400Y253720D01*
X177600D01*
X177210Y253642D01*
X176879Y253421D01*
X173978Y250520D01*
X169922D01*
X168835Y251607D01*
Y254648D01*
X169607Y254967D01*
X170350Y255537D01*
X170919Y256279D01*
X171277Y257143D01*
X171399Y258071D01*
X171277Y258998D01*
X170919Y259862D01*
X170350Y260605D01*
X169607Y261174D01*
X168743Y261532D01*
X167816Y261654D01*
X166888Y261532D01*
X166024Y261174D01*
X165282Y260605D01*
X164712Y259862D01*
X164354Y258998D01*
X164232Y258071D01*
X164354Y257143D01*
X164712Y256279D01*
X165282Y255537D01*
X166024Y254967D01*
X166796Y254648D01*
Y252037D01*
X166520Y251922D01*
X164121Y254321D01*
X163790Y254542D01*
X163400Y254620D01*
X159534D01*
X159476Y254913D01*
X159608Y254967D01*
X160350Y255537D01*
X160919Y256279D01*
X161277Y257143D01*
X161399Y258071D01*
X161277Y258998D01*
X160919Y259862D01*
X160350Y260605D01*
X159608Y261174D01*
X158743Y261532D01*
X157816Y261654D01*
X156888Y261532D01*
X156024Y261174D01*
X155282Y260605D01*
X154712Y259862D01*
X154354Y258998D01*
X154232Y258071D01*
X154354Y257143D01*
X154712Y256279D01*
X155282Y255537D01*
X156024Y254967D01*
X156156Y254913D01*
X156097Y254620D01*
X149534D01*
X149476Y254913D01*
X149608Y254967D01*
X150350Y255537D01*
X150919Y256279D01*
X151277Y257143D01*
X151399Y258071D01*
X151277Y258998D01*
X150919Y259862D01*
X150350Y260605D01*
X149608Y261174D01*
X148743Y261532D01*
X147816Y261654D01*
X146888Y261532D01*
X146024Y261174D01*
X145282Y260605D01*
X144712Y259862D01*
X144354Y258998D01*
X144232Y258071D01*
X144354Y257143D01*
X144712Y256279D01*
X145282Y255537D01*
X146024Y254967D01*
X146156Y254913D01*
X146097Y254620D01*
X144922D01*
X143720Y255822D01*
Y263187D01*
X143642Y263577D01*
X143421Y263908D01*
X140957Y266371D01*
X141277Y267143D01*
X141399Y268071D01*
X141277Y268998D01*
X140919Y269863D01*
X140350Y270605D01*
X139608Y271174D01*
X138871Y271479D01*
X138930Y271778D01*
X146701D01*
X146761Y271479D01*
X146024Y271174D01*
X145282Y270605D01*
X144712Y269863D01*
X144354Y268998D01*
X144232Y268071D01*
X144354Y267143D01*
X144712Y266279D01*
X145282Y265537D01*
X146024Y264967D01*
X146888Y264610D01*
X147816Y264487D01*
X148743Y264610D01*
X149608Y264967D01*
X150350Y265537D01*
X150919Y266279D01*
X151277Y267143D01*
X151399Y268071D01*
X151277Y268998D01*
X150919Y269863D01*
X150350Y270605D01*
X149608Y271174D01*
X148871Y271479D01*
X148930Y271778D01*
X156701D01*
X156761Y271479D01*
X156024Y271174D01*
X155282Y270605D01*
X154712Y269863D01*
X154354Y268998D01*
X154232Y268071D01*
X154354Y267143D01*
X154712Y266279D01*
X155282Y265537D01*
X156024Y264967D01*
X156888Y264610D01*
X157816Y264487D01*
X158743Y264610D01*
X159608Y264967D01*
X160350Y265537D01*
X160919Y266279D01*
X161277Y267143D01*
X161399Y268071D01*
X161277Y268998D01*
X160919Y269863D01*
X160350Y270605D01*
X159608Y271174D01*
X158871Y271479D01*
X158930Y271778D01*
X166701D01*
X166761Y271479D01*
X166024Y271174D01*
X165282Y270605D01*
X164712Y269863D01*
X164354Y268998D01*
X164232Y268071D01*
X164354Y267143D01*
X164712Y266279D01*
X165282Y265537D01*
X166024Y264967D01*
X166888Y264610D01*
X167816Y264487D01*
X168743Y264610D01*
X169607Y264967D01*
X170350Y265537D01*
X170919Y266279D01*
X171277Y267143D01*
X171399Y268071D01*
X171277Y268998D01*
X170919Y269863D01*
X170350Y270605D01*
X169989Y270881D01*
X170116Y271161D01*
X170600Y271065D01*
X171302Y271204D01*
X171898Y271602D01*
X172296Y272198D01*
X172435Y272900D01*
X172296Y273602D01*
X171898Y274198D01*
X171302Y274596D01*
X170600Y274735D01*
X169898Y274596D01*
X169302Y274198D01*
X169185Y274022D01*
X167131D01*
Y282155D01*
X176620D01*
Y281400D01*
X176092Y280995D01*
X175434Y280138D01*
X175021Y279141D01*
X174880Y278071D01*
X175021Y277000D01*
X175434Y276003D01*
X176092Y275147D01*
X176948Y274489D01*
X177945Y274076D01*
X179016Y273935D01*
X180086Y274076D01*
X181083Y274489D01*
X181940Y275147D01*
X182597Y276003D01*
X183010Y277000D01*
X183151Y278071D01*
X183010Y279141D01*
X182597Y280138D01*
X181940Y280995D01*
X181638Y281226D01*
X181612Y281624D01*
X182144Y282155D01*
X207381D01*
X207441Y281856D01*
X206948Y281652D01*
X206092Y280995D01*
X205434Y280138D01*
X205021Y279141D01*
X204880Y278071D01*
X205021Y277000D01*
X205434Y276003D01*
X206092Y275147D01*
X206948Y274489D01*
X207945Y274076D01*
X209016Y273935D01*
X210086Y274076D01*
X211083Y274489D01*
X211940Y275147D01*
X212597Y276003D01*
X213010Y277000D01*
X213151Y278071D01*
X213010Y279141D01*
X212597Y280138D01*
X211940Y280995D01*
X211083Y281652D01*
X210591Y281856D01*
X210650Y282155D01*
X217381D01*
X217441Y281856D01*
D02*
G37*
%LPC*%
G36*
X272535Y183890D02*
X271917Y183767D01*
X271392Y183417D01*
X271042Y182893D01*
X270919Y182275D01*
X271042Y181657D01*
X271392Y181133D01*
X271917Y180782D01*
X272535Y180659D01*
X273153Y180782D01*
X273677Y181133D01*
X274027Y181657D01*
X274150Y182275D01*
X274027Y182893D01*
X273677Y183417D01*
X273153Y183767D01*
X272535Y183890D01*
D02*
G37*
G36*
X276865D02*
X276247Y183767D01*
X275723Y183417D01*
X275373Y182893D01*
X275250Y182275D01*
X275373Y181657D01*
X275723Y181133D01*
X276247Y180782D01*
X276865Y180659D01*
X277484Y180782D01*
X278008Y181133D01*
X278358Y181657D01*
X278481Y182275D01*
X278358Y182893D01*
X278008Y183417D01*
X277484Y183767D01*
X276865Y183890D01*
D02*
G37*
G36*
X268204Y192552D02*
X267586Y192429D01*
X267062Y192078D01*
X266712Y191554D01*
X266589Y190936D01*
X266712Y190318D01*
X267062Y189794D01*
X267586Y189444D01*
X268204Y189321D01*
X268822Y189444D01*
X269346Y189794D01*
X269696Y190318D01*
X269819Y190936D01*
X269696Y191554D01*
X269346Y192078D01*
X268822Y192429D01*
X268204Y192552D01*
D02*
G37*
G36*
X276865Y179559D02*
X276247Y179436D01*
X275723Y179086D01*
X275373Y178562D01*
X275250Y177944D01*
X275373Y177326D01*
X275723Y176802D01*
X276247Y176452D01*
X276865Y176329D01*
X277484Y176452D01*
X278008Y176802D01*
X278358Y177326D01*
X278481Y177944D01*
X278358Y178562D01*
X278008Y179086D01*
X277484Y179436D01*
X276865Y179559D01*
D02*
G37*
G36*
X268204Y183890D02*
X267586Y183767D01*
X267062Y183417D01*
X266712Y182893D01*
X266589Y182275D01*
X266712Y181657D01*
X267062Y181133D01*
X267586Y180782D01*
X268204Y180659D01*
X268822Y180782D01*
X269346Y181133D01*
X269696Y181657D01*
X269819Y182275D01*
X269696Y182893D01*
X269346Y183417D01*
X268822Y183767D01*
X268204Y183890D01*
D02*
G37*
G36*
X243300Y188283D02*
X242373Y188161D01*
X241508Y187803D01*
X240766Y187234D01*
X240197Y186492D01*
X239839Y185627D01*
X239717Y184700D01*
X239839Y183773D01*
X240197Y182908D01*
X240766Y182166D01*
X241508Y181597D01*
X242373Y181239D01*
X243300Y181117D01*
X244227Y181239D01*
X245092Y181597D01*
X245834Y182166D01*
X246403Y182908D01*
X246761Y183773D01*
X246883Y184700D01*
X246761Y185627D01*
X246403Y186492D01*
X245834Y187234D01*
X245092Y187803D01*
X244227Y188161D01*
X243300Y188283D01*
D02*
G37*
G36*
X295700Y220486D02*
X294978Y220343D01*
X294366Y219934D01*
X293957Y219322D01*
X293814Y218600D01*
Y187200D01*
X293864Y186950D01*
X290906Y183992D01*
X290602Y184196D01*
X289900Y184335D01*
X289198Y184196D01*
X288602Y183798D01*
X288204Y183202D01*
X288065Y182500D01*
X288204Y181798D01*
X288602Y181202D01*
X289198Y180804D01*
X289900Y180665D01*
X290602Y180804D01*
X291198Y181202D01*
X291364Y181451D01*
X291429Y181464D01*
X291793Y181707D01*
X295450Y185364D01*
X295700Y185314D01*
X296422Y185457D01*
X297034Y185866D01*
X297443Y186478D01*
X297586Y187200D01*
Y218600D01*
X297443Y219322D01*
X297034Y219934D01*
X296422Y220343D01*
X295700Y220486D01*
D02*
G37*
G36*
X276865Y188221D02*
X276247Y188098D01*
X275723Y187748D01*
X275373Y187224D01*
X275250Y186606D01*
X275373Y185987D01*
X275723Y185463D01*
X276247Y185113D01*
X276865Y184990D01*
X277484Y185113D01*
X278008Y185463D01*
X278358Y185987D01*
X278481Y186606D01*
X278358Y187224D01*
X278008Y187748D01*
X277484Y188098D01*
X276865Y188221D01*
D02*
G37*
G36*
X272535D02*
X271917Y188098D01*
X271392Y187748D01*
X271042Y187224D01*
X270919Y186606D01*
X271042Y185987D01*
X271392Y185463D01*
X271917Y185113D01*
X272535Y184990D01*
X273153Y185113D01*
X273677Y185463D01*
X274027Y185987D01*
X274150Y186606D01*
X274027Y187224D01*
X273677Y187748D01*
X273153Y188098D01*
X272535Y188221D01*
D02*
G37*
G36*
X316126Y190192D02*
X315201Y190008D01*
X314416Y189484D01*
X313892Y188699D01*
X313708Y187774D01*
X313892Y186849D01*
X314416Y186064D01*
X315201Y185540D01*
X316126Y185356D01*
X317051Y185540D01*
X317836Y186064D01*
X318360Y186849D01*
X318544Y187774D01*
X318360Y188699D01*
X317836Y189484D01*
X317051Y190008D01*
X316126Y190192D01*
D02*
G37*
G36*
X238000Y233359D02*
X236998Y233160D01*
X236148Y232592D01*
X235580Y231742D01*
X235381Y230740D01*
X235580Y229738D01*
X236148Y228888D01*
X236859Y228414D01*
Y228066D01*
X236148Y227592D01*
X235580Y226742D01*
X235381Y225740D01*
X235580Y224738D01*
X236148Y223888D01*
X236859Y223414D01*
Y223066D01*
X236148Y222592D01*
X235580Y221742D01*
X235381Y220740D01*
X235580Y219738D01*
X236148Y218888D01*
X236568Y218608D01*
X236477Y218309D01*
X235432D01*
Y213172D01*
X240568D01*
Y218309D01*
X239523D01*
X239432Y218608D01*
X239852Y218888D01*
X240340Y219619D01*
X242095D01*
X244778Y216935D01*
Y213700D01*
X244778Y213700D01*
X244864Y213271D01*
X245107Y212907D01*
X250907Y207107D01*
X250907Y207107D01*
X251271Y206864D01*
X251700Y206778D01*
X251700Y206779D01*
X274535D01*
X280406Y200908D01*
X280365Y200700D01*
X280504Y199998D01*
X280902Y199402D01*
X281498Y199004D01*
X282200Y198865D01*
X282902Y199004D01*
X283498Y199402D01*
X283896Y199998D01*
X284035Y200700D01*
X283968Y201037D01*
X284180Y201248D01*
X284600Y201165D01*
X285302Y201304D01*
X285517Y201448D01*
X285780Y201307D01*
Y197800D01*
X285858Y197410D01*
X286079Y197079D01*
X289380Y193778D01*
Y189284D01*
X289102Y189098D01*
X288704Y188502D01*
X288565Y187800D01*
X288704Y187098D01*
X289102Y186502D01*
X289698Y186104D01*
X290400Y185965D01*
X291102Y186104D01*
X291698Y186502D01*
X292096Y187098D01*
X292235Y187800D01*
X292096Y188502D01*
X291698Y189098D01*
X291420Y189284D01*
Y194200D01*
X291342Y194590D01*
X291121Y194921D01*
X287820Y198222D01*
Y206078D01*
X289021Y207279D01*
X289242Y207610D01*
X289320Y208000D01*
Y211016D01*
X289598Y211202D01*
X289996Y211798D01*
X290135Y212500D01*
X289996Y213202D01*
X289598Y213798D01*
X289002Y214196D01*
X288300Y214335D01*
X287598Y214196D01*
X287002Y213798D01*
X286604Y213202D01*
X286465Y212500D01*
X286604Y211798D01*
X287002Y211202D01*
X287280Y211016D01*
Y208422D01*
X286079Y207221D01*
X285858Y206890D01*
X285780Y206500D01*
Y204694D01*
X285517Y204552D01*
X285302Y204696D01*
X284600Y204835D01*
X284392Y204794D01*
X277393Y211793D01*
X277029Y212036D01*
X276600Y212122D01*
X276600Y212122D01*
X254965D01*
X251922Y215165D01*
Y227100D01*
X251922Y227100D01*
X251836Y227529D01*
X251593Y227893D01*
X251593Y227893D01*
X247953Y231533D01*
X247589Y231776D01*
X247160Y231862D01*
X247160Y231862D01*
X240340D01*
X239852Y232592D01*
X239002Y233160D01*
X238000Y233359D01*
D02*
G37*
G36*
X154800Y182535D02*
X154098Y182396D01*
X153502Y181998D01*
X153416Y181869D01*
X153117D01*
X153098Y181898D01*
X152502Y182296D01*
X151800Y182435D01*
X151098Y182296D01*
X150502Y181898D01*
X150104Y181302D01*
X149965Y180600D01*
X150104Y179898D01*
X150502Y179302D01*
X151098Y178904D01*
X151800Y178765D01*
X152502Y178904D01*
X153098Y179302D01*
X153184Y179431D01*
X153483D01*
X153502Y179402D01*
X154098Y179004D01*
X154800Y178865D01*
X155502Y179004D01*
X156098Y179402D01*
X156496Y179998D01*
X156635Y180700D01*
X156496Y181402D01*
X156098Y181998D01*
X155502Y182396D01*
X154800Y182535D01*
D02*
G37*
G36*
X268204Y188221D02*
X267586Y188098D01*
X267062Y187748D01*
X266712Y187224D01*
X266589Y186606D01*
X266712Y185987D01*
X267062Y185463D01*
X267586Y185113D01*
X268204Y184990D01*
X268822Y185113D01*
X269346Y185463D01*
X269696Y185987D01*
X269819Y186606D01*
X269696Y187224D01*
X269346Y187748D01*
X268822Y188098D01*
X268204Y188221D01*
D02*
G37*
G36*
X272535Y179559D02*
X271917Y179436D01*
X271392Y179086D01*
X271042Y178562D01*
X270919Y177944D01*
X271042Y177326D01*
X271392Y176802D01*
X271917Y176452D01*
X272535Y176329D01*
X273153Y176452D01*
X273677Y176802D01*
X274027Y177326D01*
X274150Y177944D01*
X274027Y178562D01*
X273677Y179086D01*
X273153Y179436D01*
X272535Y179559D01*
D02*
G37*
G36*
X312000Y112125D02*
X311124Y112010D01*
X310308Y111671D01*
X309607Y111134D01*
X309069Y110433D01*
X308731Y109616D01*
X308615Y108740D01*
X308731Y107864D01*
X309069Y107048D01*
X309607Y106347D01*
X310308Y105809D01*
X311124Y105471D01*
X312000Y105355D01*
X312876Y105471D01*
X313692Y105809D01*
X314393Y106347D01*
X314931Y107048D01*
X315269Y107864D01*
X315385Y108740D01*
X315269Y109616D01*
X314931Y110433D01*
X314393Y111134D01*
X313692Y111671D01*
X312876Y112010D01*
X312000Y112125D01*
D02*
G37*
G36*
X322000Y132125D02*
X321124Y132010D01*
X320308Y131672D01*
X319606Y131134D01*
X319069Y130432D01*
X318730Y129616D01*
X318615Y128740D01*
X318730Y127864D01*
X319069Y127048D01*
X319606Y126347D01*
X320308Y125809D01*
X321124Y125471D01*
X322000Y125355D01*
X322876Y125471D01*
X323692Y125809D01*
X324393Y126347D01*
X324931Y127048D01*
X325270Y127864D01*
X325385Y128740D01*
X325270Y129616D01*
X324931Y130432D01*
X324393Y131134D01*
X323692Y131672D01*
X322876Y132010D01*
X322000Y132125D01*
D02*
G37*
G36*
X176060Y137375D02*
X175358Y137236D01*
X174762Y136838D01*
X174364Y136242D01*
X174225Y135540D01*
X174364Y134838D01*
X174762Y134242D01*
X175358Y133844D01*
X176060Y133705D01*
X176762Y133844D01*
X177358Y134242D01*
X177755Y134838D01*
X177895Y135540D01*
X177755Y136242D01*
X177358Y136838D01*
X176762Y137236D01*
X176060Y137375D01*
D02*
G37*
G36*
X322000Y102125D02*
X321124Y102010D01*
X320308Y101672D01*
X319606Y101134D01*
X319069Y100433D01*
X318730Y99616D01*
X318615Y98740D01*
X318730Y97864D01*
X319069Y97048D01*
X319606Y96347D01*
X320308Y95809D01*
X321124Y95471D01*
X322000Y95355D01*
X322876Y95471D01*
X323692Y95809D01*
X324393Y96347D01*
X324931Y97048D01*
X325270Y97864D01*
X325385Y98740D01*
X325270Y99616D01*
X324931Y100433D01*
X324393Y101134D01*
X323692Y101672D01*
X322876Y102010D01*
X322000Y102125D01*
D02*
G37*
G36*
X39370Y20326D02*
X37709Y20162D01*
X36112Y19678D01*
X34639Y18891D01*
X33349Y17832D01*
X32290Y16542D01*
X31503Y15070D01*
X31019Y13472D01*
X30855Y11811D01*
X31019Y10150D01*
X31503Y8552D01*
X32290Y7080D01*
X33349Y5790D01*
X34639Y4731D01*
X36112Y3944D01*
X37709Y3460D01*
X39370Y3296D01*
X41031Y3460D01*
X42629Y3944D01*
X44101Y4731D01*
X45391Y5790D01*
X46450Y7080D01*
X47237Y8552D01*
X47721Y10150D01*
X47885Y11811D01*
X47721Y13472D01*
X47237Y15070D01*
X46450Y16542D01*
X45391Y17832D01*
X44101Y18891D01*
X42629Y19678D01*
X41031Y20162D01*
X39370Y20326D01*
D02*
G37*
G36*
X38598Y64417D02*
X36937Y64253D01*
X35340Y63768D01*
X33868Y62981D01*
X32577Y61923D01*
X31519Y60632D01*
X30732Y59160D01*
X30247Y57563D01*
X30083Y55902D01*
X30247Y54240D01*
X30732Y52643D01*
X31519Y51171D01*
X32577Y49880D01*
X33868Y48822D01*
X35340Y48035D01*
X36937Y47550D01*
X38598Y47387D01*
X40260Y47550D01*
X41857Y48035D01*
X43329Y48822D01*
X44620Y49880D01*
X45678Y51171D01*
X46465Y52643D01*
X46950Y54240D01*
X47113Y55902D01*
X46950Y57563D01*
X46465Y59160D01*
X45678Y60632D01*
X44620Y61923D01*
X43329Y62981D01*
X41857Y63768D01*
X40260Y64253D01*
X38598Y64417D01*
D02*
G37*
G36*
X312000Y102125D02*
X311124Y102010D01*
X310308Y101672D01*
X309607Y101134D01*
X309069Y100433D01*
X308731Y99616D01*
X308615Y98740D01*
X308731Y97864D01*
X309069Y97048D01*
X309607Y96347D01*
X310308Y95809D01*
X311124Y95471D01*
X312000Y95355D01*
X312876Y95471D01*
X313692Y95809D01*
X314393Y96347D01*
X314931Y97048D01*
X315269Y97864D01*
X315385Y98740D01*
X315269Y99616D01*
X314931Y100433D01*
X314393Y101134D01*
X313692Y101672D01*
X312876Y102010D01*
X312000Y102125D01*
D02*
G37*
G36*
X316126Y174444D02*
X315201Y174260D01*
X314416Y173736D01*
X313892Y172951D01*
X313708Y172026D01*
X313892Y171101D01*
X314416Y170316D01*
X315201Y169792D01*
X316126Y169608D01*
X317051Y169792D01*
X317836Y170316D01*
X318360Y171101D01*
X318544Y172026D01*
X318360Y172951D01*
X317836Y173736D01*
X317051Y174260D01*
X316126Y174444D01*
D02*
G37*
G36*
X157221Y173614D02*
X156519Y173474D01*
X155923Y173076D01*
X155526Y172481D01*
X155386Y171779D01*
X155526Y171076D01*
X155923Y170481D01*
X156519Y170083D01*
X157221Y169943D01*
X157924Y170083D01*
X158519Y170481D01*
X158917Y171076D01*
X159056Y171779D01*
X158917Y172481D01*
X158519Y173076D01*
X157924Y173474D01*
X157221Y173614D01*
D02*
G37*
G36*
X268204Y179559D02*
X267586Y179436D01*
X267062Y179086D01*
X266712Y178562D01*
X266589Y177944D01*
X266712Y177326D01*
X267062Y176802D01*
X267586Y176452D01*
X268204Y176329D01*
X268822Y176452D01*
X269346Y176802D01*
X269696Y177326D01*
X269819Y177944D01*
X269696Y178562D01*
X269346Y179086D01*
X268822Y179436D01*
X268204Y179559D01*
D02*
G37*
G36*
X42050Y173591D02*
X41230Y173428D01*
X40536Y172964D01*
X40071Y172269D01*
X39908Y171450D01*
X40071Y170630D01*
X40536Y169936D01*
X41230Y169471D01*
X42050Y169308D01*
X42869Y169471D01*
X43564Y169936D01*
X44028Y170630D01*
X44191Y171450D01*
X44028Y172269D01*
X43564Y172964D01*
X42869Y173428D01*
X42050Y173591D01*
D02*
G37*
G36*
X322000Y142125D02*
X321124Y142010D01*
X320308Y141672D01*
X319606Y141134D01*
X319069Y140433D01*
X318730Y139616D01*
X318615Y138740D01*
X318730Y137864D01*
X318756Y137803D01*
X316384Y135431D01*
X313563D01*
X313504Y135731D01*
X313692Y135809D01*
X314393Y136347D01*
X314931Y137048D01*
X315269Y137864D01*
X315385Y138740D01*
X315269Y139616D01*
X314931Y140433D01*
X314393Y141134D01*
X313692Y141672D01*
X312876Y142010D01*
X312000Y142125D01*
X311124Y142010D01*
X310308Y141672D01*
X309607Y141134D01*
X309069Y140433D01*
X308731Y139616D01*
X308615Y138740D01*
X308731Y137864D01*
X309069Y137048D01*
X309607Y136347D01*
X310308Y135809D01*
X310496Y135731D01*
X310437Y135431D01*
X308176D01*
X305954Y137654D01*
X305424Y138007D01*
X304800Y138131D01*
X302854D01*
Y138705D01*
X302780Y139077D01*
X302569Y139393D01*
X302254Y139604D01*
X301881Y139678D01*
X299046D01*
X298987Y139726D01*
Y140437D01*
X297413D01*
Y132563D01*
X298987D01*
Y133274D01*
X299046Y133322D01*
X301881D01*
X302254Y133396D01*
X302569Y133607D01*
X302780Y133923D01*
X302854Y134295D01*
Y134869D01*
X304124D01*
X306347Y132647D01*
X306876Y132293D01*
X307500Y132169D01*
X310726D01*
X310786Y131869D01*
X310308Y131672D01*
X309607Y131134D01*
X309069Y130432D01*
X308731Y129616D01*
X308615Y128740D01*
X308731Y127864D01*
X309069Y127048D01*
X309607Y126347D01*
X310308Y125809D01*
X311124Y125471D01*
X312000Y125355D01*
X312876Y125471D01*
X313692Y125809D01*
X314393Y126347D01*
X314931Y127048D01*
X315269Y127864D01*
X315385Y128740D01*
X315269Y129616D01*
X314931Y130432D01*
X314393Y131134D01*
X313692Y131672D01*
X313214Y131869D01*
X313274Y132169D01*
X317060D01*
X317684Y132293D01*
X318213Y132647D01*
X321063Y135496D01*
X321124Y135471D01*
X322000Y135355D01*
X322876Y135471D01*
X323692Y135809D01*
X324393Y136347D01*
X324931Y137048D01*
X325270Y137864D01*
X325385Y138740D01*
X325270Y139616D01*
X324931Y140433D01*
X324393Y141134D01*
X323692Y141672D01*
X322876Y142010D01*
X322000Y142125D01*
D02*
G37*
G36*
X312465Y168043D02*
X309315D01*
X308466Y167874D01*
X307747Y167393D01*
X307266Y166674D01*
X307098Y165825D01*
X307266Y164977D01*
X307747Y164257D01*
X308466Y163777D01*
X309315Y163608D01*
X312465D01*
X313313Y163777D01*
X314033Y164257D01*
X314513Y164977D01*
X314682Y165825D01*
X314513Y166674D01*
X314033Y167393D01*
X313313Y167874D01*
X312465Y168043D01*
D02*
G37*
G36*
X132800Y170735D02*
X132098Y170596D01*
X131502Y170198D01*
X131316Y169920D01*
X115400D01*
X115010Y169842D01*
X114679Y169621D01*
X106079Y161021D01*
X105858Y160690D01*
X105780Y160300D01*
Y159258D01*
X105502Y159072D01*
X105104Y158476D01*
X104965Y157774D01*
X105104Y157072D01*
X105502Y156476D01*
X106098Y156079D01*
X106800Y155939D01*
X107502Y156079D01*
X108098Y156476D01*
X108496Y157072D01*
X108635Y157774D01*
X108496Y158476D01*
X108098Y159072D01*
X107820Y159258D01*
Y159878D01*
X110030Y162088D01*
X110294Y161947D01*
X110265Y161800D01*
X110404Y161098D01*
X110802Y160502D01*
X111080Y160316D01*
Y156422D01*
X108678Y154020D01*
X97300D01*
X96910Y153942D01*
X96579Y153721D01*
X84479Y141621D01*
X84258Y141290D01*
X84180Y140900D01*
Y135984D01*
X83902Y135798D01*
X83504Y135202D01*
X83365Y134500D01*
X83504Y133798D01*
X83902Y133202D01*
X84498Y132804D01*
X85200Y132665D01*
X85902Y132804D01*
X86498Y133202D01*
X86896Y133798D01*
X87035Y134500D01*
X86896Y135202D01*
X86498Y135798D01*
X86220Y135984D01*
Y140478D01*
X97722Y151980D01*
X109100D01*
X109490Y152058D01*
X109821Y152279D01*
X112821Y155279D01*
X113042Y155610D01*
X113120Y156000D01*
Y160316D01*
X113398Y160502D01*
X113796Y161098D01*
X113935Y161800D01*
X113796Y162502D01*
X113398Y163098D01*
X112802Y163496D01*
X112100Y163635D01*
X111953Y163606D01*
X111812Y163870D01*
X115822Y167880D01*
X131316D01*
X131502Y167602D01*
X132098Y167204D01*
X132800Y167065D01*
X133502Y167204D01*
X134098Y167602D01*
X134496Y168198D01*
X134635Y168900D01*
X134496Y169602D01*
X134098Y170198D01*
X133502Y170596D01*
X132800Y170735D01*
D02*
G37*
G36*
X107816Y261654D02*
X106888Y261532D01*
X106024Y261174D01*
X105282Y260605D01*
X104712Y259862D01*
X104354Y258998D01*
X104232Y258071D01*
X104354Y257143D01*
X104712Y256279D01*
X105282Y255537D01*
X106024Y254967D01*
X106888Y254609D01*
X107816Y254487D01*
X108743Y254609D01*
X109608Y254967D01*
X110350Y255537D01*
X110919Y256279D01*
X111277Y257143D01*
X111399Y258071D01*
X111277Y258998D01*
X110919Y259862D01*
X110350Y260605D01*
X109608Y261174D01*
X108743Y261532D01*
X107816Y261654D01*
D02*
G37*
G36*
X87816D02*
X86888Y261532D01*
X86024Y261174D01*
X85282Y260605D01*
X84712Y259862D01*
X84354Y258998D01*
X84232Y258071D01*
X84354Y257143D01*
X84712Y256279D01*
X85282Y255537D01*
X86024Y254967D01*
X86888Y254609D01*
X87816Y254487D01*
X88743Y254609D01*
X89608Y254967D01*
X90350Y255537D01*
X90919Y256279D01*
X91277Y257143D01*
X91399Y258071D01*
X91277Y258998D01*
X90919Y259862D01*
X90350Y260605D01*
X89608Y261174D01*
X88743Y261532D01*
X87816Y261654D01*
D02*
G37*
G36*
X177816D02*
X176888Y261532D01*
X176024Y261174D01*
X175282Y260605D01*
X174712Y259862D01*
X174354Y258998D01*
X174232Y258071D01*
X174354Y257143D01*
X174712Y256279D01*
X175282Y255537D01*
X176024Y254967D01*
X176888Y254609D01*
X177816Y254487D01*
X178743Y254609D01*
X179607Y254967D01*
X180350Y255537D01*
X180919Y256279D01*
X181277Y257143D01*
X181399Y258071D01*
X181277Y258998D01*
X180919Y259862D01*
X180350Y260605D01*
X179607Y261174D01*
X178743Y261532D01*
X177816Y261654D01*
D02*
G37*
G36*
X117816D02*
X116888Y261532D01*
X116024Y261174D01*
X115282Y260605D01*
X114712Y259862D01*
X114354Y258998D01*
X114232Y258071D01*
X114354Y257143D01*
X114712Y256279D01*
X115282Y255537D01*
X116024Y254967D01*
X116888Y254609D01*
X117816Y254487D01*
X118743Y254609D01*
X119607Y254967D01*
X120350Y255537D01*
X120919Y256279D01*
X121277Y257143D01*
X121399Y258071D01*
X121277Y258998D01*
X120919Y259862D01*
X120350Y260605D01*
X119607Y261174D01*
X118743Y261532D01*
X117816Y261654D01*
D02*
G37*
G36*
X317500Y253641D02*
X316681Y253478D01*
X315986Y253014D01*
X315522Y252319D01*
X315359Y251500D01*
X315522Y250681D01*
X315986Y249986D01*
X316681Y249522D01*
X317500Y249359D01*
X318319Y249522D01*
X319014Y249986D01*
X319478Y250681D01*
X319641Y251500D01*
X319478Y252319D01*
X319014Y253014D01*
X318319Y253478D01*
X317500Y253641D01*
D02*
G37*
G36*
X94000Y246535D02*
X93298Y246396D01*
X92702Y245998D01*
X92304Y245402D01*
X92165Y244700D01*
X92304Y243998D01*
X92702Y243402D01*
X93298Y243004D01*
X94000Y242865D01*
X94702Y243004D01*
X95298Y243402D01*
X95696Y243998D01*
X95835Y244700D01*
X95696Y245402D01*
X95298Y245998D01*
X94702Y246396D01*
X94000Y246535D01*
D02*
G37*
G36*
X41417Y261474D02*
X40347Y261333D01*
X39350Y260920D01*
X38493Y260263D01*
X37836Y259406D01*
X37423Y258409D01*
X37282Y257339D01*
X37423Y256268D01*
X37836Y255271D01*
X38493Y254414D01*
X39350Y253757D01*
X40347Y253344D01*
X41417Y253203D01*
X42488Y253344D01*
X43485Y253757D01*
X44341Y254414D01*
X44999Y255271D01*
X45412Y256268D01*
X45553Y257339D01*
X45412Y258409D01*
X44999Y259406D01*
X44341Y260263D01*
X43485Y260920D01*
X42488Y261333D01*
X41417Y261474D01*
D02*
G37*
G36*
X290600Y259474D02*
X282400D01*
Y251274D01*
X290600D01*
Y259474D01*
D02*
G37*
G36*
X187816Y261654D02*
X186888Y261532D01*
X186024Y261174D01*
X185282Y260605D01*
X184712Y259862D01*
X184354Y258998D01*
X184232Y258071D01*
X184354Y257143D01*
X184712Y256279D01*
X185282Y255537D01*
X186024Y254967D01*
X186888Y254609D01*
X187816Y254487D01*
X188743Y254609D01*
X189608Y254967D01*
X190350Y255537D01*
X190919Y256279D01*
X191277Y257143D01*
X191399Y258071D01*
X191277Y258998D01*
X190919Y259862D01*
X190350Y260605D01*
X189608Y261174D01*
X188743Y261532D01*
X187816Y261654D01*
D02*
G37*
G36*
X322835Y284106D02*
X321174Y283942D01*
X319576Y283457D01*
X318104Y282670D01*
X316814Y281612D01*
X315755Y280321D01*
X314968Y278849D01*
X314483Y277252D01*
X314320Y275591D01*
X314483Y273929D01*
X314968Y272332D01*
X315755Y270860D01*
X316814Y269569D01*
X318104Y268511D01*
X319576Y267724D01*
X321174Y267239D01*
X322835Y267076D01*
X324496Y267239D01*
X326093Y267724D01*
X327565Y268511D01*
X328856Y269569D01*
X329915Y270860D01*
X330701Y272332D01*
X331186Y273929D01*
X331350Y275591D01*
X331186Y277252D01*
X330701Y278849D01*
X329915Y280321D01*
X328856Y281612D01*
X327565Y282670D01*
X326093Y283457D01*
X324496Y283942D01*
X322835Y284106D01*
D02*
G37*
G36*
X11811D02*
X10150Y283942D01*
X8552Y283457D01*
X7080Y282670D01*
X5790Y281612D01*
X4731Y280321D01*
X3944Y278849D01*
X3460Y277252D01*
X3296Y275591D01*
X3460Y273929D01*
X3944Y272332D01*
X4731Y270860D01*
X5790Y269569D01*
X7080Y268511D01*
X8552Y267724D01*
X10150Y267239D01*
X11811Y267076D01*
X13472Y267239D01*
X15070Y267724D01*
X16542Y268511D01*
X17832Y269569D01*
X18891Y270860D01*
X19678Y272332D01*
X20162Y273929D01*
X20326Y275591D01*
X20162Y277252D01*
X19678Y278849D01*
X18891Y280321D01*
X17832Y281612D01*
X16542Y282670D01*
X15070Y283457D01*
X13472Y283942D01*
X11811Y284106D01*
D02*
G37*
G36*
X285000Y277625D02*
X284124Y277510D01*
X283308Y277171D01*
X282607Y276634D01*
X282069Y275933D01*
X281731Y275116D01*
X281615Y274240D01*
X281731Y273364D01*
X282069Y272548D01*
X282607Y271847D01*
X283308Y271309D01*
X284124Y270971D01*
X285000Y270855D01*
X285876Y270971D01*
X286692Y271309D01*
X287393Y271847D01*
X287931Y272548D01*
X288269Y273364D01*
X288385Y274240D01*
X288269Y275116D01*
X287931Y275933D01*
X287393Y276634D01*
X286692Y277171D01*
X285876Y277510D01*
X285000Y277625D01*
D02*
G37*
G36*
X31400Y276285D02*
X30524Y276169D01*
X29708Y275831D01*
X29006Y275293D01*
X28469Y274592D01*
X28130Y273776D01*
X28015Y272900D01*
X28130Y272024D01*
X28469Y271208D01*
X29006Y270507D01*
X29708Y269969D01*
X30524Y269631D01*
X31400Y269515D01*
X32276Y269631D01*
X33092Y269969D01*
X33794Y270507D01*
X34331Y271208D01*
X34670Y272024D01*
X34785Y272900D01*
X34670Y273776D01*
X34331Y274592D01*
X33794Y275293D01*
X33092Y275831D01*
X32276Y276169D01*
X31400Y276285D01*
D02*
G37*
G36*
X177816Y271654D02*
X176888Y271532D01*
X176024Y271174D01*
X175282Y270605D01*
X174712Y269863D01*
X174354Y268998D01*
X174232Y268071D01*
X174354Y267143D01*
X174712Y266279D01*
X175282Y265537D01*
X176024Y264967D01*
X176888Y264610D01*
X177816Y264487D01*
X178743Y264610D01*
X179607Y264967D01*
X180350Y265537D01*
X180919Y266279D01*
X181277Y267143D01*
X181399Y268071D01*
X181277Y268998D01*
X180919Y269863D01*
X180350Y270605D01*
X179607Y271174D01*
X178743Y271532D01*
X177816Y271654D01*
D02*
G37*
G36*
X267400Y263485D02*
X266524Y263369D01*
X265708Y263031D01*
X265006Y262493D01*
X264469Y261792D01*
X264130Y260976D01*
X264015Y260100D01*
X264130Y259224D01*
X264469Y258408D01*
X265006Y257706D01*
X265708Y257169D01*
X266524Y256831D01*
X267400Y256715D01*
X268276Y256831D01*
X269092Y257169D01*
X269794Y257706D01*
X270331Y258408D01*
X270670Y259224D01*
X270785Y260100D01*
X270670Y260976D01*
X270331Y261792D01*
X269794Y262493D01*
X269092Y263031D01*
X268276Y263369D01*
X267400Y263485D01*
D02*
G37*
G36*
X197816Y271654D02*
X196888Y271532D01*
X196024Y271174D01*
X195282Y270605D01*
X194712Y269863D01*
X194354Y268998D01*
X194232Y268071D01*
X194354Y267143D01*
X194712Y266279D01*
X195282Y265537D01*
X196024Y264967D01*
X196888Y264610D01*
X197816Y264487D01*
X198743Y264610D01*
X199608Y264967D01*
X200350Y265537D01*
X200919Y266279D01*
X201277Y267143D01*
X201399Y268071D01*
X201277Y268998D01*
X200919Y269863D01*
X200350Y270605D01*
X199608Y271174D01*
X198743Y271532D01*
X197816Y271654D01*
D02*
G37*
G36*
X187816D02*
X186888Y271532D01*
X186024Y271174D01*
X185282Y270605D01*
X184712Y269863D01*
X184354Y268998D01*
X184232Y268071D01*
X184354Y267143D01*
X184712Y266279D01*
X185282Y265537D01*
X186024Y264967D01*
X186888Y264610D01*
X187816Y264487D01*
X188743Y264610D01*
X189608Y264967D01*
X190350Y265537D01*
X190919Y266279D01*
X191277Y267143D01*
X191399Y268071D01*
X191277Y268998D01*
X190919Y269863D01*
X190350Y270605D01*
X189608Y271174D01*
X188743Y271532D01*
X187816Y271654D01*
D02*
G37*
G36*
X127250Y207885D02*
X126548Y207746D01*
X125952Y207348D01*
X125554Y206752D01*
X125415Y206050D01*
X125554Y205348D01*
X125952Y204752D01*
X126548Y204354D01*
X127250Y204215D01*
X127952Y204354D01*
X128548Y204752D01*
X128946Y205348D01*
X129085Y206050D01*
X128946Y206752D01*
X128548Y207348D01*
X127952Y207746D01*
X127250Y207885D01*
D02*
G37*
G36*
X122000Y207535D02*
X121298Y207396D01*
X120702Y206998D01*
X120304Y206402D01*
X120165Y205700D01*
X120304Y204998D01*
X120702Y204402D01*
X121298Y204004D01*
X122000Y203865D01*
X122702Y204004D01*
X123298Y204402D01*
X123696Y204998D01*
X123835Y205700D01*
X123696Y206402D01*
X123298Y206998D01*
X122702Y207396D01*
X122000Y207535D01*
D02*
G37*
G36*
X174300Y218335D02*
X173598Y218196D01*
X173002Y217798D01*
X172604Y217202D01*
X172465Y216500D01*
X172604Y215798D01*
X173002Y215202D01*
X173598Y214804D01*
X174300Y214665D01*
X175002Y214804D01*
X175598Y215202D01*
X175996Y215798D01*
X176135Y216500D01*
X175996Y217202D01*
X175598Y217798D01*
X175002Y218196D01*
X174300Y218335D01*
D02*
G37*
G36*
X169600Y212135D02*
X168898Y211996D01*
X168302Y211598D01*
X167904Y211002D01*
X167765Y210300D01*
X167904Y209598D01*
X168302Y209002D01*
X168898Y208604D01*
X169600Y208465D01*
X170302Y208604D01*
X170898Y209002D01*
X171296Y209598D01*
X171435Y210300D01*
X171296Y211002D01*
X170898Y211598D01*
X170302Y211996D01*
X169600Y212135D01*
D02*
G37*
G36*
X233300Y198283D02*
X232373Y198161D01*
X231508Y197803D01*
X230766Y197234D01*
X230197Y196492D01*
X229839Y195627D01*
X229717Y194700D01*
X229839Y193773D01*
X230197Y192908D01*
X230766Y192166D01*
X231508Y191597D01*
X232373Y191239D01*
X233300Y191117D01*
X234227Y191239D01*
X235092Y191597D01*
X235834Y192166D01*
X236403Y192908D01*
X236761Y193773D01*
X236883Y194700D01*
X236761Y195627D01*
X236403Y196492D01*
X235834Y197234D01*
X235092Y197803D01*
X234227Y198161D01*
X233300Y198283D01*
D02*
G37*
G36*
X94200Y193535D02*
X93498Y193396D01*
X92902Y192998D01*
X92504Y192402D01*
X92365Y191700D01*
X92504Y190998D01*
X92902Y190402D01*
X93498Y190004D01*
X94200Y189865D01*
X94902Y190004D01*
X95498Y190402D01*
X95896Y190998D01*
X96035Y191700D01*
X95896Y192402D01*
X95498Y192998D01*
X94902Y193396D01*
X94200Y193535D01*
D02*
G37*
G36*
X233300Y208283D02*
X232373Y208161D01*
X231508Y207803D01*
X230766Y207234D01*
X230197Y206492D01*
X229839Y205627D01*
X229717Y204700D01*
X229839Y203773D01*
X230197Y202908D01*
X230766Y202166D01*
X231508Y201597D01*
X232373Y201239D01*
X233300Y201117D01*
X234227Y201239D01*
X235092Y201597D01*
X235834Y202166D01*
X236403Y202908D01*
X236761Y203773D01*
X236883Y204700D01*
X236761Y205627D01*
X236403Y206492D01*
X235834Y207234D01*
X235092Y207803D01*
X234227Y208161D01*
X233300Y208283D01*
D02*
G37*
G36*
X312465Y196192D02*
X309315D01*
X308466Y196023D01*
X307747Y195543D01*
X307266Y194823D01*
X307098Y193975D01*
X307266Y193126D01*
X307747Y192407D01*
X308466Y191926D01*
X309315Y191757D01*
X312465D01*
X313313Y191926D01*
X314033Y192407D01*
X314513Y193126D01*
X314682Y193975D01*
X314513Y194823D01*
X314033Y195543D01*
X313313Y196023D01*
X312465Y196192D01*
D02*
G37*
G36*
X195500Y238035D02*
X194798Y237896D01*
X194202Y237498D01*
X193804Y236902D01*
X193665Y236200D01*
X193804Y235498D01*
X194202Y234902D01*
X194798Y234504D01*
X195500Y234365D01*
X196202Y234504D01*
X196798Y234902D01*
X196984Y235180D01*
X198578D01*
X199980Y233778D01*
Y231840D01*
X198795D01*
X198423Y231766D01*
X198107Y231555D01*
X197896Y231239D01*
X197822Y230867D01*
Y228032D01*
X197774Y227973D01*
X197063D01*
Y224627D01*
X197774D01*
X197822Y224568D01*
Y221733D01*
X197896Y221361D01*
X198107Y221045D01*
X198423Y220834D01*
X198795Y220760D01*
X199380D01*
Y220084D01*
X199102Y219898D01*
X198704Y219302D01*
X198565Y218600D01*
X198704Y217898D01*
X199102Y217302D01*
X199698Y216904D01*
X200400Y216765D01*
X201102Y216904D01*
X201698Y217302D01*
X202096Y217898D01*
X202235Y218600D01*
X202096Y219302D01*
X201698Y219898D01*
X201420Y220084D01*
Y220760D01*
X203205D01*
X203577Y220834D01*
X203893Y221045D01*
X204104Y221361D01*
X204178Y221733D01*
Y224568D01*
X204226Y224627D01*
X204937D01*
Y227973D01*
X204226D01*
X204178Y228032D01*
Y230867D01*
X204104Y231239D01*
X203893Y231555D01*
X203577Y231766D01*
X203205Y231840D01*
X202020D01*
Y234200D01*
X201942Y234590D01*
X201721Y234921D01*
X199721Y236921D01*
X199390Y237142D01*
X199000Y237220D01*
X196984D01*
X196798Y237498D01*
X196202Y237896D01*
X195500Y238035D01*
D02*
G37*
G36*
X238000Y243359D02*
X236998Y243160D01*
X236148Y242592D01*
X235580Y241742D01*
X235381Y240740D01*
X235580Y239738D01*
X236148Y238888D01*
X236998Y238321D01*
X238000Y238121D01*
X239002Y238321D01*
X239852Y238888D01*
X240340Y239619D01*
X242032D01*
Y238578D01*
X247168D01*
Y243321D01*
X242032D01*
Y241862D01*
X240340D01*
X239852Y242592D01*
X239002Y243160D01*
X238000Y243359D01*
D02*
G37*
G36*
X127000Y246009D02*
X125930Y245868D01*
X124932Y245455D01*
X124076Y244798D01*
X123419Y243942D01*
X123005Y242944D01*
X122865Y241874D01*
X123005Y240804D01*
X123419Y239806D01*
X124076Y238950D01*
X124932Y238293D01*
X125930Y237880D01*
X127000Y237739D01*
X128070Y237880D01*
X129068Y238293D01*
X129924Y238950D01*
X130581Y239806D01*
X130994Y240804D01*
X131135Y241874D01*
X130994Y242944D01*
X130581Y243942D01*
X129924Y244798D01*
X129068Y245455D01*
X128070Y245868D01*
X127000Y246009D01*
D02*
G37*
G36*
X286500Y249509D02*
X285430Y249369D01*
X284432Y248955D01*
X283576Y248298D01*
X282919Y247442D01*
X282505Y246444D01*
X282365Y245374D01*
X282505Y244304D01*
X282919Y243306D01*
X283576Y242450D01*
X284432Y241793D01*
X285430Y241380D01*
X286500Y241239D01*
X287570Y241380D01*
X288568Y241793D01*
X289424Y242450D01*
X290081Y243306D01*
X290494Y244304D01*
X290635Y245374D01*
X290494Y246444D01*
X290081Y247442D01*
X289424Y248298D01*
X288568Y248955D01*
X287570Y249369D01*
X286500Y249509D01*
D02*
G37*
G36*
X69000Y243235D02*
X68298Y243096D01*
X67702Y242698D01*
X67304Y242102D01*
X67165Y241400D01*
X67304Y240698D01*
X67702Y240102D01*
X68298Y239704D01*
X69000Y239565D01*
X69702Y239704D01*
X70298Y240102D01*
X70696Y240698D01*
X70835Y241400D01*
X70696Y242102D01*
X70298Y242698D01*
X69702Y243096D01*
X69000Y243235D01*
D02*
G37*
G36*
X278287Y223937D02*
X276713D01*
Y223226D01*
X276654Y223178D01*
X273819D01*
X273446Y223104D01*
X273131Y222893D01*
X272920Y222577D01*
X272846Y222205D01*
Y219911D01*
X264015D01*
X263898Y220087D01*
X263302Y220485D01*
X262600Y220625D01*
X261898Y220485D01*
X261302Y220087D01*
X260904Y219492D01*
X260765Y218790D01*
X260904Y218087D01*
X261302Y217492D01*
X261898Y217094D01*
X262600Y216954D01*
X263302Y217094D01*
X263898Y217492D01*
X264015Y217668D01*
X272871D01*
X272920Y217423D01*
X273131Y217107D01*
X273446Y216896D01*
X273819Y216822D01*
X276654D01*
X276713Y216774D01*
Y216063D01*
X278287D01*
Y223937D01*
D02*
G37*
G36*
X122800Y221135D02*
X122098Y220996D01*
X121502Y220598D01*
X121104Y220002D01*
X120965Y219300D01*
X121104Y218598D01*
X121502Y218002D01*
X122098Y217604D01*
X122800Y217465D01*
X123502Y217604D01*
X124098Y218002D01*
X124496Y218598D01*
X124635Y219300D01*
X124496Y220002D01*
X124098Y220598D01*
X123502Y220996D01*
X122800Y221135D01*
D02*
G37*
G36*
X286500Y239509D02*
X285430Y239369D01*
X284432Y238955D01*
X283576Y238298D01*
X282919Y237442D01*
X282505Y236444D01*
X282365Y235374D01*
X282505Y234304D01*
X282919Y233306D01*
X283576Y232450D01*
X284432Y231793D01*
X285430Y231380D01*
X286500Y231239D01*
X287570Y231380D01*
X288568Y231793D01*
X289424Y232450D01*
X290081Y233306D01*
X290494Y234304D01*
X290635Y235374D01*
X290494Y236444D01*
X290081Y237442D01*
X289424Y238298D01*
X288568Y238955D01*
X287570Y239369D01*
X286500Y239509D01*
D02*
G37*
G36*
X190600Y232335D02*
X189898Y232196D01*
X189302Y231798D01*
X188904Y231202D01*
X188765Y230500D01*
X188904Y229798D01*
X189302Y229202D01*
X189898Y228804D01*
X190600Y228665D01*
X191302Y228804D01*
X191898Y229202D01*
X192296Y229798D01*
X192435Y230500D01*
X192296Y231202D01*
X191898Y231798D01*
X191302Y232196D01*
X190600Y232335D01*
D02*
G37*
%LPD*%
D10*
X238240Y235500D02*
X244100D01*
D15*
X96064Y128900D02*
D03*
X91536D02*
D03*
X109650D02*
D03*
X103350D02*
D03*
X169850Y122500D02*
D03*
X176150D02*
D03*
X215350Y153000D02*
D03*
X221650D02*
D03*
X229750Y217600D02*
D03*
X223450D02*
D03*
X55350Y81500D02*
D03*
X61650D02*
D03*
X55350Y100500D02*
D03*
X61650D02*
D03*
X55350Y129500D02*
D03*
X61650D02*
D03*
X157236Y122500D02*
D03*
X161764D02*
D03*
X220764Y146000D02*
D03*
X216236D02*
D03*
X275236Y220000D02*
D03*
X279764D02*
D03*
X203336Y178700D02*
D03*
X207864D02*
D03*
X203336Y188200D02*
D03*
X207864D02*
D03*
X60764Y91000D02*
D03*
X56236D02*
D03*
X60764Y110000D02*
D03*
X56236D02*
D03*
X60764Y120000D02*
D03*
X56236D02*
D03*
X295936Y136500D02*
D03*
X300464D02*
D03*
D31*
X244600Y240950D02*
D03*
Y234650D02*
D03*
D38*
X211500Y229450D02*
D03*
Y223150D02*
D03*
X201000Y229450D02*
D03*
Y223150D02*
D03*
X53500Y149350D02*
D03*
Y155650D02*
D03*
X294500Y119350D02*
D03*
Y125650D02*
D03*
X285000Y119350D02*
D03*
Y125650D02*
D03*
D40*
X273900Y132800D02*
X274000D01*
X254400D02*
X273900D01*
X251000Y136200D02*
X254400Y132800D01*
X251000Y136200D02*
Y149600D01*
X172800Y187100D02*
X190020D01*
X168900Y183200D02*
X172800Y187100D01*
X173400Y185700D02*
X188100D01*
X169500Y181800D02*
X173400Y185700D01*
X240821Y127821D02*
X282979D01*
X240300Y127300D02*
X240821Y127821D01*
X282979D02*
X285000Y125800D01*
X247600Y129700D02*
X290700D01*
X246200Y131100D02*
X247600Y129700D01*
X290700D02*
X294500Y125900D01*
X240300Y131100D02*
X246200D01*
X168900Y248100D02*
X175500D01*
X163400Y253600D02*
X168900Y248100D01*
X137816Y268071D02*
X142700Y263187D01*
Y255400D02*
Y263187D01*
Y255400D02*
X144500Y253600D01*
X163400D01*
X175500Y248100D02*
X177300Y249900D01*
X181300D01*
X177600Y252700D02*
X188400D01*
X174400Y249500D02*
X177600Y252700D01*
X169500Y249500D02*
X174400D01*
X212500Y255500D02*
Y270600D01*
X204700Y247700D02*
X212500Y255500D01*
X176100Y245800D02*
X181900D01*
X183800Y247700D01*
X204700D01*
X162500Y148800D02*
X193700D01*
X159900Y146200D02*
X162500Y148800D01*
X176300Y150200D02*
X194400D01*
X172600Y153900D02*
X176300Y150200D01*
X166200Y153900D02*
X172600D01*
X177400Y151600D02*
X195400D01*
X172200Y156800D02*
X177400Y151600D01*
X159800Y156800D02*
X172200D01*
X161764Y122500D02*
Y127836D01*
X159100Y130500D02*
X161764Y127836D01*
X145600Y130500D02*
X159100D01*
X143300Y132800D02*
X145600Y130500D01*
X143300Y132800D02*
Y141200D01*
X149347Y163547D02*
Y171753D01*
X103350Y125450D02*
Y131000D01*
X153900Y162700D02*
Y173600D01*
X136100Y170100D02*
X140500D01*
X145100Y174700D01*
X152800D02*
X153900Y173600D01*
X145100Y174700D02*
X152800D01*
X147379Y202221D02*
Y208721D01*
Y202221D02*
X148500Y201100D01*
X158700Y188800D02*
Y192700D01*
X154100Y197300D02*
X158700Y192700D01*
X145200Y198300D02*
X146200Y197300D01*
X154100D01*
X144600Y198300D02*
X145200D01*
X201000Y229450D02*
Y234200D01*
X114000Y125000D02*
Y138700D01*
X112600Y123600D02*
X114000Y125000D01*
X105200Y123600D02*
X112600D01*
X103350Y125450D02*
X105200Y123600D01*
X91536Y124236D02*
Y128900D01*
X85200Y140900D02*
X97300Y153000D01*
X85200Y134500D02*
Y140900D01*
X61650Y100500D02*
X66300D01*
X68800Y112700D02*
X77000Y120900D01*
X68800Y98800D02*
Y112700D01*
X72200Y79700D02*
Y112100D01*
X82300Y122200D01*
X89500D02*
X91536Y124236D01*
X82300Y122200D02*
X89500D01*
X109300Y129700D02*
Y135100D01*
X97100Y128900D02*
X102187D01*
X114500Y139200D02*
Y154300D01*
X114000Y138700D02*
X114500Y139200D01*
X109100Y153000D02*
X112100Y156000D01*
X97300Y153000D02*
X109100D01*
X112100Y156000D02*
Y161800D01*
X42300Y227200D02*
X46100D01*
X48200Y225100D01*
X133800Y178800D02*
X135400Y180400D01*
X138200D01*
X134200Y176000D02*
X135800Y174400D01*
X23500Y186400D02*
X33900Y176000D01*
X134200D01*
X135800Y174400D02*
X138200D01*
X24900Y210100D02*
X27300Y212500D01*
X24900Y186980D02*
Y210100D01*
Y186980D02*
X34480Y177400D01*
X138100D01*
X36400Y224600D02*
Y232321D01*
X34000Y222200D02*
X36400Y224600D01*
X25700Y222200D02*
X34000D01*
X23500Y220000D02*
X25700Y222200D01*
X23500Y186400D02*
Y220000D01*
X36400Y232321D02*
X41417Y237339D01*
X144800Y159000D02*
X149347Y163547D01*
X36400Y77000D02*
X40100Y73300D01*
X143700D01*
X153800Y83400D01*
Y93300D01*
X149028Y98072D02*
X153800Y93300D01*
X149016Y98072D02*
X149028D01*
X97500Y83000D02*
Y89800D01*
X94000Y93300D02*
X97500Y89800D01*
X94000Y93300D02*
Y104100D01*
X97972Y108072D01*
X87000Y85700D02*
X95200D01*
X84200Y88500D02*
X87000Y85700D01*
X84200Y88500D02*
Y104600D01*
X87672Y108072D01*
X89016D01*
X36400Y100100D02*
Y107000D01*
X15300Y182500D02*
X17200Y184400D01*
X15300Y171900D02*
Y182500D01*
Y171900D02*
X17100Y170100D01*
X22000D01*
X23800Y168300D01*
Y111900D02*
Y168300D01*
Y111900D02*
X26800Y108900D01*
X34500D01*
X36400Y107000D01*
Y100100D02*
X37400Y99100D01*
X46900D01*
X50600Y95400D01*
X58824D01*
X60764Y93461D01*
Y91000D02*
Y93461D01*
X18200Y176600D02*
X24600D01*
X26200Y175000D01*
Y121000D02*
Y175000D01*
Y121000D02*
X28300Y118900D01*
X46500D01*
X50300Y115100D01*
X59200D01*
X60764Y113536D01*
Y110000D02*
Y113536D01*
X116800Y146400D02*
X117700Y145500D01*
Y138041D02*
Y145500D01*
Y138041D02*
X124816Y130925D01*
Y116496D02*
Y130925D01*
X122620Y114300D02*
X124816Y116496D01*
X117700Y114300D02*
X122620D01*
X114200Y110800D02*
X117700Y114300D01*
X114200Y103300D02*
Y110800D01*
Y103300D02*
X119016Y98484D01*
Y98072D02*
Y98484D01*
X117000Y149700D02*
X119400Y147300D01*
Y138321D02*
Y147300D01*
Y138321D02*
X126216Y131505D01*
Y115916D02*
Y131505D01*
X119016Y108716D02*
X126216Y115916D01*
X119016Y108072D02*
Y108716D01*
X117400Y152500D02*
Y153700D01*
Y152500D02*
X120900Y149000D01*
Y138801D02*
Y149000D01*
Y138801D02*
X127616Y132085D01*
Y114116D02*
Y132085D01*
X124100Y110600D02*
X127616Y114116D01*
X124100Y104700D02*
Y110600D01*
Y104700D02*
X129016Y99784D01*
Y98072D02*
Y99784D01*
Y105284D02*
Y132665D01*
X119600Y152700D02*
Y155900D01*
Y152700D02*
X122500Y149800D01*
Y139180D02*
Y149800D01*
Y139180D02*
X129016Y132665D01*
Y105284D02*
X134300Y100000D01*
Y93800D02*
Y100000D01*
Y93800D02*
X139016Y89084D01*
Y88071D02*
Y89084D01*
X122600Y152300D02*
Y155900D01*
Y152300D02*
X124200Y150700D01*
Y139460D02*
Y150700D01*
Y139460D02*
X130500Y133160D01*
Y128040D02*
Y133160D01*
Y128040D02*
X134300Y124240D01*
Y102300D02*
Y124240D01*
Y102300D02*
X138528Y98072D01*
X139016D01*
X125600Y140040D02*
Y155800D01*
Y140040D02*
X132000Y133640D01*
Y128520D02*
Y133640D01*
Y128520D02*
X139016Y121504D01*
Y108072D02*
Y121504D01*
X128600Y153000D02*
Y155700D01*
X127000Y151400D02*
X128600Y153000D01*
X127000Y140620D02*
Y151400D01*
Y140620D02*
X133400Y134220D01*
Y129100D02*
Y134220D01*
Y129100D02*
X141200Y121300D01*
X144500D01*
X146000Y119800D01*
Y113000D02*
Y119800D01*
X144200Y111200D02*
X146000Y113000D01*
X144200Y104500D02*
Y111200D01*
Y104500D02*
X149016Y99684D01*
Y98072D02*
Y99684D01*
X132000Y154100D02*
Y155600D01*
X128500Y150600D02*
X132000Y154100D01*
X128500Y141100D02*
Y150600D01*
Y141100D02*
X134900Y134700D01*
Y129700D02*
Y134700D01*
Y129700D02*
X141800Y122800D01*
X147000D01*
X148000Y121800D01*
Y116400D02*
Y121800D01*
Y116400D02*
X149016Y115384D01*
Y108072D02*
Y115384D01*
X130000Y149900D02*
X135300Y155200D01*
X130000Y142120D02*
Y149900D01*
Y142120D02*
X136500Y135620D01*
Y130200D02*
Y135620D01*
Y130200D02*
X142500Y124200D01*
X148400D01*
X149500Y123100D01*
Y116920D02*
Y123100D01*
Y116920D02*
X154100Y112320D01*
Y102800D02*
Y112320D01*
Y102800D02*
X158828Y98072D01*
X159016D01*
X138300Y154400D02*
Y155600D01*
X137400Y153500D02*
X138300Y154400D01*
X136000Y153500D02*
X137400D01*
X131700Y149200D02*
X136000Y153500D01*
X131700Y142400D02*
Y149200D01*
Y142400D02*
X137900Y136200D01*
Y130800D02*
Y136200D01*
Y130800D02*
X143100Y125600D01*
X149300D01*
X150900Y124000D01*
Y117500D02*
Y124000D01*
Y117500D02*
X159016Y109384D01*
Y108072D02*
Y109384D01*
X139300Y131400D02*
X143700Y127000D01*
X141473Y152973D02*
Y155627D01*
X140300Y151800D02*
X141473Y152973D01*
X136300Y151800D02*
X140300D01*
X133100Y148600D02*
X136300Y151800D01*
X133100Y143400D02*
Y148600D01*
Y143400D02*
X136300Y140200D01*
X138300D01*
X139300Y139200D01*
Y131400D02*
Y139200D01*
X143700Y127000D02*
X151700D01*
X152400Y126300D01*
Y118300D02*
Y126300D01*
Y118300D02*
X156100Y114600D01*
X162600D01*
X164200Y113000D01*
Y104300D02*
Y113000D01*
Y104300D02*
X169016Y99484D01*
Y98072D02*
Y99484D01*
X144600Y151300D02*
Y155500D01*
X143700Y150400D02*
X144600Y151300D01*
X137100Y150400D02*
X143700D01*
X134500Y147800D02*
X137100Y150400D01*
X134500Y144000D02*
Y147800D01*
Y144000D02*
X136900Y141600D01*
X140000D01*
X140900Y140700D01*
Y132200D02*
Y140700D01*
Y132200D02*
X144700Y128400D01*
X152700D01*
X153900Y127200D01*
Y118900D02*
Y127200D01*
Y118900D02*
X156800Y116000D01*
X172400D01*
X174000Y114400D01*
Y105900D02*
Y114400D01*
Y105900D02*
X179016Y100884D01*
Y98072D02*
Y100884D01*
X199016Y108072D02*
Y110716D01*
X206216Y117916D01*
X204100Y102987D02*
X209016Y98072D01*
X204100Y102987D02*
Y112200D01*
X207616Y115716D01*
X271747Y199247D02*
X275353D01*
X279100Y195500D01*
X257500Y168500D02*
X259400D01*
X255100Y170900D02*
X257500Y168500D01*
X255100Y170900D02*
Y198800D01*
X258100Y201800D01*
X264600D01*
X266100Y200300D01*
X283700Y195500D02*
X285700Y193500D01*
Y178800D02*
Y193500D01*
Y178800D02*
X286600Y177900D01*
X279100Y195500D02*
X283700D01*
X287800Y134000D02*
Y154300D01*
X286600Y155500D02*
X287800Y154300D01*
X286600Y155500D02*
Y177900D01*
X221400Y172900D02*
Y180900D01*
Y172900D02*
X222700Y171600D01*
X200400Y218600D02*
Y223150D01*
X209600Y217800D02*
Y223000D01*
X211500Y229450D02*
Y232300D01*
X213400Y234200D01*
Y236200D01*
X184100Y197700D02*
Y210000D01*
X179830Y193430D02*
X184100Y197700D01*
X162058Y215942D02*
X168213D01*
X178700Y226428D01*
Y236200D01*
X24200Y230500D02*
X27361Y227339D01*
X31417D01*
X226571Y278071D02*
X229016D01*
X221900Y273400D02*
X226571Y278071D01*
X214500Y177320D02*
X220680Y183500D01*
X190020Y187100D02*
X190700Y186420D01*
X164300Y183200D02*
X168900D01*
X158700Y188800D02*
X164300Y183200D01*
X188100Y185700D02*
X189300Y184500D01*
X163200Y181800D02*
X169500D01*
X157300Y187700D02*
X163200Y181800D01*
X138600Y198200D02*
X140900Y195900D01*
X134700Y198200D02*
X138600D01*
X133500Y199400D02*
X134700Y198200D01*
X218300Y174400D02*
Y174700D01*
X186700Y184300D02*
X187900Y183100D01*
X174100Y184300D02*
X186700D01*
X169700Y179900D02*
X174100Y184300D01*
X184200Y181500D02*
X185000Y180700D01*
X294500Y125650D02*
Y125900D01*
X285000Y125650D02*
Y125800D01*
X254300Y111400D02*
Y116300D01*
X257300Y119300D01*
X284100D01*
X226900Y110187D02*
Y122000D01*
Y110187D02*
X229016Y108072D01*
X218800Y108287D02*
Y120600D01*
X215600Y114100D02*
Y120700D01*
X214000Y112500D02*
X215600Y114100D01*
X214000Y102500D02*
Y112500D01*
Y102500D02*
X217900Y98600D01*
X144900Y211200D02*
X147379Y208721D01*
X26100Y260600D02*
X28800Y263300D01*
X26100Y238900D02*
Y260600D01*
Y238900D02*
X27661Y237339D01*
X31417D01*
X39539Y217339D02*
X41417D01*
X27300Y212500D02*
X34700D01*
X39539Y217339D01*
X37100Y212500D02*
X44700D01*
X36100Y211500D02*
X37100Y212500D01*
X36100Y182000D02*
Y211500D01*
Y182000D02*
X39300Y178800D01*
X44700Y212500D02*
X48200Y216000D01*
X39300Y178800D02*
X133800D01*
X48200Y216000D02*
Y225100D01*
X41417Y183283D02*
Y207339D01*
Y183283D02*
X44500Y180200D01*
X133220D01*
X143620Y190600D01*
X148100D01*
X153400Y195900D02*
X157300Y192000D01*
Y187700D02*
Y192000D01*
X140900Y195900D02*
X153400D01*
X100172Y108072D02*
X116400Y124300D01*
Y136100D01*
X97972Y108072D02*
X100172D01*
X195000Y168800D02*
X206700D01*
X213000Y175100D01*
X190700Y173100D02*
X195000Y168800D01*
X213100Y175100D02*
Y177900D01*
X190700Y173100D02*
Y186420D01*
X194400Y167300D02*
X207400D01*
X214500Y174400D01*
X189300Y172400D02*
X194400Y167300D01*
X189300Y172400D02*
Y184500D01*
X214500Y174400D02*
Y177320D01*
X193700Y165900D02*
X208100D01*
X216600Y174400D01*
X187900Y171700D02*
X193700Y165900D01*
X167500Y179900D02*
X169700D01*
X187900Y171700D02*
Y183100D01*
X185000Y170400D02*
X192300Y163100D01*
X185000Y170400D02*
Y180700D01*
X193700Y148800D02*
X206216Y136284D01*
Y117916D02*
Y136284D01*
X194400Y150200D02*
X207616Y136984D01*
Y115716D02*
Y136984D01*
X195400Y151600D02*
X209016Y137984D01*
Y108072D02*
Y137984D01*
X114500Y154300D02*
X119200Y159000D01*
X144800D01*
X106800Y160300D02*
X115400Y168900D01*
X106800Y157774D02*
Y160300D01*
X115400Y168900D02*
X132800D01*
X53500Y149350D02*
X90150D01*
X95300Y154500D01*
Y169600D01*
X99300Y173600D01*
X132600D01*
X136100Y170100D01*
X153900Y162700D02*
X159800Y156800D01*
X108200Y196900D02*
X111600D01*
X106500Y195200D02*
X108200Y196900D01*
X106500Y187200D02*
Y195200D01*
X92587Y263300D02*
X97816Y258071D01*
X28800Y263300D02*
X92587D01*
X102700Y250900D02*
X104800Y248800D01*
X102700Y250900D02*
Y263187D01*
X98300Y267587D02*
X102700Y263187D01*
X112200Y229700D02*
Y247300D01*
Y229700D02*
X116900Y225000D01*
Y214700D02*
Y225000D01*
Y214700D02*
X120400Y211200D01*
X110700Y248800D02*
X112200Y247300D01*
X120400Y211200D02*
X144900D01*
X104800Y248800D02*
X110700D01*
X117000Y230200D02*
Y241874D01*
Y230200D02*
X119300Y227900D01*
Y217000D02*
Y227900D01*
Y217000D02*
X123300Y213000D01*
X137000D01*
X141700Y217700D01*
X148200D01*
X149647Y216253D01*
X136900Y220800D02*
X152700D01*
X134600Y223100D02*
X136900Y220800D01*
X134600Y223100D02*
Y246200D01*
X127816Y252984D02*
X134600Y246200D01*
X127816Y252984D02*
Y258071D01*
X158000Y200500D02*
Y215500D01*
X152700Y220800D02*
X158000Y215500D01*
X189600Y250600D02*
Y251500D01*
X188400Y252700D02*
X189600Y251500D01*
X167816Y251184D02*
X169500Y249500D01*
X167816Y251184D02*
Y258071D01*
X167200Y193430D02*
X179830D01*
X199000Y236200D02*
X201000Y234200D01*
X195500Y236200D02*
X199000D01*
X212500Y270600D02*
X215300Y273400D01*
X221900D01*
X71400Y269700D02*
X72100D01*
X67200Y265500D02*
X71400Y269700D01*
X28500Y265500D02*
X67200D01*
X24200Y261200D02*
X28500Y265500D01*
X24200Y230500D02*
Y261200D01*
X225300Y183500D02*
X228600Y180200D01*
X220680Y183500D02*
X225300D01*
X216600Y174400D02*
X218300D01*
X124265Y199400D02*
X133500D01*
X228600Y163100D02*
X231300Y160400D01*
X228600Y163100D02*
Y180200D01*
X231300Y160400D02*
X238300D01*
X241700Y163800D01*
X219900Y163100D02*
X224100Y158900D01*
X239100D02*
X243300Y154700D01*
X224100Y158900D02*
X239100D01*
X192300Y163100D02*
X219900D01*
X77816Y251084D02*
Y258071D01*
Y251084D02*
X79700Y249200D01*
X99674D01*
X107000Y241874D01*
X117600Y202000D02*
Y209700D01*
Y202000D02*
X122900Y196700D01*
X136700D01*
X139100Y194300D01*
X153020D01*
X155700Y191620D01*
Y186700D02*
Y191620D01*
Y186700D02*
X165100Y177300D01*
X169100D01*
X173300Y181500D01*
X107000Y220300D02*
Y241874D01*
X173300Y181500D02*
X184200D01*
X107000Y220300D02*
X117600Y209700D01*
X220600Y185400D02*
X226300D01*
X231700Y180000D01*
X238000D01*
X243300Y174700D01*
X213100Y177900D02*
X220600Y185400D01*
X170100Y162400D02*
X179100D01*
X180400Y161100D01*
X209000D01*
X213000Y157100D01*
X227200D01*
X228800Y155500D01*
Y141600D02*
Y155500D01*
Y141600D02*
X230700Y139700D01*
X238300D01*
X242300Y143700D01*
X288300Y208000D02*
Y212500D01*
X290400Y187800D02*
Y194200D01*
X286800Y197800D02*
X290400Y194200D01*
X286800Y206500D02*
X288300Y208000D01*
X286800Y197800D02*
Y206500D01*
X288400Y212500D02*
Y212800D01*
D41*
X330700Y150600D02*
Y255700D01*
X329200Y257200D02*
X330700Y255700D01*
X329200Y257200D02*
Y257300D01*
X326100Y146000D02*
X330700Y150600D01*
X302200Y146000D02*
X326100D01*
D42*
X166300Y190500D02*
X191800D01*
X163900Y192900D02*
Y199400D01*
Y192900D02*
X166300Y190500D01*
X167300Y202800D02*
X179600D01*
X108372Y98072D02*
X109016D01*
X300464Y136500D02*
X304800D01*
X307500Y133800D01*
X317060D01*
X322000Y138740D01*
X181800Y163300D02*
Y163700D01*
X180000Y165500D02*
X181800Y163700D01*
X180000Y165500D02*
Y178700D01*
X191800Y190500D02*
X194200Y188100D01*
X179600Y202800D02*
X180400Y203600D01*
Y211500D01*
X189016Y277816D02*
Y278071D01*
X180400Y211500D02*
X184300Y215400D01*
X227200Y235100D02*
X232000D01*
X232640Y235740D01*
X238000D01*
X179800Y239300D02*
X184300Y234800D01*
Y215400D02*
Y234800D01*
X196500Y172600D02*
X202700D01*
X194200Y174900D02*
X196500Y172600D01*
X194200Y174900D02*
Y188100D01*
X175700Y239300D02*
X179800D01*
X169500Y233100D02*
X175700Y239300D01*
X158500Y233100D02*
X169500D01*
X147700Y243900D02*
X158500Y233100D01*
X163900Y199400D02*
X167300Y202800D01*
D43*
X77600Y191100D02*
X87600D01*
X262050Y191500D02*
Y199450D01*
X259100Y188550D02*
X262050Y191500D01*
X259100Y186700D02*
Y188550D01*
X262600Y218790D02*
X275310D01*
X238000Y240740D02*
X244491D01*
X162300Y143300D02*
X165100Y146100D01*
X155400Y143300D02*
X162300D01*
X152400Y146300D02*
X155400Y143300D01*
X161300D02*
X165400Y139200D01*
X150600Y158100D02*
X153900D01*
X153400Y145300D02*
X154900Y146800D01*
X165400Y130900D02*
Y139200D01*
X190400Y153100D02*
X215350D01*
X54650Y156150D02*
X60250D01*
X220764Y134736D02*
Y146000D01*
X221650Y153000D02*
X226200D01*
X215300Y150590D02*
Y153100D01*
X216236Y146000D02*
Y149653D01*
X215300Y150590D02*
X216236Y149653D01*
X134100Y78300D02*
Y90300D01*
X61650Y81500D02*
X66650Y76500D01*
X132300D01*
X134100Y78300D01*
X137100Y74900D02*
X143900Y81700D01*
X41417Y77283D02*
Y84043D01*
X43800Y74900D02*
X137100D01*
X41417Y77283D02*
X43800Y74900D01*
X37600Y109200D02*
X55436D01*
X33400Y113400D02*
X37600Y109200D01*
X53300Y91000D02*
X56236D01*
X51400Y89100D02*
X53300Y91000D01*
X27200Y89100D02*
X51400D01*
X24900Y91400D02*
X27200Y89100D01*
X24900Y91400D02*
Y101700D01*
X27243Y104043D01*
X31417D01*
X129400Y95000D02*
Y98072D01*
Y95000D02*
X134100Y90300D01*
X129016Y98072D02*
X129400D01*
X159016Y106584D02*
Y108072D01*
X163800Y83900D02*
Y101800D01*
X159016Y106584D02*
X163800Y101800D01*
X137700Y143700D02*
X141768D01*
X193987Y103100D02*
X199016Y98072D01*
X186400Y103100D02*
X193987D01*
X184200Y105300D02*
X186400Y103100D01*
X184200Y105300D02*
Y112200D01*
X186500Y114500D01*
Y126300D01*
X184800Y128000D02*
X186500Y126300D01*
X165900Y128000D02*
X184800D01*
X163800Y130100D02*
X165900Y128000D01*
X163800Y130100D02*
Y137600D01*
X161500Y139900D02*
X163800Y137600D01*
X151900Y139900D02*
X161500D01*
X147701Y144099D02*
X151900Y139900D01*
X142167Y144099D02*
X147701D01*
X141768Y143700D02*
X142167Y144099D01*
X136800Y144600D02*
X137700Y143700D01*
X136800Y144600D02*
Y146100D01*
X189016Y108072D02*
Y126784D01*
X186000Y129800D02*
X189016Y126784D01*
X166500Y129800D02*
X186000D01*
X165400Y130900D02*
X166500Y129800D01*
X141500Y146300D02*
X152400D01*
X154900Y146800D02*
Y157100D01*
X153900Y158100D02*
X154900Y157100D01*
X152200Y150800D02*
Y155700D01*
X139500Y148800D02*
X150200D01*
X136800Y146100D02*
X139500Y148800D01*
X150200D02*
X152200Y150800D01*
X56236Y120000D02*
Y128006D01*
X41417Y134043D02*
X51357D01*
X54900Y130500D01*
X31417Y113183D02*
Y114043D01*
X55436Y100586D02*
Y109200D01*
X55350Y100500D02*
X55436Y100586D01*
X56236Y82994D02*
Y91000D01*
X139016Y98072D02*
X141328D01*
X143900Y95500D01*
Y81700D02*
Y95500D01*
X290100Y145700D02*
X303300D01*
X252600Y200800D02*
X255900Y204100D01*
X268000D01*
X270200Y201900D01*
X289900Y182500D02*
X291000D01*
X295700Y187200D01*
X302460Y118740D02*
X312000D01*
X300800Y120400D02*
X302460Y118740D01*
X300800Y120400D02*
Y126900D01*
X299100Y128600D02*
X300800Y126900D01*
X282600Y193800D02*
X283900Y192500D01*
X272500Y193800D02*
X282600D01*
X269200Y197100D02*
X272500Y193800D01*
X269200Y197100D02*
Y200900D01*
X270200Y201900D01*
X285100Y154400D02*
Y176200D01*
Y154400D02*
X285500Y154000D01*
Y132600D02*
Y154000D01*
Y132600D02*
X286500Y131600D01*
X292500D01*
X295500Y128600D02*
X299100D01*
X292500Y131600D02*
X295500Y128600D01*
X283900Y177400D02*
X285100Y176200D01*
X283900Y177400D02*
Y192500D01*
X176810Y124090D02*
X180490D01*
X161764Y122500D02*
X169850D01*
X178200Y117800D02*
X179016Y116984D01*
X158100Y117800D02*
X178200D01*
X157236Y118664D02*
X158100Y117800D01*
X157236Y118664D02*
Y122500D01*
X197942Y187958D02*
X202278D01*
X198022Y177722D02*
X202514D01*
X216500Y189700D02*
Y237800D01*
X214300Y187500D02*
X216500Y189700D01*
X226771Y278071D02*
X229016D01*
X207264Y177500D02*
X208100D01*
X218400Y187800D02*
Y242200D01*
X163800Y83900D02*
X167100Y80600D01*
X288400D01*
X294500Y86700D01*
Y119350D01*
X169016Y107784D02*
Y108072D01*
X174100Y84400D02*
Y102700D01*
Y84400D02*
X176300Y82200D01*
X232000D01*
X234000Y84200D01*
Y114400D01*
X169016Y107784D02*
X174100Y102700D01*
X177000Y157000D02*
X186500D01*
X190400Y153100D01*
X61650Y129500D02*
X66100D01*
X214900Y239400D02*
X216500Y237800D01*
X208100Y177500D02*
X218400Y187800D01*
X207264Y187500D02*
X214300D01*
X111400Y272900D02*
X170600D01*
X107900Y269400D02*
X111400Y272900D01*
X247200Y149600D02*
X250009Y152410D01*
X239100Y149600D02*
X247200D01*
X234300Y144800D02*
X239100Y149600D01*
X250009Y152410D02*
Y171010D01*
X245900Y169700D02*
X247500Y171300D01*
X238300Y169700D02*
X245900D01*
X233300Y164700D02*
X238300Y169700D01*
X253300Y175900D02*
Y178300D01*
X251700Y174300D02*
X253300Y175900D01*
X249600Y174300D02*
X251700D01*
X247500Y171300D02*
Y172200D01*
X249600Y174300D01*
X252600Y179000D02*
X253300Y178300D01*
X252600Y179000D02*
Y200800D01*
X238000Y230740D02*
X247160D01*
X250800Y227100D01*
X254500Y211000D02*
X276600D01*
X284600Y202800D02*
X284800D01*
X276600Y211000D02*
X284600Y203000D01*
X284800Y202800D01*
X250800Y214700D02*
Y227100D01*
Y214700D02*
X254500Y211000D01*
X275000Y207900D02*
X282200Y200700D01*
X251700Y207900D02*
X275000D01*
X245900Y213700D02*
X251700Y207900D01*
X245900Y213700D02*
Y217400D01*
X242560Y220740D02*
X245900Y217400D01*
X238000Y220740D02*
X242560D01*
X179016Y108072D02*
Y116984D01*
X229600Y118800D02*
X234000Y114400D01*
X229600Y118800D02*
Y125900D01*
X220764Y134736D02*
X229600Y125900D01*
X232800Y122000D02*
Y127500D01*
D44*
X87600Y191000D02*
X95300Y183300D01*
X87600Y191000D02*
Y191100D01*
X95300Y183300D02*
X111500D01*
X243300Y204700D02*
Y208800D01*
X241500Y210600D02*
X243300Y208800D01*
X231300Y210600D02*
X241500D01*
X229750Y212150D02*
X231300Y210600D01*
X229750Y212150D02*
Y217600D01*
X295700Y187200D02*
Y218600D01*
D45*
X259100Y186700D02*
X259606D01*
X263500Y182806D01*
Y168900D02*
Y182806D01*
X295936Y132664D02*
X297600Y131000D01*
X301600D01*
X295936Y132664D02*
Y136500D01*
X263500Y168900D02*
X265800Y166600D01*
X274800D01*
X301600Y131000D02*
X304000Y128600D01*
Y125000D02*
Y128600D01*
Y125000D02*
X305300Y123700D01*
X317040D01*
X322000Y118740D01*
X184400Y273200D02*
X189016Y277816D01*
X175500Y273200D02*
X184400D01*
X173300Y271000D02*
X175500Y273200D01*
X173300Y251900D02*
Y271000D01*
X60764Y120000D02*
X65300D01*
X69000Y123700D01*
Y145500D01*
X102171Y278071D02*
X103032D01*
X97300Y273200D02*
X102171Y278071D01*
X49300Y273200D02*
X97300D01*
D46*
X171820Y242500D02*
X205200D01*
X137800Y230700D02*
X144200Y237100D01*
Y246300D01*
X146200Y248300D01*
X151500D01*
X158160Y241640D01*
X170960D01*
X223350Y217994D02*
Y244250D01*
X170960Y241640D02*
X171820Y242500D01*
X205200D02*
X208800Y246100D01*
X220800D01*
X222650Y244250D01*
X223350D01*
X257700Y270900D02*
Y284552D01*
X255000Y268200D02*
X257700Y270900D01*
X240500Y268200D02*
X255000D01*
X235800Y263500D02*
X240500Y268200D01*
X235800Y256700D02*
Y263500D01*
X223350Y244250D02*
X235800Y256700D01*
X101600Y81700D02*
Y91300D01*
X99400Y79500D02*
X101600Y81700D01*
Y91300D02*
X108372Y98072D01*
X77700Y188901D02*
Y191200D01*
X46253Y184301D02*
X73100D01*
X77700Y188901D01*
D47*
X307100Y60200D02*
Y79400D01*
X24800Y61400D02*
Y80600D01*
D49*
X106496Y128900D02*
D03*
X173016Y122500D02*
D03*
X218496Y153000D02*
D03*
X226596Y217600D02*
D03*
X58496Y81500D02*
D03*
Y100500D02*
D03*
Y129500D02*
D03*
D51*
X211500Y226304D02*
D03*
X201000D02*
D03*
X53500Y152496D02*
D03*
X294500Y122496D02*
D03*
X285000D02*
D03*
D52*
X295000Y274240D02*
D03*
X285000D02*
D03*
D53*
X312000Y108740D02*
D03*
X322000D02*
D03*
X312000Y118740D02*
D03*
Y138740D02*
D03*
X322000D02*
D03*
Y128740D02*
D03*
X312000D02*
D03*
X322000Y98740D02*
D03*
X312000D02*
D03*
X322000Y118740D02*
D03*
X87600Y191100D02*
D03*
X250400Y259700D02*
D03*
X267400Y260100D02*
D03*
X49000Y273200D02*
D03*
X31400Y272900D02*
D03*
D54*
X77600Y191100D02*
D03*
D55*
X79100Y98200D02*
D03*
X227816Y268071D02*
D03*
D56*
X79100Y108200D02*
D03*
X89100Y98200D02*
D03*
Y108200D02*
D03*
X99100Y98200D02*
D03*
Y108200D02*
D03*
X109100Y98200D02*
D03*
Y108200D02*
D03*
X119100Y98200D02*
D03*
Y108200D02*
D03*
X129100D02*
D03*
X139100Y98200D02*
D03*
Y108200D02*
D03*
X149100Y98200D02*
D03*
Y108200D02*
D03*
X159100Y98200D02*
D03*
Y108200D02*
D03*
X169100Y98200D02*
D03*
Y108200D02*
D03*
X179100Y98200D02*
D03*
Y108200D02*
D03*
X189100Y98200D02*
D03*
Y108200D02*
D03*
X199100Y98200D02*
D03*
Y108200D02*
D03*
X209100Y98200D02*
D03*
Y108200D02*
D03*
X219100Y98200D02*
D03*
Y108200D02*
D03*
X229100Y98200D02*
D03*
Y108200D02*
D03*
X129100Y98200D02*
D03*
X177816Y268071D02*
D03*
X77816Y258071D02*
D03*
Y268071D02*
D03*
X87816Y258071D02*
D03*
Y268071D02*
D03*
X97816Y258071D02*
D03*
Y268071D02*
D03*
X107816Y258071D02*
D03*
Y268071D02*
D03*
X117816Y258071D02*
D03*
Y268071D02*
D03*
X127816Y258071D02*
D03*
Y268071D02*
D03*
X137816Y258071D02*
D03*
Y268071D02*
D03*
X147816Y258071D02*
D03*
Y268071D02*
D03*
X157816Y258071D02*
D03*
Y268071D02*
D03*
X167816Y258071D02*
D03*
Y268071D02*
D03*
X177816Y258071D02*
D03*
X187816D02*
D03*
Y268071D02*
D03*
X197816Y258071D02*
D03*
Y268071D02*
D03*
X207816Y258071D02*
D03*
Y268071D02*
D03*
X217816Y258071D02*
D03*
Y268071D02*
D03*
X227816Y258071D02*
D03*
X233300Y204700D02*
D03*
X243300D02*
D03*
X233300Y194700D02*
D03*
X243300D02*
D03*
X233300Y184700D02*
D03*
X243300D02*
D03*
X233300Y174700D02*
D03*
X243300D02*
D03*
X233300Y164700D02*
D03*
X243300D02*
D03*
X233300Y154700D02*
D03*
X243300D02*
D03*
X233300Y144700D02*
D03*
D57*
X199016Y88071D02*
D03*
X249016Y278071D02*
D03*
X163031D02*
D03*
X107000Y241874D02*
D03*
X109016Y88071D02*
D03*
D58*
X209016D02*
D03*
X219016D02*
D03*
X229016D02*
D03*
X239016D02*
D03*
X249016D02*
D03*
X179016Y278071D02*
D03*
X239016D02*
D03*
X229016D02*
D03*
X219016D02*
D03*
X209016D02*
D03*
X199016D02*
D03*
X189016D02*
D03*
X41417Y217339D02*
D03*
Y227339D02*
D03*
Y237339D02*
D03*
Y247339D02*
D03*
Y257339D02*
D03*
X31417Y207339D02*
D03*
Y217339D02*
D03*
Y227339D02*
D03*
Y237339D02*
D03*
Y247339D02*
D03*
Y257339D02*
D03*
X153032Y278071D02*
D03*
X143032D02*
D03*
X133031D02*
D03*
X123031D02*
D03*
X113031D02*
D03*
X103032D02*
D03*
X93032D02*
D03*
X83031D02*
D03*
X73032D02*
D03*
X117000Y241874D02*
D03*
X127000D02*
D03*
X286500Y235374D02*
D03*
Y245374D02*
D03*
X31417Y134043D02*
D03*
Y124043D02*
D03*
Y114043D02*
D03*
Y104043D02*
D03*
Y94043D02*
D03*
Y84043D02*
D03*
X41417Y134043D02*
D03*
Y124043D02*
D03*
Y114043D02*
D03*
Y104043D02*
D03*
Y94043D02*
D03*
X179016Y88071D02*
D03*
X119016D02*
D03*
X129016D02*
D03*
X139016D02*
D03*
X149016D02*
D03*
X159016D02*
D03*
X169016D02*
D03*
D59*
X41417Y207339D02*
D03*
X286500Y255374D02*
D03*
X41417Y84043D02*
D03*
D60*
X238000Y240740D02*
D03*
Y225740D02*
D03*
Y235740D02*
D03*
Y230740D02*
D03*
Y220740D02*
D03*
D61*
Y215740D02*
D03*
D62*
X310890Y165825D02*
D03*
X324472D02*
D03*
Y193975D02*
D03*
X310890D02*
D03*
D63*
X316126Y187774D02*
D03*
Y172026D02*
D03*
D64*
X243300Y144700D02*
D03*
D65*
X296100Y11800D02*
D03*
X322835Y275591D02*
D03*
X39370Y11811D02*
D03*
X11811Y275591D02*
D03*
X38598Y55902D02*
D03*
X296000Y55500D02*
D03*
D66*
X281196Y190936D02*
D03*
Y186606D02*
D03*
Y182275D02*
D03*
Y177944D02*
D03*
X276865Y190936D02*
D03*
Y186606D02*
D03*
Y182275D02*
D03*
Y177944D02*
D03*
X272535Y190936D02*
D03*
Y186606D02*
D03*
Y182275D02*
D03*
Y177944D02*
D03*
X268204Y190936D02*
D03*
Y186606D02*
D03*
Y182275D02*
D03*
Y177944D02*
D03*
D67*
X273900Y132800D02*
D03*
X251000Y149600D02*
D03*
X250100Y177400D02*
D03*
X240300Y127300D02*
D03*
X247600Y224500D02*
D03*
X176060Y135540D02*
D03*
X163600Y189200D02*
D03*
X111500Y183300D02*
D03*
X278000Y114700D02*
D03*
X122500Y17500D02*
D03*
X26700Y33200D02*
D03*
X312800Y36000D02*
D03*
X164800Y146200D02*
D03*
X202600Y130200D02*
D03*
X226200Y153000D02*
D03*
X189100Y88500D02*
D03*
X194100Y117800D02*
D03*
X77000Y120900D02*
D03*
X68800Y98800D02*
D03*
X132800Y168900D02*
D03*
X154800Y180700D02*
D03*
X151800Y180600D02*
D03*
X144100Y180900D02*
D03*
X141100Y182300D02*
D03*
X138200Y180400D02*
D03*
Y177400D02*
D03*
Y174400D02*
D03*
X109300Y135100D02*
D03*
X36400Y77000D02*
D03*
X97500Y83300D02*
D03*
X95200Y85700D02*
D03*
X17200Y184400D02*
D03*
X18200Y176600D02*
D03*
X112100Y161800D02*
D03*
X116400Y136100D02*
D03*
X111400Y188500D02*
D03*
X116800Y146400D02*
D03*
X137700Y188000D02*
D03*
X117000Y149700D02*
D03*
X117400Y153700D02*
D03*
X119600Y155900D02*
D03*
X122600D02*
D03*
X125600Y155800D02*
D03*
X128600Y155700D02*
D03*
X132000Y155600D02*
D03*
X135300Y155700D02*
D03*
X138300Y155600D02*
D03*
X141473Y155627D02*
D03*
X144600Y155500D02*
D03*
X149347Y171753D02*
D03*
X157221Y171779D02*
D03*
X141500Y146300D02*
D03*
X150600Y158400D02*
D03*
X159900Y146200D02*
D03*
X166200Y153900D02*
D03*
X136800Y146100D02*
D03*
X152200Y155700D02*
D03*
X145110Y214890D02*
D03*
X151700Y231800D02*
D03*
X149647Y216253D02*
D03*
X60300Y156200D02*
D03*
X262600Y218790D02*
D03*
X312900Y224500D02*
D03*
X315500D02*
D03*
X318200Y224600D02*
D03*
X288300Y212500D02*
D03*
X259900Y182800D02*
D03*
X273716Y169516D02*
D03*
X289900Y182500D02*
D03*
X290100Y145700D02*
D03*
X259100Y186700D02*
D03*
X274800Y166600D02*
D03*
X271747Y199247D02*
D03*
X287800Y134000D02*
D03*
X262050Y199450D02*
D03*
X266100Y200300D02*
D03*
X259400Y168500D02*
D03*
X270200Y201900D02*
D03*
X295700Y218600D02*
D03*
Y191600D02*
D03*
X177400Y157000D02*
D03*
X180490Y124090D02*
D03*
X143300Y141200D02*
D03*
X180000Y178700D02*
D03*
X181800Y163300D02*
D03*
X197942Y187958D02*
D03*
X198022Y177722D02*
D03*
X222700Y171600D02*
D03*
X221400Y180900D02*
D03*
X200400Y218600D02*
D03*
X209600Y217800D02*
D03*
X167244Y185556D02*
D03*
X188200Y196900D02*
D03*
X165200Y200500D02*
D03*
X202700Y172600D02*
D03*
X192300Y218000D02*
D03*
X213400Y236200D02*
D03*
X189600Y250600D02*
D03*
X167200Y193600D02*
D03*
X190100Y242500D02*
D03*
X184100Y210000D02*
D03*
X181300Y249900D02*
D03*
X178700Y236200D02*
D03*
X162058Y215942D02*
D03*
X179100Y218900D02*
D03*
X174300Y216500D02*
D03*
X72100Y269700D02*
D03*
X173300Y251900D02*
D03*
X167700Y237500D02*
D03*
X158000Y200500D02*
D03*
X227200Y235100D02*
D03*
X137500Y200600D02*
D03*
X218300Y174700D02*
D03*
X144600Y198300D02*
D03*
X167200Y179600D02*
D03*
X254300Y111400D02*
D03*
X226900Y122000D02*
D03*
X218800Y120600D02*
D03*
X215600Y120700D02*
D03*
X159800Y156800D02*
D03*
X176100Y245800D02*
D03*
X148500Y201100D02*
D03*
X127250Y206050D02*
D03*
X122000Y205700D02*
D03*
X156700Y251000D02*
D03*
X148100Y190600D02*
D03*
X143600Y118300D02*
D03*
X143800Y115300D02*
D03*
X72200Y79700D02*
D03*
X212200Y126100D02*
D03*
X240300Y131100D02*
D03*
X194290Y124090D02*
D03*
X178490Y153891D02*
D03*
X211800Y123100D02*
D03*
X214300Y159800D02*
D03*
X66300Y100500D02*
D03*
X85200Y134500D02*
D03*
X127000Y222400D02*
D03*
X111224Y225724D02*
D03*
X122800Y219300D02*
D03*
X169600Y210300D02*
D03*
X124265Y199335D02*
D03*
X69000Y145500D02*
D03*
X66400Y129500D02*
D03*
X137800Y230700D02*
D03*
X170960Y241640D02*
D03*
X262900Y162500D02*
D03*
X293334Y163734D02*
D03*
X321700Y246200D02*
D03*
X113500Y117400D02*
D03*
X207400Y144800D02*
D03*
X111600Y196900D02*
D03*
X106500Y187200D02*
D03*
X94200Y191700D02*
D03*
X161100Y195500D02*
D03*
X69000Y241400D02*
D03*
X140100Y242600D02*
D03*
X83300Y254300D02*
D03*
Y244300D02*
D03*
X82200Y233200D02*
D03*
X54600Y231500D02*
D03*
X60700Y232000D02*
D03*
X14400Y244200D02*
D03*
X14100Y231900D02*
D03*
Y214800D02*
D03*
X8500Y175000D02*
D03*
X7800Y167900D02*
D03*
X11900Y132700D02*
D03*
X12100Y119700D02*
D03*
X11900Y105200D02*
D03*
X12600Y92700D02*
D03*
X94000Y244700D02*
D03*
X147700Y243900D02*
D03*
X190600Y230500D02*
D03*
X195500Y236200D02*
D03*
X214900Y239400D02*
D03*
X218400Y242200D02*
D03*
X106800Y157774D02*
D03*
X234700Y269700D02*
D03*
X170600Y272900D02*
D03*
X290400Y187800D02*
D03*
X250009Y171010D02*
D03*
X115344Y211956D02*
D03*
X170100Y162400D02*
D03*
X289000Y201900D02*
D03*
X284600Y203000D02*
D03*
X282200Y200700D02*
D03*
X166800Y196700D02*
D03*
X232800Y122000D02*
D03*
D68*
X84600Y154600D02*
D03*
X74700Y154400D02*
D03*
D69*
X40600Y273900D02*
D03*
D70*
X99100Y79200D02*
D03*
X317500Y251500D02*
D03*
X46253Y184301D02*
D03*
X42050Y171450D02*
D03*
X329200Y257300D02*
D03*
D71*
X42851Y284552D02*
X257700D01*
X179016Y282416D02*
X181151Y284552D01*
X40600Y273900D02*
Y282300D01*
X42851Y284552D01*
X179016Y278071D02*
Y282416D01*
M02*
