G04 Layer_Color=32896*
%FSLAX25Y25*%
%MOIN*%
G70*
G01*
G75*
%ADD40C,0.00800*%
%ADD48C,0.00500*%
%ADD72C,0.00591*%
%ADD77C,0.00591*%
%ADD78C,0.00709*%
%ADD132C,0.00472*%
G36*
X77600Y196632D02*
X77600D01*
X75631Y198600D01*
X79568D01*
X77600Y196632D01*
D02*
G37*
D40*
X26800Y108880D02*
X24658D01*
X23944Y109118D01*
X23705Y109356D01*
X23467Y109833D01*
Y110547D01*
X23705Y111023D01*
X23944Y111261D01*
X24658Y111499D01*
X26800D01*
Y106500D01*
X22349Y111499D02*
Y106500D01*
Y111499D02*
X20444Y106500D01*
X18540Y111499D02*
X20444Y106500D01*
X18540Y111499D02*
Y106500D01*
X15683Y111499D02*
X16159Y111261D01*
X16635Y110785D01*
X16874Y110309D01*
X17112Y109595D01*
Y108404D01*
X16874Y107690D01*
X16635Y107214D01*
X16159Y106738D01*
X15683Y106500D01*
X14731D01*
X14255Y106738D01*
X13779Y107214D01*
X13541Y107690D01*
X13303Y108404D01*
Y109595D01*
X13541Y110309D01*
X13779Y110785D01*
X14255Y111261D01*
X14731Y111499D01*
X15683D01*
X12137D02*
Y106500D01*
Y111499D02*
X10470D01*
X9756Y111261D01*
X9280Y110785D01*
X9042Y110309D01*
X8804Y109595D01*
Y108404D01*
X9042Y107690D01*
X9280Y107214D01*
X9756Y106738D01*
X10470Y106500D01*
X12137D01*
X3876D02*
X5781Y111499D01*
X7685Y106500D01*
X6971Y108166D02*
X4591D01*
X28900Y233080D02*
X26758D01*
X26043Y233318D01*
X25805Y233557D01*
X25567Y234033D01*
Y234747D01*
X25805Y235223D01*
X26043Y235461D01*
X26758Y235699D01*
X28900D01*
Y230700D01*
X24449Y235699D02*
Y230700D01*
Y235699D02*
X22544Y230700D01*
X20640Y235699D02*
X22544Y230700D01*
X20640Y235699D02*
Y230700D01*
X17783Y235699D02*
X18259Y235461D01*
X18735Y234985D01*
X18974Y234509D01*
X19212Y233795D01*
Y232604D01*
X18974Y231890D01*
X18735Y231414D01*
X18259Y230938D01*
X17783Y230700D01*
X16831D01*
X16355Y230938D01*
X15879Y231414D01*
X15641Y231890D01*
X15403Y232604D01*
Y233795D01*
X15641Y234509D01*
X15879Y234985D01*
X16355Y235461D01*
X16831Y235699D01*
X17783D01*
X14236D02*
Y230700D01*
Y235699D02*
X12570D01*
X11856Y235461D01*
X11380Y234985D01*
X11142Y234509D01*
X10904Y233795D01*
Y232604D01*
X11142Y231890D01*
X11380Y231414D01*
X11856Y230938D01*
X12570Y230700D01*
X14236D01*
X9785Y235699D02*
Y230700D01*
Y235699D02*
X7643D01*
X6928Y235461D01*
X6690Y235223D01*
X6452Y234747D01*
Y234271D01*
X6690Y233795D01*
X6928Y233557D01*
X7643Y233318D01*
X9785D02*
X7643D01*
X6928Y233080D01*
X6690Y232842D01*
X6452Y232366D01*
Y231652D01*
X6690Y231176D01*
X6928Y230938D01*
X7643Y230700D01*
X9785D01*
D48*
X248200Y247999D02*
Y245000D01*
Y247999D02*
X246915D01*
X246486Y247856D01*
X246343Y247714D01*
X246200Y247428D01*
Y247142D01*
X246343Y246857D01*
X246486Y246714D01*
X246915Y246571D01*
X248200D01*
X247200D02*
X246200Y245000D01*
X245529Y247428D02*
X245244Y247571D01*
X244815Y247999D01*
Y245000D01*
X243187Y247285D02*
Y247428D01*
X243044Y247714D01*
X242901Y247856D01*
X242616Y247999D01*
X242044D01*
X241758Y247856D01*
X241616Y247714D01*
X241473Y247428D01*
Y247142D01*
X241616Y246857D01*
X241901Y246428D01*
X243330Y245000D01*
X241330D01*
X104643Y137799D02*
X106500D01*
Y134800D01*
X104643D01*
X106500Y136371D02*
X105357D01*
X104143Y137228D02*
X103858Y137371D01*
X103429Y137799D01*
Y134800D01*
X172043Y131499D02*
X173900D01*
Y128500D01*
X172043D01*
X173900Y130071D02*
X172757D01*
X171400Y130785D02*
Y130928D01*
X171258Y131214D01*
X171115Y131357D01*
X170829Y131499D01*
X170258D01*
X169972Y131357D01*
X169829Y131214D01*
X169687Y130928D01*
Y130642D01*
X169829Y130357D01*
X170115Y129928D01*
X171543Y128500D01*
X169544D01*
X219943Y162099D02*
X221800D01*
Y159100D01*
X219943D01*
X221800Y160671D02*
X220657D01*
X219158Y162099D02*
X217587D01*
X218444Y160957D01*
X218015D01*
X217729Y160814D01*
X217587Y160671D01*
X217444Y160243D01*
Y159957D01*
X217587Y159529D01*
X217872Y159243D01*
X218301Y159100D01*
X218729D01*
X219158Y159243D01*
X219301Y159386D01*
X219443Y159671D01*
X227443Y226699D02*
X229300D01*
Y223700D01*
X227443D01*
X229300Y225271D02*
X228157D01*
X226229Y226699D02*
X226658Y226556D01*
X226800Y226271D01*
Y225985D01*
X226658Y225700D01*
X226372Y225557D01*
X225801Y225414D01*
X225372Y225271D01*
X225087Y224985D01*
X224944Y224700D01*
Y224271D01*
X225087Y223986D01*
X225229Y223843D01*
X225658Y223700D01*
X226229D01*
X226658Y223843D01*
X226800Y223986D01*
X226943Y224271D01*
Y224700D01*
X226800Y224985D01*
X226515Y225271D01*
X226086Y225414D01*
X225515Y225557D01*
X225229Y225700D01*
X225087Y225985D01*
Y226271D01*
X225229Y226556D01*
X225658Y226699D01*
X226229D01*
X94443Y137699D02*
X96300D01*
Y134700D01*
X94443D01*
X96300Y136271D02*
X95157D01*
X93943Y137128D02*
X93658Y137271D01*
X93229Y137699D01*
Y134700D01*
X91744Y137128D02*
X91458Y137271D01*
X91030Y137699D01*
Y134700D01*
X160943Y131299D02*
X162800D01*
Y128300D01*
X160943D01*
X162800Y129871D02*
X161657D01*
X160443Y130728D02*
X160158Y130871D01*
X159729Y131299D01*
Y128300D01*
X158101Y130585D02*
Y130728D01*
X157958Y131014D01*
X157815Y131157D01*
X157530Y131299D01*
X156958D01*
X156673Y131157D01*
X156530Y131014D01*
X156387Y130728D01*
Y130442D01*
X156530Y130157D01*
X156816Y129728D01*
X158244Y128300D01*
X156244D01*
X220743Y139699D02*
X222600D01*
Y136700D01*
X220743D01*
X222600Y138271D02*
X221457D01*
X220243Y139128D02*
X219958Y139271D01*
X219529Y139699D01*
Y136700D01*
X217758Y139699D02*
X216187D01*
X217044Y138557D01*
X216616D01*
X216330Y138414D01*
X216187Y138271D01*
X216044Y137843D01*
Y137557D01*
X216187Y137128D01*
X216473Y136843D01*
X216901Y136700D01*
X217330D01*
X217758Y136843D01*
X217901Y136986D01*
X218044Y137271D01*
X210799Y235757D02*
Y233900D01*
X207800D01*
Y235757D01*
X209371Y233900D02*
Y235043D01*
X210228Y236257D02*
X210371Y236542D01*
X210799Y236971D01*
X207800D01*
X210799Y239884D02*
X208800Y238456D01*
Y240599D01*
X210799Y239884D02*
X207800D01*
X202699Y235757D02*
Y233900D01*
X199700D01*
Y235757D01*
X201271Y233900D02*
Y235043D01*
X202128Y236257D02*
X202271Y236542D01*
X202699Y236971D01*
X199700D01*
X202699Y240170D02*
Y238742D01*
X201414Y238599D01*
X201557Y238742D01*
X201700Y239170D01*
Y239599D01*
X201557Y240027D01*
X201271Y240313D01*
X200843Y240456D01*
X200557D01*
X200129Y240313D01*
X199843Y240027D01*
X199700Y239599D01*
Y239170D01*
X199843Y238742D01*
X199986Y238599D01*
X200271Y238456D01*
X50999Y79757D02*
Y77900D01*
X48000D01*
Y79757D01*
X49571Y77900D02*
Y79043D01*
X50428Y80257D02*
X50571Y80542D01*
X50999Y80971D01*
X48000D01*
X50999Y83170D02*
X50857Y82742D01*
X50571Y82599D01*
X50285D01*
X50000Y82742D01*
X49857Y83027D01*
X49714Y83599D01*
X49571Y84027D01*
X49285Y84313D01*
X49000Y84456D01*
X48571D01*
X48286Y84313D01*
X48143Y84170D01*
X48000Y83742D01*
Y83170D01*
X48143Y82742D01*
X48286Y82599D01*
X48571Y82456D01*
X49000D01*
X49285Y82599D01*
X49571Y82885D01*
X49714Y83313D01*
X49857Y83884D01*
X50000Y84170D01*
X50285Y84313D01*
X50571D01*
X50857Y84170D01*
X50999Y83742D01*
Y83170D01*
X50799Y98657D02*
Y96800D01*
X47800D01*
Y98657D01*
X49371Y96800D02*
Y97943D01*
X50228Y99157D02*
X50371Y99442D01*
X50799Y99871D01*
X47800D01*
X49800Y103213D02*
X49371Y103070D01*
X49085Y102784D01*
X48943Y102356D01*
Y102213D01*
X49085Y101785D01*
X49371Y101499D01*
X49800Y101356D01*
X49942D01*
X50371Y101499D01*
X50656Y101785D01*
X50799Y102213D01*
Y102356D01*
X50656Y102784D01*
X50371Y103070D01*
X49800Y103213D01*
X49085D01*
X48371Y103070D01*
X47943Y102784D01*
X47800Y102356D01*
Y102070D01*
X47943Y101642D01*
X48228Y101499D01*
X50899Y127257D02*
Y125400D01*
X47900D01*
Y127257D01*
X49471Y125400D02*
Y126543D01*
X50185Y127900D02*
X50328D01*
X50614Y128042D01*
X50757Y128185D01*
X50899Y128471D01*
Y129042D01*
X50757Y129328D01*
X50614Y129471D01*
X50328Y129613D01*
X50042D01*
X49757Y129471D01*
X49328Y129185D01*
X47900Y127757D01*
Y129756D01*
X50899Y131284D02*
X50757Y130856D01*
X50328Y130570D01*
X49614Y130428D01*
X49185D01*
X48471Y130570D01*
X48043Y130856D01*
X47900Y131284D01*
Y131570D01*
X48043Y131999D01*
X48471Y132284D01*
X49185Y132427D01*
X49614D01*
X50328Y132284D01*
X50757Y131999D01*
X50899Y131570D01*
Y131284D01*
X55643Y162699D02*
X57500D01*
Y159700D01*
X55643D01*
X57500Y161271D02*
X56357D01*
X54858Y162699D02*
X53287D01*
X54144Y161557D01*
X53715D01*
X53429Y161414D01*
X53287Y161271D01*
X53144Y160843D01*
Y160557D01*
X53287Y160128D01*
X53572Y159843D01*
X54001Y159700D01*
X54429D01*
X54858Y159843D01*
X55001Y159986D01*
X55143Y160271D01*
X51616Y162699D02*
X52044Y162557D01*
X52330Y162128D01*
X52473Y161414D01*
Y160985D01*
X52330Y160271D01*
X52044Y159843D01*
X51616Y159700D01*
X51330D01*
X50901Y159843D01*
X50616Y160271D01*
X50473Y160985D01*
Y161414D01*
X50616Y162128D01*
X50901Y162557D01*
X51330Y162699D01*
X51616D01*
X295843Y115199D02*
X297700D01*
Y112200D01*
X295843D01*
X297700Y113771D02*
X296557D01*
X295058Y115199D02*
X293487D01*
X294344Y114057D01*
X293915D01*
X293629Y113914D01*
X293487Y113771D01*
X293344Y113343D01*
Y113057D01*
X293487Y112628D01*
X293772Y112343D01*
X294201Y112200D01*
X294629D01*
X295058Y112343D01*
X295200Y112486D01*
X295343Y112771D01*
X292672Y114628D02*
X292387Y114771D01*
X291958Y115199D01*
Y112200D01*
X286543Y114999D02*
X288400D01*
Y112000D01*
X286543D01*
X288400Y113571D02*
X287257D01*
X285758Y114999D02*
X284187D01*
X285044Y113857D01*
X284615D01*
X284329Y113714D01*
X284187Y113571D01*
X284044Y113143D01*
Y112857D01*
X284187Y112428D01*
X284472Y112143D01*
X284901Y112000D01*
X285329D01*
X285758Y112143D01*
X285900Y112286D01*
X286043Y112571D01*
X283230Y114285D02*
Y114428D01*
X283087Y114714D01*
X282944Y114857D01*
X282658Y114999D01*
X282087D01*
X281801Y114857D01*
X281659Y114714D01*
X281516Y114428D01*
Y114142D01*
X281659Y113857D01*
X281944Y113428D01*
X283372Y112000D01*
X281373D01*
X290843Y220999D02*
X292700D01*
Y218000D01*
X290843D01*
X292700Y219571D02*
X291557D01*
X290058Y220999D02*
X288487D01*
X289344Y219857D01*
X288915D01*
X288629Y219714D01*
X288487Y219571D01*
X288344Y219143D01*
Y218857D01*
X288487Y218428D01*
X288772Y218143D01*
X289201Y218000D01*
X289629D01*
X290058Y218143D01*
X290200Y218286D01*
X290343Y218571D01*
X285673Y220999D02*
X287101Y218000D01*
X287672Y220999D02*
X285673D01*
X215899Y177657D02*
Y175800D01*
X212900D01*
Y177657D01*
X214471Y175800D02*
Y176943D01*
X215328Y178157D02*
X215471Y178442D01*
X215899Y178871D01*
X212900D01*
X215471Y182070D02*
X215757Y181927D01*
X215899Y181499D01*
Y181213D01*
X215757Y180785D01*
X215328Y180499D01*
X214614Y180356D01*
X213900D01*
X213329Y180499D01*
X213043Y180785D01*
X212900Y181213D01*
Y181356D01*
X213043Y181784D01*
X213329Y182070D01*
X213757Y182213D01*
X213900D01*
X214328Y182070D01*
X214614Y181784D01*
X214757Y181356D01*
Y181213D01*
X214614Y180785D01*
X214328Y180499D01*
X213900Y180356D01*
X215999Y186957D02*
Y185100D01*
X213000D01*
Y186957D01*
X214571Y185100D02*
Y186243D01*
X215428Y187457D02*
X215571Y187742D01*
X215999Y188171D01*
X213000D01*
X215999Y191656D02*
X213000Y190227D01*
X215999Y189656D02*
Y191656D01*
X50999Y89157D02*
Y87300D01*
X48000D01*
Y89157D01*
X49571Y87300D02*
Y88443D01*
X50285Y89799D02*
X50428D01*
X50714Y89942D01*
X50857Y90085D01*
X50999Y90371D01*
Y90942D01*
X50857Y91228D01*
X50714Y91371D01*
X50428Y91513D01*
X50142D01*
X49857Y91371D01*
X49428Y91085D01*
X48000Y89657D01*
Y91656D01*
X50428Y92327D02*
X50571Y92613D01*
X50999Y93042D01*
X48000D01*
X50799Y108157D02*
Y106300D01*
X47800D01*
Y108157D01*
X49371Y106300D02*
Y107443D01*
X50085Y108800D02*
X50228D01*
X50514Y108942D01*
X50656Y109085D01*
X50799Y109371D01*
Y109942D01*
X50656Y110228D01*
X50514Y110371D01*
X50228Y110513D01*
X49942D01*
X49657Y110371D01*
X49228Y110085D01*
X47800Y108657D01*
Y110656D01*
X50085Y111470D02*
X50228D01*
X50514Y111613D01*
X50656Y111756D01*
X50799Y112042D01*
Y112613D01*
X50656Y112899D01*
X50514Y113041D01*
X50228Y113184D01*
X49942D01*
X49657Y113041D01*
X49228Y112756D01*
X47800Y111328D01*
Y113327D01*
X50699Y117957D02*
Y116100D01*
X47700D01*
Y117957D01*
X49271Y116100D02*
Y117243D01*
X49985Y118599D02*
X50128D01*
X50414Y118742D01*
X50556Y118885D01*
X50699Y119171D01*
Y119742D01*
X50556Y120028D01*
X50414Y120171D01*
X50128Y120313D01*
X49842D01*
X49557Y120171D01*
X49128Y119885D01*
X47700Y118457D01*
Y120456D01*
X50699Y121413D02*
Y122984D01*
X49557Y122127D01*
Y122556D01*
X49414Y122841D01*
X49271Y122984D01*
X48843Y123127D01*
X48557D01*
X48129Y122984D01*
X47843Y122699D01*
X47700Y122270D01*
Y121842D01*
X47843Y121413D01*
X47986Y121270D01*
X48271Y121127D01*
X286343Y140099D02*
X288200D01*
Y137100D01*
X286343D01*
X288200Y138671D02*
X287057D01*
X285700Y139385D02*
Y139528D01*
X285558Y139814D01*
X285415Y139956D01*
X285129Y140099D01*
X284558D01*
X284272Y139956D01*
X284129Y139814D01*
X283987Y139528D01*
Y139242D01*
X284129Y138957D01*
X284415Y138528D01*
X285843Y137100D01*
X283844D01*
X281744Y140099D02*
X283172Y138100D01*
X281030D01*
X281744Y140099D02*
Y137100D01*
X84901Y200299D02*
X86900D01*
Y197300D01*
X84901D01*
X86900Y198800D02*
X85900D01*
X83901Y197800D02*
X83401Y197300D01*
X82401D01*
X81902Y197800D01*
Y199799D01*
X82401Y200299D01*
X83401D01*
X83901Y199799D01*
Y199299D01*
X83401Y198800D01*
X81902D01*
D72*
X72600Y186100D02*
X92600D01*
Y196100D01*
X72600D02*
X92600D01*
X72600Y186100D02*
Y196100D01*
D77*
X246175Y237603D02*
Y237997D01*
X243025Y237603D02*
Y237997D01*
D78*
X87894Y124569D02*
Y133231D01*
X99705Y124569D02*
Y133231D01*
X94587Y124569D02*
X99705D01*
X94587Y133231D02*
X99705D01*
X87894D02*
X93013D01*
X87894Y124569D02*
X93013D01*
X100594D02*
X112406D01*
X100594Y133231D02*
X112406D01*
X100594Y124569D02*
Y133231D01*
X112406Y124569D02*
Y133231D01*
X178905Y118169D02*
Y126831D01*
X167095Y118169D02*
Y126831D01*
X178905D01*
X167095Y118169D02*
X178905D01*
X224406Y148669D02*
Y157331D01*
X212595Y148669D02*
Y157331D01*
X224406D01*
X212595Y148669D02*
X224406D01*
X232505Y213269D02*
Y221931D01*
X220694Y213269D02*
Y221931D01*
X232505D01*
X220694Y213269D02*
X232505D01*
X207169Y220394D02*
X215831D01*
X207169Y232206D02*
X215831D01*
Y220394D02*
Y232206D01*
X207169Y220394D02*
Y232206D01*
X196669Y220394D02*
X205331D01*
X196669Y232206D02*
X205331D01*
Y220394D02*
Y232206D01*
X196669Y220394D02*
Y232206D01*
X64406Y77169D02*
Y85831D01*
X52595Y77169D02*
Y85831D01*
X64406D01*
X52595Y77169D02*
X64406D01*
Y96169D02*
Y104831D01*
X52595Y96169D02*
Y104831D01*
X64406D01*
X52595Y96169D02*
X64406D01*
Y125169D02*
Y133831D01*
X52595Y125169D02*
Y133831D01*
X64406D01*
X52595Y125169D02*
X64406D01*
X49169Y158405D02*
X57831D01*
X49169Y146595D02*
X57831D01*
X49169D02*
Y158405D01*
X57831Y146595D02*
Y158405D01*
X290169Y128405D02*
X298831D01*
X290169Y116595D02*
X298831D01*
X290169D02*
Y128405D01*
X298831Y116595D02*
Y128405D01*
X280669D02*
X289331D01*
X280669Y116595D02*
X289331D01*
X280669D02*
Y128405D01*
X289331Y116595D02*
Y128405D01*
X153595Y118169D02*
X158713D01*
X153595Y126831D02*
X158713D01*
X160287D02*
X165405D01*
X160287Y118169D02*
X165405D01*
Y126831D01*
X153595Y118169D02*
Y126831D01*
X219287Y150331D02*
X224406D01*
X219287Y141669D02*
X224406D01*
X212595D02*
X217713D01*
X212595Y150331D02*
X217713D01*
X212595Y141669D02*
Y150331D01*
X224406Y141669D02*
Y150331D01*
X271595Y215669D02*
X276713D01*
X271595Y224331D02*
X276713D01*
X278287D02*
X283405D01*
X278287Y215669D02*
X283405D01*
Y224331D01*
X271595Y215669D02*
Y224331D01*
X199695Y174369D02*
X204813D01*
X199695Y183031D02*
X204813D01*
X206387D02*
X211506D01*
X206387Y174369D02*
X211506D01*
Y183031D01*
X199695Y174369D02*
Y183031D01*
Y183869D02*
X204813D01*
X199695Y192531D02*
X204813D01*
X206387D02*
X211506D01*
X206387Y183869D02*
X211506D01*
Y192531D01*
X199695Y183869D02*
Y192531D01*
X59287Y95331D02*
X64406D01*
X59287Y86669D02*
X64406D01*
X52595D02*
X57713D01*
X52595Y95331D02*
X57713D01*
X52595Y86669D02*
Y95331D01*
X64406Y86669D02*
Y95331D01*
X59287Y114331D02*
X64406D01*
X59287Y105669D02*
X64406D01*
X52595D02*
X57713D01*
X52595Y114331D02*
X57713D01*
X52595Y105669D02*
Y114331D01*
X64406Y105669D02*
Y114331D01*
X59287Y124331D02*
X64406D01*
X59287Y115669D02*
X64406D01*
X52595D02*
X57713D01*
X52595Y124331D02*
X57713D01*
X52595Y115669D02*
Y124331D01*
X64406Y115669D02*
Y124331D01*
X304105Y132169D02*
Y140831D01*
X292295Y132169D02*
Y140831D01*
X297413D01*
X292295Y132169D02*
X297413D01*
X298987D02*
X304105D01*
X298987Y140831D02*
X304105D01*
D132*
X113351Y34049D02*
X115300D01*
Y30900D01*
X113351D01*
X115300Y32549D02*
X114100D01*
X112826Y33449D02*
X112526Y33599D01*
X112076Y34049D01*
Y30900D01*
X110517Y33449D02*
X110217Y33599D01*
X109767Y34049D01*
Y30900D01*
X107158Y34649D02*
X107458Y34349D01*
X107757Y33899D01*
X108057Y33299D01*
X108207Y32549D01*
Y31950D01*
X108057Y31200D01*
X107757Y30600D01*
X107458Y30150D01*
X107158Y29850D01*
X107458Y34349D02*
X107757Y33749D01*
X107907Y33299D01*
X108057Y32549D01*
Y31950D01*
X107907Y31200D01*
X107757Y30750D01*
X107458Y30150D01*
X105658Y34049D02*
X105958Y33899D01*
X106258Y33599D01*
X106408Y33299D01*
X106558Y32849D01*
Y32100D01*
X106408Y31650D01*
X106258Y31350D01*
X105958Y31050D01*
X105658Y30900D01*
X105059D01*
X104759Y31050D01*
X104459Y31350D01*
X104309Y31650D01*
X104159Y32100D01*
Y32849D01*
X104309Y33299D01*
X104459Y33599D01*
X104759Y33899D01*
X105059Y34049D01*
X105658D01*
X103424Y34649D02*
X103124Y34349D01*
X102824Y33899D01*
X102524Y33299D01*
X102374Y32549D01*
Y31950D01*
X102524Y31200D01*
X102824Y30600D01*
X103124Y30150D01*
X103424Y29850D01*
X103124Y34349D02*
X102824Y33749D01*
X102674Y33299D01*
X102524Y32549D01*
Y31950D01*
X102674Y31200D01*
X102824Y30750D01*
X103124Y30150D01*
X97336Y34049D02*
X98836D01*
X98985Y32699D01*
X98836Y32849D01*
X98386Y32999D01*
X97936D01*
X97486Y32849D01*
X97186Y32549D01*
X97036Y32100D01*
Y31800D01*
X97186Y31350D01*
X97486Y31050D01*
X97936Y30900D01*
X98386D01*
X98836Y31050D01*
X98985Y31200D01*
X99136Y31500D01*
X96331Y34049D02*
X95132Y30900D01*
X93932Y34049D02*
X95132Y30900D01*
X91128Y33599D02*
X93527Y32250D01*
X91128Y30900D01*
X90228Y32250D02*
X87529D01*
X86600Y33599D02*
X84201Y32250D01*
X86600Y30900D01*
X81801Y34049D02*
Y31650D01*
X81951Y31200D01*
X82101Y31050D01*
X82401Y30900D01*
X82701D01*
X83001Y31050D01*
X83151Y31200D01*
X83301Y31650D01*
Y31950D01*
X78892Y34049D02*
X80392Y30900D01*
X80992Y34049D02*
X78892D01*
X78188Y32250D02*
X75489D01*
X74559Y33449D02*
X74259Y33599D01*
X73809Y34049D01*
Y30900D01*
X72100Y33299D02*
Y33449D01*
X71950Y33749D01*
X71800Y33899D01*
X71500Y34049D01*
X70900D01*
X70600Y33899D01*
X70450Y33749D01*
X70300Y33449D01*
Y33149D01*
X70450Y32849D01*
X70750Y32399D01*
X72250Y30900D01*
X70150D01*
X113451Y41149D02*
X115400D01*
Y38000D01*
X113451D01*
X115400Y39649D02*
X114200D01*
X112776Y40399D02*
Y40549D01*
X112626Y40849D01*
X112476Y40999D01*
X112176Y41149D01*
X111576D01*
X111276Y40999D01*
X111126Y40849D01*
X110977Y40549D01*
Y40249D01*
X111126Y39949D01*
X111426Y39500D01*
X112926Y38000D01*
X110827D01*
X109972Y40399D02*
Y40549D01*
X109822Y40849D01*
X109672Y40999D01*
X109372Y41149D01*
X108772D01*
X108472Y40999D01*
X108322Y40849D01*
X108173Y40549D01*
Y40249D01*
X108322Y39949D01*
X108622Y39500D01*
X110122Y38000D01*
X108022D01*
X106268Y41749D02*
X106568Y41449D01*
X106868Y40999D01*
X107168Y40399D01*
X107318Y39649D01*
Y39050D01*
X107168Y38300D01*
X106868Y37700D01*
X106568Y37250D01*
X106268Y36950D01*
X106568Y41449D02*
X106868Y40849D01*
X107018Y40399D01*
X107168Y39649D01*
Y39050D01*
X107018Y38300D01*
X106868Y37850D01*
X106568Y37250D01*
X104769Y41149D02*
X105069Y40999D01*
X105368Y40699D01*
X105518Y40399D01*
X105668Y39949D01*
Y39200D01*
X105518Y38750D01*
X105368Y38450D01*
X105069Y38150D01*
X104769Y38000D01*
X104169D01*
X103869Y38150D01*
X103569Y38450D01*
X103419Y38750D01*
X103269Y39200D01*
Y39949D01*
X103419Y40399D01*
X103569Y40699D01*
X103869Y40999D01*
X104169Y41149D01*
X104769D01*
X102534Y41749D02*
X102234Y41449D01*
X101935Y40999D01*
X101635Y40399D01*
X101485Y39649D01*
Y39050D01*
X101635Y38300D01*
X101935Y37700D01*
X102234Y37250D01*
X102534Y36950D01*
X102234Y41449D02*
X101935Y40849D01*
X101785Y40399D01*
X101635Y39649D01*
Y39050D01*
X101785Y38300D01*
X101935Y37850D01*
X102234Y37250D01*
X98246Y41149D02*
Y38000D01*
Y41149D02*
X97046Y38000D01*
X95847Y41149D02*
X97046Y38000D01*
X95847Y41149D02*
Y38000D01*
X92698Y40399D02*
X92848Y40699D01*
X93147Y40999D01*
X93447Y41149D01*
X94047D01*
X94347Y40999D01*
X94647Y40699D01*
X94797Y40399D01*
X94947Y39949D01*
Y39200D01*
X94797Y38750D01*
X94647Y38450D01*
X94347Y38150D01*
X94047Y38000D01*
X93447D01*
X93147Y38150D01*
X92848Y38450D01*
X92698Y38750D01*
X91813Y41149D02*
Y38900D01*
X91663Y38450D01*
X91363Y38150D01*
X90913Y38000D01*
X90613D01*
X90163Y38150D01*
X89864Y38450D01*
X89714Y38900D01*
Y41149D01*
X86370Y39500D02*
X85020D01*
X84570Y39649D01*
X84421Y39799D01*
X84271Y40099D01*
Y40549D01*
X84421Y40849D01*
X84570Y40999D01*
X85020Y41149D01*
X86370D01*
Y38000D01*
X83266Y41149D02*
X81616D01*
X82516Y39949D01*
X82066D01*
X81766Y39799D01*
X81616Y39649D01*
X81467Y39200D01*
Y38900D01*
X81616Y38450D01*
X81916Y38150D01*
X82366Y38000D01*
X82816D01*
X83266Y38150D01*
X83416Y38300D01*
X83566Y38600D01*
X79862Y41149D02*
X80312Y40999D01*
X80612Y40549D01*
X80762Y39799D01*
Y39349D01*
X80612Y38600D01*
X80312Y38150D01*
X79862Y38000D01*
X79562D01*
X79112Y38150D01*
X78812Y38600D01*
X78662Y39349D01*
Y39799D01*
X78812Y40549D01*
X79112Y40999D01*
X79562Y41149D01*
X79862D01*
X77808Y40399D02*
Y40549D01*
X77658Y40849D01*
X77508Y40999D01*
X77208Y41149D01*
X76608D01*
X76308Y40999D01*
X76158Y40849D01*
X76008Y40549D01*
Y40249D01*
X76158Y39949D01*
X76458Y39500D01*
X77958Y38000D01*
X75858D01*
X72754Y40699D02*
X75154Y39349D01*
X72754Y38000D01*
X71855Y39349D02*
X69156D01*
X68226Y40699D02*
X65827Y39349D01*
X68226Y38000D01*
X63428Y41149D02*
Y38750D01*
X63578Y38300D01*
X63727Y38150D01*
X64027Y38000D01*
X64327D01*
X64627Y38150D01*
X64777Y38300D01*
X64927Y38750D01*
Y39050D01*
X60519Y41149D02*
X62018Y38000D01*
X62618Y41149D02*
X60519D01*
X59814Y39349D02*
X57115D01*
X56185Y40549D02*
X55885Y40699D01*
X55435Y41149D01*
Y38000D01*
X52976Y41149D02*
X53426Y40999D01*
X53726Y40549D01*
X53876Y39799D01*
Y39349D01*
X53726Y38600D01*
X53426Y38150D01*
X52976Y38000D01*
X52676D01*
X52226Y38150D01*
X51926Y38600D01*
X51776Y39349D01*
Y39799D01*
X51926Y40549D01*
X52226Y40999D01*
X52676Y41149D01*
X52976D01*
X113451Y58649D02*
X115400D01*
Y55500D01*
X113451D01*
X115400Y57149D02*
X114200D01*
X112776Y57899D02*
Y58049D01*
X112626Y58349D01*
X112476Y58499D01*
X112176Y58649D01*
X111576D01*
X111276Y58499D01*
X111126Y58349D01*
X110977Y58049D01*
Y57749D01*
X111126Y57449D01*
X111426Y56999D01*
X112926Y55500D01*
X110827D01*
X109222Y58649D02*
X109672Y58499D01*
X109972Y58049D01*
X110122Y57299D01*
Y56849D01*
X109972Y56100D01*
X109672Y55650D01*
X109222Y55500D01*
X108922D01*
X108472Y55650D01*
X108173Y56100D01*
X108022Y56849D01*
Y57299D01*
X108173Y58049D01*
X108472Y58499D01*
X108922Y58649D01*
X109222D01*
X106268Y59249D02*
X106568Y58949D01*
X106868Y58499D01*
X107168Y57899D01*
X107318Y57149D01*
Y56550D01*
X107168Y55800D01*
X106868Y55200D01*
X106568Y54750D01*
X106268Y54450D01*
X106568Y58949D02*
X106868Y58349D01*
X107018Y57899D01*
X107168Y57149D01*
Y56550D01*
X107018Y55800D01*
X106868Y55350D01*
X106568Y54750D01*
X103419Y57899D02*
X103569Y58199D01*
X103869Y58499D01*
X104169Y58649D01*
X104769D01*
X105069Y58499D01*
X105368Y58199D01*
X105518Y57899D01*
X105668Y57449D01*
Y56700D01*
X105518Y56250D01*
X105368Y55950D01*
X105069Y55650D01*
X104769Y55500D01*
X104169D01*
X103869Y55650D01*
X103569Y55950D01*
X103419Y56250D01*
X102534Y59249D02*
X102234Y58949D01*
X101935Y58499D01*
X101635Y57899D01*
X101485Y57149D01*
Y56550D01*
X101635Y55800D01*
X101935Y55200D01*
X102234Y54750D01*
X102534Y54450D01*
X102234Y58949D02*
X101935Y58349D01*
X101785Y57899D01*
X101635Y57149D01*
Y56550D01*
X101785Y55800D01*
X101935Y55350D01*
X102234Y54750D01*
X98246Y58649D02*
X97046Y55500D01*
X95847Y58649D02*
X97046Y55500D01*
X93192Y57899D02*
X93343Y58199D01*
X93642Y58499D01*
X93942Y58649D01*
X94542D01*
X94842Y58499D01*
X95142Y58199D01*
X95292Y57899D01*
X95442Y57449D01*
Y56700D01*
X95292Y56250D01*
X95142Y55950D01*
X94842Y55650D01*
X94542Y55500D01*
X93942D01*
X93642Y55650D01*
X93343Y55950D01*
X93192Y56250D01*
X90059Y57899D02*
X90209Y58199D01*
X90508Y58499D01*
X90808Y58649D01*
X91408D01*
X91708Y58499D01*
X92008Y58199D01*
X92158Y57899D01*
X92308Y57449D01*
Y56700D01*
X92158Y56250D01*
X92008Y55950D01*
X91708Y55650D01*
X91408Y55500D01*
X90808D01*
X90508Y55650D01*
X90209Y55950D01*
X90059Y56250D01*
X86775Y58199D02*
X89174Y56849D01*
X86775Y55500D01*
X85875Y56849D02*
X83176D01*
X82246Y58199D02*
X79847Y56849D01*
X82246Y55500D01*
X77448Y58649D02*
Y56250D01*
X77598Y55800D01*
X77748Y55650D01*
X78048Y55500D01*
X78348D01*
X78648Y55650D01*
X78797Y55800D01*
X78947Y56250D01*
Y56550D01*
X74539Y58649D02*
X76038Y55500D01*
X76638Y58649D02*
X74539D01*
X73834Y56849D02*
X71135D01*
X70205Y58049D02*
X69905Y58199D01*
X69456Y58649D01*
Y55500D01*
X67746Y57899D02*
Y58049D01*
X67596Y58349D01*
X67446Y58499D01*
X67146Y58649D01*
X66547D01*
X66247Y58499D01*
X66097Y58349D01*
X65947Y58049D01*
Y57749D01*
X66097Y57449D01*
X66397Y56999D01*
X67896Y55500D01*
X65797D01*
X113451Y65149D02*
X115400D01*
Y62000D01*
X113451D01*
X115400Y63649D02*
X114200D01*
X112926Y64549D02*
X112626Y64699D01*
X112176Y65149D01*
Y62000D01*
X108667Y64099D02*
X108817Y63649D01*
X109117Y63349D01*
X109567Y63200D01*
X109717D01*
X110167Y63349D01*
X110467Y63649D01*
X110617Y64099D01*
Y64249D01*
X110467Y64699D01*
X110167Y64999D01*
X109717Y65149D01*
X109567D01*
X109117Y64999D01*
X108817Y64699D01*
X108667Y64099D01*
Y63349D01*
X108817Y62600D01*
X109117Y62150D01*
X109567Y62000D01*
X109867D01*
X110317Y62150D01*
X110467Y62450D01*
X106763Y65749D02*
X107063Y65449D01*
X107363Y64999D01*
X107663Y64399D01*
X107813Y63649D01*
Y63050D01*
X107663Y62300D01*
X107363Y61700D01*
X107063Y61250D01*
X106763Y60950D01*
X107063Y65449D02*
X107363Y64849D01*
X107513Y64399D01*
X107663Y63649D01*
Y63050D01*
X107513Y62300D01*
X107363Y61850D01*
X107063Y61250D01*
X103914Y64399D02*
X104064Y64699D01*
X104364Y64999D01*
X104664Y65149D01*
X105263D01*
X105563Y64999D01*
X105863Y64699D01*
X106013Y64399D01*
X106163Y63949D01*
Y63200D01*
X106013Y62750D01*
X105863Y62450D01*
X105563Y62150D01*
X105263Y62000D01*
X104664D01*
X104364Y62150D01*
X104064Y62450D01*
X103914Y62750D01*
X103029Y65749D02*
X102729Y65449D01*
X102429Y64999D01*
X102129Y64399D01*
X101979Y63649D01*
Y63050D01*
X102129Y62300D01*
X102429Y61700D01*
X102729Y61250D01*
X103029Y60950D01*
X102729Y65449D02*
X102429Y64849D01*
X102279Y64399D01*
X102129Y63649D01*
Y63050D01*
X102279Y62300D01*
X102429Y61850D01*
X102729Y61250D01*
X98741Y65149D02*
Y62000D01*
Y65149D02*
X97541Y62000D01*
X96341Y65149D02*
X97541Y62000D01*
X96341Y65149D02*
Y62000D01*
X93192Y64399D02*
X93343Y64699D01*
X93642Y64999D01*
X93942Y65149D01*
X94542D01*
X94842Y64999D01*
X95142Y64699D01*
X95292Y64399D01*
X95442Y63949D01*
Y63200D01*
X95292Y62750D01*
X95142Y62450D01*
X94842Y62150D01*
X94542Y62000D01*
X93942D01*
X93642Y62150D01*
X93343Y62450D01*
X93192Y62750D01*
X92308Y65149D02*
Y62900D01*
X92158Y62450D01*
X91858Y62150D01*
X91408Y62000D01*
X91108D01*
X90658Y62150D01*
X90359Y62450D01*
X90209Y62900D01*
Y65149D01*
X86865Y63499D02*
X85515D01*
X85065Y63649D01*
X84915Y63799D01*
X84765Y64099D01*
Y64549D01*
X84915Y64849D01*
X85065Y64999D01*
X85515Y65149D01*
X86865D01*
Y62000D01*
X84061Y64549D02*
X83761Y64699D01*
X83311Y65149D01*
Y62000D01*
X80852Y65149D02*
X81301Y64999D01*
X81601Y64549D01*
X81751Y63799D01*
Y63349D01*
X81601Y62600D01*
X81301Y62150D01*
X80852Y62000D01*
X80552D01*
X80102Y62150D01*
X79802Y62600D01*
X79652Y63349D01*
Y63799D01*
X79802Y64549D01*
X80102Y64999D01*
X80552Y65149D01*
X80852D01*
X77148Y64699D02*
X77298Y64999D01*
X77748Y65149D01*
X78048D01*
X78497Y64999D01*
X78797Y64549D01*
X78947Y63799D01*
Y63050D01*
X78797Y62450D01*
X78497Y62150D01*
X78048Y62000D01*
X77898D01*
X77448Y62150D01*
X77148Y62450D01*
X76998Y62900D01*
Y63050D01*
X77148Y63499D01*
X77448Y63799D01*
X77898Y63949D01*
X78048D01*
X78497Y63799D01*
X78797Y63499D01*
X78947Y63050D01*
X73909Y64699D02*
X76308Y63349D01*
X73909Y62000D01*
X73009Y63349D02*
X70310D01*
X69381Y64699D02*
X66981Y63349D01*
X69381Y62000D01*
X64582Y65149D02*
Y62750D01*
X64732Y62300D01*
X64882Y62150D01*
X65182Y62000D01*
X65482D01*
X65782Y62150D01*
X65932Y62300D01*
X66082Y62750D01*
Y63050D01*
X61673Y65149D02*
X63173Y62000D01*
X63772Y65149D02*
X61673D01*
X60968Y63349D02*
X58269D01*
X57340Y64549D02*
X57040Y64699D01*
X56590Y65149D01*
Y62000D01*
X54131Y65149D02*
X54581Y64999D01*
X54880Y64549D01*
X55030Y63799D01*
Y63349D01*
X54880Y62600D01*
X54581Y62150D01*
X54131Y62000D01*
X53831D01*
X53381Y62150D01*
X53081Y62600D01*
X52931Y63349D01*
Y63799D01*
X53081Y64549D01*
X53381Y64999D01*
X53831Y65149D01*
X54131D01*
X113451Y48249D02*
X115400D01*
Y45100D01*
X113451D01*
X115400Y46749D02*
X114200D01*
X112776Y47499D02*
Y47649D01*
X112626Y47949D01*
X112476Y48099D01*
X112176Y48249D01*
X111576D01*
X111276Y48099D01*
X111126Y47949D01*
X110977Y47649D01*
Y47349D01*
X111126Y47049D01*
X111426Y46600D01*
X112926Y45100D01*
X110827D01*
X110122Y47649D02*
X109822Y47799D01*
X109372Y48249D01*
Y45100D01*
X106763Y48849D02*
X107063Y48549D01*
X107363Y48099D01*
X107663Y47499D01*
X107813Y46749D01*
Y46150D01*
X107663Y45400D01*
X107363Y44800D01*
X107063Y44350D01*
X106763Y44050D01*
X107063Y48549D02*
X107363Y47949D01*
X107513Y47499D01*
X107663Y46749D01*
Y46150D01*
X107513Y45400D01*
X107363Y44950D01*
X107063Y44350D01*
X105263Y48249D02*
X105563Y48099D01*
X105863Y47799D01*
X106013Y47499D01*
X106163Y47049D01*
Y46300D01*
X106013Y45850D01*
X105863Y45550D01*
X105563Y45250D01*
X105263Y45100D01*
X104664D01*
X104364Y45250D01*
X104064Y45550D01*
X103914Y45850D01*
X103764Y46300D01*
Y47049D01*
X103914Y47499D01*
X104064Y47799D01*
X104364Y48099D01*
X104664Y48249D01*
X105263D01*
X103029Y48849D02*
X102729Y48549D01*
X102429Y48099D01*
X102129Y47499D01*
X101979Y46749D01*
Y46150D01*
X102129Y45400D01*
X102429Y44800D01*
X102729Y44350D01*
X103029Y44050D01*
X102729Y48549D02*
X102429Y47949D01*
X102279Y47499D01*
X102129Y46749D01*
Y46150D01*
X102279Y45400D01*
X102429Y44950D01*
X102729Y44350D01*
X98741Y48249D02*
Y45100D01*
Y48249D02*
X97541Y45100D01*
X96341Y48249D02*
X97541Y45100D01*
X96341Y48249D02*
Y45100D01*
X93192Y47499D02*
X93343Y47799D01*
X93642Y48099D01*
X93942Y48249D01*
X94542D01*
X94842Y48099D01*
X95142Y47799D01*
X95292Y47499D01*
X95442Y47049D01*
Y46300D01*
X95292Y45850D01*
X95142Y45550D01*
X94842Y45250D01*
X94542Y45100D01*
X93942D01*
X93642Y45250D01*
X93343Y45550D01*
X93192Y45850D01*
X92308Y48249D02*
Y46000D01*
X92158Y45550D01*
X91858Y45250D01*
X91408Y45100D01*
X91108D01*
X90658Y45250D01*
X90359Y45550D01*
X90209Y46000D01*
Y48249D01*
X86865Y46600D02*
X85515D01*
X85065Y46749D01*
X84915Y46899D01*
X84765Y47199D01*
Y47649D01*
X84915Y47949D01*
X85065Y48099D01*
X85515Y48249D01*
X86865D01*
Y45100D01*
X83761Y48249D02*
X82111D01*
X83011Y47049D01*
X82561D01*
X82261Y46899D01*
X82111Y46749D01*
X81961Y46300D01*
Y46000D01*
X82111Y45550D01*
X82411Y45250D01*
X82861Y45100D01*
X83311D01*
X83761Y45250D01*
X83911Y45400D01*
X84061Y45700D01*
X80357Y48249D02*
X80807Y48099D01*
X81107Y47649D01*
X81257Y46899D01*
Y46450D01*
X81107Y45700D01*
X80807Y45250D01*
X80357Y45100D01*
X80057D01*
X79607Y45250D01*
X79307Y45700D01*
X79157Y46450D01*
Y46899D01*
X79307Y47649D01*
X79607Y48099D01*
X80057Y48249D01*
X80357D01*
X78452Y47649D02*
X78153Y47799D01*
X77703Y48249D01*
Y45100D01*
X73744Y47799D02*
X76143Y46450D01*
X73744Y45100D01*
X72844Y46450D02*
X70145D01*
X69216Y47799D02*
X66816Y46450D01*
X69216Y45100D01*
X64417Y48249D02*
Y45850D01*
X64567Y45400D01*
X64717Y45250D01*
X65017Y45100D01*
X65317D01*
X65617Y45250D01*
X65767Y45400D01*
X65917Y45850D01*
Y46150D01*
X61508Y48249D02*
X63008Y45100D01*
X63608Y48249D02*
X61508D01*
X60804Y46450D02*
X58104D01*
X55225Y47199D02*
X55375Y46749D01*
X55675Y46450D01*
X56125Y46300D01*
X56275D01*
X56725Y46450D01*
X57025Y46749D01*
X57175Y47199D01*
Y47349D01*
X57025Y47799D01*
X56725Y48099D01*
X56275Y48249D01*
X56125D01*
X55675Y48099D01*
X55375Y47799D01*
X55225Y47199D01*
Y46450D01*
X55375Y45700D01*
X55675Y45250D01*
X56125Y45100D01*
X56425D01*
X56875Y45250D01*
X57025Y45550D01*
X113451Y72149D02*
X115400D01*
Y69000D01*
X113451D01*
X115400Y70649D02*
X114200D01*
X112926Y71549D02*
X112626Y71699D01*
X112176Y72149D01*
Y69000D01*
X109867Y72149D02*
X110317Y71999D01*
X110467Y71699D01*
Y71399D01*
X110317Y71099D01*
X110017Y70949D01*
X109417Y70799D01*
X108967Y70649D01*
X108667Y70350D01*
X108517Y70050D01*
Y69600D01*
X108667Y69300D01*
X108817Y69150D01*
X109267Y69000D01*
X109867D01*
X110317Y69150D01*
X110467Y69300D01*
X110617Y69600D01*
Y70050D01*
X110467Y70350D01*
X110167Y70649D01*
X109717Y70799D01*
X109117Y70949D01*
X108817Y71099D01*
X108667Y71399D01*
Y71699D01*
X108817Y71999D01*
X109267Y72149D01*
X109867D01*
X106763Y72749D02*
X107063Y72449D01*
X107363Y71999D01*
X107663Y71399D01*
X107813Y70649D01*
Y70050D01*
X107663Y69300D01*
X107363Y68700D01*
X107063Y68250D01*
X106763Y67950D01*
X107063Y72449D02*
X107363Y71849D01*
X107513Y71399D01*
X107663Y70649D01*
Y70050D01*
X107513Y69300D01*
X107363Y68850D01*
X107063Y68250D01*
X103914Y71399D02*
X104064Y71699D01*
X104364Y71999D01*
X104664Y72149D01*
X105263D01*
X105563Y71999D01*
X105863Y71699D01*
X106013Y71399D01*
X106163Y70949D01*
Y70200D01*
X106013Y69750D01*
X105863Y69450D01*
X105563Y69150D01*
X105263Y69000D01*
X104664D01*
X104364Y69150D01*
X104064Y69450D01*
X103914Y69750D01*
X103029Y72749D02*
X102729Y72449D01*
X102429Y71999D01*
X102129Y71399D01*
X101979Y70649D01*
Y70050D01*
X102129Y69300D01*
X102429Y68700D01*
X102729Y68250D01*
X103029Y67950D01*
X102729Y72449D02*
X102429Y71849D01*
X102279Y71399D01*
X102129Y70649D01*
Y70050D01*
X102279Y69300D01*
X102429Y68850D01*
X102729Y68250D01*
X98741Y72149D02*
Y69000D01*
Y72149D02*
X97541Y69000D01*
X96341Y72149D02*
X97541Y69000D01*
X96341Y72149D02*
Y69000D01*
X93192Y71399D02*
X93343Y71699D01*
X93642Y71999D01*
X93942Y72149D01*
X94542D01*
X94842Y71999D01*
X95142Y71699D01*
X95292Y71399D01*
X95442Y70949D01*
Y70200D01*
X95292Y69750D01*
X95142Y69450D01*
X94842Y69150D01*
X94542Y69000D01*
X93942D01*
X93642Y69150D01*
X93343Y69450D01*
X93192Y69750D01*
X92308Y72149D02*
Y69900D01*
X92158Y69450D01*
X91858Y69150D01*
X91408Y69000D01*
X91108D01*
X90658Y69150D01*
X90359Y69450D01*
X90209Y69900D01*
Y72149D01*
X86865Y70499D02*
X85515D01*
X85065Y70649D01*
X84915Y70799D01*
X84765Y71099D01*
Y71549D01*
X84915Y71849D01*
X85065Y71999D01*
X85515Y72149D01*
X86865D01*
Y69000D01*
X84061Y71549D02*
X83761Y71699D01*
X83311Y72149D01*
Y69000D01*
X80852Y72149D02*
X81301Y71999D01*
X81601Y71549D01*
X81751Y70799D01*
Y70350D01*
X81601Y69600D01*
X81301Y69150D01*
X80852Y69000D01*
X80552D01*
X80102Y69150D01*
X79802Y69600D01*
X79652Y70350D01*
Y70799D01*
X79802Y71549D01*
X80102Y71999D01*
X80552Y72149D01*
X80852D01*
X77148D02*
X78647D01*
X78797Y70799D01*
X78647Y70949D01*
X78198Y71099D01*
X77748D01*
X77298Y70949D01*
X76998Y70649D01*
X76848Y70200D01*
Y69900D01*
X76998Y69450D01*
X77298Y69150D01*
X77748Y69000D01*
X78198D01*
X78647Y69150D01*
X78797Y69300D01*
X78947Y69600D01*
X73744Y71699D02*
X76143Y70350D01*
X73744Y69000D01*
X72844Y70350D02*
X70145D01*
X69216Y71699D02*
X66816Y70350D01*
X69216Y69000D01*
X64417Y72149D02*
Y69750D01*
X64567Y69300D01*
X64717Y69150D01*
X65017Y69000D01*
X65317D01*
X65617Y69150D01*
X65767Y69300D01*
X65917Y69750D01*
Y70050D01*
X61508Y72149D02*
X63008Y69000D01*
X63608Y72149D02*
X61508D01*
X60804Y70350D02*
X58104D01*
X55225Y71099D02*
X55375Y70649D01*
X55675Y70350D01*
X56125Y70200D01*
X56275D01*
X56725Y70350D01*
X57025Y70649D01*
X57175Y71099D01*
Y71249D01*
X57025Y71699D01*
X56725Y71999D01*
X56275Y72149D01*
X56125D01*
X55675Y71999D01*
X55375Y71699D01*
X55225Y71099D01*
Y70350D01*
X55375Y69600D01*
X55675Y69150D01*
X56125Y69000D01*
X56425D01*
X56875Y69150D01*
X57025Y69450D01*
X304551Y101349D02*
X306500D01*
Y98200D01*
X304551D01*
X306500Y99849D02*
X305300D01*
X303726Y101349D02*
X302077D01*
X302976Y100149D01*
X302526D01*
X302226Y99999D01*
X302077Y99849D01*
X301926Y99400D01*
Y99100D01*
X302077Y98650D01*
X302376Y98350D01*
X302826Y98200D01*
X303276D01*
X303726Y98350D01*
X303876Y98500D01*
X304026Y98800D01*
X301072Y100599D02*
Y100749D01*
X300922Y101049D01*
X300772Y101199D01*
X300472Y101349D01*
X299872D01*
X299572Y101199D01*
X299422Y101049D01*
X299272Y100749D01*
Y100449D01*
X299422Y100149D01*
X299722Y99699D01*
X301222Y98200D01*
X299123D01*
X297368Y101949D02*
X297668Y101649D01*
X297968Y101199D01*
X298268Y100599D01*
X298418Y99849D01*
Y99250D01*
X298268Y98500D01*
X297968Y97900D01*
X297668Y97450D01*
X297368Y97150D01*
X297668Y101649D02*
X297968Y101049D01*
X298118Y100599D01*
X298268Y99849D01*
Y99250D01*
X298118Y98500D01*
X297968Y98050D01*
X297668Y97450D01*
X294519Y100599D02*
X294669Y100899D01*
X294969Y101199D01*
X295269Y101349D01*
X295869D01*
X296168Y101199D01*
X296468Y100899D01*
X296618Y100599D01*
X296768Y100149D01*
Y99400D01*
X296618Y98950D01*
X296468Y98650D01*
X296168Y98350D01*
X295869Y98200D01*
X295269D01*
X294969Y98350D01*
X294669Y98650D01*
X294519Y98950D01*
X293634Y101949D02*
X293335Y101649D01*
X293035Y101199D01*
X292735Y100599D01*
X292585Y99849D01*
Y99250D01*
X292735Y98500D01*
X293035Y97900D01*
X293335Y97450D01*
X293634Y97150D01*
X293335Y101649D02*
X293035Y101049D01*
X292885Y100599D01*
X292735Y99849D01*
Y99250D01*
X292885Y98500D01*
X293035Y98050D01*
X293335Y97450D01*
X289346Y101349D02*
Y98200D01*
Y101349D02*
X288146Y98200D01*
X286947Y101349D02*
X288146Y98200D01*
X286947Y101349D02*
Y98200D01*
X283798Y100599D02*
X283948Y100899D01*
X284247Y101199D01*
X284547Y101349D01*
X285147D01*
X285447Y101199D01*
X285747Y100899D01*
X285897Y100599D01*
X286047Y100149D01*
Y99400D01*
X285897Y98950D01*
X285747Y98650D01*
X285447Y98350D01*
X285147Y98200D01*
X284547D01*
X284247Y98350D01*
X283948Y98650D01*
X283798Y98950D01*
X282913Y101349D02*
Y99100D01*
X282763Y98650D01*
X282463Y98350D01*
X282013Y98200D01*
X281713D01*
X281263Y98350D01*
X280964Y98650D01*
X280814Y99100D01*
Y101349D01*
X277470Y99699D02*
X276120D01*
X275670Y99849D01*
X275520Y99999D01*
X275371Y100299D01*
Y100749D01*
X275520Y101049D01*
X275670Y101199D01*
X276120Y101349D01*
X277470D01*
Y98200D01*
X272866Y101349D02*
X274366D01*
X274516Y99999D01*
X274366Y100149D01*
X273916Y100299D01*
X273466D01*
X273016Y100149D01*
X272716Y99849D01*
X272567Y99400D01*
Y99100D01*
X272716Y98650D01*
X273016Y98350D01*
X273466Y98200D01*
X273916D01*
X274366Y98350D01*
X274516Y98500D01*
X274666Y98800D01*
X270962Y101349D02*
X271412Y101199D01*
X271712Y100749D01*
X271862Y99999D01*
Y99550D01*
X271712Y98800D01*
X271412Y98350D01*
X270962Y98200D01*
X270662D01*
X270212Y98350D01*
X269912Y98800D01*
X269762Y99550D01*
Y99999D01*
X269912Y100749D01*
X270212Y101199D01*
X270662Y101349D01*
X270962D01*
X268908Y100599D02*
Y100749D01*
X268758Y101049D01*
X268608Y101199D01*
X268308Y101349D01*
X267708D01*
X267408Y101199D01*
X267258Y101049D01*
X267108Y100749D01*
Y100449D01*
X267258Y100149D01*
X267558Y99699D01*
X269058Y98200D01*
X266958D01*
X263854Y100899D02*
X266254Y99550D01*
X263854Y98200D01*
X262955Y99550D02*
X260256D01*
X259326Y101349D02*
Y99100D01*
X259176Y98650D01*
X258876Y98350D01*
X258426Y98200D01*
X258126D01*
X257677Y98350D01*
X257377Y98650D01*
X257227Y99100D01*
Y101349D01*
X254708Y99849D02*
X254857Y100149D01*
X255307Y100299D01*
X255757D01*
X256207Y100149D01*
X256357Y99849D01*
X256207Y99550D01*
X255907Y99400D01*
X255157Y99250D01*
X254857Y99100D01*
X254708Y98800D01*
Y98650D01*
X254857Y98350D01*
X255307Y98200D01*
X255757D01*
X256207Y98350D01*
X256357Y98650D01*
X254048Y99400D02*
X252248D01*
Y99699D01*
X252398Y99999D01*
X252548Y100149D01*
X252848Y100299D01*
X253298D01*
X253598Y100149D01*
X253898Y99849D01*
X254048Y99400D01*
Y99100D01*
X253898Y98650D01*
X253598Y98350D01*
X253298Y98200D01*
X252848D01*
X252548Y98350D01*
X252248Y98650D01*
X251574Y100299D02*
Y98200D01*
Y99400D02*
X251424Y99849D01*
X251124Y100149D01*
X250824Y100299D01*
X250374D01*
X247615Y101349D02*
Y98200D01*
X245815D01*
X243521Y101349D02*
X245471D01*
Y98200D01*
X243521D01*
X245471Y99849D02*
X244271D01*
X242997Y101349D02*
Y98200D01*
Y101349D02*
X241947D01*
X241497Y101199D01*
X241197Y100899D01*
X241047Y100599D01*
X240897Y100149D01*
Y99400D01*
X241047Y98950D01*
X241197Y98650D01*
X241497Y98350D01*
X241947Y98200D01*
X242997D01*
X240193Y100749D02*
X239893Y100899D01*
X239443Y101349D01*
Y98200D01*
X79651Y171049D02*
X81600D01*
Y167900D01*
X79651D01*
X81600Y169549D02*
X80400D01*
X78826Y171049D02*
X77176D01*
X78076Y169849D01*
X77626D01*
X77326Y169699D01*
X77176Y169549D01*
X77026Y169100D01*
Y168800D01*
X77176Y168350D01*
X77476Y168050D01*
X77926Y167900D01*
X78376D01*
X78826Y168050D01*
X78976Y168200D01*
X79126Y168500D01*
X75422Y171049D02*
X75872Y170899D01*
X76172Y170449D01*
X76322Y169699D01*
Y169249D01*
X76172Y168500D01*
X75872Y168050D01*
X75422Y167900D01*
X75122D01*
X74672Y168050D01*
X74373Y168500D01*
X74222Y169249D01*
Y169699D01*
X74373Y170449D01*
X74672Y170899D01*
X75122Y171049D01*
X75422D01*
X72468Y171649D02*
X72768Y171349D01*
X73068Y170899D01*
X73368Y170299D01*
X73518Y169549D01*
Y168950D01*
X73368Y168200D01*
X73068Y167600D01*
X72768Y167150D01*
X72468Y166850D01*
X72768Y171349D02*
X73068Y170749D01*
X73218Y170299D01*
X73368Y169549D01*
Y168950D01*
X73218Y168200D01*
X73068Y167750D01*
X72768Y167150D01*
X69619Y170299D02*
X69769Y170599D01*
X70069Y170899D01*
X70369Y171049D01*
X70969D01*
X71268Y170899D01*
X71568Y170599D01*
X71718Y170299D01*
X71868Y169849D01*
Y169100D01*
X71718Y168650D01*
X71568Y168350D01*
X71268Y168050D01*
X70969Y167900D01*
X70369D01*
X70069Y168050D01*
X69769Y168350D01*
X69619Y168650D01*
X68734Y171649D02*
X68435Y171349D01*
X68135Y170899D01*
X67835Y170299D01*
X67685Y169549D01*
Y168950D01*
X67835Y168200D01*
X68135Y167600D01*
X68435Y167150D01*
X68734Y166850D01*
X68435Y171349D02*
X68135Y170749D01*
X67985Y170299D01*
X67835Y169549D01*
Y168950D01*
X67985Y168200D01*
X68135Y167750D01*
X68435Y167150D01*
X64446Y171049D02*
Y167900D01*
Y171049D02*
X63246Y167900D01*
X62047Y171049D02*
X63246Y167900D01*
X62047Y171049D02*
Y167900D01*
X58898Y170299D02*
X59048Y170599D01*
X59347Y170899D01*
X59647Y171049D01*
X60247D01*
X60547Y170899D01*
X60847Y170599D01*
X60997Y170299D01*
X61147Y169849D01*
Y169100D01*
X60997Y168650D01*
X60847Y168350D01*
X60547Y168050D01*
X60247Y167900D01*
X59647D01*
X59347Y168050D01*
X59048Y168350D01*
X58898Y168650D01*
X58013Y171049D02*
Y168800D01*
X57863Y168350D01*
X57563Y168050D01*
X57113Y167900D01*
X56813D01*
X56363Y168050D01*
X56064Y168350D01*
X55914Y168800D01*
Y171049D01*
X52570Y169399D02*
X51220D01*
X50770Y169549D01*
X50621Y169699D01*
X50471Y169999D01*
Y170449D01*
X50621Y170749D01*
X50770Y170899D01*
X51220Y171049D01*
X52570D01*
Y167900D01*
X48866Y171049D02*
X49316Y170899D01*
X49616Y170449D01*
X49766Y169699D01*
Y169249D01*
X49616Y168500D01*
X49316Y168050D01*
X48866Y167900D01*
X48566D01*
X48116Y168050D01*
X47816Y168500D01*
X47666Y169249D01*
Y169699D01*
X47816Y170449D01*
X48116Y170899D01*
X48566Y171049D01*
X48866D01*
X46062D02*
X46512Y170899D01*
X46812Y170449D01*
X46962Y169699D01*
Y169249D01*
X46812Y168500D01*
X46512Y168050D01*
X46062Y167900D01*
X45762D01*
X45312Y168050D01*
X45012Y168500D01*
X44862Y169249D01*
Y169699D01*
X45012Y170449D01*
X45312Y170899D01*
X45762Y171049D01*
X46062D01*
X42658D02*
X44158Y168950D01*
X41908D01*
X42658Y171049D02*
Y167900D01*
X38954Y170599D02*
X41354Y169249D01*
X38954Y167900D01*
X38055Y169249D02*
X35356D01*
X34426Y171049D02*
Y168800D01*
X34276Y168350D01*
X33976Y168050D01*
X33526Y167900D01*
X33226D01*
X32776Y168050D01*
X32477Y168350D01*
X32327Y168800D01*
Y171049D01*
X29807Y169549D02*
X29958Y169849D01*
X30407Y169999D01*
X30857D01*
X31307Y169849D01*
X31457Y169549D01*
X31307Y169249D01*
X31007Y169100D01*
X30257Y168950D01*
X29958Y168800D01*
X29807Y168500D01*
Y168350D01*
X29958Y168050D01*
X30407Y167900D01*
X30857D01*
X31307Y168050D01*
X31457Y168350D01*
X29148Y169100D02*
X27348D01*
Y169399D01*
X27498Y169699D01*
X27648Y169849D01*
X27948Y169999D01*
X28398D01*
X28698Y169849D01*
X28998Y169549D01*
X29148Y169100D01*
Y168800D01*
X28998Y168350D01*
X28698Y168050D01*
X28398Y167900D01*
X27948D01*
X27648Y168050D01*
X27348Y168350D01*
X26674Y169999D02*
Y167900D01*
Y169100D02*
X26524Y169549D01*
X26224Y169849D01*
X25924Y169999D01*
X25474D01*
X22715Y171049D02*
Y167900D01*
X20616Y171049D02*
X22715Y168950D01*
X21965Y169699D02*
X20616Y167900D01*
X17962Y171049D02*
X19911D01*
Y167900D01*
X17962D01*
X19911Y169549D02*
X18711D01*
X17437Y171049D02*
X16237Y169549D01*
Y167900D01*
X15037Y171049D02*
X16237Y169549D01*
X10059Y170599D02*
X10359Y170899D01*
X10809Y171049D01*
X11409D01*
X11859Y170899D01*
X12158Y170599D01*
Y170299D01*
X12009Y169999D01*
X11859Y169849D01*
X11559Y169699D01*
X10659Y169399D01*
X10359Y169249D01*
X10209Y169100D01*
X10059Y168800D01*
Y168350D01*
X10359Y168050D01*
X10809Y167900D01*
X11409D01*
X11859Y168050D01*
X12158Y168350D01*
X9354Y170449D02*
X9055Y170599D01*
X8605Y171049D01*
Y167900D01*
X304551Y107149D02*
X306500D01*
Y104000D01*
X304551D01*
X306500Y105649D02*
X305300D01*
X303726Y107149D02*
X302077D01*
X302976Y105949D01*
X302526D01*
X302226Y105799D01*
X302077Y105649D01*
X301926Y105200D01*
Y104900D01*
X302077Y104450D01*
X302376Y104150D01*
X302826Y104000D01*
X303276D01*
X303726Y104150D01*
X303876Y104300D01*
X304026Y104600D01*
X301222Y106549D02*
X300922Y106699D01*
X300472Y107149D01*
Y104000D01*
X297863Y107749D02*
X298163Y107449D01*
X298463Y106999D01*
X298763Y106399D01*
X298913Y105649D01*
Y105050D01*
X298763Y104300D01*
X298463Y103700D01*
X298163Y103250D01*
X297863Y102950D01*
X298163Y107449D02*
X298463Y106849D01*
X298613Y106399D01*
X298763Y105649D01*
Y105050D01*
X298613Y104300D01*
X298463Y103850D01*
X298163Y103250D01*
X295014Y106399D02*
X295164Y106699D01*
X295464Y106999D01*
X295764Y107149D01*
X296363D01*
X296663Y106999D01*
X296963Y106699D01*
X297113Y106399D01*
X297263Y105949D01*
Y105200D01*
X297113Y104750D01*
X296963Y104450D01*
X296663Y104150D01*
X296363Y104000D01*
X295764D01*
X295464Y104150D01*
X295164Y104450D01*
X295014Y104750D01*
X294129Y107749D02*
X293829Y107449D01*
X293529Y106999D01*
X293230Y106399D01*
X293079Y105649D01*
Y105050D01*
X293230Y104300D01*
X293529Y103700D01*
X293829Y103250D01*
X294129Y102950D01*
X293829Y107449D02*
X293529Y106849D01*
X293379Y106399D01*
X293230Y105649D01*
Y105050D01*
X293379Y104300D01*
X293529Y103850D01*
X293829Y103250D01*
X289841Y107149D02*
Y104000D01*
Y107149D02*
X288641Y104000D01*
X287441Y107149D02*
X288641Y104000D01*
X287441Y107149D02*
Y104000D01*
X284293Y106399D02*
X284442Y106699D01*
X284742Y106999D01*
X285042Y107149D01*
X285642D01*
X285942Y106999D01*
X286242Y106699D01*
X286392Y106399D01*
X286542Y105949D01*
Y105200D01*
X286392Y104750D01*
X286242Y104450D01*
X285942Y104150D01*
X285642Y104000D01*
X285042D01*
X284742Y104150D01*
X284442Y104450D01*
X284293Y104750D01*
X283408Y107149D02*
Y104900D01*
X283258Y104450D01*
X282958Y104150D01*
X282508Y104000D01*
X282208D01*
X281758Y104150D01*
X281458Y104450D01*
X281309Y104900D01*
Y107149D01*
X277965Y105499D02*
X276615D01*
X276165Y105649D01*
X276015Y105799D01*
X275865Y106099D01*
Y106549D01*
X276015Y106849D01*
X276165Y106999D01*
X276615Y107149D01*
X277965D01*
Y104000D01*
X273361Y107149D02*
X274861D01*
X275011Y105799D01*
X274861Y105949D01*
X274411Y106099D01*
X273961D01*
X273511Y105949D01*
X273211Y105649D01*
X273061Y105200D01*
Y104900D01*
X273211Y104450D01*
X273511Y104150D01*
X273961Y104000D01*
X274411D01*
X274861Y104150D01*
X275011Y104300D01*
X275161Y104600D01*
X271457Y107149D02*
X271907Y106999D01*
X272207Y106549D01*
X272357Y105799D01*
Y105350D01*
X272207Y104600D01*
X271907Y104150D01*
X271457Y104000D01*
X271157D01*
X270707Y104150D01*
X270407Y104600D01*
X270257Y105350D01*
Y105799D01*
X270407Y106549D01*
X270707Y106999D01*
X271157Y107149D01*
X271457D01*
X269552Y106549D02*
X269253Y106699D01*
X268803Y107149D01*
Y104000D01*
X264844Y106699D02*
X267243Y105350D01*
X264844Y104000D01*
X263944Y105350D02*
X261245D01*
X260316Y107149D02*
Y104900D01*
X260166Y104450D01*
X259866Y104150D01*
X259416Y104000D01*
X259116D01*
X258666Y104150D01*
X258366Y104450D01*
X258216Y104900D01*
Y107149D01*
X255697Y105649D02*
X255847Y105949D01*
X256297Y106099D01*
X256747D01*
X257197Y105949D01*
X257347Y105649D01*
X257197Y105350D01*
X256897Y105200D01*
X256147Y105050D01*
X255847Y104900D01*
X255697Y104600D01*
Y104450D01*
X255847Y104150D01*
X256297Y104000D01*
X256747D01*
X257197Y104150D01*
X257347Y104450D01*
X255037Y105200D02*
X253238D01*
Y105499D01*
X253388Y105799D01*
X253538Y105949D01*
X253838Y106099D01*
X254288D01*
X254588Y105949D01*
X254888Y105649D01*
X255037Y105200D01*
Y104900D01*
X254888Y104450D01*
X254588Y104150D01*
X254288Y104000D01*
X253838D01*
X253538Y104150D01*
X253238Y104450D01*
X252563Y106099D02*
Y104000D01*
Y105200D02*
X252413Y105649D01*
X252113Y105949D01*
X251814Y106099D01*
X251364D01*
X248605Y107149D02*
Y104000D01*
X246805D01*
X244511Y107149D02*
X246460D01*
Y104000D01*
X244511D01*
X246460Y105649D02*
X245261D01*
X243986Y107149D02*
Y104000D01*
Y107149D02*
X242936D01*
X242487Y106999D01*
X242187Y106699D01*
X242037Y106399D01*
X241887Y105949D01*
Y105200D01*
X242037Y104750D01*
X242187Y104450D01*
X242487Y104150D01*
X242936Y104000D01*
X243986D01*
X241032Y106399D02*
Y106549D01*
X240882Y106849D01*
X240732Y106999D01*
X240432Y107149D01*
X239833D01*
X239533Y106999D01*
X239383Y106849D01*
X239233Y106549D01*
Y106249D01*
X239383Y105949D01*
X239683Y105499D01*
X241182Y104000D01*
X239083D01*
X290450Y201149D02*
X290750Y200849D01*
X291050Y200399D01*
X291350Y199799D01*
X291500Y199049D01*
Y198450D01*
X291350Y197700D01*
X291050Y197100D01*
X290750Y196650D01*
X290450Y196350D01*
X290750Y200849D02*
X291050Y200249D01*
X291200Y199799D01*
X291350Y199049D01*
Y198450D01*
X291200Y197700D01*
X291050Y197250D01*
X290750Y196650D01*
X288951Y200549D02*
X289251Y200399D01*
X289551Y200099D01*
X289701Y199799D01*
X289851Y199349D01*
Y198600D01*
X289701Y198150D01*
X289551Y197850D01*
X289251Y197550D01*
X288951Y197400D01*
X288351D01*
X288051Y197550D01*
X287751Y197850D01*
X287601Y198150D01*
X287451Y198600D01*
Y199349D01*
X287601Y199799D01*
X287751Y200099D01*
X288051Y200399D01*
X288351Y200549D01*
X288951D01*
X286717Y201149D02*
X286417Y200849D01*
X286117Y200399D01*
X285817Y199799D01*
X285667Y199049D01*
Y198450D01*
X285817Y197700D01*
X286117Y197100D01*
X286417Y196650D01*
X286717Y196350D01*
X286417Y200849D02*
X286117Y200249D01*
X285967Y199799D01*
X285817Y199049D01*
Y198450D01*
X285967Y197700D01*
X286117Y197250D01*
X286417Y196650D01*
X282428Y198749D02*
X279729D01*
X275425Y200549D02*
X275725Y200399D01*
X276025Y200099D01*
X276175Y199799D01*
X276325Y199349D01*
Y198600D01*
X276175Y198150D01*
X276025Y197850D01*
X275725Y197550D01*
X275425Y197400D01*
X274826D01*
X274526Y197550D01*
X274226Y197850D01*
X274076Y198150D01*
X273926Y198600D01*
Y199349D01*
X274076Y199799D01*
X274226Y200099D01*
X274526Y200399D01*
X274826Y200549D01*
X275425D01*
X273191Y198899D02*
X271842D01*
X271392Y199049D01*
X271242Y199199D01*
X271092Y199499D01*
Y199949D01*
X271242Y200249D01*
X271392Y200399D01*
X271842Y200549D01*
X273191D01*
Y197400D01*
X268438Y200549D02*
X270387D01*
Y197400D01*
X268438D01*
X270387Y199049D02*
X269188D01*
X267913Y200549D02*
Y197400D01*
Y200549D02*
X265814Y197400D01*
Y200549D02*
Y197400D01*
X290350Y208449D02*
X290650Y208149D01*
X290950Y207699D01*
X291250Y207099D01*
X291400Y206349D01*
Y205750D01*
X291250Y205000D01*
X290950Y204400D01*
X290650Y203950D01*
X290350Y203650D01*
X290650Y208149D02*
X290950Y207549D01*
X291100Y207099D01*
X291250Y206349D01*
Y205750D01*
X291100Y205000D01*
X290950Y204550D01*
X290650Y203950D01*
X287501Y207099D02*
X287651Y207399D01*
X287951Y207699D01*
X288251Y207849D01*
X288851D01*
X289151Y207699D01*
X289451Y207399D01*
X289601Y207099D01*
X289751Y206649D01*
Y205900D01*
X289601Y205450D01*
X289451Y205150D01*
X289151Y204850D01*
X288851Y204700D01*
X288251D01*
X287951Y204850D01*
X287651Y205150D01*
X287501Y205450D01*
X286617Y208449D02*
X286317Y208149D01*
X286017Y207699D01*
X285717Y207099D01*
X285567Y206349D01*
Y205750D01*
X285717Y205000D01*
X286017Y204400D01*
X286317Y203950D01*
X286617Y203650D01*
X286317Y208149D02*
X286017Y207549D01*
X285867Y207099D01*
X285717Y206349D01*
Y205750D01*
X285867Y205000D01*
X286017Y204550D01*
X286317Y203950D01*
X282328Y206049D02*
X279629D01*
X273976Y207099D02*
X274126Y207399D01*
X274426Y207699D01*
X274726Y207849D01*
X275325D01*
X275625Y207699D01*
X275925Y207399D01*
X276075Y207099D01*
X276225Y206649D01*
Y205900D01*
X276075Y205450D01*
X275925Y205150D01*
X275625Y204850D01*
X275325Y204700D01*
X274726D01*
X274426Y204850D01*
X274126Y205150D01*
X273976Y205450D01*
X273091Y207849D02*
Y204700D01*
X271292D01*
X270047Y207849D02*
X270347Y207699D01*
X270647Y207399D01*
X270797Y207099D01*
X270947Y206649D01*
Y205900D01*
X270797Y205450D01*
X270647Y205150D01*
X270347Y204850D01*
X270047Y204700D01*
X269447D01*
X269147Y204850D01*
X268848Y205150D01*
X268698Y205450D01*
X268548Y205900D01*
Y206649D01*
X268698Y207099D01*
X268848Y207399D01*
X269147Y207699D01*
X269447Y207849D01*
X270047D01*
X265714Y207399D02*
X266014Y207699D01*
X266463Y207849D01*
X267063D01*
X267513Y207699D01*
X267813Y207399D01*
Y207099D01*
X267663Y206799D01*
X267513Y206649D01*
X267213Y206499D01*
X266314Y206200D01*
X266014Y206049D01*
X265864Y205900D01*
X265714Y205600D01*
Y205150D01*
X266014Y204850D01*
X266463Y204700D01*
X267063D01*
X267513Y204850D01*
X267813Y205150D01*
X263060Y207849D02*
X265009D01*
Y204700D01*
X263060D01*
X265009Y206349D02*
X263809D01*
X128451Y150949D02*
X130400D01*
Y147800D01*
X128451D01*
X130400Y149449D02*
X129200D01*
X127926Y150349D02*
X127626Y150499D01*
X127176Y150949D01*
Y147800D01*
X124567Y151549D02*
X124867Y151249D01*
X125167Y150799D01*
X125467Y150199D01*
X125617Y149449D01*
Y148850D01*
X125467Y148100D01*
X125167Y147500D01*
X124867Y147050D01*
X124567Y146750D01*
X124867Y151249D02*
X125167Y150649D01*
X125317Y150199D01*
X125467Y149449D01*
Y148850D01*
X125317Y148100D01*
X125167Y147650D01*
X124867Y147050D01*
X121718Y150199D02*
X121868Y150499D01*
X122168Y150799D01*
X122468Y150949D01*
X123067D01*
X123367Y150799D01*
X123667Y150499D01*
X123817Y150199D01*
X123967Y149749D01*
Y149000D01*
X123817Y148550D01*
X123667Y148250D01*
X123367Y147950D01*
X123067Y147800D01*
X122468D01*
X122168Y147950D01*
X121868Y148250D01*
X121718Y148550D01*
X120833Y151549D02*
X120533Y151249D01*
X120233Y150799D01*
X119933Y150199D01*
X119784Y149449D01*
Y148850D01*
X119933Y148100D01*
X120233Y147500D01*
X120533Y147050D01*
X120833Y146750D01*
X120533Y151249D02*
X120233Y150649D01*
X120083Y150199D01*
X119933Y149449D01*
Y148850D01*
X120083Y148100D01*
X120233Y147650D01*
X120533Y147050D01*
X116545Y150949D02*
Y147800D01*
Y150949D02*
X115345Y147800D01*
X114146Y150949D02*
X115345Y147800D01*
X114146Y150949D02*
Y147800D01*
X110997Y150199D02*
X111146Y150499D01*
X111446Y150799D01*
X111746Y150949D01*
X112346D01*
X112646Y150799D01*
X112946Y150499D01*
X113096Y150199D01*
X113246Y149749D01*
Y149000D01*
X113096Y148550D01*
X112946Y148250D01*
X112646Y147950D01*
X112346Y147800D01*
X111746D01*
X111446Y147950D01*
X111146Y148250D01*
X110997Y148550D01*
X110112Y150949D02*
Y148700D01*
X109962Y148250D01*
X109662Y147950D01*
X109212Y147800D01*
X108912D01*
X108462Y147950D01*
X108162Y148250D01*
X108013Y148700D01*
Y150949D01*
X104669Y149299D02*
X103319D01*
X102869Y149449D01*
X102719Y149599D01*
X102569Y149899D01*
Y150349D01*
X102719Y150649D01*
X102869Y150799D01*
X103319Y150949D01*
X104669D01*
Y147800D01*
X100965Y150949D02*
X101415Y150799D01*
X101715Y150349D01*
X101865Y149599D01*
Y149150D01*
X101715Y148400D01*
X101415Y147950D01*
X100965Y147800D01*
X100665D01*
X100215Y147950D01*
X99915Y148400D01*
X99765Y149150D01*
Y149599D01*
X99915Y150349D01*
X100215Y150799D01*
X100665Y150949D01*
X100965D01*
X99061Y150349D02*
X98761Y150499D01*
X98311Y150949D01*
Y147800D01*
X96601Y150199D02*
Y150349D01*
X96451Y150649D01*
X96302Y150799D01*
X96002Y150949D01*
X95402D01*
X95102Y150799D01*
X94952Y150649D01*
X94802Y150349D01*
Y150049D01*
X94952Y149749D01*
X95252Y149299D01*
X96751Y147800D01*
X94652D01*
X91548Y150499D02*
X93947Y149150D01*
X91548Y147800D01*
X90649Y149150D02*
X87949D01*
X87020Y150499D02*
X84620Y149150D01*
X87020Y147800D01*
X82671Y150949D02*
Y147800D01*
X83721Y150949D02*
X81621D01*
X79147Y150499D02*
X79447Y150799D01*
X79897Y150949D01*
X80497D01*
X80947Y150799D01*
X81247Y150499D01*
Y150199D01*
X81097Y149899D01*
X80947Y149749D01*
X80647Y149599D01*
X79747Y149299D01*
X79447Y149150D01*
X79297Y149000D01*
X79147Y148700D01*
Y148250D01*
X79447Y147950D01*
X79897Y147800D01*
X80497D01*
X80947Y147950D01*
X81247Y148250D01*
X78443Y146750D02*
X76043D01*
X73389Y150199D02*
X73539Y150499D01*
X73839Y150799D01*
X74139Y150949D01*
X74739D01*
X75039Y150799D01*
X75339Y150499D01*
X75489Y150199D01*
X75639Y149749D01*
Y149000D01*
X75489Y148550D01*
X75339Y148250D01*
X75039Y147950D01*
X74739Y147800D01*
X74139D01*
X73839Y147950D01*
X73539Y148250D01*
X73389Y148550D01*
X71605Y150949D02*
X71905Y150799D01*
X72205Y150499D01*
X72355Y150199D01*
X72505Y149749D01*
Y149000D01*
X72355Y148550D01*
X72205Y148250D01*
X71905Y147950D01*
X71605Y147800D01*
X71005D01*
X70705Y147950D01*
X70405Y148250D01*
X70255Y148550D01*
X70105Y149000D01*
Y149749D01*
X70255Y150199D01*
X70405Y150499D01*
X70705Y150799D01*
X71005Y150949D01*
X71605D01*
X69371D02*
Y147800D01*
Y150949D02*
X67271Y147800D01*
Y150949D02*
Y147800D01*
X66402Y150949D02*
Y147800D01*
Y150949D02*
X64302Y147800D01*
Y150949D02*
Y147800D01*
X63433Y150349D02*
X63133Y150499D01*
X62683Y150949D01*
Y147800D01*
X128451Y145182D02*
X130400D01*
Y142033D01*
X128451D01*
X130400Y143683D02*
X129200D01*
X127926Y144582D02*
X127626Y144732D01*
X127176Y145182D01*
Y142033D01*
X125617Y144582D02*
X125317Y144732D01*
X124867Y145182D01*
Y142033D01*
X122258Y145782D02*
X122558Y145482D01*
X122857Y145032D01*
X123157Y144432D01*
X123307Y143683D01*
Y143083D01*
X123157Y142333D01*
X122857Y141733D01*
X122558Y141284D01*
X122258Y140984D01*
X122558Y145482D02*
X122857Y144882D01*
X123008Y144432D01*
X123157Y143683D01*
Y143083D01*
X123008Y142333D01*
X122857Y141883D01*
X122558Y141284D01*
X120758Y145182D02*
X121058Y145032D01*
X121358Y144732D01*
X121508Y144432D01*
X121658Y143983D01*
Y143233D01*
X121508Y142783D01*
X121358Y142483D01*
X121058Y142183D01*
X120758Y142033D01*
X120159D01*
X119859Y142183D01*
X119559Y142483D01*
X119409Y142783D01*
X119259Y143233D01*
Y143983D01*
X119409Y144432D01*
X119559Y144732D01*
X119859Y145032D01*
X120159Y145182D01*
X120758D01*
X118524Y145782D02*
X118224Y145482D01*
X117924Y145032D01*
X117624Y144432D01*
X117474Y143683D01*
Y143083D01*
X117624Y142333D01*
X117924Y141733D01*
X118224Y141284D01*
X118524Y140984D01*
X118224Y145482D02*
X117924Y144882D01*
X117774Y144432D01*
X117624Y143683D01*
Y143083D01*
X117774Y142333D01*
X117924Y141883D01*
X118224Y141284D01*
X114235Y145182D02*
Y142033D01*
Y145182D02*
X113036Y142033D01*
X111836Y145182D02*
X113036Y142033D01*
X111836Y145182D02*
Y142033D01*
X108687Y144432D02*
X108837Y144732D01*
X109137Y145032D01*
X109437Y145182D01*
X110037D01*
X110337Y145032D01*
X110637Y144732D01*
X110787Y144432D01*
X110937Y143983D01*
Y143233D01*
X110787Y142783D01*
X110637Y142483D01*
X110337Y142183D01*
X110037Y142033D01*
X109437D01*
X109137Y142183D01*
X108837Y142483D01*
X108687Y142783D01*
X107803Y145182D02*
Y142933D01*
X107653Y142483D01*
X107353Y142183D01*
X106903Y142033D01*
X106603D01*
X106153Y142183D01*
X105853Y142483D01*
X105703Y142933D01*
Y145182D01*
X102359Y143533D02*
X101010D01*
X100560Y143683D01*
X100410Y143833D01*
X100260Y144133D01*
Y144582D01*
X100410Y144882D01*
X100560Y145032D01*
X101010Y145182D01*
X102359D01*
Y142033D01*
X98656Y145182D02*
X99106Y145032D01*
X99405Y144582D01*
X99555Y143833D01*
Y143383D01*
X99405Y142633D01*
X99106Y142183D01*
X98656Y142033D01*
X98356D01*
X97906Y142183D01*
X97606Y142633D01*
X97456Y143383D01*
Y143833D01*
X97606Y144582D01*
X97906Y145032D01*
X98356Y145182D01*
X98656D01*
X96751Y144582D02*
X96451Y144732D01*
X96002Y145182D01*
Y142033D01*
X94292Y144432D02*
Y144582D01*
X94142Y144882D01*
X93992Y145032D01*
X93692Y145182D01*
X93093D01*
X92793Y145032D01*
X92643Y144882D01*
X92493Y144582D01*
Y144282D01*
X92643Y143983D01*
X92943Y143533D01*
X94442Y142033D01*
X92343D01*
X89239Y144732D02*
X91638Y143383D01*
X89239Y142033D01*
X88339Y143383D02*
X85640D01*
X84711Y144732D02*
X82311Y143383D01*
X84711Y142033D01*
X79912Y145182D02*
Y142783D01*
X80062Y142333D01*
X80212Y142183D01*
X80512Y142033D01*
X80812D01*
X81112Y142183D01*
X81262Y142333D01*
X81412Y142783D01*
Y143083D01*
X78952Y144432D02*
Y144582D01*
X78803Y144882D01*
X78653Y145032D01*
X78353Y145182D01*
X77753D01*
X77453Y145032D01*
X77303Y144882D01*
X77153Y144582D01*
Y144282D01*
X77303Y143983D01*
X77603Y143533D01*
X79102Y142033D01*
X77003D01*
X253251Y128249D02*
X255200D01*
Y125100D01*
X253251D01*
X255200Y126749D02*
X254000D01*
X252576Y127499D02*
Y127649D01*
X252426Y127949D01*
X252276Y128099D01*
X251976Y128249D01*
X251376D01*
X251076Y128099D01*
X250926Y127949D01*
X250777Y127649D01*
Y127349D01*
X250926Y127049D01*
X251226Y126599D01*
X252726Y125100D01*
X250626D01*
X248872Y128849D02*
X249172Y128549D01*
X249472Y128099D01*
X249772Y127499D01*
X249922Y126749D01*
Y126150D01*
X249772Y125400D01*
X249472Y124800D01*
X249172Y124350D01*
X248872Y124050D01*
X249172Y128549D02*
X249472Y127949D01*
X249622Y127499D01*
X249772Y126749D01*
Y126150D01*
X249622Y125400D01*
X249472Y124950D01*
X249172Y124350D01*
X246023Y127499D02*
X246173Y127799D01*
X246473Y128099D01*
X246773Y128249D01*
X247373D01*
X247673Y128099D01*
X247972Y127799D01*
X248122Y127499D01*
X248272Y127049D01*
Y126300D01*
X248122Y125850D01*
X247972Y125550D01*
X247673Y125250D01*
X247373Y125100D01*
X246773D01*
X246473Y125250D01*
X246173Y125550D01*
X246023Y125850D01*
X245138Y128849D02*
X244839Y128549D01*
X244539Y128099D01*
X244239Y127499D01*
X244089Y126749D01*
Y126150D01*
X244239Y125400D01*
X244539Y124800D01*
X244839Y124350D01*
X245138Y124050D01*
X244839Y128549D02*
X244539Y127949D01*
X244389Y127499D01*
X244239Y126749D01*
Y126150D01*
X244389Y125400D01*
X244539Y124950D01*
X244839Y124350D01*
X240850Y128249D02*
Y125100D01*
Y128249D02*
X239650Y125100D01*
X238451Y128249D02*
X239650Y125100D01*
X238451Y128249D02*
Y125100D01*
X235302Y127499D02*
X235452Y127799D01*
X235752Y128099D01*
X236052Y128249D01*
X236651D01*
X236951Y128099D01*
X237251Y127799D01*
X237401Y127499D01*
X237551Y127049D01*
Y126300D01*
X237401Y125850D01*
X237251Y125550D01*
X236951Y125250D01*
X236651Y125100D01*
X236052D01*
X235752Y125250D01*
X235452Y125550D01*
X235302Y125850D01*
X234417Y128249D02*
Y126000D01*
X234267Y125550D01*
X233967Y125250D01*
X233517Y125100D01*
X233218D01*
X232768Y125250D01*
X232468Y125550D01*
X232318Y126000D01*
Y128249D01*
X228974Y126599D02*
X227624D01*
X227174Y126749D01*
X227025Y126899D01*
X226875Y127199D01*
Y127649D01*
X227025Y127949D01*
X227174Y128099D01*
X227624Y128249D01*
X228974D01*
Y125100D01*
X225270Y128249D02*
X225720Y128099D01*
X226020Y127649D01*
X226170Y126899D01*
Y126450D01*
X226020Y125700D01*
X225720Y125250D01*
X225270Y125100D01*
X224970D01*
X224520Y125250D01*
X224220Y125700D01*
X224071Y126450D01*
Y126899D01*
X224220Y127649D01*
X224520Y128099D01*
X224970Y128249D01*
X225270D01*
X223366Y127649D02*
X223066Y127799D01*
X222616Y128249D01*
Y125100D01*
X220757Y128249D02*
X219107D01*
X220007Y127049D01*
X219557D01*
X219257Y126899D01*
X219107Y126749D01*
X218957Y126300D01*
Y126000D01*
X219107Y125550D01*
X219407Y125250D01*
X219857Y125100D01*
X220307D01*
X220757Y125250D01*
X220907Y125400D01*
X221057Y125700D01*
X215853Y127799D02*
X218252Y126450D01*
X215853Y125100D01*
X214954Y126450D02*
X212255D01*
X211325Y127799D02*
X208926Y126450D01*
X211325Y125100D01*
X206976Y128249D02*
Y125100D01*
X208026Y128249D02*
X205927D01*
X203452Y127799D02*
X203752Y128099D01*
X204202Y128249D01*
X204802D01*
X205252Y128099D01*
X205552Y127799D01*
Y127499D01*
X205402Y127199D01*
X205252Y127049D01*
X204952Y126899D01*
X204052Y126599D01*
X203752Y126450D01*
X203603Y126300D01*
X203452Y126000D01*
Y125550D01*
X203752Y125250D01*
X204202Y125100D01*
X204802D01*
X205252Y125250D01*
X205552Y125550D01*
X202748Y124050D02*
X200349D01*
X197695Y127499D02*
X197844Y127799D01*
X198144Y128099D01*
X198444Y128249D01*
X199044D01*
X199344Y128099D01*
X199644Y127799D01*
X199794Y127499D01*
X199944Y127049D01*
Y126300D01*
X199794Y125850D01*
X199644Y125550D01*
X199344Y125250D01*
X199044Y125100D01*
X198444D01*
X198144Y125250D01*
X197844Y125550D01*
X197695Y125850D01*
X195910Y128249D02*
X196210Y128099D01*
X196510Y127799D01*
X196660Y127499D01*
X196810Y127049D01*
Y126300D01*
X196660Y125850D01*
X196510Y125550D01*
X196210Y125250D01*
X195910Y125100D01*
X195310D01*
X195010Y125250D01*
X194711Y125550D01*
X194561Y125850D01*
X194411Y126300D01*
Y127049D01*
X194561Y127499D01*
X194711Y127799D01*
X195010Y128099D01*
X195310Y128249D01*
X195910D01*
X193676D02*
Y125100D01*
Y128249D02*
X191577Y125100D01*
Y128249D02*
Y125100D01*
X190707Y128249D02*
Y125100D01*
Y128249D02*
X188608Y125100D01*
Y128249D02*
Y125100D01*
X187588Y127499D02*
Y127649D01*
X187438Y127949D01*
X187288Y128099D01*
X186988Y128249D01*
X186388D01*
X186088Y128099D01*
X185938Y127949D01*
X185789Y127649D01*
Y127349D01*
X185938Y127049D01*
X186238Y126599D01*
X187738Y125100D01*
X185639D01*
X253251Y122482D02*
X255200D01*
Y119333D01*
X253251D01*
X255200Y120983D02*
X254000D01*
X252726Y121882D02*
X252426Y122032D01*
X251976Y122482D01*
Y119333D01*
X250267Y121732D02*
Y121882D01*
X250117Y122182D01*
X249967Y122332D01*
X249667Y122482D01*
X249067D01*
X248767Y122332D01*
X248617Y122182D01*
X248467Y121882D01*
Y121582D01*
X248617Y121283D01*
X248917Y120833D01*
X250417Y119333D01*
X248317D01*
X246563Y123082D02*
X246863Y122782D01*
X247163Y122332D01*
X247463Y121732D01*
X247613Y120983D01*
Y120383D01*
X247463Y119633D01*
X247163Y119033D01*
X246863Y118584D01*
X246563Y118284D01*
X246863Y122782D02*
X247163Y122182D01*
X247313Y121732D01*
X247463Y120983D01*
Y120383D01*
X247313Y119633D01*
X247163Y119183D01*
X246863Y118584D01*
X245063Y122482D02*
X245363Y122332D01*
X245663Y122032D01*
X245813Y121732D01*
X245963Y121283D01*
Y120533D01*
X245813Y120083D01*
X245663Y119783D01*
X245363Y119483D01*
X245063Y119333D01*
X244464D01*
X244164Y119483D01*
X243864Y119783D01*
X243714Y120083D01*
X243564Y120533D01*
Y121283D01*
X243714Y121732D01*
X243864Y122032D01*
X244164Y122332D01*
X244464Y122482D01*
X245063D01*
X242829Y123082D02*
X242529Y122782D01*
X242229Y122332D01*
X241930Y121732D01*
X241779Y120983D01*
Y120383D01*
X241930Y119633D01*
X242229Y119033D01*
X242529Y118584D01*
X242829Y118284D01*
X242529Y122782D02*
X242229Y122182D01*
X242079Y121732D01*
X241930Y120983D01*
Y120383D01*
X242079Y119633D01*
X242229Y119183D01*
X242529Y118584D01*
X238541Y122482D02*
Y119333D01*
Y122482D02*
X237341Y119333D01*
X236141Y122482D02*
X237341Y119333D01*
X236141Y122482D02*
Y119333D01*
X232993Y121732D02*
X233142Y122032D01*
X233442Y122332D01*
X233742Y122482D01*
X234342D01*
X234642Y122332D01*
X234942Y122032D01*
X235092Y121732D01*
X235242Y121283D01*
Y120533D01*
X235092Y120083D01*
X234942Y119783D01*
X234642Y119483D01*
X234342Y119333D01*
X233742D01*
X233442Y119483D01*
X233142Y119783D01*
X232993Y120083D01*
X232108Y122482D02*
Y120233D01*
X231958Y119783D01*
X231658Y119483D01*
X231208Y119333D01*
X230908D01*
X230458Y119483D01*
X230158Y119783D01*
X230009Y120233D01*
Y122482D01*
X226665Y120833D02*
X225315D01*
X224865Y120983D01*
X224715Y121133D01*
X224565Y121433D01*
Y121882D01*
X224715Y122182D01*
X224865Y122332D01*
X225315Y122482D01*
X226665D01*
Y119333D01*
X222961Y122482D02*
X223411Y122332D01*
X223711Y121882D01*
X223861Y121133D01*
Y120683D01*
X223711Y119933D01*
X223411Y119483D01*
X222961Y119333D01*
X222661D01*
X222211Y119483D01*
X221911Y119933D01*
X221761Y120683D01*
Y121133D01*
X221911Y121882D01*
X222211Y122332D01*
X222661Y122482D01*
X222961D01*
X221057Y121882D02*
X220757Y122032D01*
X220307Y122482D01*
Y119333D01*
X218447Y122482D02*
X216798D01*
X217698Y121283D01*
X217248D01*
X216948Y121133D01*
X216798Y120983D01*
X216648Y120533D01*
Y120233D01*
X216798Y119783D01*
X217098Y119483D01*
X217548Y119333D01*
X217998D01*
X218447Y119483D01*
X218597Y119633D01*
X218747Y119933D01*
X213544Y122032D02*
X215943Y120683D01*
X213544Y119333D01*
X212644Y120683D02*
X209945D01*
X209016Y122032D02*
X206616Y120683D01*
X209016Y119333D01*
X204217Y122482D02*
Y120083D01*
X204367Y119633D01*
X204517Y119483D01*
X204817Y119333D01*
X205117D01*
X205417Y119483D01*
X205567Y119633D01*
X205717Y120083D01*
Y120383D01*
X203258Y121732D02*
Y121882D01*
X203108Y122182D01*
X202958Y122332D01*
X202658Y122482D01*
X202058D01*
X201758Y122332D01*
X201608Y122182D01*
X201458Y121882D01*
Y121582D01*
X201608Y121283D01*
X201908Y120833D01*
X203408Y119333D01*
X201308D01*
X206551Y149482D02*
X208500D01*
Y146333D01*
X206551D01*
X208500Y147983D02*
X207300D01*
X206026Y148882D02*
X205726Y149032D01*
X205276Y149482D01*
Y146333D01*
X203417Y149482D02*
X201767D01*
X202667Y148283D01*
X202217D01*
X201917Y148133D01*
X201767Y147983D01*
X201617Y147533D01*
Y147233D01*
X201767Y146783D01*
X202067Y146483D01*
X202517Y146333D01*
X202967D01*
X203417Y146483D01*
X203567Y146633D01*
X203717Y146933D01*
X199863Y150082D02*
X200163Y149782D01*
X200463Y149332D01*
X200763Y148732D01*
X200913Y147983D01*
Y147383D01*
X200763Y146633D01*
X200463Y146033D01*
X200163Y145583D01*
X199863Y145284D01*
X200163Y149782D02*
X200463Y149182D01*
X200613Y148732D01*
X200763Y147983D01*
Y147383D01*
X200613Y146633D01*
X200463Y146183D01*
X200163Y145583D01*
X198363Y149482D02*
X198663Y149332D01*
X198963Y149032D01*
X199113Y148732D01*
X199263Y148283D01*
Y147533D01*
X199113Y147083D01*
X198963Y146783D01*
X198663Y146483D01*
X198363Y146333D01*
X197764D01*
X197464Y146483D01*
X197164Y146783D01*
X197014Y147083D01*
X196864Y147533D01*
Y148283D01*
X197014Y148732D01*
X197164Y149032D01*
X197464Y149332D01*
X197764Y149482D01*
X198363D01*
X196129Y150082D02*
X195829Y149782D01*
X195529Y149332D01*
X195229Y148732D01*
X195080Y147983D01*
Y147383D01*
X195229Y146633D01*
X195529Y146033D01*
X195829Y145583D01*
X196129Y145284D01*
X195829Y149782D02*
X195529Y149182D01*
X195379Y148732D01*
X195229Y147983D01*
Y147383D01*
X195379Y146633D01*
X195529Y146183D01*
X195829Y145583D01*
X191841Y149482D02*
Y146333D01*
Y149482D02*
X190641Y146333D01*
X189442Y149482D02*
X190641Y146333D01*
X189442Y149482D02*
Y146333D01*
X186293Y148732D02*
X186442Y149032D01*
X186742Y149332D01*
X187042Y149482D01*
X187642D01*
X187942Y149332D01*
X188242Y149032D01*
X188392Y148732D01*
X188542Y148283D01*
Y147533D01*
X188392Y147083D01*
X188242Y146783D01*
X187942Y146483D01*
X187642Y146333D01*
X187042D01*
X186742Y146483D01*
X186442Y146783D01*
X186293Y147083D01*
X185408Y149482D02*
Y147233D01*
X185258Y146783D01*
X184958Y146483D01*
X184508Y146333D01*
X184208D01*
X183758Y146483D01*
X183458Y146783D01*
X183308Y147233D01*
Y149482D01*
X179965Y147833D02*
X178615D01*
X178165Y147983D01*
X178015Y148133D01*
X177865Y148433D01*
Y148882D01*
X178015Y149182D01*
X178165Y149332D01*
X178615Y149482D01*
X179965D01*
Y146333D01*
X176261Y149482D02*
X176711Y149332D01*
X177011Y148882D01*
X177161Y148133D01*
Y147683D01*
X177011Y146933D01*
X176711Y146483D01*
X176261Y146333D01*
X175961D01*
X175511Y146483D01*
X175211Y146933D01*
X175061Y147683D01*
Y148133D01*
X175211Y148882D01*
X175511Y149332D01*
X175961Y149482D01*
X176261D01*
X174357Y148882D02*
X174057Y149032D01*
X173607Y149482D01*
Y146333D01*
X170248Y149482D02*
X171747D01*
X171897Y148133D01*
X171747Y148283D01*
X171298Y148433D01*
X170848D01*
X170398Y148283D01*
X170098Y147983D01*
X169948Y147533D01*
Y147233D01*
X170098Y146783D01*
X170398Y146483D01*
X170848Y146333D01*
X171298D01*
X171747Y146483D01*
X171897Y146633D01*
X172047Y146933D01*
X166844Y149032D02*
X169243Y147683D01*
X166844Y146333D01*
X165944Y147683D02*
X163245D01*
X162316Y149032D02*
X159916Y147683D01*
X162316Y146333D01*
X157517Y149482D02*
Y147083D01*
X157667Y146633D01*
X157817Y146483D01*
X158117Y146333D01*
X158417D01*
X158717Y146483D01*
X158867Y146633D01*
X159017Y147083D01*
Y147383D01*
X156558Y148732D02*
Y148882D01*
X156408Y149182D01*
X156258Y149332D01*
X155958Y149482D01*
X155358D01*
X155058Y149332D01*
X154908Y149182D01*
X154758Y148882D01*
Y148582D01*
X154908Y148283D01*
X155208Y147833D01*
X156708Y146333D01*
X154608D01*
X206551Y155249D02*
X208500D01*
Y152100D01*
X206551D01*
X208500Y153749D02*
X207300D01*
X205726Y155249D02*
X204077D01*
X204976Y154049D01*
X204526D01*
X204226Y153899D01*
X204077Y153749D01*
X203926Y153299D01*
Y153000D01*
X204077Y152550D01*
X204376Y152250D01*
X204826Y152100D01*
X205276D01*
X205726Y152250D01*
X205876Y152400D01*
X206026Y152700D01*
X202172Y155849D02*
X202472Y155549D01*
X202772Y155099D01*
X203072Y154499D01*
X203222Y153749D01*
Y153150D01*
X203072Y152400D01*
X202772Y151800D01*
X202472Y151350D01*
X202172Y151050D01*
X202472Y155549D02*
X202772Y154949D01*
X202922Y154499D01*
X203072Y153749D01*
Y153150D01*
X202922Y152400D01*
X202772Y151950D01*
X202472Y151350D01*
X199323Y154499D02*
X199473Y154799D01*
X199773Y155099D01*
X200073Y155249D01*
X200673D01*
X200973Y155099D01*
X201273Y154799D01*
X201422Y154499D01*
X201572Y154049D01*
Y153299D01*
X201422Y152850D01*
X201273Y152550D01*
X200973Y152250D01*
X200673Y152100D01*
X200073D01*
X199773Y152250D01*
X199473Y152550D01*
X199323Y152850D01*
X198438Y155849D02*
X198138Y155549D01*
X197839Y155099D01*
X197539Y154499D01*
X197389Y153749D01*
Y153150D01*
X197539Y152400D01*
X197839Y151800D01*
X198138Y151350D01*
X198438Y151050D01*
X198138Y155549D02*
X197839Y154949D01*
X197689Y154499D01*
X197539Y153749D01*
Y153150D01*
X197689Y152400D01*
X197839Y151950D01*
X198138Y151350D01*
X194150Y155249D02*
Y152100D01*
Y155249D02*
X192950Y152100D01*
X191751Y155249D02*
X192950Y152100D01*
X191751Y155249D02*
Y152100D01*
X188602Y154499D02*
X188752Y154799D01*
X189052Y155099D01*
X189351Y155249D01*
X189951D01*
X190251Y155099D01*
X190551Y154799D01*
X190701Y154499D01*
X190851Y154049D01*
Y153299D01*
X190701Y152850D01*
X190551Y152550D01*
X190251Y152250D01*
X189951Y152100D01*
X189351D01*
X189052Y152250D01*
X188752Y152550D01*
X188602Y152850D01*
X187717Y155249D02*
Y153000D01*
X187567Y152550D01*
X187267Y152250D01*
X186817Y152100D01*
X186518D01*
X186068Y152250D01*
X185768Y152550D01*
X185618Y153000D01*
Y155249D01*
X182274Y153599D02*
X180924D01*
X180474Y153749D01*
X180324Y153899D01*
X180175Y154199D01*
Y154649D01*
X180324Y154949D01*
X180474Y155099D01*
X180924Y155249D01*
X182274D01*
Y152100D01*
X178570Y155249D02*
X179020Y155099D01*
X179320Y154649D01*
X179470Y153899D01*
Y153449D01*
X179320Y152700D01*
X179020Y152250D01*
X178570Y152100D01*
X178270D01*
X177820Y152250D01*
X177521Y152700D01*
X177371Y153449D01*
Y153899D01*
X177521Y154649D01*
X177820Y155099D01*
X178270Y155249D01*
X178570D01*
X176666Y154649D02*
X176366Y154799D01*
X175916Y155249D01*
Y152100D01*
X172557Y155249D02*
X174057D01*
X174207Y153899D01*
X174057Y154049D01*
X173607Y154199D01*
X173157D01*
X172707Y154049D01*
X172407Y153749D01*
X172257Y153299D01*
Y153000D01*
X172407Y152550D01*
X172707Y152250D01*
X173157Y152100D01*
X173607D01*
X174057Y152250D01*
X174207Y152400D01*
X174357Y152700D01*
X169153Y154799D02*
X171553Y153449D01*
X169153Y152100D01*
X168254Y153449D02*
X165554D01*
X164625Y154799D02*
X162226Y153449D01*
X164625Y152100D01*
X160276Y155249D02*
Y152100D01*
X161326Y155249D02*
X159227D01*
X156753Y154799D02*
X157052Y155099D01*
X157502Y155249D01*
X158102D01*
X158552Y155099D01*
X158852Y154799D01*
Y154499D01*
X158702Y154199D01*
X158552Y154049D01*
X158252Y153899D01*
X157352Y153599D01*
X157052Y153449D01*
X156903Y153299D01*
X156753Y153000D01*
Y152550D01*
X157052Y152250D01*
X157502Y152100D01*
X158102D01*
X158552Y152250D01*
X158852Y152550D01*
X156048Y151050D02*
X153649D01*
X150995Y154499D02*
X151144Y154799D01*
X151444Y155099D01*
X151744Y155249D01*
X152344D01*
X152644Y155099D01*
X152944Y154799D01*
X153094Y154499D01*
X153244Y154049D01*
Y153299D01*
X153094Y152850D01*
X152944Y152550D01*
X152644Y152250D01*
X152344Y152100D01*
X151744D01*
X151444Y152250D01*
X151144Y152550D01*
X150995Y152850D01*
X149210Y155249D02*
X149510Y155099D01*
X149810Y154799D01*
X149960Y154499D01*
X150110Y154049D01*
Y153299D01*
X149960Y152850D01*
X149810Y152550D01*
X149510Y152250D01*
X149210Y152100D01*
X148610D01*
X148310Y152250D01*
X148011Y152550D01*
X147861Y152850D01*
X147711Y153299D01*
Y154049D01*
X147861Y154499D01*
X148011Y154799D01*
X148310Y155099D01*
X148610Y155249D01*
X149210D01*
X146976D02*
Y152100D01*
Y155249D02*
X144877Y152100D01*
Y155249D02*
Y152100D01*
X144007Y155249D02*
Y152100D01*
Y155249D02*
X141908Y152100D01*
Y155249D02*
Y152100D01*
X140738Y155249D02*
X139088D01*
X139988Y154049D01*
X139538D01*
X139238Y153899D01*
X139088Y153749D01*
X138939Y153299D01*
Y153000D01*
X139088Y152550D01*
X139388Y152250D01*
X139838Y152100D01*
X140288D01*
X140738Y152250D01*
X140888Y152400D01*
X141038Y152700D01*
X193151Y188949D02*
X195100D01*
Y185800D01*
X193151D01*
X195100Y187449D02*
X193900D01*
X192626Y188349D02*
X192326Y188499D01*
X191876Y188949D01*
Y185800D01*
X188517Y188499D02*
X188667Y188799D01*
X189117Y188949D01*
X189417D01*
X189867Y188799D01*
X190167Y188349D01*
X190317Y187599D01*
Y186850D01*
X190167Y186250D01*
X189867Y185950D01*
X189417Y185800D01*
X189267D01*
X188817Y185950D01*
X188517Y186250D01*
X188367Y186700D01*
Y186850D01*
X188517Y187299D01*
X188817Y187599D01*
X189267Y187749D01*
X189417D01*
X189867Y187599D01*
X190167Y187299D01*
X190317Y186850D01*
X186628Y189549D02*
X186928Y189249D01*
X187228Y188799D01*
X187528Y188199D01*
X187678Y187449D01*
Y186850D01*
X187528Y186100D01*
X187228Y185500D01*
X186928Y185050D01*
X186628Y184750D01*
X186928Y189249D02*
X187228Y188649D01*
X187378Y188199D01*
X187528Y187449D01*
Y186850D01*
X187378Y186100D01*
X187228Y185650D01*
X186928Y185050D01*
X183779Y188199D02*
X183929Y188499D01*
X184229Y188799D01*
X184529Y188949D01*
X185128D01*
X185428Y188799D01*
X185728Y188499D01*
X185878Y188199D01*
X186028Y187749D01*
Y186999D01*
X185878Y186550D01*
X185728Y186250D01*
X185428Y185950D01*
X185128Y185800D01*
X184529D01*
X184229Y185950D01*
X183929Y186250D01*
X183779Y186550D01*
X182894Y189549D02*
X182594Y189249D01*
X182294Y188799D01*
X181994Y188199D01*
X181844Y187449D01*
Y186850D01*
X181994Y186100D01*
X182294Y185500D01*
X182594Y185050D01*
X182894Y184750D01*
X182594Y189249D02*
X182294Y188649D01*
X182144Y188199D01*
X181994Y187449D01*
Y186850D01*
X182144Y186100D01*
X182294Y185650D01*
X182594Y185050D01*
X178606Y188949D02*
Y185800D01*
Y188949D02*
X177406Y185800D01*
X176206Y188949D02*
X177406Y185800D01*
X176206Y188949D02*
Y185800D01*
X173057Y188199D02*
X173207Y188499D01*
X173507Y188799D01*
X173807Y188949D01*
X174407D01*
X174707Y188799D01*
X175007Y188499D01*
X175157Y188199D01*
X175307Y187749D01*
Y186999D01*
X175157Y186550D01*
X175007Y186250D01*
X174707Y185950D01*
X174407Y185800D01*
X173807D01*
X173507Y185950D01*
X173207Y186250D01*
X173057Y186550D01*
X172173Y188949D02*
Y186700D01*
X172023Y186250D01*
X171723Y185950D01*
X171273Y185800D01*
X170973D01*
X170523Y185950D01*
X170223Y186250D01*
X170073Y186700D01*
Y188949D01*
X166730D02*
X164630Y185800D01*
Y188949D02*
X166730Y185800D01*
X161676Y188199D02*
X161826Y188499D01*
X162126Y188799D01*
X162426Y188949D01*
X163026D01*
X163326Y188799D01*
X163626Y188499D01*
X163776Y188199D01*
X163926Y187749D01*
Y186999D01*
X163776Y186550D01*
X163626Y186250D01*
X163326Y185950D01*
X163026Y185800D01*
X162426D01*
X162126Y185950D01*
X161826Y186250D01*
X161676Y186550D01*
X160792Y188949D02*
Y185800D01*
X160132Y188949D02*
Y185800D01*
Y188949D02*
X158033Y185800D01*
Y188949D02*
Y185800D01*
X157163Y185350D02*
X155063Y188949D01*
X154854Y187299D02*
X153504D01*
X153054Y187449D01*
X152904Y187599D01*
X152754Y187899D01*
Y188349D01*
X152904Y188649D01*
X153054Y188799D01*
X153504Y188949D01*
X154854D01*
Y185800D01*
X151900Y188199D02*
Y188349D01*
X151750Y188649D01*
X151600Y188799D01*
X151300Y188949D01*
X150700D01*
X150400Y188799D01*
X150250Y188649D01*
X150100Y188349D01*
Y188049D01*
X150250Y187749D01*
X150550Y187299D01*
X152050Y185800D01*
X149950D01*
X149246Y188349D02*
X148946Y188499D01*
X148496Y188949D01*
Y185800D01*
X145137Y188949D02*
X146636D01*
X146786Y187599D01*
X146636Y187749D01*
X146186Y187899D01*
X145737D01*
X145287Y187749D01*
X144987Y187449D01*
X144837Y186999D01*
Y186700D01*
X144987Y186250D01*
X145287Y185950D01*
X145737Y185800D01*
X146186D01*
X146636Y185950D01*
X146786Y186100D01*
X146936Y186400D01*
X141733Y188499D02*
X144132Y187150D01*
X141733Y185800D01*
X140833Y187150D02*
X138134D01*
X137205Y188499D02*
X134805Y187150D01*
X137205Y185800D01*
X132406Y188949D02*
Y186550D01*
X132556Y186100D01*
X132706Y185950D01*
X133006Y185800D01*
X133306D01*
X133606Y185950D01*
X133756Y186100D01*
X133906Y186550D01*
Y186850D01*
X131597Y188349D02*
X131297Y188499D01*
X130847Y188949D01*
Y185800D01*
X193151Y183182D02*
X195100D01*
Y180033D01*
X193151D01*
X195100Y181683D02*
X193900D01*
X192626Y182582D02*
X192326Y182732D01*
X191876Y183182D01*
Y180033D01*
X188517Y183182D02*
X190017D01*
X190167Y181833D01*
X190017Y181983D01*
X189567Y182133D01*
X189117D01*
X188667Y181983D01*
X188367Y181683D01*
X188217Y181233D01*
Y180933D01*
X188367Y180483D01*
X188667Y180183D01*
X189117Y180033D01*
X189567D01*
X190017Y180183D01*
X190167Y180333D01*
X190317Y180633D01*
X186463Y183782D02*
X186763Y183482D01*
X187063Y183032D01*
X187363Y182432D01*
X187513Y181683D01*
Y181083D01*
X187363Y180333D01*
X187063Y179733D01*
X186763Y179283D01*
X186463Y178984D01*
X186763Y183482D02*
X187063Y182882D01*
X187213Y182432D01*
X187363Y181683D01*
Y181083D01*
X187213Y180333D01*
X187063Y179883D01*
X186763Y179283D01*
X183614Y182432D02*
X183764Y182732D01*
X184064Y183032D01*
X184364Y183182D01*
X184963D01*
X185263Y183032D01*
X185563Y182732D01*
X185713Y182432D01*
X185863Y181983D01*
Y181233D01*
X185713Y180783D01*
X185563Y180483D01*
X185263Y180183D01*
X184963Y180033D01*
X184364D01*
X184064Y180183D01*
X183764Y180483D01*
X183614Y180783D01*
X182729Y183782D02*
X182429Y183482D01*
X182129Y183032D01*
X181830Y182432D01*
X181679Y181683D01*
Y181083D01*
X181830Y180333D01*
X182129Y179733D01*
X182429Y179283D01*
X182729Y178984D01*
X182429Y183482D02*
X182129Y182882D01*
X181979Y182432D01*
X181830Y181683D01*
Y181083D01*
X181979Y180333D01*
X182129Y179883D01*
X182429Y179283D01*
X178441Y183182D02*
Y180033D01*
Y183182D02*
X177241Y180033D01*
X176041Y183182D02*
X177241Y180033D01*
X176041Y183182D02*
Y180033D01*
X172892Y182432D02*
X173043Y182732D01*
X173342Y183032D01*
X173642Y183182D01*
X174242D01*
X174542Y183032D01*
X174842Y182732D01*
X174992Y182432D01*
X175142Y181983D01*
Y181233D01*
X174992Y180783D01*
X174842Y180483D01*
X174542Y180183D01*
X174242Y180033D01*
X173642D01*
X173342Y180183D01*
X173043Y180483D01*
X172892Y180783D01*
X172008Y183182D02*
Y180933D01*
X171858Y180483D01*
X171558Y180183D01*
X171108Y180033D01*
X170808D01*
X170358Y180183D01*
X170059Y180483D01*
X169908Y180933D01*
Y183182D01*
X166565D02*
X164465Y180033D01*
Y183182D02*
X166565Y180033D01*
X161511Y182432D02*
X161661Y182732D01*
X161961Y183032D01*
X162261Y183182D01*
X162861D01*
X163161Y183032D01*
X163461Y182732D01*
X163611Y182432D01*
X163761Y181983D01*
Y181233D01*
X163611Y180783D01*
X163461Y180483D01*
X163161Y180183D01*
X162861Y180033D01*
X162261D01*
X161961Y180183D01*
X161661Y180483D01*
X161511Y180783D01*
X159727Y183182D02*
X160027Y183032D01*
X160327Y182732D01*
X160477Y182432D01*
X160627Y181983D01*
Y181233D01*
X160477Y180783D01*
X160327Y180483D01*
X160027Y180183D01*
X159727Y180033D01*
X159127D01*
X158827Y180183D01*
X158527Y180483D01*
X158377Y180783D01*
X158228Y181233D01*
Y181983D01*
X158377Y182432D01*
X158527Y182732D01*
X158827Y183032D01*
X159127Y183182D01*
X159727D01*
X157493D02*
Y180933D01*
X157343Y180483D01*
X157043Y180183D01*
X156593Y180033D01*
X156293D01*
X155843Y180183D01*
X155543Y180483D01*
X155393Y180933D01*
Y183182D01*
X153474D02*
Y180033D01*
X154524Y183182D02*
X152424D01*
X152050Y179583D02*
X149950Y183182D01*
X149740Y181533D02*
X148391D01*
X147941Y181683D01*
X147791Y181833D01*
X147641Y182133D01*
Y182582D01*
X147791Y182882D01*
X147941Y183032D01*
X148391Y183182D01*
X149740D01*
Y180033D01*
X146786Y182432D02*
Y182582D01*
X146636Y182882D01*
X146486Y183032D01*
X146187Y183182D01*
X145587D01*
X145287Y183032D01*
X145137Y182882D01*
X144987Y182582D01*
Y182282D01*
X145137Y181983D01*
X145437Y181533D01*
X146936Y180033D01*
X144837D01*
X144132Y182582D02*
X143832Y182732D01*
X143383Y183182D01*
Y180033D01*
X140323Y183182D02*
X141823Y181083D01*
X139574D01*
X140323Y183182D02*
Y180033D01*
X136620Y182732D02*
X139019Y181383D01*
X136620Y180033D01*
X135720Y181383D02*
X133021D01*
X132091Y182732D02*
X129692Y181383D01*
X132091Y180033D01*
X127293Y183182D02*
Y180783D01*
X127443Y180333D01*
X127593Y180183D01*
X127893Y180033D01*
X128193D01*
X128493Y180183D01*
X128642Y180333D01*
X128793Y180783D01*
Y181083D01*
X126483Y182582D02*
X126183Y182732D01*
X125733Y183182D01*
Y180033D01*
X191651Y225082D02*
X193600D01*
Y221933D01*
X191651D01*
X193600Y223583D02*
X192400D01*
X191126Y224482D02*
X190826Y224632D01*
X190376Y225082D01*
Y221933D01*
X187017Y225082D02*
X188517D01*
X188667Y223733D01*
X188517Y223883D01*
X188067Y224033D01*
X187617D01*
X187167Y223883D01*
X186867Y223583D01*
X186717Y223133D01*
Y222833D01*
X186867Y222383D01*
X187167Y222083D01*
X187617Y221933D01*
X188067D01*
X188517Y222083D01*
X188667Y222233D01*
X188817Y222533D01*
X184963Y225682D02*
X185263Y225382D01*
X185563Y224932D01*
X185863Y224332D01*
X186013Y223583D01*
Y222983D01*
X185863Y222233D01*
X185563Y221633D01*
X185263Y221183D01*
X184963Y220884D01*
X185263Y225382D02*
X185563Y224782D01*
X185713Y224332D01*
X185863Y223583D01*
Y222983D01*
X185713Y222233D01*
X185563Y221783D01*
X185263Y221183D01*
X182114Y224332D02*
X182264Y224632D01*
X182564Y224932D01*
X182864Y225082D01*
X183463D01*
X183763Y224932D01*
X184063Y224632D01*
X184213Y224332D01*
X184363Y223883D01*
Y223133D01*
X184213Y222683D01*
X184063Y222383D01*
X183763Y222083D01*
X183463Y221933D01*
X182864D01*
X182564Y222083D01*
X182264Y222383D01*
X182114Y222683D01*
X181229Y225682D02*
X180929Y225382D01*
X180629Y224932D01*
X180330Y224332D01*
X180180Y223583D01*
Y222983D01*
X180330Y222233D01*
X180629Y221633D01*
X180929Y221183D01*
X181229Y220884D01*
X180929Y225382D02*
X180629Y224782D01*
X180479Y224332D01*
X180330Y223583D01*
Y222983D01*
X180479Y222233D01*
X180629Y221783D01*
X180929Y221183D01*
X176941Y225082D02*
Y221933D01*
Y225082D02*
X175741Y221933D01*
X174541Y225082D02*
X175741Y221933D01*
X174541Y225082D02*
Y221933D01*
X171393Y224332D02*
X171543Y224632D01*
X171842Y224932D01*
X172142Y225082D01*
X172742D01*
X173042Y224932D01*
X173342Y224632D01*
X173492Y224332D01*
X173642Y223883D01*
Y223133D01*
X173492Y222683D01*
X173342Y222383D01*
X173042Y222083D01*
X172742Y221933D01*
X172142D01*
X171842Y222083D01*
X171543Y222383D01*
X171393Y222683D01*
X170508Y225082D02*
Y222833D01*
X170358Y222383D01*
X170058Y222083D01*
X169608Y221933D01*
X169308D01*
X168858Y222083D01*
X168559Y222383D01*
X168409Y222833D01*
Y225082D01*
X163115D02*
X165065D01*
Y221933D01*
X163115D01*
X165065Y223583D02*
X163865D01*
X162591Y225082D02*
X160491Y221933D01*
Y225082D02*
X162591Y221933D01*
X158737Y225082D02*
Y221933D01*
X159786Y225082D02*
X157687D01*
X154913Y221933D02*
X156113Y225082D01*
X157312Y221933D01*
X156862Y222983D02*
X155363D01*
X154178Y225082D02*
Y221933D01*
X152379D01*
X152034Y221483D02*
X149935Y225082D01*
X149725Y223433D02*
X148375D01*
X147925Y223583D01*
X147775Y223733D01*
X147626Y224033D01*
Y224482D01*
X147775Y224782D01*
X147925Y224932D01*
X148375Y225082D01*
X149725D01*
Y221933D01*
X146771Y224332D02*
Y224482D01*
X146621Y224782D01*
X146471Y224932D01*
X146171Y225082D01*
X145571D01*
X145271Y224932D01*
X145121Y224782D01*
X144972Y224482D01*
Y224183D01*
X145121Y223883D01*
X145421Y223433D01*
X146921Y221933D01*
X144822D01*
X144117Y224482D02*
X143817Y224632D01*
X143367Y225082D01*
Y221933D01*
X141658Y224332D02*
Y224482D01*
X141508Y224782D01*
X141358Y224932D01*
X141058Y225082D01*
X140458D01*
X140158Y224932D01*
X140008Y224782D01*
X139858Y224482D01*
Y224183D01*
X140008Y223883D01*
X140308Y223433D01*
X141807Y221933D01*
X139708D01*
X136604Y224632D02*
X139004Y223283D01*
X136604Y221933D01*
X135705Y223283D02*
X133005D01*
X132076Y224632D02*
X129677Y223283D01*
X132076Y221933D01*
X127278Y225082D02*
Y222683D01*
X127427Y222233D01*
X127577Y222083D01*
X127877Y221933D01*
X128177D01*
X128477Y222083D01*
X128627Y222233D01*
X128777Y222683D01*
Y222983D01*
X126468Y224482D02*
X126168Y224632D01*
X125718Y225082D01*
Y221933D01*
X191651Y230849D02*
X193600D01*
Y227700D01*
X191651D01*
X193600Y229349D02*
X192400D01*
X191126Y230249D02*
X190826Y230399D01*
X190376Y230849D01*
Y227700D01*
X187317Y230849D02*
X188817Y228750D01*
X186567D01*
X187317Y230849D02*
Y227700D01*
X184963Y231449D02*
X185263Y231149D01*
X185563Y230699D01*
X185863Y230099D01*
X186013Y229349D01*
Y228750D01*
X185863Y228000D01*
X185563Y227400D01*
X185263Y226950D01*
X184963Y226650D01*
X185263Y231149D02*
X185563Y230549D01*
X185713Y230099D01*
X185863Y229349D01*
Y228750D01*
X185713Y228000D01*
X185563Y227550D01*
X185263Y226950D01*
X182114Y230099D02*
X182264Y230399D01*
X182564Y230699D01*
X182864Y230849D01*
X183463D01*
X183763Y230699D01*
X184063Y230399D01*
X184213Y230099D01*
X184363Y229649D01*
Y228900D01*
X184213Y228450D01*
X184063Y228150D01*
X183763Y227850D01*
X183463Y227700D01*
X182864D01*
X182564Y227850D01*
X182264Y228150D01*
X182114Y228450D01*
X181229Y231449D02*
X180929Y231149D01*
X180629Y230699D01*
X180330Y230099D01*
X180180Y229349D01*
Y228750D01*
X180330Y228000D01*
X180629Y227400D01*
X180929Y226950D01*
X181229Y226650D01*
X180929Y231149D02*
X180629Y230549D01*
X180479Y230099D01*
X180330Y229349D01*
Y228750D01*
X180479Y228000D01*
X180629Y227550D01*
X180929Y226950D01*
X176941Y230849D02*
Y227700D01*
Y230849D02*
X175741Y227700D01*
X174541Y230849D02*
X175741Y227700D01*
X174541Y230849D02*
Y227700D01*
X171393Y230099D02*
X171543Y230399D01*
X171842Y230699D01*
X172142Y230849D01*
X172742D01*
X173042Y230699D01*
X173342Y230399D01*
X173492Y230099D01*
X173642Y229649D01*
Y228900D01*
X173492Y228450D01*
X173342Y228150D01*
X173042Y227850D01*
X172742Y227700D01*
X172142D01*
X171842Y227850D01*
X171543Y228150D01*
X171393Y228450D01*
X170508Y230849D02*
Y228600D01*
X170358Y228150D01*
X170058Y227850D01*
X169608Y227700D01*
X169308D01*
X168858Y227850D01*
X168559Y228150D01*
X168409Y228600D01*
Y230849D01*
X165065D02*
X162965Y227700D01*
Y230849D02*
X165065Y227700D01*
X161211Y230849D02*
Y227700D01*
X162261Y230849D02*
X160161D01*
X157387Y227700D02*
X158587Y230849D01*
X159786Y227700D01*
X159337Y228750D02*
X157837D01*
X156652Y230849D02*
Y227700D01*
X154853D01*
X154508Y227250D02*
X152409Y230849D01*
X152199Y229199D02*
X150849D01*
X150400Y229349D01*
X150250Y229499D01*
X150100Y229799D01*
Y230249D01*
X150250Y230549D01*
X150400Y230699D01*
X150849Y230849D01*
X152199D01*
Y227700D01*
X149245Y230099D02*
Y230249D01*
X149095Y230549D01*
X148945Y230699D01*
X148645Y230849D01*
X148045D01*
X147746Y230699D01*
X147596Y230549D01*
X147446Y230249D01*
Y229949D01*
X147596Y229649D01*
X147896Y229199D01*
X149395Y227700D01*
X147296D01*
X146591Y230249D02*
X146291Y230399D01*
X145841Y230849D01*
Y227700D01*
X143982Y230849D02*
X142332D01*
X143232Y229649D01*
X142782D01*
X142482Y229499D01*
X142332Y229349D01*
X142182Y228900D01*
Y228600D01*
X142332Y228150D01*
X142632Y227850D01*
X143082Y227700D01*
X143532D01*
X143982Y227850D01*
X144132Y228000D01*
X144282Y228300D01*
X139078Y230399D02*
X141478Y229049D01*
X139078Y227700D01*
X138179Y229049D02*
X135480D01*
X134550Y230399D02*
X132151Y229049D01*
X134550Y227700D01*
X129752Y230849D02*
Y228450D01*
X129902Y228000D01*
X130052Y227850D01*
X130351Y227700D01*
X130651D01*
X130951Y227850D01*
X131101Y228000D01*
X131251Y228450D01*
Y228750D01*
X128942Y230249D02*
X128642Y230399D01*
X128192Y230849D01*
Y227700D01*
X230751Y211049D02*
X232700D01*
Y207900D01*
X230751D01*
X232700Y209549D02*
X231500D01*
X229476Y211049D02*
X229926Y210899D01*
X230076Y210599D01*
Y210299D01*
X229926Y209999D01*
X229626Y209849D01*
X229026Y209699D01*
X228576Y209549D01*
X228276Y209249D01*
X228127Y208950D01*
Y208500D01*
X228276Y208200D01*
X228427Y208050D01*
X228876Y207900D01*
X229476D01*
X229926Y208050D01*
X230076Y208200D01*
X230226Y208500D01*
Y208950D01*
X230076Y209249D01*
X229776Y209549D01*
X229326Y209699D01*
X228726Y209849D01*
X228427Y209999D01*
X228276Y210299D01*
Y210599D01*
X228427Y210899D01*
X228876Y211049D01*
X229476D01*
X226372Y211649D02*
X226672Y211349D01*
X226972Y210899D01*
X227272Y210299D01*
X227422Y209549D01*
Y208950D01*
X227272Y208200D01*
X226972Y207600D01*
X226672Y207150D01*
X226372Y206850D01*
X226672Y211349D02*
X226972Y210749D01*
X227122Y210299D01*
X227272Y209549D01*
Y208950D01*
X227122Y208200D01*
X226972Y207750D01*
X226672Y207150D01*
X223523Y210299D02*
X223673Y210599D01*
X223973Y210899D01*
X224273Y211049D01*
X224873D01*
X225173Y210899D01*
X225472Y210599D01*
X225622Y210299D01*
X225772Y209849D01*
Y209100D01*
X225622Y208650D01*
X225472Y208350D01*
X225173Y208050D01*
X224873Y207900D01*
X224273D01*
X223973Y208050D01*
X223673Y208350D01*
X223523Y208650D01*
X222638Y211649D02*
X222339Y211349D01*
X222039Y210899D01*
X221739Y210299D01*
X221589Y209549D01*
Y208950D01*
X221739Y208200D01*
X222039Y207600D01*
X222339Y207150D01*
X222638Y206850D01*
X222339Y211349D02*
X222039Y210749D01*
X221889Y210299D01*
X221739Y209549D01*
Y208950D01*
X221889Y208200D01*
X222039Y207750D01*
X222339Y207150D01*
X218350Y211049D02*
X217150Y207900D01*
X215951Y211049D02*
X217150Y207900D01*
X213297Y210299D02*
X213446Y210599D01*
X213746Y210899D01*
X214046Y211049D01*
X214646D01*
X214946Y210899D01*
X215246Y210599D01*
X215396Y210299D01*
X215546Y209849D01*
Y209100D01*
X215396Y208650D01*
X215246Y208350D01*
X214946Y208050D01*
X214646Y207900D01*
X214046D01*
X213746Y208050D01*
X213446Y208350D01*
X213297Y208650D01*
X210163Y210299D02*
X210313Y210599D01*
X210613Y210899D01*
X210912Y211049D01*
X211512D01*
X211812Y210899D01*
X212112Y210599D01*
X212262Y210299D01*
X212412Y209849D01*
Y209100D01*
X212262Y208650D01*
X212112Y208350D01*
X211812Y208050D01*
X211512Y207900D01*
X210912D01*
X210613Y208050D01*
X210313Y208350D01*
X210163Y208650D01*
X209278Y209249D02*
X206579D01*
X205649Y210599D02*
X203250Y209249D01*
X205649Y207900D01*
X202350Y211049D02*
X201151Y207900D01*
X199951Y211049D02*
X201151Y207900D01*
X197297Y210299D02*
X197447Y210599D01*
X197747Y210899D01*
X198047Y211049D01*
X198646D01*
X198946Y210899D01*
X199246Y210599D01*
X199396Y210299D01*
X199546Y209849D01*
Y209100D01*
X199396Y208650D01*
X199246Y208350D01*
X198946Y208050D01*
X198646Y207900D01*
X198047D01*
X197747Y208050D01*
X197447Y208350D01*
X197297Y208650D01*
X194163Y210299D02*
X194313Y210599D01*
X194613Y210899D01*
X194913Y211049D01*
X195513D01*
X195812Y210899D01*
X196112Y210599D01*
X196262Y210299D01*
X196412Y209849D01*
Y209100D01*
X196262Y208650D01*
X196112Y208350D01*
X195812Y208050D01*
X195513Y207900D01*
X194913D01*
X194613Y208050D01*
X194313Y208350D01*
X194163Y208650D01*
X193278Y206850D02*
X190879D01*
X190474Y209400D02*
X189125D01*
X188675Y209549D01*
X188525Y209699D01*
X188375Y209999D01*
Y210449D01*
X188525Y210749D01*
X188675Y210899D01*
X189125Y211049D01*
X190474D01*
Y207900D01*
X186771Y211049D02*
X187071Y210899D01*
X187370Y210599D01*
X187520Y210299D01*
X187670Y209849D01*
Y209100D01*
X187520Y208650D01*
X187370Y208350D01*
X187071Y208050D01*
X186771Y207900D01*
X186171D01*
X185871Y208050D01*
X185571Y208350D01*
X185421Y208650D01*
X185271Y209100D01*
Y209849D01*
X185421Y210299D01*
X185571Y210599D01*
X185871Y210899D01*
X186171Y211049D01*
X186771D01*
X184536D02*
X183787Y207900D01*
X183037Y211049D02*
X183787Y207900D01*
X183037Y211049D02*
X182287Y207900D01*
X181537Y211049D02*
X182287Y207900D01*
X178958Y211049D02*
X180907D01*
Y207900D01*
X178958D01*
X180907Y209549D02*
X179708D01*
X178433Y211049D02*
Y207900D01*
Y211049D02*
X177084D01*
X176634Y210899D01*
X176484Y210749D01*
X176334Y210449D01*
Y210149D01*
X176484Y209849D01*
X176634Y209699D01*
X177084Y209549D01*
X178433D01*
X177384D02*
X176334Y207900D01*
X71000Y192649D02*
X69800Y189500D01*
X68601Y192649D02*
X69800Y189500D01*
X65947Y191899D02*
X66097Y192199D01*
X66397Y192499D01*
X66697Y192649D01*
X67296D01*
X67596Y192499D01*
X67896Y192199D01*
X68046Y191899D01*
X68196Y191449D01*
Y190700D01*
X68046Y190250D01*
X67896Y189950D01*
X67596Y189650D01*
X67296Y189500D01*
X66697D01*
X66397Y189650D01*
X66097Y189950D01*
X65947Y190250D01*
X62813Y191899D02*
X62963Y192199D01*
X63263Y192499D01*
X63563Y192649D01*
X64162D01*
X64462Y192499D01*
X64762Y192199D01*
X64912Y191899D01*
X65062Y191449D01*
Y190700D01*
X64912Y190250D01*
X64762Y189950D01*
X64462Y189650D01*
X64162Y189500D01*
X63563D01*
X63263Y189650D01*
X62963Y189950D01*
X62813Y190250D01*
X116300Y192649D02*
X115100Y189500D01*
X113901Y192649D02*
X115100Y189500D01*
X111247Y191899D02*
X111397Y192199D01*
X111697Y192499D01*
X111996Y192649D01*
X112596D01*
X112896Y192499D01*
X113196Y192199D01*
X113346Y191899D01*
X113496Y191449D01*
Y190700D01*
X113346Y190250D01*
X113196Y189950D01*
X112896Y189650D01*
X112596Y189500D01*
X111996D01*
X111697Y189650D01*
X111397Y189950D01*
X111247Y190250D01*
X108113Y191899D02*
X108263Y192199D01*
X108563Y192499D01*
X108862Y192649D01*
X109462D01*
X109762Y192499D01*
X110062Y192199D01*
X110212Y191899D01*
X110362Y191449D01*
Y190700D01*
X110212Y190250D01*
X110062Y189950D01*
X109762Y189650D01*
X109462Y189500D01*
X108862D01*
X108563Y189650D01*
X108263Y189950D01*
X108113Y190250D01*
X107228Y188450D02*
X104829D01*
X104424Y192649D02*
Y189500D01*
Y192649D02*
X103224Y189500D01*
X102025Y192649D02*
X103224Y189500D01*
X102025Y192649D02*
Y189500D01*
X98876Y191899D02*
X99026Y192199D01*
X99326Y192499D01*
X99626Y192649D01*
X100225D01*
X100525Y192499D01*
X100825Y192199D01*
X100975Y191899D01*
X101125Y191449D01*
Y190700D01*
X100975Y190250D01*
X100825Y189950D01*
X100525Y189650D01*
X100225Y189500D01*
X99626D01*
X99326Y189650D01*
X99026Y189950D01*
X98876Y190250D01*
X97991Y192649D02*
Y190400D01*
X97841Y189950D01*
X97541Y189650D01*
X97092Y189500D01*
X96792D01*
X96342Y189650D01*
X96042Y189950D01*
X95892Y190400D01*
Y192649D01*
M02*
