G04 Layer_Color=16711935*
%FSLAX25Y25*%
%MOIN*%
G70*
G01*
G75*
%ADD77C,0.00591*%
%ADD133C,0.00394*%
D77*
X189547Y176541D02*
Y189139D01*
X195453D01*
Y176541D02*
Y189139D01*
X189547Y176541D02*
X195453D01*
X309594Y231446D02*
X321406D01*
Y219635D02*
Y231446D01*
X309594Y219635D02*
X321406D01*
X309594D02*
Y231446D01*
X194016Y92795D02*
X253937D01*
Y83346D02*
Y92795D01*
X194016Y83346D02*
X253937D01*
X194016D02*
Y92795D01*
X174016Y273346D02*
X254016D01*
X174016D02*
Y282795D01*
X254016D01*
Y273346D02*
Y282795D01*
X26575Y201532D02*
X46260D01*
Y263146D01*
X26575D02*
X46260D01*
X26575Y201532D02*
Y263146D01*
X168032Y273346D02*
Y282795D01*
X68032D02*
X168032D01*
X68032Y273346D02*
Y282795D01*
Y273346D02*
X168032D01*
X26575Y78236D02*
Y139850D01*
X46260D01*
Y78236D02*
Y139850D01*
X26575Y78236D02*
X46260D01*
X104016Y92795D02*
X184016D01*
Y83346D02*
Y92795D01*
X104016Y83346D02*
X184016D01*
X104016D02*
Y92795D01*
D133*
X268302Y176074D02*
G03*
X268302Y176074I-1969J0D01*
G01*
X169623Y170398D02*
G03*
X169623Y170398I-1181J0D01*
G01*
X91545Y198430D02*
Y202170D01*
X84655Y198430D02*
Y202170D01*
Y198430D02*
X91545D01*
X84655Y202170D02*
X91545D01*
X286610Y172531D02*
Y196350D01*
X262790Y172531D02*
Y196350D01*
X286610D01*
X262790Y172531D02*
X286610D01*
X282031Y156303D02*
X285968D01*
Y164177D01*
X282031D02*
X285968D01*
X282031Y156303D02*
Y164177D01*
X289990Y95787D02*
X291171Y94606D01*
X290384Y96575D02*
X291565Y95394D01*
X293600Y93799D02*
Y96949D01*
X292025Y94587D02*
X295175D01*
X293600D02*
X295175Y96161D01*
X292025D02*
X293600Y94587D01*
X292025Y96161D02*
X295175D01*
X309303Y254748D02*
X319815D01*
Y248252D02*
Y254748D01*
X309185Y248252D02*
X319815D01*
X309185D02*
Y254748D01*
X196001Y196098D02*
X208599D01*
X196001Y215783D02*
X208599D01*
X196001Y196098D02*
Y215783D01*
X208599Y196098D02*
Y215783D01*
X132615Y206225D02*
X171985D01*
X132615Y166855D02*
X171985D01*
X132615D02*
Y206225D01*
X171985Y166855D02*
Y206225D01*
X283630Y116028D02*
Y122721D01*
X287370Y116028D02*
Y122721D01*
X283630Y116028D02*
X287370D01*
X283630Y122721D02*
X287370D01*
X102000Y237130D02*
Y246618D01*
Y237130D02*
X132000D01*
Y246618D01*
X102000D02*
X132000D01*
X90555Y136630D02*
X97445D01*
X90555Y140370D02*
X97445D01*
Y136630D02*
Y140370D01*
X90555Y136630D02*
Y140370D01*
X242730Y241146D02*
X246470D01*
X242730Y234454D02*
X246470D01*
X242730D02*
Y241146D01*
X246470Y234454D02*
Y241146D01*
X291244Y230374D02*
Y260374D01*
X281756Y230374D02*
X291244D01*
X281756D02*
Y260374D01*
X291244D01*
X51130Y149653D02*
Y156346D01*
X54870Y149653D02*
Y156346D01*
X51130Y149653D02*
X54870D01*
X51130Y156346D02*
X54870D01*
X128870Y225654D02*
Y232347D01*
X125130Y225654D02*
Y232347D01*
X128870D01*
X125130Y225654D02*
X128870D01*
X265830Y212294D02*
Y218987D01*
X269570Y212294D02*
Y218987D01*
X265830Y212294D02*
X269570D01*
X265830Y218987D02*
X269570D01*
X256570Y189794D02*
Y196487D01*
X252830Y189794D02*
Y196487D01*
X256570D01*
X252830Y189794D02*
X256570D01*
Y164794D02*
Y171487D01*
X252830Y164794D02*
Y171487D01*
X256570D01*
X252830Y164794D02*
X256570D01*
X274054Y203370D02*
X280747D01*
X274054Y207110D02*
X280747D01*
Y203370D02*
Y207110D01*
X274054Y203370D02*
Y207110D01*
X161354Y243510D02*
X168046D01*
X161354Y239770D02*
X168046D01*
X161354D02*
Y243510D01*
X168046Y239770D02*
Y243510D01*
X196370Y241494D02*
Y248187D01*
X192630Y241494D02*
Y248187D01*
X196370D01*
X192630Y241494D02*
X196370D01*
X202870D02*
Y248187D01*
X199130Y241494D02*
Y248187D01*
X202870D01*
X199130Y241494D02*
X202870D01*
X274054Y209970D02*
X280747D01*
X274054Y213710D02*
X280747D01*
Y209970D02*
Y213710D01*
X274054Y209970D02*
Y213710D01*
X261854Y203270D02*
X268547D01*
X261854Y207010D02*
X268547D01*
Y203270D02*
Y207010D01*
X261854Y203270D02*
Y207010D01*
X315630Y204694D02*
Y211387D01*
X319370Y204694D02*
Y211387D01*
X315630Y204694D02*
X319370D01*
X315630Y211387D02*
X319370D01*
X325570Y204694D02*
Y211387D01*
X321830Y204694D02*
Y211387D01*
X325570D01*
X321830Y204694D02*
X325570D01*
X291630Y116028D02*
Y122721D01*
X295370Y116028D02*
Y122721D01*
X291630Y116028D02*
X295370D01*
X291630Y122721D02*
X295370D01*
X126630Y136028D02*
Y142720D01*
X130370Y136028D02*
Y142720D01*
X126630Y136028D02*
X130370D01*
X126630Y142720D02*
X130370D01*
X119630Y136028D02*
Y142720D01*
X123370Y136028D02*
Y142720D01*
X119630Y136028D02*
X123370D01*
X119630Y142720D02*
X123370D01*
X145970Y220494D02*
Y227187D01*
X142230Y220494D02*
Y227187D01*
X145970D01*
X142230Y220494D02*
X145970D01*
X139670D02*
Y227187D01*
X135930Y220494D02*
Y227187D01*
X139670D01*
X135930Y220494D02*
X139670D01*
X114630Y225528D02*
Y232221D01*
X118370Y225528D02*
Y232221D01*
X114630Y225528D02*
X118370D01*
X114630Y232221D02*
X118370D01*
X103154Y140370D02*
X109846D01*
X103154Y136630D02*
X109846D01*
X103154D02*
Y140370D01*
X109846Y136630D02*
Y140370D01*
X182330Y117594D02*
Y124287D01*
X186070Y117594D02*
Y124287D01*
X182330Y117594D02*
X186070D01*
X182330Y124287D02*
X186070D01*
X230153Y134130D02*
X236846D01*
X230153Y137870D02*
X236846D01*
Y134130D02*
Y137870D01*
X230153Y134130D02*
Y137870D01*
X203153Y156130D02*
X209846D01*
X203153Y159870D02*
X209846D01*
Y156130D02*
Y159870D01*
X203153Y156130D02*
Y159870D01*
X166030Y220494D02*
Y227187D01*
X169770Y220494D02*
Y227187D01*
X166030Y220494D02*
X169770D01*
X166030Y227187D02*
X169770D01*
X159530Y220494D02*
Y227187D01*
X163270Y220494D02*
Y227187D01*
X159530Y220494D02*
X163270D01*
X159530Y227187D02*
X163270D01*
X324130Y229694D02*
Y236387D01*
X327870Y229694D02*
Y236387D01*
X324130Y229694D02*
X327870D01*
X324130Y236387D02*
X327870D01*
X35554Y182404D02*
X42246D01*
X35554Y186144D02*
X42246D01*
Y182404D02*
Y186144D01*
X35554Y182404D02*
Y186144D01*
Y174270D02*
Y178010D01*
X42246Y174270D02*
Y178010D01*
X35554D02*
X42246D01*
X35554Y174270D02*
X42246D01*
X187930Y117555D02*
Y124445D01*
X191670Y117555D02*
Y124445D01*
X187930Y117555D02*
X191670D01*
X187930Y124445D02*
X191670D01*
X230055Y128330D02*
X236945D01*
X230055Y132070D02*
X236945D01*
Y128330D02*
Y132070D01*
X230055Y128330D02*
Y132070D01*
X194170Y195995D02*
Y202885D01*
X190430Y195995D02*
Y202885D01*
X194170D01*
X190430Y195995D02*
X194170D01*
X190430Y208295D02*
Y215185D01*
X194170Y208295D02*
Y215185D01*
X190430Y208295D02*
X194170D01*
X190430Y215185D02*
X194170D01*
X185870Y173395D02*
Y180285D01*
X182130Y173395D02*
Y180285D01*
X185870D01*
X182130Y173395D02*
X185870D01*
X182130Y185595D02*
Y192485D01*
X185870Y185595D02*
Y192485D01*
X182130Y185595D02*
X185870D01*
X182130Y192485D02*
X185870D01*
X306555Y234670D02*
X313445D01*
X306555Y238410D02*
X313445D01*
Y234670D02*
Y238410D01*
X306555Y234670D02*
Y238410D01*
Y241170D02*
X313445D01*
X306555Y244910D02*
X313445D01*
Y241170D02*
Y244910D01*
X306555Y241170D02*
Y244910D01*
X317630Y236495D02*
Y243385D01*
X321370Y236495D02*
Y243385D01*
X317630Y236495D02*
X321370D01*
X317630Y243385D02*
X321370D01*
X297130Y220595D02*
Y227485D01*
X300870Y220595D02*
Y227485D01*
X297130Y220595D02*
X300870D01*
X297130Y227485D02*
X300870D01*
X303630Y220595D02*
Y227485D01*
X307370Y220595D02*
Y227485D01*
X303630Y220595D02*
X307370D01*
X303630Y227485D02*
X307370D01*
X115055Y186630D02*
X121945D01*
X115055Y190370D02*
X121945D01*
Y186630D02*
Y190370D01*
X115055Y186630D02*
Y190370D01*
X152270Y220395D02*
Y227285D01*
X148530Y220395D02*
Y227285D01*
X152270D01*
X148530Y220395D02*
X152270D01*
X161155Y235910D02*
X168045D01*
X161155Y232170D02*
X168045D01*
X161155D02*
Y235910D01*
X168045Y232170D02*
Y235910D01*
X148055Y148020D02*
X154945D01*
X148055Y151760D02*
X154945D01*
Y148020D02*
Y151760D01*
X148055Y148020D02*
Y151760D01*
X135555Y151760D02*
X142445D01*
X135555Y148020D02*
X142445D01*
X135555D02*
Y151760D01*
X142445Y148020D02*
Y151760D01*
X34530Y161195D02*
Y168085D01*
X38270Y161195D02*
Y168085D01*
X34530Y161195D02*
X38270D01*
X34530Y168085D02*
X38270D01*
X183670Y153595D02*
Y160485D01*
X179930Y153595D02*
Y160485D01*
X183670D01*
X179930Y153595D02*
X183670D01*
X55255Y140110D02*
X62145D01*
X55255Y136370D02*
X62145D01*
X55255D02*
Y140110D01*
X62145Y136370D02*
Y140110D01*
X54870Y248929D02*
Y255819D01*
X51130Y248929D02*
Y255819D01*
X54870D01*
X51130Y248929D02*
X54870D01*
X295555Y189510D02*
X302445D01*
X295555Y185770D02*
X302445D01*
X295555D02*
Y189510D01*
X302445Y185770D02*
Y189510D01*
X269370Y156795D02*
Y163685D01*
X265630Y156795D02*
Y163685D01*
X269370D01*
X265630Y156795D02*
X269370D01*
X276370D02*
Y163685D01*
X272630Y156795D02*
Y163685D01*
X276370D01*
X272630Y156795D02*
X276370D01*
X295255Y166770D02*
X302145D01*
X295255Y170510D02*
X302145D01*
Y166770D02*
Y170510D01*
X295255Y166770D02*
Y170510D01*
X256570Y177195D02*
Y184085D01*
X252830Y177195D02*
Y184085D01*
X256570D01*
X252830Y177195D02*
X256570D01*
X176170Y220395D02*
Y227285D01*
X172430Y220395D02*
Y227285D01*
X176170D01*
X172430Y220395D02*
X176170D01*
X167945Y148020D02*
Y151760D01*
X161055Y148020D02*
Y151760D01*
Y148020D02*
X167945D01*
X161055Y151760D02*
X167945D01*
X117390Y123287D02*
X118571Y122106D01*
X117783Y124075D02*
X118965Y122894D01*
X121000Y121299D02*
Y124449D01*
X119425Y122087D02*
X122575D01*
X121000D02*
X122575Y123661D01*
X119425D02*
X121000Y122087D01*
X119425Y123661D02*
X122575D01*
X127425D02*
X130575D01*
X127425D02*
X129000Y122087D01*
X130575Y123661D01*
X127425Y122087D02*
X130575D01*
X129000Y121299D02*
Y124449D01*
X125784Y124075D02*
X126965Y122894D01*
X125390Y123287D02*
X126571Y122106D01*
X282490Y95787D02*
X283671Y94606D01*
X282884Y96575D02*
X284065Y95394D01*
X286100Y93799D02*
Y96949D01*
X284525Y94587D02*
X287675D01*
X286100D02*
X287675Y96161D01*
X284525D02*
X286100Y94587D01*
X284525Y96161D02*
X287675D01*
M02*
