G04 Layer_Physical_Order=2*
G04 Layer_Color=36540*
%FSLAX25Y25*%
%MOIN*%
G70*
G01*
G75*
%ADD40C,0.00800*%
%ADD42C,0.02000*%
%ADD43C,0.01000*%
%ADD44C,0.02500*%
%ADD45C,0.01500*%
%ADD46C,0.03000*%
%ADD47C,0.05000*%
%ADD52C,0.05512*%
%ADD53C,0.05512*%
%ADD54R,0.05512X0.05512*%
%ADD55R,0.05906X0.05906*%
%ADD56C,0.05906*%
%ADD57R,0.07000X0.07000*%
%ADD58C,0.07000*%
%ADD59R,0.07000X0.07000*%
%ADD60C,0.03937*%
%ADD61R,0.03937X0.03937*%
%ADD62O,0.06299X0.03150*%
%ADD63C,0.03543*%
%ADD64R,0.05906X0.05906*%
%ADD65C,0.15748*%
%ADD66C,0.01969*%
%ADD67C,0.02400*%
%ADD68C,0.02362*%
%ADD69C,0.04000*%
%ADD70C,0.03000*%
%ADD71C,0.03500*%
G36*
X333524Y284835D02*
Y230838D01*
X333225Y230808D01*
X333143Y231222D01*
X332734Y231834D01*
X317860Y246708D01*
X317248Y247117D01*
X316526Y247260D01*
X290157D01*
X290081Y247442D01*
X289424Y248298D01*
X288568Y248955D01*
X287570Y249369D01*
X286500Y249509D01*
X285430Y249369D01*
X284432Y248955D01*
X283576Y248298D01*
X282919Y247442D01*
X282843Y247260D01*
X259174D01*
X258452Y247117D01*
X257840Y246708D01*
X251566Y240434D01*
X251157Y239822D01*
X251014Y239100D01*
Y209181D01*
X248419Y206586D01*
X246331D01*
X245834Y207234D01*
X245092Y207803D01*
X244227Y208161D01*
X243300Y208283D01*
X242373Y208161D01*
X242226Y208100D01*
X242084Y208366D01*
X242534Y208666D01*
X245234Y211366D01*
X245643Y211978D01*
X245786Y212700D01*
Y221819D01*
X246581Y222614D01*
X247600D01*
X248322Y222757D01*
X248934Y223166D01*
X249343Y223778D01*
X249486Y224500D01*
X249343Y225222D01*
X248934Y225834D01*
X248322Y226243D01*
X247600Y226386D01*
X245800D01*
X245078Y226243D01*
X244466Y225834D01*
X242566Y223934D01*
X242157Y223322D01*
X242014Y222600D01*
Y213481D01*
X240419Y211886D01*
X239800D01*
X239078Y211743D01*
X238466Y211334D01*
X236966Y209834D01*
X236557Y209222D01*
X236414Y208500D01*
Y206970D01*
X236115Y206868D01*
X235834Y207234D01*
X235092Y207803D01*
X234227Y208161D01*
X233300Y208283D01*
X232373Y208161D01*
X231508Y207803D01*
X230766Y207234D01*
X230197Y206492D01*
X229839Y205627D01*
X229717Y204700D01*
X229839Y203773D01*
X230197Y202908D01*
X230766Y202166D01*
X231508Y201597D01*
X232373Y201239D01*
X233300Y201117D01*
X234227Y201239D01*
X235092Y201597D01*
X235834Y202166D01*
X236115Y202532D01*
X236414Y202430D01*
Y200481D01*
X234109Y198177D01*
X233300Y198283D01*
X232373Y198161D01*
X231508Y197803D01*
X230766Y197234D01*
X230197Y196492D01*
X229839Y195627D01*
X229717Y194700D01*
X229839Y193773D01*
X230197Y192908D01*
X230766Y192166D01*
X231508Y191597D01*
X232373Y191239D01*
X232509Y191221D01*
X232489Y190922D01*
X230665D01*
X229022Y192565D01*
Y228535D01*
X233393Y232907D01*
X233393Y232907D01*
X233636Y233271D01*
X233721Y233700D01*
Y247235D01*
X235493Y249007D01*
X235493Y249007D01*
X235736Y249371D01*
X235822Y249800D01*
X235822Y249800D01*
Y268285D01*
X235998Y268402D01*
X236396Y268998D01*
X236535Y269700D01*
X236396Y270402D01*
X235998Y270998D01*
X235402Y271396D01*
X234700Y271535D01*
X233998Y271396D01*
X233402Y270998D01*
X233004Y270402D01*
X232865Y269700D01*
X233004Y268998D01*
X233402Y268402D01*
X233578Y268285D01*
Y250265D01*
X231807Y248493D01*
X231564Y248129D01*
X231478Y247700D01*
X231479Y247700D01*
Y234165D01*
X227107Y229793D01*
X226864Y229429D01*
X226778Y229000D01*
X226779Y229000D01*
Y192100D01*
X226778Y192100D01*
X226864Y191671D01*
X227107Y191307D01*
X229407Y189007D01*
X229407Y189007D01*
X229771Y188764D01*
X230200Y188678D01*
X230200Y188678D01*
X237935D01*
X240175Y186439D01*
X239839Y185627D01*
X239717Y184700D01*
X239839Y183773D01*
X240197Y182908D01*
X240766Y182166D01*
X241349Y181719D01*
X241248Y181420D01*
X237622D01*
X236286Y182756D01*
X236403Y182908D01*
X236761Y183773D01*
X236883Y184700D01*
X236761Y185627D01*
X236403Y186492D01*
X235834Y187234D01*
X235092Y187803D01*
X234227Y188161D01*
X233300Y188283D01*
X232373Y188161D01*
X231508Y187803D01*
X230766Y187234D01*
X230197Y186492D01*
X229839Y185627D01*
X229717Y184700D01*
X229839Y183773D01*
X230197Y182908D01*
X230766Y182166D01*
X231508Y181597D01*
X232373Y181239D01*
X233300Y181117D01*
X234227Y181239D01*
X234717Y181441D01*
X236479Y179679D01*
X236810Y179458D01*
X237200Y179380D01*
X256278D01*
X258380Y177278D01*
Y169984D01*
X258102Y169798D01*
X257704Y169202D01*
X257565Y168500D01*
X257704Y167798D01*
X258102Y167202D01*
X258698Y166804D01*
X259400Y166665D01*
X260102Y166804D01*
X260698Y167202D01*
X261096Y167798D01*
X261235Y168500D01*
X261096Y169202D01*
X260698Y169798D01*
X260420Y169984D01*
Y177700D01*
X260342Y178090D01*
X260121Y178421D01*
X257421Y181121D01*
X257090Y181342D01*
X256700Y181420D01*
X245352D01*
X245251Y181719D01*
X245834Y182166D01*
X246403Y182908D01*
X246761Y183773D01*
X246883Y184700D01*
X246761Y185627D01*
X246403Y186492D01*
X245834Y187234D01*
X245092Y187803D01*
X244227Y188161D01*
X243300Y188283D01*
X242373Y188161D01*
X241844Y187942D01*
X239193Y190593D01*
X238829Y190836D01*
X238400Y190922D01*
X238400Y190922D01*
X234111D01*
X234091Y191221D01*
X234227Y191239D01*
X235092Y191597D01*
X235834Y192166D01*
X236403Y192908D01*
X236761Y193773D01*
X236883Y194700D01*
X236777Y195509D01*
X239634Y198366D01*
X240043Y198978D01*
X240186Y199700D01*
Y202430D01*
X240485Y202532D01*
X240766Y202166D01*
X241508Y201597D01*
X242373Y201239D01*
X243300Y201117D01*
X244227Y201239D01*
X245092Y201597D01*
X245834Y202166D01*
X246331Y202814D01*
X249200D01*
X249922Y202957D01*
X250534Y203366D01*
X254234Y207066D01*
X254643Y207678D01*
X254786Y208400D01*
Y238319D01*
X259955Y243488D01*
X282843D01*
X282919Y243306D01*
X283576Y242450D01*
X284432Y241793D01*
X285430Y241380D01*
X286500Y241239D01*
X287570Y241380D01*
X288568Y241793D01*
X289424Y242450D01*
X290081Y243306D01*
X290157Y243488D01*
X315745D01*
X329514Y229719D01*
Y117216D01*
Y105181D01*
X325046Y100713D01*
X324703Y100731D01*
X324393Y101134D01*
X323692Y101672D01*
X322876Y102010D01*
X322000Y102125D01*
X321124Y102010D01*
X320308Y101672D01*
X319606Y101134D01*
X319069Y100433D01*
X318730Y99616D01*
X318615Y98740D01*
X318730Y97864D01*
X319069Y97048D01*
X319606Y96347D01*
X320308Y95809D01*
X321124Y95471D01*
X322000Y95355D01*
X322876Y95471D01*
X323692Y95809D01*
X324393Y96347D01*
X324783Y96854D01*
X325740D01*
X326462Y96997D01*
X327074Y97406D01*
X332734Y103066D01*
X333143Y103678D01*
X333225Y104092D01*
X333524Y104062D01*
Y78136D01*
X332954Y78109D01*
X331815Y77747D01*
X326744Y75366D01*
X325738Y74721D01*
X324933Y73838D01*
X324385Y72777D01*
X324129Y71610D01*
X324184Y70417D01*
X324547Y69279D01*
X325191Y68273D01*
X326074Y67468D01*
X327135Y66919D01*
X328302Y66664D01*
X329496Y66719D01*
X330634Y67081D01*
X331464Y67471D01*
X331733Y67359D01*
X332453Y66807D01*
X332765Y66400D01*
X332765D01*
X333005Y66087D01*
X333352Y65249D01*
X333406Y64837D01*
X333455Y64844D01*
X333509Y64571D01*
X333524Y64549D01*
Y54700D01*
Y2110D01*
X332535Y1122D01*
X330453D01*
X330256Y1347D01*
X330276Y1500D01*
Y3400D01*
X330120Y4584D01*
X329663Y5688D01*
X328936Y6636D01*
X327988Y7363D01*
X326884Y7820D01*
X325700Y7976D01*
X324516Y7820D01*
X323412Y7363D01*
X322464Y6636D01*
X321737Y5688D01*
X321280Y4584D01*
X321124Y3400D01*
Y1500D01*
X321144Y1347D01*
X320947Y1122D01*
X13801D01*
X13603Y1347D01*
X13676Y1900D01*
Y3300D01*
X13520Y4484D01*
X13063Y5588D01*
X12336Y6536D01*
X11388Y7263D01*
X10284Y7720D01*
X9100Y7876D01*
X7916Y7720D01*
X6812Y7263D01*
X5864Y6536D01*
X5137Y5588D01*
X4680Y4484D01*
X4524Y3300D01*
Y1900D01*
X4597Y1347D01*
X4399Y1122D01*
X2465D01*
X1122Y2465D01*
Y63360D01*
X1139Y63363D01*
X1122Y63498D01*
Y64202D01*
X1194Y64749D01*
X1541Y65587D01*
X2093Y66307D01*
X2214Y66400D01*
X72761D01*
X72786Y66102D01*
X71398Y65866D01*
X68104Y64917D01*
X64937Y63605D01*
X61936Y61947D01*
X59140Y59963D01*
X56584Y57679D01*
X54300Y55123D01*
X52316Y52327D01*
X50658Y49327D01*
X49346Y46159D01*
X48397Y42865D01*
X47823Y39486D01*
X47631Y36063D01*
X47823Y32640D01*
X48397Y29261D01*
X49346Y25967D01*
X50658Y22799D01*
X52316Y19799D01*
X54300Y17003D01*
X56584Y14447D01*
X59140Y12163D01*
X61936Y10179D01*
X64937Y8521D01*
X68104Y7209D01*
X71398Y6260D01*
X74777Y5686D01*
X78200Y5494D01*
X81623Y5686D01*
X85002Y6260D01*
X88296Y7209D01*
X91464Y8521D01*
X94464Y10179D01*
X97260Y12163D01*
X99816Y14447D01*
X102100Y17003D01*
X104084Y19799D01*
X105742Y22799D01*
X107054Y25967D01*
X108003Y29261D01*
X108577Y32640D01*
X108769Y36063D01*
X108577Y39486D01*
X108003Y42865D01*
X107054Y46159D01*
X105742Y49327D01*
X104084Y52327D01*
X102100Y55123D01*
X99816Y57679D01*
X97260Y59963D01*
X94464Y61947D01*
X91464Y63605D01*
X88296Y64917D01*
X85002Y65866D01*
X83614Y66102D01*
X83639Y66400D01*
X160116D01*
X160141Y66102D01*
X158752Y65866D01*
X155458Y64917D01*
X152291Y63605D01*
X149291Y61947D01*
X146495Y59963D01*
X143939Y57679D01*
X141654Y55123D01*
X139671Y52327D01*
X138012Y49327D01*
X136700Y46159D01*
X135751Y42865D01*
X135177Y39486D01*
X134985Y36063D01*
X135177Y32640D01*
X135751Y29261D01*
X136700Y25967D01*
X138012Y22799D01*
X139671Y19799D01*
X141654Y17003D01*
X143939Y14447D01*
X146495Y12163D01*
X149291Y10179D01*
X152291Y8521D01*
X155458Y7209D01*
X158752Y6260D01*
X162132Y5686D01*
X165554Y5494D01*
X168977Y5686D01*
X172357Y6260D01*
X175651Y7209D01*
X178818Y8521D01*
X181818Y10179D01*
X184614Y12163D01*
X187170Y14447D01*
X189454Y17003D01*
X191438Y19799D01*
X193096Y22799D01*
X194408Y25967D01*
X195357Y29261D01*
X195931Y32640D01*
X196124Y36063D01*
X195931Y39486D01*
X195357Y42865D01*
X194408Y46159D01*
X193096Y49327D01*
X191438Y52327D01*
X189454Y55123D01*
X187170Y57679D01*
X184614Y59963D01*
X181818Y61947D01*
X178818Y63605D01*
X175651Y64917D01*
X172357Y65866D01*
X170968Y66102D01*
X170993Y66400D01*
X247859D01*
X247884Y66102D01*
X246899Y65934D01*
X243604Y64985D01*
X240437Y63674D01*
X237437Y62015D01*
X234641Y60032D01*
X232085Y57747D01*
X229801Y55191D01*
X227817Y52395D01*
X226159Y49395D01*
X224847Y46228D01*
X223898Y42934D01*
X223324Y39554D01*
X223131Y36132D01*
X223324Y32709D01*
X223898Y29329D01*
X224847Y26035D01*
X226159Y22868D01*
X227817Y19868D01*
X229801Y17072D01*
X232085Y14516D01*
X234641Y12231D01*
X237437Y10248D01*
X240437Y8590D01*
X243604Y7278D01*
X246899Y6329D01*
X250278Y5754D01*
X253701Y5562D01*
X257123Y5754D01*
X260503Y6329D01*
X263797Y7278D01*
X266964Y8590D01*
X269965Y10248D01*
X272761Y12231D01*
X275317Y14516D01*
X277601Y17072D01*
X279585Y19868D01*
X281243Y22868D01*
X282555Y26035D01*
X283504Y29329D01*
X284078Y32709D01*
X284270Y36132D01*
X284078Y39554D01*
X283504Y42934D01*
X282555Y46228D01*
X281243Y49395D01*
X279585Y52395D01*
X277601Y55191D01*
X275317Y57747D01*
X272761Y60032D01*
X269965Y62015D01*
X266964Y63674D01*
X263797Y64985D01*
X260503Y65934D01*
X259518Y66102D01*
X259543Y66400D01*
X299400D01*
Y117216D01*
X196055D01*
X195865Y117448D01*
X195935Y117800D01*
X195796Y118502D01*
X195398Y119098D01*
X194802Y119496D01*
X194100Y119635D01*
X193398Y119496D01*
X192802Y119098D01*
X192404Y118502D01*
X192265Y117800D01*
X192335Y117448D01*
X192145Y117216D01*
X162149D01*
X162035Y117493D01*
X163221Y118679D01*
X163442Y119010D01*
X163520Y119400D01*
Y144573D01*
X163784Y144714D01*
X164098Y144504D01*
X164800Y144365D01*
X165502Y144504D01*
X166098Y144902D01*
X166496Y145498D01*
X166635Y146200D01*
X166496Y146902D01*
X166098Y147498D01*
X165502Y147896D01*
X164800Y148035D01*
X164098Y147896D01*
X163784Y147686D01*
X163520Y147827D01*
Y160000D01*
X163442Y160390D01*
X163221Y160721D01*
X160820Y163122D01*
Y190178D01*
X161821Y191179D01*
X162042Y191510D01*
X162120Y191900D01*
Y194016D01*
X162398Y194202D01*
X162796Y194798D01*
X162935Y195500D01*
X162796Y196202D01*
X162398Y196798D01*
X162120Y196984D01*
Y206100D01*
X162042Y206490D01*
X161821Y206821D01*
X160220Y208422D01*
Y214915D01*
X160519Y215006D01*
X160760Y214644D01*
X161356Y214246D01*
X162058Y214106D01*
X162761Y214246D01*
X163356Y214644D01*
X163754Y215239D01*
X163893Y215942D01*
X163754Y216644D01*
X163356Y217239D01*
X162761Y217637D01*
X162058Y217777D01*
X161356Y217637D01*
X160760Y217239D01*
X160519Y216878D01*
X160220Y216968D01*
Y235078D01*
X162521Y237379D01*
X162694Y237637D01*
X162945Y237677D01*
X163037Y237661D01*
X163142Y237505D01*
X166380Y234266D01*
Y202193D01*
X166116Y202052D01*
X165902Y202196D01*
X165200Y202335D01*
X164498Y202196D01*
X163902Y201798D01*
X163504Y201202D01*
X163365Y200500D01*
X163504Y199798D01*
X163902Y199202D01*
X164498Y198804D01*
X165200Y198665D01*
X165902Y198804D01*
X166116Y198948D01*
X166380Y198807D01*
Y198452D01*
X166098Y198396D01*
X165502Y197998D01*
X165104Y197402D01*
X164965Y196700D01*
X165104Y195998D01*
X165502Y195402D01*
X165831Y195183D01*
X165846Y194813D01*
X165504Y194302D01*
X165365Y193600D01*
X165504Y192898D01*
X165902Y192302D01*
X166498Y191904D01*
X167200Y191765D01*
X167902Y191904D01*
X168498Y192302D01*
X168896Y192898D01*
X169035Y193600D01*
X168896Y194302D01*
X168498Y194898D01*
X168169Y195117D01*
X168154Y195487D01*
X168496Y195998D01*
X168635Y196700D01*
X168496Y197402D01*
X168420Y197516D01*
Y208607D01*
X168684Y208748D01*
X168898Y208604D01*
X169600Y208465D01*
X170302Y208604D01*
X170898Y209002D01*
X171296Y209598D01*
X171435Y210300D01*
X171296Y211002D01*
X170898Y211598D01*
X170302Y211996D01*
X169600Y212135D01*
X168898Y211996D01*
X168684Y211852D01*
X168420Y211994D01*
Y234689D01*
X168342Y235079D01*
X168121Y235410D01*
X164883Y238648D01*
Y255592D01*
X165166Y255688D01*
X165282Y255537D01*
X166024Y254967D01*
X166888Y254609D01*
X167816Y254487D01*
X168743Y254609D01*
X169607Y254967D01*
X170350Y255537D01*
X170919Y256279D01*
X171277Y257143D01*
X171399Y258071D01*
X171277Y258998D01*
X170919Y259862D01*
X170350Y260605D01*
X169607Y261174D01*
X168743Y261532D01*
X167816Y261654D01*
X166888Y261532D01*
X166024Y261174D01*
X165282Y260605D01*
X165166Y260454D01*
X164883Y260550D01*
Y263696D01*
X166116Y264929D01*
X166888Y264610D01*
X167816Y264487D01*
X168743Y264610D01*
X169607Y264967D01*
X170350Y265537D01*
X170919Y266279D01*
X171277Y267143D01*
X171399Y268071D01*
X171277Y268998D01*
X170919Y269863D01*
X170350Y270605D01*
X169989Y270881D01*
X170116Y271161D01*
X170600Y271065D01*
X171302Y271204D01*
X171898Y271602D01*
X172296Y272198D01*
X172435Y272900D01*
X172296Y273602D01*
X171898Y274198D01*
X171302Y274596D01*
X170600Y274735D01*
X169898Y274596D01*
X169302Y274198D01*
X168904Y273602D01*
X168765Y272900D01*
X168904Y272198D01*
X169123Y271871D01*
X169031Y271470D01*
X168974Y271437D01*
X168743Y271532D01*
X167816Y271654D01*
X166888Y271532D01*
X166024Y271174D01*
X165282Y270605D01*
X164712Y269863D01*
X164354Y268998D01*
X164232Y268071D01*
X164354Y267143D01*
X164674Y266371D01*
X163142Y264839D01*
X163119Y264804D01*
X162820Y264895D01*
Y270800D01*
X162742Y271190D01*
X162521Y271521D01*
X160370Y273672D01*
X160494Y273971D01*
X167131D01*
Y282171D01*
X164051D01*
Y283569D01*
X163973Y283959D01*
X163752Y284290D01*
X162061Y285981D01*
X162185Y286280D01*
X210919D01*
X210988Y286054D01*
X210992Y285981D01*
X207322Y282310D01*
X206812Y281548D01*
X206092Y280995D01*
X205434Y280138D01*
X205021Y279141D01*
X204880Y278071D01*
X205021Y277000D01*
X205434Y276003D01*
X206092Y275147D01*
X206948Y274489D01*
X207945Y274076D01*
X209016Y273935D01*
X210086Y274076D01*
X211083Y274489D01*
X211940Y275147D01*
X212597Y276003D01*
X213010Y277000D01*
X213151Y278071D01*
X213010Y279141D01*
X212597Y280138D01*
X212306Y280518D01*
X213692Y281904D01*
X216820D01*
X216886Y281605D01*
X216092Y280995D01*
X215434Y280138D01*
X215021Y279141D01*
X214880Y278071D01*
X215021Y277000D01*
X215434Y276003D01*
X216092Y275147D01*
X216948Y274489D01*
X217945Y274076D01*
X219016Y273935D01*
X220086Y274076D01*
X221083Y274489D01*
X221940Y275147D01*
X222597Y276003D01*
X223010Y277000D01*
X223151Y278071D01*
X223010Y279141D01*
X222597Y280138D01*
X221940Y280995D01*
X221145Y281605D01*
X221212Y281904D01*
X226820D01*
X226886Y281605D01*
X226092Y280995D01*
X225434Y280138D01*
X225021Y279141D01*
X224880Y278071D01*
X225021Y277000D01*
X225434Y276003D01*
X226092Y275147D01*
X226948Y274489D01*
X227945Y274076D01*
X229016Y273935D01*
X230086Y274076D01*
X231083Y274489D01*
X231940Y275147D01*
X232597Y276003D01*
X233010Y277000D01*
X233151Y278071D01*
X233010Y279141D01*
X232597Y280138D01*
X231940Y280995D01*
X231145Y281605D01*
X231212Y281904D01*
X236820D01*
X236886Y281605D01*
X236092Y280995D01*
X235434Y280138D01*
X235021Y279141D01*
X234880Y278071D01*
X235021Y277000D01*
X235434Y276003D01*
X236092Y275147D01*
X236948Y274489D01*
X237945Y274076D01*
X239016Y273935D01*
X240086Y274076D01*
X241083Y274489D01*
X241940Y275147D01*
X242597Y276003D01*
X243010Y277000D01*
X243151Y278071D01*
X243010Y279141D01*
X242597Y280138D01*
X241940Y280995D01*
X241145Y281605D01*
X241212Y281904D01*
X244916D01*
Y273971D01*
X253116D01*
Y281904D01*
X301207D01*
X306604Y276507D01*
Y261196D01*
X289926D01*
X289926Y261196D01*
X289009Y261014D01*
X288232Y260494D01*
X288232Y260494D01*
X287211Y259474D01*
X282400D01*
Y251274D01*
X290600D01*
Y256085D01*
X290918Y256404D01*
X308008D01*
X314606Y249806D01*
X315383Y249286D01*
X316300Y249104D01*
X317217Y249286D01*
X317366Y249386D01*
X317500Y249359D01*
X318319Y249522D01*
X319014Y249986D01*
X319478Y250681D01*
X319641Y251500D01*
X319478Y252319D01*
X319014Y253014D01*
X318319Y253478D01*
X317559Y253629D01*
X311396Y259792D01*
Y277500D01*
X311214Y278417D01*
X310694Y279194D01*
X310694Y279194D01*
X303908Y285981D01*
X303912Y286054D01*
X303981Y286280D01*
X332080D01*
X333524Y284835D01*
D02*
G37*
G36*
X147180Y276591D02*
Y274600D01*
X147258Y274210D01*
X147479Y273879D01*
X149179Y272179D01*
X149510Y271958D01*
X149900Y271880D01*
X151578D01*
X151980Y271478D01*
Y249200D01*
X152058Y248810D01*
X152279Y248479D01*
X153080Y247678D01*
Y230222D01*
X151579Y228721D01*
X151358Y228390D01*
X151280Y228000D01*
Y217564D01*
X150994Y217477D01*
X150945Y217550D01*
X150350Y217948D01*
X149647Y218088D01*
X148945Y217948D01*
X148349Y217550D01*
X147952Y216955D01*
X147812Y216253D01*
X147952Y215550D01*
X148349Y214955D01*
X148945Y214557D01*
X149647Y214418D01*
X150350Y214557D01*
X150945Y214955D01*
X150994Y215029D01*
X151280Y214942D01*
Y213022D01*
X142096Y203838D01*
X141820Y203952D01*
Y232678D01*
X144021Y234879D01*
X144242Y235210D01*
X144320Y235600D01*
Y256446D01*
X144619Y256505D01*
X144712Y256279D01*
X145282Y255537D01*
X146024Y254967D01*
X146888Y254609D01*
X147816Y254487D01*
X148743Y254609D01*
X149608Y254967D01*
X150350Y255537D01*
X150919Y256279D01*
X151277Y257143D01*
X151399Y258071D01*
X151277Y258998D01*
X150919Y259862D01*
X150350Y260605D01*
X149608Y261174D01*
X148743Y261532D01*
X147816Y261654D01*
X146888Y261532D01*
X146024Y261174D01*
X145282Y260605D01*
X144712Y259862D01*
X144619Y259636D01*
X144320Y259696D01*
Y266446D01*
X144619Y266505D01*
X144712Y266279D01*
X145282Y265537D01*
X146024Y264967D01*
X146888Y264610D01*
X147816Y264487D01*
X148743Y264610D01*
X149608Y264967D01*
X150350Y265537D01*
X150919Y266279D01*
X151277Y267143D01*
X151399Y268071D01*
X151277Y268998D01*
X150919Y269863D01*
X150350Y270605D01*
X149608Y271174D01*
X148743Y271532D01*
X147816Y271654D01*
X146888Y271532D01*
X146024Y271174D01*
X145282Y270605D01*
X144712Y269863D01*
X144619Y269637D01*
X144320Y269696D01*
Y274167D01*
X145099Y274489D01*
X145956Y275147D01*
X146613Y276003D01*
X146881Y276651D01*
X147180Y276591D01*
D02*
G37*
G36*
X121580Y163427D02*
Y157384D01*
X121302Y157198D01*
X121250Y157119D01*
X120950D01*
X120898Y157198D01*
X120302Y157596D01*
X119600Y157735D01*
X118898Y157596D01*
X118302Y157198D01*
X117904Y156602D01*
X117765Y155900D01*
X117803Y155709D01*
X117591Y155497D01*
X117400Y155535D01*
X116698Y155396D01*
X116102Y154998D01*
X115704Y154402D01*
X115565Y153700D01*
X115704Y152998D01*
X116102Y152402D01*
X116698Y152004D01*
X117400Y151865D01*
X118102Y152004D01*
X118698Y152402D01*
X119096Y152998D01*
X119235Y153700D01*
X119197Y153891D01*
X119409Y154103D01*
X119600Y154065D01*
X120302Y154204D01*
X120898Y154602D01*
X120950Y154681D01*
X121250D01*
X121302Y154602D01*
X121898Y154204D01*
X122600Y154065D01*
X123302Y154204D01*
X123898Y154602D01*
X123917Y154631D01*
X124216D01*
X124302Y154502D01*
X124898Y154104D01*
X125600Y153965D01*
X126302Y154104D01*
X126898Y154502D01*
X126917Y154531D01*
X127216D01*
X127302Y154402D01*
X127898Y154004D01*
X128600Y153865D01*
X129302Y154004D01*
X129898Y154402D01*
X130087Y154685D01*
X130447D01*
X130702Y154302D01*
X131298Y153904D01*
X132000Y153765D01*
X132702Y153904D01*
X133298Y154302D01*
X133534Y154656D01*
X133833D01*
X134002Y154402D01*
X134598Y154004D01*
X135300Y153865D01*
X136002Y154004D01*
X136598Y154402D01*
X136617Y154431D01*
X136916D01*
X137002Y154302D01*
X137598Y153904D01*
X138300Y153765D01*
X139002Y153904D01*
X139598Y154302D01*
X139746Y154524D01*
X140045D01*
X140175Y154329D01*
X140771Y153931D01*
X141473Y153791D01*
X142175Y153931D01*
X142771Y154329D01*
X142845Y154439D01*
X143144D01*
X143302Y154202D01*
X143898Y153804D01*
X144600Y153665D01*
X145302Y153804D01*
X145898Y154202D01*
X146296Y154798D01*
X146338Y155012D01*
X146625Y155098D01*
X147080Y154643D01*
Y145002D01*
X145479Y143401D01*
X145258Y143070D01*
X145180Y142680D01*
Y142164D01*
X144881Y142074D01*
X144598Y142498D01*
X144002Y142896D01*
X143300Y143035D01*
X142598Y142896D01*
X142002Y142498D01*
X141604Y141902D01*
X141465Y141200D01*
X141604Y140498D01*
X142002Y139902D01*
X142598Y139504D01*
X143300Y139365D01*
X144002Y139504D01*
X144598Y139902D01*
X144881Y140326D01*
X145180Y140236D01*
Y131602D01*
X132798Y119220D01*
X128600D01*
X128210Y119142D01*
X127879Y118921D01*
X126174Y117216D01*
X88249D01*
X88135Y117493D01*
X90022Y119380D01*
X109600D01*
X109990Y119458D01*
X110321Y119679D01*
X114021Y123379D01*
X114242Y123710D01*
X114320Y124100D01*
Y135799D01*
X114619Y135828D01*
X114704Y135398D01*
X115102Y134802D01*
X115698Y134404D01*
X116400Y134265D01*
X117102Y134404D01*
X117698Y134802D01*
X118096Y135398D01*
X118235Y136100D01*
X118096Y136802D01*
X117698Y137398D01*
X117102Y137796D01*
X116400Y137935D01*
X115698Y137796D01*
X115102Y137398D01*
X114704Y136802D01*
X114619Y136372D01*
X114320Y136401D01*
Y156558D01*
X121304Y163542D01*
X121580Y163427D01*
D02*
G37*
G36*
X141380Y194848D02*
Y189622D01*
X137545Y185787D01*
X137167D01*
X136777Y185709D01*
X136446Y185488D01*
X133479Y182521D01*
X133258Y182190D01*
X133180Y181800D01*
Y171100D01*
X133208Y170959D01*
X132954Y170705D01*
X132800Y170735D01*
X132098Y170596D01*
X131502Y170198D01*
X131104Y169602D01*
X130965Y168900D01*
X131104Y168198D01*
X131502Y167602D01*
X132098Y167204D01*
X132800Y167065D01*
X133502Y167204D01*
X133716Y167348D01*
X133980Y167207D01*
Y163322D01*
X132478Y161820D01*
X131300D01*
X130910Y161742D01*
X130579Y161521D01*
X127879Y158821D01*
X127658Y158490D01*
X127580Y158100D01*
Y157184D01*
X127302Y156998D01*
X127283Y156969D01*
X126984D01*
X126898Y157098D01*
X126302Y157496D01*
X125600Y157635D01*
X124898Y157496D01*
X124302Y157098D01*
X124283Y157069D01*
X123984D01*
X123898Y157198D01*
X123620Y157384D01*
Y163878D01*
X132421Y172679D01*
X132642Y173010D01*
X132720Y173400D01*
Y186578D01*
X141104Y194962D01*
X141380Y194848D01*
D02*
G37*
G36*
X147180Y280578D02*
Y279550D01*
X146881Y279491D01*
X146613Y280138D01*
X145956Y280995D01*
X145099Y281652D01*
X144102Y282065D01*
X143032Y282206D01*
X141961Y282065D01*
X140964Y281652D01*
X140107Y280995D01*
X139450Y280138D01*
X139037Y279141D01*
X138896Y278071D01*
X139037Y277000D01*
X139450Y276003D01*
X140107Y275147D01*
X140964Y274489D01*
X141961Y274076D01*
X142280Y274034D01*
Y236022D01*
X140079Y233821D01*
X139858Y233490D01*
X139780Y233100D01*
Y231602D01*
X139503Y231421D01*
X139481Y231424D01*
X139098Y231998D01*
X138502Y232396D01*
X137800Y232535D01*
X137098Y232396D01*
X136502Y231998D01*
X136104Y231402D01*
X135965Y230700D01*
X136104Y229998D01*
X136502Y229402D01*
X137098Y229004D01*
X137800Y228865D01*
X138502Y229004D01*
X139098Y229402D01*
X139481Y229976D01*
X139503Y229979D01*
X139780Y229798D01*
Y196522D01*
X138542Y195284D01*
X138266Y195431D01*
X138320Y195700D01*
Y198983D01*
X138798Y199302D01*
X139196Y199898D01*
X139335Y200600D01*
X139196Y201302D01*
X138798Y201898D01*
X138202Y202296D01*
X137500Y202435D01*
X136798Y202296D01*
X136202Y201898D01*
X135804Y201302D01*
X135665Y200600D01*
X135804Y199898D01*
X136202Y199302D01*
X136280Y199250D01*
Y196122D01*
X129179Y189021D01*
X128958Y188690D01*
X128880Y188300D01*
Y174002D01*
X125596Y170718D01*
X125320Y170832D01*
Y197875D01*
X125562Y198038D01*
X125960Y198633D01*
X126100Y199335D01*
X126035Y199663D01*
X133921Y207550D01*
X134142Y207881D01*
X134220Y208271D01*
Y256687D01*
X134519Y256747D01*
X134712Y256279D01*
X135282Y255537D01*
X136024Y254967D01*
X136888Y254609D01*
X137816Y254487D01*
X138743Y254609D01*
X139608Y254967D01*
X140350Y255537D01*
X140919Y256279D01*
X141277Y257143D01*
X141399Y258071D01*
X141277Y258998D01*
X140919Y259862D01*
X140350Y260605D01*
X139608Y261174D01*
X138743Y261532D01*
X137816Y261654D01*
X136888Y261532D01*
X136024Y261174D01*
X135282Y260605D01*
X134712Y259862D01*
X134519Y259395D01*
X134220Y259455D01*
Y266687D01*
X134519Y266747D01*
X134712Y266279D01*
X135282Y265537D01*
X136024Y264967D01*
X136888Y264610D01*
X137816Y264487D01*
X138743Y264610D01*
X139608Y264967D01*
X140350Y265537D01*
X140919Y266279D01*
X141277Y267143D01*
X141399Y268071D01*
X141277Y268998D01*
X140919Y269863D01*
X140350Y270605D01*
X139608Y271174D01*
X138743Y271532D01*
X137816Y271654D01*
X136888Y271532D01*
X136024Y271174D01*
X135282Y270605D01*
X134712Y269863D01*
X134519Y269395D01*
X134220Y269455D01*
Y271900D01*
X134142Y272290D01*
X133921Y272621D01*
X132921Y273621D01*
X132870Y273655D01*
X132978Y273942D01*
X133031Y273935D01*
X134102Y274076D01*
X135099Y274489D01*
X135956Y275147D01*
X136613Y276003D01*
X137026Y277000D01*
X137167Y278071D01*
X137026Y279141D01*
X136613Y280138D01*
X135956Y280995D01*
X135942Y281200D01*
X137322Y282580D01*
X145178D01*
X147180Y280578D01*
D02*
G37*
G36*
X130539Y285981D02*
X128423Y283865D01*
X128222Y283564D01*
X127579Y282921D01*
X127358Y282590D01*
X127280Y282200D01*
Y279309D01*
X126981Y279249D01*
X126613Y280138D01*
X125956Y280995D01*
X125099Y281652D01*
X124102Y282065D01*
X123031Y282206D01*
X121961Y282065D01*
X120964Y281652D01*
X120107Y280995D01*
X119450Y280138D01*
X119037Y279141D01*
X118896Y278071D01*
X119037Y277000D01*
X119131Y276773D01*
X115678Y273320D01*
X114300D01*
X113910Y273242D01*
X113579Y273021D01*
X112079Y271521D01*
X111858Y271190D01*
X111780Y270800D01*
Y248022D01*
X111279Y247521D01*
X111058Y247190D01*
X110980Y246800D01*
Y245974D01*
X102900D01*
Y237774D01*
X110980D01*
Y234522D01*
X107879Y231421D01*
X107658Y231090D01*
X107580Y230700D01*
Y210700D01*
X107658Y210310D01*
X107879Y209979D01*
X109679Y208179D01*
X110010Y207958D01*
X110400Y207880D01*
X123978D01*
X125480Y206378D01*
X125415Y206050D01*
X125554Y205348D01*
X125952Y204752D01*
X126548Y204354D01*
X127250Y204215D01*
X127309Y204226D01*
X127450Y203963D01*
X124593Y201105D01*
X124265Y201171D01*
X123562Y201031D01*
X122967Y200633D01*
X122569Y200038D01*
X122429Y199335D01*
X122569Y198633D01*
X122967Y198038D01*
X123280Y197828D01*
Y170382D01*
X114127Y161228D01*
X113851Y161376D01*
X113935Y161800D01*
X113796Y162502D01*
X113398Y163098D01*
X112802Y163496D01*
X112100Y163635D01*
X111398Y163496D01*
X110802Y163098D01*
X110404Y162502D01*
X110265Y161800D01*
X110404Y161098D01*
X110802Y160502D01*
X111398Y160104D01*
X112100Y159965D01*
X112524Y160049D01*
X112672Y159773D01*
X111079Y158181D01*
X110858Y157850D01*
X110780Y157460D01*
Y136622D01*
X110481Y136476D01*
X110002Y136796D01*
X109300Y136935D01*
X108598Y136796D01*
X108002Y136398D01*
X107604Y135802D01*
X107465Y135100D01*
X107604Y134398D01*
X108002Y133802D01*
X108598Y133404D01*
X109300Y133265D01*
X110002Y133404D01*
X110481Y133724D01*
X110780Y133578D01*
Y125002D01*
X108598Y122820D01*
X87600D01*
X87210Y122742D01*
X86879Y122521D01*
X81574Y117216D01*
X74996D01*
Y120214D01*
X75295Y120244D01*
X75304Y120198D01*
X75702Y119602D01*
X76298Y119204D01*
X77000Y119065D01*
X77702Y119204D01*
X78298Y119602D01*
X78696Y120198D01*
X78835Y120900D01*
X78696Y121602D01*
X78298Y122198D01*
X77702Y122596D01*
X77000Y122735D01*
X76298Y122596D01*
X75702Y122198D01*
X75304Y121602D01*
X75295Y121556D01*
X74996Y121586D01*
Y126300D01*
X74814Y127217D01*
X74294Y127994D01*
X74294Y127994D01*
X71094Y131194D01*
X70317Y131714D01*
X69400Y131896D01*
X69400Y131896D01*
X55493D01*
X54496Y132893D01*
Y151600D01*
X54314Y152517D01*
X53794Y153294D01*
X53794Y153294D01*
X44446Y162643D01*
Y170818D01*
X47767Y174139D01*
X48232Y174834D01*
X48394Y175653D01*
Y190747D01*
X48232Y191566D01*
X47767Y192261D01*
X41214Y198814D01*
X40519Y199278D01*
X39700Y199441D01*
X30987D01*
X26141Y204287D01*
Y253613D01*
X27631Y255103D01*
X27978Y255085D01*
X28493Y254414D01*
X29350Y253757D01*
X30347Y253344D01*
X31417Y253203D01*
X32488Y253344D01*
X33485Y253757D01*
X34341Y254414D01*
X34999Y255271D01*
X35412Y256268D01*
X35553Y257339D01*
X35412Y258409D01*
X34999Y259406D01*
X34341Y260263D01*
X33485Y260920D01*
X32488Y261333D01*
X31417Y261474D01*
X30347Y261333D01*
X29350Y260920D01*
X28493Y260263D01*
X27892Y259480D01*
X26839D01*
X26019Y259317D01*
X25325Y258853D01*
X22486Y256014D01*
X22022Y255319D01*
X21859Y254500D01*
Y203400D01*
X22022Y202581D01*
X22486Y201886D01*
X28586Y195786D01*
X29281Y195322D01*
X30100Y195159D01*
X38813D01*
X44112Y189860D01*
Y176540D01*
X41261Y173689D01*
X41133Y173663D01*
X40355Y173144D01*
X39836Y172366D01*
X39654Y171450D01*
Y161651D01*
X39654Y161650D01*
X39836Y160733D01*
X40355Y159956D01*
X49704Y150608D01*
Y131900D01*
X49704Y131900D01*
X49886Y130983D01*
X50406Y130206D01*
X52806Y127806D01*
X52806Y127806D01*
X53583Y127286D01*
X54500Y127104D01*
X68407D01*
X70204Y125308D01*
Y117216D01*
X44017D01*
X43485Y117625D01*
X42488Y118038D01*
X41417Y118179D01*
X40347Y118038D01*
X39350Y117625D01*
X38818Y117216D01*
X34017D01*
X33485Y117625D01*
X32488Y118038D01*
X31417Y118179D01*
X30347Y118038D01*
X29350Y117625D01*
X28817Y117216D01*
X26919D01*
X26613Y116817D01*
X26059Y115479D01*
X25870Y114043D01*
X26059Y112608D01*
X26613Y111270D01*
X27495Y110121D01*
X28644Y109239D01*
X28755Y109193D01*
Y108894D01*
X28644Y108848D01*
X27495Y107966D01*
X26613Y106817D01*
X26059Y105479D01*
X25870Y104043D01*
X26059Y102608D01*
X26613Y101270D01*
X27495Y100121D01*
X28644Y99239D01*
X28755Y99193D01*
Y98894D01*
X28644Y98848D01*
X27495Y97966D01*
X26613Y96817D01*
X26059Y95479D01*
X25870Y94043D01*
X26059Y92607D01*
X26613Y91270D01*
X27495Y90121D01*
X28644Y89239D01*
X28755Y89193D01*
Y88894D01*
X28644Y88848D01*
X27495Y87966D01*
X26613Y86817D01*
X26059Y85479D01*
X25870Y84043D01*
X26059Y82608D01*
X26613Y81270D01*
X27495Y80121D01*
X28644Y79239D01*
X29981Y78685D01*
X30886Y78566D01*
X30982Y78282D01*
X26400Y73700D01*
X23900Y76200D01*
X10191D01*
X2549Y78958D01*
Y117216D01*
X1122D01*
Y285035D01*
X2366Y286280D01*
X130415D01*
X130539Y285981D01*
D02*
G37*
G36*
X127280Y276833D02*
Y274900D01*
X127358Y274510D01*
X127579Y274179D01*
X129579Y272179D01*
X129910Y271958D01*
X130300Y271880D01*
X131778D01*
X132180Y271478D01*
Y208693D01*
X129337Y205850D01*
X129074Y205991D01*
X129085Y206050D01*
X128946Y206752D01*
X128548Y207348D01*
X127952Y207746D01*
X127250Y207885D01*
X126922Y207820D01*
X125121Y209621D01*
X124790Y209842D01*
X124400Y209920D01*
X115868D01*
X115838Y210219D01*
X116047Y210260D01*
X116642Y210658D01*
X117040Y211253D01*
X117179Y211956D01*
X117040Y212658D01*
X116642Y213253D01*
X116047Y213651D01*
X115344Y213791D01*
X114642Y213651D01*
X114047Y213253D01*
X113649Y212658D01*
X113509Y211956D01*
X113649Y211253D01*
X114047Y210658D01*
X114642Y210260D01*
X114850Y210219D01*
X114821Y209920D01*
X110822D01*
X109620Y211122D01*
Y224371D01*
X109906Y224458D01*
X109927Y224427D01*
X110522Y224029D01*
X111224Y223889D01*
X111927Y224029D01*
X112522Y224427D01*
X112920Y225022D01*
X113060Y225724D01*
X112920Y226427D01*
X112522Y227022D01*
X111927Y227420D01*
X111224Y227560D01*
X110522Y227420D01*
X109927Y227022D01*
X109906Y226991D01*
X109620Y227078D01*
Y230278D01*
X112721Y233379D01*
X112942Y233710D01*
X113020Y234100D01*
Y240003D01*
X113313Y240061D01*
X113419Y239806D01*
X114076Y238950D01*
X114932Y238293D01*
X115930Y237880D01*
X117000Y237739D01*
X118070Y237880D01*
X119068Y238293D01*
X119924Y238950D01*
X120581Y239806D01*
X120994Y240804D01*
X121135Y241874D01*
X120994Y242944D01*
X120581Y243942D01*
X119924Y244798D01*
X119068Y245455D01*
X118070Y245868D01*
X117000Y246009D01*
X115930Y245868D01*
X114932Y245455D01*
X114076Y244798D01*
X113419Y243942D01*
X113313Y243687D01*
X113020Y243745D01*
Y246378D01*
X113521Y246879D01*
X113742Y247210D01*
X113820Y247600D01*
Y270378D01*
X114722Y271280D01*
X115671D01*
X115773Y270981D01*
X115282Y270605D01*
X114712Y269863D01*
X114354Y268998D01*
X114232Y268071D01*
X114354Y267143D01*
X114712Y266279D01*
X115282Y265537D01*
X116024Y264967D01*
X116888Y264610D01*
X117816Y264487D01*
X118743Y264610D01*
X119607Y264967D01*
X120350Y265537D01*
X120919Y266279D01*
X121277Y267143D01*
X121399Y268071D01*
X121277Y268998D01*
X120919Y269863D01*
X120350Y270605D01*
X119607Y271174D01*
X118743Y271532D01*
X117816Y271654D01*
X117244Y271579D01*
X117104Y271862D01*
X120266Y275025D01*
X120964Y274489D01*
X121961Y274076D01*
X123031Y273935D01*
X124102Y274076D01*
X125099Y274489D01*
X125956Y275147D01*
X126613Y276003D01*
X126981Y276892D01*
X127280Y276833D01*
D02*
G37*
%LPC*%
G36*
X163600Y191035D02*
X162898Y190896D01*
X162302Y190498D01*
X161904Y189902D01*
X161765Y189200D01*
X161904Y188498D01*
X162302Y187902D01*
X162898Y187504D01*
X163600Y187365D01*
X164302Y187504D01*
X164898Y187902D01*
X165296Y188498D01*
X165435Y189200D01*
X165296Y189902D01*
X164898Y190498D01*
X164302Y190896D01*
X163600Y191035D01*
D02*
G37*
G36*
X198022Y179557D02*
X197320Y179418D01*
X196724Y179020D01*
X196326Y178424D01*
X196187Y177722D01*
X196326Y177020D01*
X196724Y176424D01*
X197320Y176026D01*
X198022Y175887D01*
X198724Y176026D01*
X199320Y176424D01*
X199718Y177020D01*
X199857Y177722D01*
X199718Y178424D01*
X199320Y179020D01*
X198724Y179418D01*
X198022Y179557D01*
D02*
G37*
G36*
X18200Y178435D02*
X17498Y178296D01*
X16902Y177898D01*
X16504Y177302D01*
X16365Y176600D01*
X16504Y175898D01*
X16902Y175302D01*
X17498Y174904D01*
X18200Y174765D01*
X18902Y174904D01*
X19498Y175302D01*
X19896Y175898D01*
X20035Y176600D01*
X19896Y177302D01*
X19498Y177898D01*
X18902Y178296D01*
X18200Y178435D01*
D02*
G37*
G36*
X268204Y179559D02*
X267586Y179436D01*
X267062Y179086D01*
X266712Y178562D01*
X266589Y177944D01*
X266712Y177326D01*
X267062Y176802D01*
X267586Y176452D01*
X268204Y176329D01*
X268822Y176452D01*
X269346Y176802D01*
X269696Y177326D01*
X269819Y177944D01*
X269696Y178562D01*
X269346Y179086D01*
X268822Y179436D01*
X268204Y179559D01*
D02*
G37*
G36*
X276865D02*
X276247Y179436D01*
X275723Y179086D01*
X275373Y178562D01*
X275250Y177944D01*
X275373Y177326D01*
X275723Y176802D01*
X276247Y176452D01*
X276865Y176329D01*
X277484Y176452D01*
X278008Y176802D01*
X278358Y177326D01*
X278481Y177944D01*
X278358Y178562D01*
X278008Y179086D01*
X277484Y179436D01*
X276865Y179559D01*
D02*
G37*
G36*
X281196D02*
X280578Y179436D01*
X280054Y179086D01*
X279704Y178562D01*
X279581Y177944D01*
X279704Y177326D01*
X280054Y176802D01*
X280578Y176452D01*
X281196Y176329D01*
X281814Y176452D01*
X282338Y176802D01*
X282688Y177326D01*
X282811Y177944D01*
X282688Y178562D01*
X282338Y179086D01*
X281814Y179436D01*
X281196Y179559D01*
D02*
G37*
G36*
X272535D02*
X271917Y179436D01*
X271392Y179086D01*
X271042Y178562D01*
X270919Y177944D01*
X271042Y177326D01*
X271392Y176802D01*
X271917Y176452D01*
X272535Y176329D01*
X273153Y176452D01*
X273677Y176802D01*
X274027Y177326D01*
X274150Y177944D01*
X274027Y178562D01*
X273677Y179086D01*
X273153Y179436D01*
X272535Y179559D01*
D02*
G37*
G36*
X218300Y176535D02*
X217598Y176396D01*
X217002Y175998D01*
X216604Y175402D01*
X216465Y174700D01*
X216604Y173998D01*
X217002Y173402D01*
X217598Y173004D01*
X218300Y172865D01*
X219002Y173004D01*
X219598Y173402D01*
X219996Y173998D01*
X220135Y174700D01*
X219996Y175402D01*
X219598Y175998D01*
X219002Y176396D01*
X218300Y176535D01*
D02*
G37*
G36*
X274800Y168435D02*
X274098Y168296D01*
X273502Y167898D01*
X273104Y167302D01*
X272965Y166600D01*
X273104Y165898D01*
X273502Y165302D01*
X274098Y164904D01*
X274800Y164765D01*
X275502Y164904D01*
X276098Y165302D01*
X276496Y165898D01*
X276635Y166600D01*
X276496Y167302D01*
X276098Y167898D01*
X275502Y168296D01*
X274800Y168435D01*
D02*
G37*
G36*
X250009Y172845D02*
X249307Y172705D01*
X248712Y172307D01*
X248314Y171712D01*
X248174Y171010D01*
X248314Y170307D01*
X248712Y169712D01*
X249307Y169314D01*
X250009Y169174D01*
X250712Y169314D01*
X251307Y169712D01*
X251705Y170307D01*
X251845Y171010D01*
X251705Y171712D01*
X251307Y172307D01*
X250712Y172705D01*
X250009Y172845D01*
D02*
G37*
G36*
X312465Y168043D02*
X309315D01*
X308466Y167874D01*
X307747Y167393D01*
X307266Y166674D01*
X307098Y165825D01*
X307266Y164977D01*
X307747Y164257D01*
X308466Y163777D01*
X309315Y163608D01*
X312465D01*
X313313Y163777D01*
X314033Y164257D01*
X314513Y164977D01*
X314682Y165825D01*
X314513Y166674D01*
X314033Y167393D01*
X313313Y167874D01*
X312465Y168043D01*
D02*
G37*
G36*
X326047D02*
X322898D01*
X322049Y167874D01*
X321330Y167393D01*
X320849Y166674D01*
X320680Y165825D01*
X320849Y164977D01*
X321330Y164257D01*
X322049Y163777D01*
X322898Y163608D01*
X326047D01*
X326896Y163777D01*
X327615Y164257D01*
X328096Y164977D01*
X328265Y165825D01*
X328096Y166674D01*
X327615Y167393D01*
X326896Y167874D01*
X326047Y168043D01*
D02*
G37*
G36*
X233300Y178283D02*
X232373Y178161D01*
X231508Y177803D01*
X230766Y177234D01*
X230197Y176492D01*
X229839Y175627D01*
X229717Y174700D01*
X229839Y173773D01*
X230197Y172908D01*
X230766Y172166D01*
X231508Y171597D01*
X232373Y171239D01*
X233300Y171117D01*
X234227Y171239D01*
X235092Y171597D01*
X235834Y172166D01*
X236403Y172908D01*
X236761Y173773D01*
X236883Y174700D01*
X236761Y175627D01*
X236403Y176492D01*
X235834Y177234D01*
X235092Y177803D01*
X234227Y178161D01*
X233300Y178283D01*
D02*
G37*
G36*
X243300D02*
X242373Y178161D01*
X241508Y177803D01*
X240766Y177234D01*
X240197Y176492D01*
X239839Y175627D01*
X239717Y174700D01*
X239839Y173773D01*
X240197Y172908D01*
X240766Y172166D01*
X241508Y171597D01*
X242373Y171239D01*
X243300Y171117D01*
X244227Y171239D01*
X245092Y171597D01*
X245834Y172166D01*
X246403Y172908D01*
X246761Y173773D01*
X246883Y174700D01*
X246761Y175627D01*
X246403Y176492D01*
X245834Y177234D01*
X245092Y177803D01*
X244227Y178161D01*
X243300Y178283D01*
D02*
G37*
G36*
X316126Y174444D02*
X315201Y174260D01*
X314416Y173736D01*
X313892Y172951D01*
X313708Y172026D01*
X313892Y171101D01*
X314416Y170316D01*
X315201Y169792D01*
X316126Y169608D01*
X317051Y169792D01*
X317836Y170316D01*
X318360Y171101D01*
X318544Y172026D01*
X318360Y172951D01*
X317836Y173736D01*
X317051Y174260D01*
X316126Y174444D01*
D02*
G37*
G36*
X222700Y173435D02*
X221998Y173296D01*
X221402Y172898D01*
X221004Y172302D01*
X220865Y171600D01*
X221004Y170898D01*
X221402Y170302D01*
X221998Y169904D01*
X222700Y169765D01*
X223402Y169904D01*
X223998Y170302D01*
X224396Y170898D01*
X224535Y171600D01*
X224396Y172302D01*
X223998Y172898D01*
X223402Y173296D01*
X222700Y173435D01*
D02*
G37*
G36*
X180000Y180535D02*
X179298Y180396D01*
X178702Y179998D01*
X178304Y179402D01*
X178165Y178700D01*
X178304Y177998D01*
X178702Y177402D01*
X179298Y177004D01*
X180000Y176865D01*
X180702Y177004D01*
X181298Y177402D01*
X181696Y177998D01*
X181835Y178700D01*
X181696Y179402D01*
X181298Y179998D01*
X180702Y180396D01*
X180000Y180535D01*
D02*
G37*
G36*
X272535Y188221D02*
X271917Y188098D01*
X271392Y187748D01*
X271042Y187224D01*
X270919Y186606D01*
X271042Y185987D01*
X271392Y185463D01*
X271917Y185113D01*
X272535Y184990D01*
X273153Y185113D01*
X273677Y185463D01*
X274027Y185987D01*
X274150Y186606D01*
X274027Y187224D01*
X273677Y187748D01*
X273153Y188098D01*
X272535Y188221D01*
D02*
G37*
G36*
X276865D02*
X276247Y188098D01*
X275723Y187748D01*
X275373Y187224D01*
X275250Y186606D01*
X275373Y185987D01*
X275723Y185463D01*
X276247Y185113D01*
X276865Y184990D01*
X277484Y185113D01*
X278008Y185463D01*
X278358Y185987D01*
X278481Y186606D01*
X278358Y187224D01*
X278008Y187748D01*
X277484Y188098D01*
X276865Y188221D01*
D02*
G37*
G36*
X259100Y188535D02*
X258398Y188396D01*
X257802Y187998D01*
X257404Y187402D01*
X257265Y186700D01*
X257404Y185998D01*
X257802Y185402D01*
X258398Y185004D01*
X259100Y184865D01*
X259802Y185004D01*
X260398Y185402D01*
X260796Y185998D01*
X260935Y186700D01*
X260796Y187402D01*
X260398Y187998D01*
X259802Y188396D01*
X259100Y188535D01*
D02*
G37*
G36*
X268204Y188221D02*
X267586Y188098D01*
X267062Y187748D01*
X266712Y187224D01*
X266589Y186606D01*
X266712Y185987D01*
X267062Y185463D01*
X267586Y185113D01*
X268204Y184990D01*
X268822Y185113D01*
X269346Y185463D01*
X269696Y185987D01*
X269819Y186606D01*
X269696Y187224D01*
X269346Y187748D01*
X268822Y188098D01*
X268204Y188221D01*
D02*
G37*
G36*
X281196D02*
X280578Y188098D01*
X280054Y187748D01*
X279704Y187224D01*
X279581Y186606D01*
X279704Y185987D01*
X280054Y185463D01*
X280578Y185113D01*
X281196Y184990D01*
X281814Y185113D01*
X282338Y185463D01*
X282688Y185987D01*
X282811Y186606D01*
X282688Y187224D01*
X282338Y187748D01*
X281814Y188098D01*
X281196Y188221D01*
D02*
G37*
G36*
X290400Y189635D02*
X289698Y189496D01*
X289102Y189098D01*
X288704Y188502D01*
X288565Y187800D01*
X288704Y187098D01*
X289102Y186502D01*
X289698Y186104D01*
X290400Y185965D01*
X291102Y186104D01*
X291698Y186502D01*
X292096Y187098D01*
X292235Y187800D01*
X292096Y188502D01*
X291698Y189098D01*
X291102Y189496D01*
X290400Y189635D01*
D02*
G37*
G36*
X197942Y189794D02*
X197239Y189654D01*
X196644Y189256D01*
X196246Y188661D01*
X196107Y187958D01*
X196246Y187256D01*
X196644Y186661D01*
X197239Y186263D01*
X197942Y186123D01*
X198644Y186263D01*
X199240Y186661D01*
X199637Y187256D01*
X199777Y187958D01*
X199637Y188661D01*
X199240Y189256D01*
X198644Y189654D01*
X197942Y189794D01*
D02*
G37*
G36*
X316126Y190192D02*
X315201Y190008D01*
X314416Y189484D01*
X313892Y188699D01*
X313708Y187774D01*
X313892Y186849D01*
X314416Y186064D01*
X315201Y185540D01*
X316126Y185356D01*
X317051Y185540D01*
X317836Y186064D01*
X318360Y186849D01*
X318544Y187774D01*
X318360Y188699D01*
X317836Y189484D01*
X317051Y190008D01*
X316126Y190192D01*
D02*
G37*
G36*
X106500Y189035D02*
X105798Y188896D01*
X105202Y188498D01*
X104804Y187902D01*
X104665Y187200D01*
X104804Y186498D01*
X105202Y185902D01*
X105798Y185504D01*
X106500Y185365D01*
X107202Y185504D01*
X107798Y185902D01*
X108196Y186498D01*
X108335Y187200D01*
X108196Y187902D01*
X107798Y188498D01*
X107202Y188896D01*
X106500Y189035D01*
D02*
G37*
G36*
X268204Y183890D02*
X267586Y183767D01*
X267062Y183417D01*
X266712Y182893D01*
X266589Y182275D01*
X266712Y181657D01*
X267062Y181133D01*
X267586Y180782D01*
X268204Y180659D01*
X268822Y180782D01*
X269346Y181133D01*
X269696Y181657D01*
X269819Y182275D01*
X269696Y182893D01*
X269346Y183417D01*
X268822Y183767D01*
X268204Y183890D01*
D02*
G37*
G36*
X272535D02*
X271917Y183767D01*
X271392Y183417D01*
X271042Y182893D01*
X270919Y182275D01*
X271042Y181657D01*
X271392Y181133D01*
X271917Y180782D01*
X272535Y180659D01*
X273153Y180782D01*
X273677Y181133D01*
X274027Y181657D01*
X274150Y182275D01*
X274027Y182893D01*
X273677Y183417D01*
X273153Y183767D01*
X272535Y183890D01*
D02*
G37*
G36*
X167200Y181435D02*
X166498Y181296D01*
X165902Y180898D01*
X165504Y180302D01*
X165365Y179600D01*
X165504Y178898D01*
X165902Y178302D01*
X166498Y177904D01*
X167200Y177765D01*
X167902Y177904D01*
X168498Y178302D01*
X168896Y178898D01*
X169035Y179600D01*
X168896Y180302D01*
X168498Y180898D01*
X167902Y181296D01*
X167200Y181435D01*
D02*
G37*
G36*
X221400Y182735D02*
X220698Y182596D01*
X220102Y182198D01*
X219704Y181602D01*
X219565Y180900D01*
X219704Y180198D01*
X220102Y179602D01*
X220698Y179204D01*
X221400Y179065D01*
X222102Y179204D01*
X222698Y179602D01*
X223096Y180198D01*
X223235Y180900D01*
X223096Y181602D01*
X222698Y182198D01*
X222102Y182596D01*
X221400Y182735D01*
D02*
G37*
G36*
X276865Y183890D02*
X276247Y183767D01*
X275723Y183417D01*
X275373Y182893D01*
X275250Y182275D01*
X275373Y181657D01*
X275723Y181133D01*
X276247Y180782D01*
X276865Y180659D01*
X277484Y180782D01*
X278008Y181133D01*
X278358Y181657D01*
X278481Y182275D01*
X278358Y182893D01*
X278008Y183417D01*
X277484Y183767D01*
X276865Y183890D01*
D02*
G37*
G36*
X111500Y185135D02*
X110798Y184996D01*
X110202Y184598D01*
X109804Y184002D01*
X109665Y183300D01*
X109804Y182598D01*
X110202Y182002D01*
X110798Y181604D01*
X111500Y181465D01*
X112202Y181604D01*
X112798Y182002D01*
X113196Y182598D01*
X113335Y183300D01*
X113196Y184002D01*
X112798Y184598D01*
X112202Y184996D01*
X111500Y185135D01*
D02*
G37*
G36*
X17200Y186235D02*
X16498Y186096D01*
X15902Y185698D01*
X15504Y185102D01*
X15365Y184400D01*
X15504Y183698D01*
X15902Y183102D01*
X16498Y182704D01*
X17200Y182565D01*
X17902Y182704D01*
X18498Y183102D01*
X18896Y183698D01*
X19035Y184400D01*
X18896Y185102D01*
X18498Y185698D01*
X17902Y186096D01*
X17200Y186235D01*
D02*
G37*
G36*
X281196Y183890D02*
X280578Y183767D01*
X280054Y183417D01*
X279704Y182893D01*
X279581Y182275D01*
X279704Y181657D01*
X280054Y181133D01*
X280578Y180782D01*
X281196Y180659D01*
X281814Y180782D01*
X282338Y181133D01*
X282688Y181657D01*
X282811Y182275D01*
X282688Y182893D01*
X282338Y183417D01*
X281814Y183767D01*
X281196Y183890D01*
D02*
G37*
G36*
X289900Y184335D02*
X289198Y184196D01*
X288602Y183798D01*
X288204Y183202D01*
X288065Y182500D01*
X288204Y181798D01*
X288602Y181202D01*
X289198Y180804D01*
X289900Y180665D01*
X290602Y180804D01*
X291198Y181202D01*
X291596Y181798D01*
X291735Y182500D01*
X291596Y183202D01*
X291198Y183798D01*
X290602Y184196D01*
X289900Y184335D01*
D02*
G37*
G36*
X181800Y165135D02*
X181098Y164996D01*
X180502Y164598D01*
X180104Y164002D01*
X179965Y163300D01*
X180104Y162598D01*
X180502Y162002D01*
X181098Y161604D01*
X181800Y161465D01*
X182502Y161604D01*
X183098Y162002D01*
X183496Y162598D01*
X183635Y163300D01*
X183496Y164002D01*
X183098Y164598D01*
X182502Y164996D01*
X181800Y165135D01*
D02*
G37*
G36*
X273900Y134635D02*
X273198Y134496D01*
X272602Y134098D01*
X272204Y133502D01*
X272065Y132800D01*
X272204Y132098D01*
X272602Y131502D01*
X273198Y131104D01*
X273900Y130965D01*
X274602Y131104D01*
X275198Y131502D01*
X275596Y132098D01*
X275735Y132800D01*
X275596Y133502D01*
X275198Y134098D01*
X274602Y134496D01*
X273900Y134635D01*
D02*
G37*
G36*
X287800Y135835D02*
X287098Y135696D01*
X286502Y135298D01*
X286104Y134702D01*
X285965Y134000D01*
X286104Y133298D01*
X286502Y132702D01*
X287098Y132304D01*
X287800Y132165D01*
X288502Y132304D01*
X289098Y132702D01*
X289496Y133298D01*
X289635Y134000D01*
X289496Y134702D01*
X289098Y135298D01*
X288502Y135696D01*
X287800Y135835D01*
D02*
G37*
G36*
X31417Y138179D02*
X30347Y138038D01*
X29350Y137625D01*
X28493Y136968D01*
X27836Y136111D01*
X27423Y135114D01*
X27282Y134043D01*
X27423Y132973D01*
X27836Y131976D01*
X28493Y131119D01*
X29350Y130462D01*
X30347Y130049D01*
X31417Y129908D01*
X32488Y130049D01*
X33485Y130462D01*
X34341Y131119D01*
X34999Y131976D01*
X35412Y132973D01*
X35553Y134043D01*
X35412Y135114D01*
X34999Y136111D01*
X34341Y136968D01*
X33485Y137625D01*
X32488Y138038D01*
X31417Y138179D01*
D02*
G37*
G36*
X41417D02*
X40347Y138038D01*
X39350Y137625D01*
X38493Y136968D01*
X37836Y136111D01*
X37423Y135114D01*
X37282Y134043D01*
X37423Y132973D01*
X37836Y131976D01*
X38493Y131119D01*
X39350Y130462D01*
X40347Y130049D01*
X41417Y129908D01*
X42488Y130049D01*
X43485Y130462D01*
X44341Y131119D01*
X44999Y131976D01*
X45412Y132973D01*
X45553Y134043D01*
X45412Y135114D01*
X44999Y136111D01*
X44341Y136968D01*
X43485Y137625D01*
X42488Y138038D01*
X41417Y138179D01*
D02*
G37*
G36*
X85200Y136335D02*
X84498Y136196D01*
X83902Y135798D01*
X83504Y135202D01*
X83365Y134500D01*
X83504Y133798D01*
X83902Y133202D01*
X84498Y132804D01*
X85200Y132665D01*
X85902Y132804D01*
X86498Y133202D01*
X86896Y133798D01*
X87035Y134500D01*
X86896Y135202D01*
X86498Y135798D01*
X85902Y136196D01*
X85200Y136335D01*
D02*
G37*
G36*
X322000Y142125D02*
X321124Y142010D01*
X320308Y141672D01*
X319606Y141134D01*
X319069Y140433D01*
X318730Y139616D01*
X318615Y138740D01*
X318730Y137864D01*
X319069Y137048D01*
X319606Y136347D01*
X320308Y135809D01*
X321124Y135471D01*
X322000Y135355D01*
X322876Y135471D01*
X323692Y135809D01*
X324393Y136347D01*
X324931Y137048D01*
X325270Y137864D01*
X325385Y138740D01*
X325270Y139616D01*
X324931Y140433D01*
X324393Y141134D01*
X323692Y141672D01*
X322876Y142010D01*
X322000Y142125D01*
D02*
G37*
G36*
X233300Y148283D02*
X232373Y148161D01*
X231508Y147803D01*
X230766Y147234D01*
X230197Y146492D01*
X229839Y145627D01*
X229717Y144700D01*
X229839Y143773D01*
X230197Y142908D01*
X230766Y142166D01*
X231508Y141597D01*
X232373Y141239D01*
X233300Y141117D01*
X234227Y141239D01*
X235092Y141597D01*
X235834Y142166D01*
X236403Y142908D01*
X236761Y143773D01*
X236883Y144700D01*
X236761Y145627D01*
X236403Y146492D01*
X235834Y147234D01*
X235092Y147803D01*
X234227Y148161D01*
X233300Y148283D01*
D02*
G37*
G36*
X176060Y137375D02*
X175358Y137236D01*
X174762Y136838D01*
X174364Y136242D01*
X174225Y135540D01*
X174364Y134838D01*
X174762Y134242D01*
X175358Y133844D01*
X176060Y133705D01*
X176762Y133844D01*
X177358Y134242D01*
X177755Y134838D01*
X177895Y135540D01*
X177755Y136242D01*
X177358Y136838D01*
X176762Y137236D01*
X176060Y137375D01*
D02*
G37*
G36*
X312000Y142125D02*
X311124Y142010D01*
X310308Y141672D01*
X309607Y141134D01*
X309069Y140433D01*
X308731Y139616D01*
X308615Y138740D01*
X308731Y137864D01*
X309069Y137048D01*
X309607Y136347D01*
X310308Y135809D01*
X311124Y135471D01*
X312000Y135355D01*
X312876Y135471D01*
X313692Y135809D01*
X314393Y136347D01*
X314931Y137048D01*
X315269Y137864D01*
X315385Y138740D01*
X315269Y139616D01*
X314931Y140433D01*
X314393Y141134D01*
X313692Y141672D01*
X312876Y142010D01*
X312000Y142125D01*
D02*
G37*
G36*
Y102125D02*
X311124Y102010D01*
X310308Y101672D01*
X309607Y101134D01*
X309069Y100433D01*
X308731Y99616D01*
X308615Y98740D01*
X308731Y97864D01*
X309069Y97048D01*
X309607Y96347D01*
X310308Y95809D01*
X311124Y95471D01*
X312000Y95355D01*
X312876Y95471D01*
X313692Y95809D01*
X314393Y96347D01*
X314931Y97048D01*
X315269Y97864D01*
X315385Y98740D01*
X315269Y99616D01*
X314931Y100433D01*
X314393Y101134D01*
X313692Y101672D01*
X312876Y102010D01*
X312000Y102125D01*
D02*
G37*
G36*
Y112125D02*
X311124Y112010D01*
X310308Y111671D01*
X309607Y111134D01*
X309069Y110433D01*
X308731Y109616D01*
X308615Y108740D01*
X308731Y107864D01*
X309069Y107048D01*
X309607Y106347D01*
X310308Y105809D01*
X311124Y105471D01*
X312000Y105355D01*
X312876Y105471D01*
X313692Y105809D01*
X314393Y106347D01*
X314931Y107048D01*
X315269Y107864D01*
X315385Y108740D01*
X315269Y109616D01*
X314931Y110433D01*
X314393Y111134D01*
X313692Y111671D01*
X312876Y112010D01*
X312000Y112125D01*
D02*
G37*
G36*
X39370Y20326D02*
X37709Y20162D01*
X36112Y19678D01*
X34639Y18891D01*
X33349Y17832D01*
X32290Y16542D01*
X31503Y15070D01*
X31019Y13472D01*
X30855Y11811D01*
X31019Y10150D01*
X31503Y8552D01*
X32290Y7080D01*
X33349Y5790D01*
X34639Y4731D01*
X36112Y3944D01*
X37709Y3460D01*
X39370Y3296D01*
X41031Y3460D01*
X42629Y3944D01*
X44101Y4731D01*
X45391Y5790D01*
X46450Y7080D01*
X47237Y8552D01*
X47721Y10150D01*
X47885Y11811D01*
X47721Y13472D01*
X47237Y15070D01*
X46450Y16542D01*
X45391Y17832D01*
X44101Y18891D01*
X42629Y19678D01*
X41031Y20162D01*
X39370Y20326D01*
D02*
G37*
G36*
X38598Y64417D02*
X36937Y64253D01*
X35340Y63768D01*
X33868Y62981D01*
X32577Y61923D01*
X31519Y60632D01*
X30732Y59160D01*
X30247Y57563D01*
X30083Y55902D01*
X30247Y54240D01*
X30732Y52643D01*
X31519Y51171D01*
X32577Y49880D01*
X33868Y48822D01*
X35340Y48035D01*
X36937Y47550D01*
X38598Y47387D01*
X40260Y47550D01*
X41857Y48035D01*
X43329Y48822D01*
X44620Y49880D01*
X45678Y51171D01*
X46465Y52643D01*
X46950Y54240D01*
X47113Y55902D01*
X46950Y57563D01*
X46465Y59160D01*
X45678Y60632D01*
X44620Y61923D01*
X43329Y62981D01*
X41857Y63768D01*
X40260Y64253D01*
X38598Y64417D01*
D02*
G37*
G36*
X312000Y122125D02*
X311124Y122010D01*
X310308Y121671D01*
X309607Y121134D01*
X309069Y120432D01*
X308731Y119616D01*
X308615Y118740D01*
X308731Y117864D01*
X308896Y117465D01*
D01*
X309069Y117048D01*
X309607Y116347D01*
X310308Y115809D01*
X311124Y115471D01*
X312000Y115355D01*
X312876Y115471D01*
X313692Y115809D01*
X314393Y116347D01*
X314931Y117048D01*
X315104Y117465D01*
D01*
X315269Y117864D01*
X315385Y118740D01*
X315269Y119616D01*
X314931Y120432D01*
X314393Y121134D01*
X313692Y121671D01*
X312876Y122010D01*
X312000Y122125D01*
D02*
G37*
G36*
X322000Y132125D02*
X321124Y132010D01*
X320308Y131672D01*
X319606Y131134D01*
X319069Y130432D01*
X318730Y129616D01*
X318615Y128740D01*
X318730Y127864D01*
X319069Y127048D01*
X319606Y126347D01*
X320308Y125809D01*
X321124Y125471D01*
X322000Y125355D01*
X322876Y125471D01*
X323692Y125809D01*
X324393Y126347D01*
X324931Y127048D01*
X325270Y127864D01*
X325385Y128740D01*
X325270Y129616D01*
X324931Y130432D01*
X324393Y131134D01*
X323692Y131672D01*
X322876Y132010D01*
X322000Y132125D01*
D02*
G37*
G36*
X240300Y132935D02*
X239598Y132796D01*
X239002Y132398D01*
X238604Y131802D01*
X238465Y131100D01*
X238530Y130772D01*
X234878Y127120D01*
X213684D01*
X213498Y127398D01*
X212902Y127796D01*
X212200Y127935D01*
X211498Y127796D01*
X210902Y127398D01*
X210504Y126802D01*
X210365Y126100D01*
X210504Y125398D01*
X210902Y124802D01*
Y124665D01*
X210502Y124398D01*
X210104Y123802D01*
X209965Y123100D01*
X210104Y122398D01*
X210502Y121802D01*
X211098Y121404D01*
X211800Y121265D01*
X212502Y121404D01*
X213098Y121802D01*
X213284Y122080D01*
X213998D01*
X214158Y121781D01*
X213904Y121402D01*
X213765Y120700D01*
X213904Y119998D01*
X214302Y119402D01*
X214898Y119004D01*
X215600Y118865D01*
X216302Y119004D01*
X216898Y119402D01*
X217017Y119581D01*
X217316D01*
X217502Y119302D01*
X218098Y118904D01*
X218800Y118765D01*
X219502Y118904D01*
X220098Y119302D01*
X220496Y119898D01*
X220635Y120600D01*
X220496Y121302D01*
X220098Y121898D01*
X219502Y122296D01*
X218800Y122435D01*
X218098Y122296D01*
X217502Y121898D01*
X217383Y121719D01*
X217084D01*
X216898Y121998D01*
X216302Y122396D01*
X215767Y122502D01*
X215669Y122827D01*
X216522Y123680D01*
X225660D01*
X225746Y123394D01*
X225602Y123298D01*
X225204Y122702D01*
X225065Y122000D01*
X225204Y121298D01*
X225602Y120702D01*
X226198Y120304D01*
X226900Y120165D01*
X227602Y120304D01*
X228198Y120702D01*
X228596Y121298D01*
X228735Y122000D01*
X228596Y122702D01*
X228198Y123298D01*
X228053Y123394D01*
X228140Y123680D01*
X237700D01*
X238090Y123758D01*
X238421Y123979D01*
X239972Y125530D01*
X240300Y125465D01*
X241002Y125604D01*
X241598Y126002D01*
X241996Y126598D01*
X242135Y127300D01*
X241996Y128002D01*
X241598Y128598D01*
X241002Y128996D01*
X240741Y129048D01*
Y129352D01*
X241002Y129404D01*
X241598Y129802D01*
X241996Y130398D01*
X242135Y131100D01*
X241996Y131802D01*
X241598Y132398D01*
X241002Y132796D01*
X240300Y132935D01*
D02*
G37*
G36*
X180490Y125925D02*
X179787Y125785D01*
X179192Y125387D01*
X178794Y124792D01*
X178655Y124090D01*
X178794Y123387D01*
X179192Y122792D01*
X179787Y122394D01*
X180490Y122255D01*
X181192Y122394D01*
X181787Y122792D01*
X182185Y123387D01*
X182325Y124090D01*
X182185Y124792D01*
X181787Y125387D01*
X181192Y125785D01*
X180490Y125925D01*
D02*
G37*
G36*
X312000Y132125D02*
X311124Y132010D01*
X310308Y131672D01*
X309607Y131134D01*
X309069Y130432D01*
X308731Y129616D01*
X308615Y128740D01*
X308731Y127864D01*
X309069Y127048D01*
X309607Y126347D01*
X310308Y125809D01*
X311124Y125471D01*
X312000Y125355D01*
X312876Y125471D01*
X313692Y125809D01*
X314393Y126347D01*
X314931Y127048D01*
X315269Y127864D01*
X315385Y128740D01*
X315269Y129616D01*
X314931Y130432D01*
X314393Y131134D01*
X313692Y131672D01*
X312876Y132010D01*
X312000Y132125D01*
D02*
G37*
G36*
X60300Y158035D02*
X59598Y157896D01*
X59002Y157498D01*
X58604Y156902D01*
X58465Y156200D01*
X58604Y155498D01*
X59002Y154902D01*
X59598Y154504D01*
X60300Y154365D01*
X61002Y154504D01*
X61598Y154902D01*
X61996Y155498D01*
X62135Y156200D01*
X61996Y156902D01*
X61598Y157498D01*
X61002Y157896D01*
X60300Y158035D01*
D02*
G37*
G36*
X177400Y158835D02*
X176698Y158696D01*
X176102Y158298D01*
X175704Y157702D01*
X175565Y157000D01*
X175704Y156298D01*
X176102Y155702D01*
X176698Y155304D01*
X177400Y155165D01*
X178102Y155304D01*
X178698Y155702D01*
X179096Y156298D01*
X179235Y157000D01*
X179096Y157702D01*
X178698Y158298D01*
X178102Y158696D01*
X177400Y158835D01*
D02*
G37*
G36*
X226200Y154835D02*
X225498Y154696D01*
X224902Y154298D01*
X224504Y153702D01*
X224365Y153000D01*
X224504Y152298D01*
X224902Y151702D01*
X225498Y151304D01*
X226200Y151165D01*
X226902Y151304D01*
X227498Y151702D01*
X227896Y152298D01*
X228035Y153000D01*
X227896Y153702D01*
X227498Y154298D01*
X226902Y154696D01*
X226200Y154835D01*
D02*
G37*
G36*
X166200Y155735D02*
X165498Y155596D01*
X164902Y155198D01*
X164504Y154602D01*
X164365Y153900D01*
X164504Y153198D01*
X164902Y152602D01*
X165498Y152204D01*
X166200Y152065D01*
X166902Y152204D01*
X167498Y152602D01*
X167896Y153198D01*
X168035Y153900D01*
X167896Y154602D01*
X167498Y155198D01*
X166902Y155596D01*
X166200Y155735D01*
D02*
G37*
G36*
X106800Y159609D02*
X106098Y159470D01*
X105502Y159072D01*
X105104Y158476D01*
X104965Y157774D01*
X105104Y157072D01*
X105502Y156476D01*
X106098Y156079D01*
X106800Y155939D01*
X107502Y156079D01*
X108098Y156476D01*
X108496Y157072D01*
X108635Y157774D01*
X108496Y158476D01*
X108098Y159072D01*
X107502Y159470D01*
X106800Y159609D01*
D02*
G37*
G36*
X233300Y168283D02*
X232373Y168161D01*
X231508Y167803D01*
X230766Y167234D01*
X230197Y166492D01*
X229839Y165627D01*
X229717Y164700D01*
X229839Y163773D01*
X230197Y162908D01*
X230766Y162166D01*
X231508Y161597D01*
X232373Y161239D01*
X233300Y161117D01*
X234227Y161239D01*
X235092Y161597D01*
X235834Y162166D01*
X236403Y162908D01*
X236761Y163773D01*
X236883Y164700D01*
X236761Y165627D01*
X236403Y166492D01*
X235834Y167234D01*
X235092Y167803D01*
X234227Y168161D01*
X233300Y168283D01*
D02*
G37*
G36*
X243300D02*
X242373Y168161D01*
X241508Y167803D01*
X240766Y167234D01*
X240197Y166492D01*
X239839Y165627D01*
X239717Y164700D01*
X239839Y163773D01*
X240197Y162908D01*
X240766Y162166D01*
X241508Y161597D01*
X242373Y161239D01*
X243300Y161117D01*
X244227Y161239D01*
X245092Y161597D01*
X245834Y162166D01*
X246403Y162908D01*
X246761Y163773D01*
X246883Y164700D01*
X246761Y165627D01*
X246403Y166492D01*
X245834Y167234D01*
X245092Y167803D01*
X244227Y168161D01*
X243300Y168283D01*
D02*
G37*
G36*
X202700Y174435D02*
X201998Y174296D01*
X201402Y173898D01*
X201004Y173302D01*
X200865Y172600D01*
X201004Y171898D01*
X201402Y171302D01*
X201998Y170904D01*
X202700Y170765D01*
X203402Y170904D01*
X203498Y170969D01*
X209324D01*
X212669Y167624D01*
Y160598D01*
X212604Y160502D01*
X212465Y159800D01*
X212604Y159098D01*
X213002Y158502D01*
X213598Y158104D01*
X214300Y157965D01*
X215002Y158104D01*
X215598Y158502D01*
X215996Y159098D01*
X216135Y159800D01*
X215996Y160502D01*
X215931Y160598D01*
Y168300D01*
X215807Y168924D01*
X215454Y169454D01*
X211154Y173753D01*
X210624Y174107D01*
X210000Y174231D01*
X203498D01*
X203402Y174296D01*
X202700Y174435D01*
D02*
G37*
G36*
X170100Y164235D02*
X169398Y164096D01*
X168802Y163698D01*
X168404Y163102D01*
X168265Y162400D01*
X168404Y161698D01*
X168802Y161102D01*
X169398Y160704D01*
X170100Y160565D01*
X170802Y160704D01*
X171398Y161102D01*
X171796Y161698D01*
X171935Y162400D01*
X171796Y163102D01*
X171398Y163698D01*
X170802Y164096D01*
X170100Y164235D01*
D02*
G37*
G36*
X290100Y147535D02*
X289398Y147396D01*
X288802Y146998D01*
X288404Y146402D01*
X288265Y145700D01*
X288404Y144998D01*
X288802Y144402D01*
X289398Y144004D01*
X290100Y143865D01*
X290802Y144004D01*
X291398Y144402D01*
X291796Y144998D01*
X291935Y145700D01*
X291796Y146402D01*
X291398Y146998D01*
X290802Y147396D01*
X290100Y147535D01*
D02*
G37*
G36*
X136800Y147935D02*
X136098Y147796D01*
X135502Y147398D01*
X135104Y146802D01*
X134965Y146100D01*
X135104Y145398D01*
X135502Y144802D01*
X136098Y144404D01*
X136800Y144265D01*
X137502Y144404D01*
X138098Y144802D01*
X138496Y145398D01*
X138635Y146100D01*
X138496Y146802D01*
X138098Y147398D01*
X137502Y147796D01*
X136800Y147935D01*
D02*
G37*
G36*
X246853Y148253D02*
X239747D01*
Y141147D01*
X246853D01*
Y148253D01*
D02*
G37*
G36*
X69000Y243235D02*
X68298Y243096D01*
X67702Y242698D01*
X67304Y242102D01*
X67165Y241400D01*
X67304Y240698D01*
X67624Y240220D01*
Y146680D01*
X67304Y146202D01*
X67165Y145500D01*
X67304Y144798D01*
X67702Y144202D01*
X68298Y143804D01*
X69000Y143665D01*
X69702Y143804D01*
X70298Y144202D01*
X70696Y144798D01*
X70835Y145500D01*
X70696Y146202D01*
X70376Y146680D01*
Y240220D01*
X70696Y240698D01*
X70835Y241400D01*
X70696Y242102D01*
X70298Y242698D01*
X69702Y243096D01*
X69000Y243235D01*
D02*
G37*
G36*
X141500Y148135D02*
X140798Y147996D01*
X140202Y147598D01*
X139804Y147002D01*
X139665Y146300D01*
X139804Y145598D01*
X140202Y145002D01*
X140798Y144604D01*
X141500Y144465D01*
X142202Y144604D01*
X142798Y145002D01*
X143196Y145598D01*
X143335Y146300D01*
X143196Y147002D01*
X142798Y147598D01*
X142202Y147996D01*
X141500Y148135D01*
D02*
G37*
G36*
X233300Y158283D02*
X232373Y158161D01*
X231508Y157803D01*
X230766Y157234D01*
X230197Y156492D01*
X229839Y155627D01*
X229717Y154700D01*
X229839Y153773D01*
X230197Y152908D01*
X230766Y152166D01*
X231508Y151597D01*
X232373Y151239D01*
X233300Y151117D01*
X234227Y151239D01*
X235092Y151597D01*
X235834Y152166D01*
X236403Y152908D01*
X236761Y153773D01*
X236883Y154700D01*
X236761Y155627D01*
X236403Y156492D01*
X235834Y157234D01*
X235092Y157803D01*
X234227Y158161D01*
X233300Y158283D01*
D02*
G37*
G36*
X243300D02*
X242373Y158161D01*
X241508Y157803D01*
X240766Y157234D01*
X240197Y156492D01*
X239839Y155627D01*
X239717Y154700D01*
X239839Y153773D01*
X240197Y152908D01*
X240766Y152166D01*
X241508Y151597D01*
X242373Y151239D01*
X243300Y151117D01*
X244227Y151239D01*
X245092Y151597D01*
X245834Y152166D01*
X246403Y152908D01*
X246761Y153773D01*
X246883Y154700D01*
X246761Y155627D01*
X246403Y156492D01*
X245834Y157234D01*
X245092Y157803D01*
X244227Y158161D01*
X243300Y158283D01*
D02*
G37*
G36*
X117000Y151535D02*
X116298Y151396D01*
X115702Y150998D01*
X115304Y150402D01*
X115165Y149700D01*
X115304Y148998D01*
X115702Y148402D01*
X115860Y148297D01*
Y147937D01*
X115502Y147698D01*
X115104Y147102D01*
X114965Y146400D01*
X115104Y145698D01*
X115502Y145102D01*
X116098Y144704D01*
X116800Y144565D01*
X117502Y144704D01*
X118098Y145102D01*
X118496Y145698D01*
X118635Y146400D01*
X118496Y147102D01*
X118098Y147698D01*
X117940Y147803D01*
Y148163D01*
X118298Y148402D01*
X118696Y148998D01*
X118835Y149700D01*
X118696Y150402D01*
X118298Y150998D01*
X117702Y151396D01*
X117000Y151535D01*
D02*
G37*
G36*
X251000Y151435D02*
X250298Y151296D01*
X249702Y150898D01*
X249304Y150302D01*
X249165Y149600D01*
X249304Y148898D01*
X249702Y148302D01*
X250298Y147904D01*
X251000Y147765D01*
X251702Y147904D01*
X252298Y148302D01*
X252696Y148898D01*
X252835Y149600D01*
X252696Y150302D01*
X252298Y150898D01*
X251702Y151296D01*
X251000Y151435D01*
D02*
G37*
G36*
X87600Y194485D02*
X86724Y194369D01*
X85908Y194031D01*
X85207Y193493D01*
X84669Y192792D01*
X84330Y191976D01*
X84215Y191100D01*
X84330Y190224D01*
X84669Y189408D01*
X85207Y188707D01*
X85908Y188169D01*
X86724Y187830D01*
X87600Y187715D01*
X88476Y187830D01*
X89292Y188169D01*
X89994Y188707D01*
X90531Y189408D01*
X90869Y190224D01*
X90985Y191100D01*
X90869Y191976D01*
X90531Y192792D01*
X89994Y193493D01*
X89292Y194031D01*
X88476Y194369D01*
X87600Y194485D01*
D02*
G37*
G36*
X127816Y261654D02*
X126888Y261532D01*
X126024Y261174D01*
X125282Y260605D01*
X124712Y259862D01*
X124354Y258998D01*
X124232Y258071D01*
X124354Y257143D01*
X124712Y256279D01*
X125282Y255537D01*
X126024Y254967D01*
X126888Y254609D01*
X127816Y254487D01*
X128743Y254609D01*
X129607Y254967D01*
X130350Y255537D01*
X130919Y256279D01*
X131277Y257143D01*
X131399Y258071D01*
X131277Y258998D01*
X130919Y259862D01*
X130350Y260605D01*
X129607Y261174D01*
X128743Y261532D01*
X127816Y261654D01*
D02*
G37*
G36*
X217816D02*
X216888Y261532D01*
X216024Y261174D01*
X215282Y260605D01*
X214712Y259862D01*
X214354Y258998D01*
X214232Y258071D01*
X214354Y257143D01*
X214712Y256279D01*
X215282Y255537D01*
X216024Y254967D01*
X216888Y254609D01*
X217816Y254487D01*
X218743Y254609D01*
X219607Y254967D01*
X220350Y255537D01*
X220919Y256279D01*
X221277Y257143D01*
X221399Y258071D01*
X221277Y258998D01*
X220919Y259862D01*
X220350Y260605D01*
X219607Y261174D01*
X218743Y261532D01*
X217816Y261654D01*
D02*
G37*
G36*
X97816D02*
X96888Y261532D01*
X96024Y261174D01*
X95282Y260605D01*
X94712Y259862D01*
X94354Y258998D01*
X94232Y258071D01*
X94354Y257143D01*
X94712Y256279D01*
X95282Y255537D01*
X96024Y254967D01*
X96888Y254609D01*
X97816Y254487D01*
X98743Y254609D01*
X99607Y254967D01*
X100350Y255537D01*
X100919Y256279D01*
X101277Y257143D01*
X101399Y258071D01*
X101277Y258998D01*
X100919Y259862D01*
X100350Y260605D01*
X99607Y261174D01*
X98743Y261532D01*
X97816Y261654D01*
D02*
G37*
G36*
X117816D02*
X116888Y261532D01*
X116024Y261174D01*
X115282Y260605D01*
X114712Y259862D01*
X114354Y258998D01*
X114232Y258071D01*
X114354Y257143D01*
X114712Y256279D01*
X115282Y255537D01*
X116024Y254967D01*
X116888Y254609D01*
X117816Y254487D01*
X118743Y254609D01*
X119607Y254967D01*
X120350Y255537D01*
X120919Y256279D01*
X121277Y257143D01*
X121399Y258071D01*
X121277Y258998D01*
X120919Y259862D01*
X120350Y260605D01*
X119607Y261174D01*
X118743Y261532D01*
X117816Y261654D01*
D02*
G37*
G36*
X227816D02*
X226888Y261532D01*
X226024Y261174D01*
X225282Y260605D01*
X224712Y259862D01*
X224354Y258998D01*
X224232Y258071D01*
X224354Y257143D01*
X224712Y256279D01*
X225282Y255537D01*
X226024Y254967D01*
X226888Y254609D01*
X227816Y254487D01*
X228743Y254609D01*
X229608Y254967D01*
X230350Y255537D01*
X230919Y256279D01*
X231277Y257143D01*
X231399Y258071D01*
X231277Y258998D01*
X230919Y259862D01*
X230350Y260605D01*
X229608Y261174D01*
X228743Y261532D01*
X227816Y261654D01*
D02*
G37*
G36*
X87816Y271654D02*
X86888Y271532D01*
X86024Y271174D01*
X85282Y270605D01*
X84712Y269863D01*
X84354Y268998D01*
X84232Y268071D01*
X84354Y267143D01*
X84712Y266279D01*
X85282Y265537D01*
X86024Y264967D01*
X86888Y264610D01*
X87816Y264487D01*
X88743Y264610D01*
X89608Y264967D01*
X90333Y265525D01*
X91680Y264178D01*
Y258482D01*
X91588Y258221D01*
X91588Y258221D01*
Y258221D01*
X91381Y258207D01*
X91379Y258226D01*
X91277Y258998D01*
X90919Y259862D01*
X90350Y260605D01*
X89608Y261174D01*
X88743Y261532D01*
X87816Y261654D01*
X86888Y261532D01*
X86024Y261174D01*
X85282Y260605D01*
X84712Y259862D01*
X84354Y258998D01*
X84232Y258071D01*
X84354Y257143D01*
X84712Y256279D01*
X85282Y255537D01*
X86024Y254967D01*
X86888Y254609D01*
X87816Y254487D01*
X88743Y254609D01*
X89608Y254967D01*
X90350Y255537D01*
X90919Y256279D01*
X91277Y257143D01*
X91379Y257916D01*
X91381Y257934D01*
X91588Y257921D01*
Y257921D01*
X91588Y257921D01*
X91680Y257660D01*
Y253000D01*
X91758Y252610D01*
X91979Y252279D01*
X92980Y251278D01*
Y246184D01*
X92702Y245998D01*
X92304Y245402D01*
X92165Y244700D01*
X92304Y243998D01*
X92702Y243402D01*
X93298Y243004D01*
X94000Y242865D01*
X94702Y243004D01*
X95298Y243402D01*
X95696Y243998D01*
X95835Y244700D01*
X95696Y245402D01*
X95298Y245998D01*
X95020Y246184D01*
Y251700D01*
X94942Y252090D01*
X94721Y252421D01*
X93720Y253422D01*
Y264600D01*
X93642Y264990D01*
X93421Y265321D01*
X91315Y267427D01*
X91399Y268071D01*
X91277Y268998D01*
X90919Y269863D01*
X90350Y270605D01*
X89608Y271174D01*
X88743Y271532D01*
X87816Y271654D01*
D02*
G37*
G36*
X77816D02*
X76888Y271532D01*
X76024Y271174D01*
X75282Y270605D01*
X74712Y269863D01*
X74354Y268998D01*
X74232Y268071D01*
X74354Y267143D01*
X74712Y266279D01*
X75282Y265537D01*
X76024Y264967D01*
X76888Y264610D01*
X77816Y264487D01*
X78743Y264610D01*
X79607Y264967D01*
X80350Y265537D01*
X80919Y266279D01*
X81277Y267143D01*
X81399Y268071D01*
X81277Y268998D01*
X80919Y269863D01*
X80350Y270605D01*
X79607Y271174D01*
X78743Y271532D01*
X77816Y271654D01*
D02*
G37*
G36*
X329200Y259441D02*
X328381Y259278D01*
X327686Y258814D01*
X327222Y258119D01*
X327059Y257300D01*
X327222Y256481D01*
X327686Y255786D01*
X328381Y255322D01*
X329200Y255159D01*
X330019Y255322D01*
X330714Y255786D01*
X331178Y256481D01*
X331341Y257300D01*
X331178Y258119D01*
X330714Y258814D01*
X330019Y259278D01*
X329200Y259441D01*
D02*
G37*
G36*
X267400Y263485D02*
X266524Y263369D01*
X265708Y263031D01*
X265006Y262493D01*
X264469Y261792D01*
X264130Y260976D01*
X264015Y260100D01*
X264130Y259224D01*
X264469Y258408D01*
X265006Y257706D01*
X265708Y257169D01*
X266524Y256831D01*
X267400Y256715D01*
X268276Y256831D01*
X269092Y257169D01*
X269794Y257706D01*
X270331Y258408D01*
X270670Y259224D01*
X270785Y260100D01*
X270670Y260976D01*
X270331Y261792D01*
X269794Y262493D01*
X269092Y263031D01*
X268276Y263369D01*
X267400Y263485D01*
D02*
G37*
G36*
X190100Y244335D02*
X189398Y244196D01*
X188802Y243798D01*
X188404Y243202D01*
X188265Y242500D01*
X188404Y241798D01*
X188802Y241202D01*
X189398Y240804D01*
X190100Y240665D01*
X190802Y240804D01*
X191398Y241202D01*
X191796Y241798D01*
X191935Y242500D01*
X191796Y243202D01*
X191398Y243798D01*
X190802Y244196D01*
X190100Y244335D01*
D02*
G37*
G36*
X147700Y245735D02*
X146998Y245596D01*
X146402Y245198D01*
X146004Y244602D01*
X145865Y243900D01*
X146004Y243198D01*
X146402Y242602D01*
X146998Y242204D01*
X147700Y242065D01*
X148402Y242204D01*
X148998Y242602D01*
X149396Y243198D01*
X149535Y243900D01*
X149396Y244602D01*
X148998Y245198D01*
X148402Y245596D01*
X147700Y245735D01*
D02*
G37*
G36*
X170960Y243475D02*
X170258Y243336D01*
X169662Y242938D01*
X169264Y242342D01*
X169125Y241640D01*
X169264Y240938D01*
X169662Y240342D01*
X170258Y239945D01*
X170960Y239805D01*
X171662Y239945D01*
X172258Y240342D01*
X172655Y240938D01*
X172795Y241640D01*
X172655Y242342D01*
X172258Y242938D01*
X171662Y243336D01*
X170960Y243475D01*
D02*
G37*
G36*
X207816Y261654D02*
X206888Y261532D01*
X206024Y261174D01*
X205282Y260605D01*
X204712Y259862D01*
X204354Y258998D01*
X204232Y258071D01*
X204354Y257143D01*
X204712Y256279D01*
X205282Y255537D01*
X206024Y254967D01*
X206694Y254690D01*
Y253184D01*
X206694Y253184D01*
X206780Y252755D01*
X207023Y252391D01*
X216672Y242741D01*
X216565Y242200D01*
X216704Y241498D01*
X217102Y240902D01*
X217698Y240504D01*
X218400Y240365D01*
X219102Y240504D01*
X219698Y240902D01*
X220096Y241498D01*
X220235Y242200D01*
X220096Y242902D01*
X219698Y243498D01*
X219102Y243896D01*
X218588Y243998D01*
X208937Y253649D01*
Y254690D01*
X209608Y254967D01*
X210350Y255537D01*
X210919Y256279D01*
X211277Y257143D01*
X211399Y258071D01*
X211277Y258998D01*
X210919Y259862D01*
X210350Y260605D01*
X209608Y261174D01*
X208743Y261532D01*
X207816Y261654D01*
D02*
G37*
G36*
X177816D02*
X176888Y261532D01*
X176024Y261174D01*
X175282Y260605D01*
X174712Y259862D01*
X174354Y258998D01*
X174232Y258071D01*
X174354Y257143D01*
X174712Y256279D01*
X175282Y255537D01*
X176024Y254967D01*
X176796Y254648D01*
Y247733D01*
X176565Y247543D01*
X176100Y247635D01*
X175398Y247496D01*
X174802Y247098D01*
X174404Y246502D01*
X174265Y245800D01*
X174404Y245098D01*
X174802Y244502D01*
X175398Y244104D01*
X176100Y243965D01*
X176802Y244104D01*
X177398Y244502D01*
X177796Y245098D01*
X177869Y245466D01*
X178193Y245565D01*
X180380Y243378D01*
Y237440D01*
X180094Y237353D01*
X179998Y237498D01*
X179402Y237896D01*
X178700Y238035D01*
X177998Y237896D01*
X177402Y237498D01*
X177004Y236902D01*
X176865Y236200D01*
X177004Y235498D01*
X177402Y234902D01*
X177998Y234504D01*
X178700Y234365D01*
X179402Y234504D01*
X179998Y234902D01*
X180094Y235047D01*
X180380Y234960D01*
Y222300D01*
X180458Y221910D01*
X180679Y221579D01*
X183080Y219178D01*
Y211484D01*
X182802Y211298D01*
X182404Y210702D01*
X182265Y210000D01*
X182404Y209298D01*
X182802Y208702D01*
X183398Y208304D01*
X184100Y208165D01*
X184802Y208304D01*
X185398Y208702D01*
X185796Y209298D01*
X185935Y210000D01*
X185796Y210702D01*
X185398Y211298D01*
X185120Y211484D01*
Y219600D01*
X185042Y219990D01*
X184821Y220321D01*
X182420Y222722D01*
Y243800D01*
X182342Y244190D01*
X182121Y244521D01*
X178835Y247807D01*
Y254648D01*
X179607Y254967D01*
X180350Y255537D01*
X180919Y256279D01*
X181277Y257143D01*
X181399Y258071D01*
X181277Y258998D01*
X180919Y259862D01*
X180350Y260605D01*
X179607Y261174D01*
X178743Y261532D01*
X177816Y261654D01*
D02*
G37*
G36*
X41417Y261474D02*
X40347Y261333D01*
X39350Y260920D01*
X38493Y260263D01*
X37836Y259406D01*
X37423Y258409D01*
X37282Y257339D01*
X37423Y256268D01*
X37836Y255271D01*
X38493Y254414D01*
X39350Y253757D01*
X40347Y253344D01*
X41417Y253203D01*
X42488Y253344D01*
X43485Y253757D01*
X44341Y254414D01*
X44999Y255271D01*
X45412Y256268D01*
X45553Y257339D01*
X45412Y258409D01*
X44999Y259406D01*
X44341Y260263D01*
X43485Y260920D01*
X42488Y261333D01*
X41417Y261474D01*
D02*
G37*
G36*
X77816Y261654D02*
X76888Y261532D01*
X76024Y261174D01*
X75282Y260605D01*
X74712Y259862D01*
X74354Y258998D01*
X74232Y258071D01*
X74354Y257143D01*
X74712Y256279D01*
X75282Y255537D01*
X76024Y254967D01*
X76888Y254609D01*
X77816Y254487D01*
X78743Y254609D01*
X79607Y254967D01*
X80350Y255537D01*
X80919Y256279D01*
X81277Y257143D01*
X81399Y258071D01*
X81277Y258998D01*
X80919Y259862D01*
X80350Y260605D01*
X79607Y261174D01*
X78743Y261532D01*
X77816Y261654D01*
D02*
G37*
G36*
X181300Y251735D02*
X180598Y251596D01*
X180002Y251198D01*
X179604Y250602D01*
X179465Y249900D01*
X179604Y249198D01*
X180002Y248602D01*
X180598Y248204D01*
X181300Y248065D01*
X182002Y248204D01*
X182598Y248602D01*
X182996Y249198D01*
X183135Y249900D01*
X182996Y250602D01*
X182598Y251198D01*
X182002Y251596D01*
X181300Y251735D01*
D02*
G37*
G36*
X189600Y252435D02*
X188898Y252296D01*
X188302Y251898D01*
X187904Y251302D01*
X187765Y250600D01*
X187904Y249898D01*
X188302Y249302D01*
X188898Y248904D01*
X189600Y248765D01*
X190302Y248904D01*
X190898Y249302D01*
X191296Y249898D01*
X191435Y250600D01*
X191296Y251302D01*
X190898Y251898D01*
X190302Y252296D01*
X189600Y252435D01*
D02*
G37*
G36*
X97816Y271654D02*
X96888Y271532D01*
X96024Y271174D01*
X95282Y270605D01*
X94712Y269863D01*
X94354Y268998D01*
X94232Y268071D01*
X94354Y267143D01*
X94712Y266279D01*
X95282Y265537D01*
X96024Y264967D01*
X96888Y264610D01*
X97816Y264487D01*
X98743Y264610D01*
X99607Y264967D01*
X100350Y265537D01*
X100919Y266279D01*
X101277Y267143D01*
X101399Y268071D01*
X101277Y268998D01*
X100919Y269863D01*
X100350Y270605D01*
X99607Y271174D01*
X98743Y271532D01*
X97816Y271654D01*
D02*
G37*
G36*
X285000Y277625D02*
X284124Y277510D01*
X283308Y277171D01*
X282607Y276634D01*
X282069Y275933D01*
X281731Y275116D01*
X281615Y274240D01*
X281731Y273364D01*
X282069Y272548D01*
X282607Y271847D01*
X283308Y271309D01*
X284124Y270971D01*
X285000Y270855D01*
X285876Y270971D01*
X286692Y271309D01*
X287393Y271847D01*
X287931Y272548D01*
X288269Y273364D01*
X288385Y274240D01*
X288269Y275116D01*
X287931Y275933D01*
X287393Y276634D01*
X286692Y277171D01*
X285876Y277510D01*
X285000Y277625D01*
D02*
G37*
G36*
X40600Y276551D02*
X39586Y276349D01*
X38726Y275775D01*
X38151Y274915D01*
X37949Y273900D01*
X38151Y272885D01*
X38726Y272025D01*
X39586Y271451D01*
X40600Y271249D01*
X41614Y271451D01*
X42474Y272025D01*
X43049Y272885D01*
X43251Y273900D01*
X43049Y274915D01*
X42474Y275775D01*
X41614Y276349D01*
X40600Y276551D01*
D02*
G37*
G36*
X72100Y271535D02*
X71398Y271396D01*
X70802Y270998D01*
X70404Y270402D01*
X70265Y269700D01*
X70404Y268998D01*
X70802Y268402D01*
X71398Y268004D01*
X72100Y267865D01*
X72802Y268004D01*
X73398Y268402D01*
X73796Y268998D01*
X73935Y269700D01*
X73796Y270402D01*
X73398Y270998D01*
X72802Y271396D01*
X72100Y271535D01*
D02*
G37*
G36*
X31400Y276285D02*
X30524Y276169D01*
X29708Y275831D01*
X29006Y275293D01*
X28469Y274592D01*
X28130Y273776D01*
X28015Y272900D01*
X28130Y272024D01*
X28469Y271208D01*
X29006Y270507D01*
X29708Y269969D01*
X30524Y269631D01*
X31400Y269515D01*
X32276Y269631D01*
X33092Y269969D01*
X33794Y270507D01*
X34331Y271208D01*
X34670Y272024D01*
X34785Y272900D01*
X34670Y273776D01*
X34331Y274592D01*
X33794Y275293D01*
X33092Y275831D01*
X32276Y276169D01*
X31400Y276285D01*
D02*
G37*
G36*
X73032Y282206D02*
X71961Y282065D01*
X70964Y281652D01*
X70107Y280995D01*
X69450Y280138D01*
X69037Y279141D01*
X68896Y278071D01*
X69037Y277000D01*
X69450Y276003D01*
X70107Y275147D01*
X70964Y274489D01*
X71961Y274076D01*
X73032Y273935D01*
X74102Y274076D01*
X75099Y274489D01*
X75956Y275147D01*
X76613Y276003D01*
X77026Y277000D01*
X77167Y278071D01*
X77026Y279141D01*
X76613Y280138D01*
X75956Y280995D01*
X75099Y281652D01*
X74102Y282065D01*
X73032Y282206D01*
D02*
G37*
G36*
X113031D02*
X111961Y282065D01*
X110964Y281652D01*
X110107Y280995D01*
X109450Y280138D01*
X109037Y279141D01*
X108896Y278071D01*
X109037Y277000D01*
X109450Y276003D01*
X109759Y275601D01*
X108378Y274220D01*
X106300D01*
X105910Y274142D01*
X105579Y273921D01*
X103079Y271421D01*
X102858Y271090D01*
X102780Y270700D01*
Y251522D01*
X99879Y248621D01*
X99658Y248290D01*
X99580Y247900D01*
Y208400D01*
X99658Y208010D01*
X99879Y207679D01*
X102579Y204979D01*
X102910Y204758D01*
X103300Y204680D01*
X120516D01*
X120702Y204402D01*
X121298Y204004D01*
X122000Y203865D01*
X122702Y204004D01*
X123298Y204402D01*
X123696Y204998D01*
X123835Y205700D01*
X123696Y206402D01*
X123298Y206998D01*
X122702Y207396D01*
X122000Y207535D01*
X121298Y207396D01*
X120702Y206998D01*
X120516Y206720D01*
X103722D01*
X101620Y208822D01*
Y247478D01*
X104521Y250379D01*
X104742Y250710D01*
X104820Y251100D01*
Y255674D01*
X105103Y255770D01*
X105282Y255537D01*
X106024Y254967D01*
X106888Y254609D01*
X107816Y254487D01*
X108743Y254609D01*
X109608Y254967D01*
X110350Y255537D01*
X110919Y256279D01*
X111277Y257143D01*
X111399Y258071D01*
X111277Y258998D01*
X110919Y259862D01*
X110350Y260605D01*
X109608Y261174D01*
X108743Y261532D01*
X107816Y261654D01*
X106888Y261532D01*
X106024Y261174D01*
X105282Y260605D01*
X105103Y260371D01*
X104820Y260468D01*
Y265674D01*
X105103Y265770D01*
X105282Y265537D01*
X106024Y264967D01*
X106888Y264610D01*
X107816Y264487D01*
X108743Y264610D01*
X109608Y264967D01*
X110350Y265537D01*
X110919Y266279D01*
X111277Y267143D01*
X111399Y268071D01*
X111277Y268998D01*
X110919Y269863D01*
X110350Y270605D01*
X109608Y271174D01*
X108743Y271532D01*
X107816Y271654D01*
X106888Y271532D01*
X106221Y271256D01*
X106051Y271509D01*
X106722Y272180D01*
X108800D01*
X109190Y272258D01*
X109521Y272479D01*
X111365Y274323D01*
X111961Y274076D01*
X113031Y273935D01*
X114102Y274076D01*
X115099Y274489D01*
X115956Y275147D01*
X116613Y276003D01*
X117026Y277000D01*
X117167Y278071D01*
X117026Y279141D01*
X116613Y280138D01*
X115956Y280995D01*
X115099Y281652D01*
X114102Y282065D01*
X113031Y282206D01*
D02*
G37*
G36*
X179016D02*
X177945Y282065D01*
X176948Y281652D01*
X176092Y280995D01*
X175434Y280138D01*
X175021Y279141D01*
X174880Y278071D01*
X175021Y277000D01*
X175434Y276003D01*
X176092Y275147D01*
X176948Y274489D01*
X177945Y274076D01*
X179016Y273935D01*
X180086Y274076D01*
X181083Y274489D01*
X181940Y275147D01*
X182597Y276003D01*
X183010Y277000D01*
X183151Y278071D01*
X183010Y279141D01*
X182597Y280138D01*
X181940Y280995D01*
X181083Y281652D01*
X180086Y282065D01*
X179016Y282206D01*
D02*
G37*
G36*
X83031D02*
X81961Y282065D01*
X80964Y281652D01*
X80107Y280995D01*
X79450Y280138D01*
X79037Y279141D01*
X78896Y278071D01*
X79037Y277000D01*
X79450Y276003D01*
X80107Y275147D01*
X80964Y274489D01*
X81961Y274076D01*
X83031Y273935D01*
X84102Y274076D01*
X85099Y274489D01*
X85956Y275147D01*
X86613Y276003D01*
X87026Y277000D01*
X87167Y278071D01*
X87026Y279141D01*
X86613Y280138D01*
X85956Y280995D01*
X85099Y281652D01*
X84102Y282065D01*
X83031Y282206D01*
D02*
G37*
G36*
X93032D02*
X91961Y282065D01*
X90964Y281652D01*
X90107Y280995D01*
X89450Y280138D01*
X89037Y279141D01*
X88896Y278071D01*
X89037Y277000D01*
X89450Y276003D01*
X90107Y275147D01*
X90964Y274489D01*
X91961Y274076D01*
X93032Y273935D01*
X94102Y274076D01*
X95099Y274489D01*
X95956Y275147D01*
X96613Y276003D01*
X97026Y277000D01*
X97167Y278071D01*
X97026Y279141D01*
X96613Y280138D01*
X95956Y280995D01*
X95099Y281652D01*
X94102Y282065D01*
X93032Y282206D01*
D02*
G37*
G36*
X187816Y271654D02*
X186888Y271532D01*
X186024Y271174D01*
X185282Y270605D01*
X184712Y269863D01*
X184354Y268998D01*
X184232Y268071D01*
X184354Y267143D01*
X184712Y266279D01*
X185282Y265537D01*
X186024Y264967D01*
X186888Y264610D01*
X187816Y264487D01*
X188743Y264610D01*
X189608Y264967D01*
X190350Y265537D01*
X190919Y266279D01*
X191277Y267143D01*
X191399Y268071D01*
X191277Y268998D01*
X190919Y269863D01*
X190350Y270605D01*
X189608Y271174D01*
X188743Y271532D01*
X187816Y271654D01*
D02*
G37*
G36*
X197816D02*
X196888Y271532D01*
X196024Y271174D01*
X195282Y270605D01*
X194712Y269863D01*
X194354Y268998D01*
X194232Y268071D01*
X194354Y267143D01*
X194712Y266279D01*
X195282Y265537D01*
X196024Y264967D01*
X196888Y264610D01*
X197816Y264487D01*
X198743Y264610D01*
X199608Y264967D01*
X200350Y265537D01*
X200919Y266279D01*
X201277Y267143D01*
X201399Y268071D01*
X201277Y268998D01*
X200919Y269863D01*
X200350Y270605D01*
X199608Y271174D01*
X198743Y271532D01*
X197816Y271654D01*
D02*
G37*
G36*
X127816D02*
X126888Y271532D01*
X126024Y271174D01*
X125282Y270605D01*
X124712Y269863D01*
X124354Y268998D01*
X124232Y268071D01*
X124354Y267143D01*
X124712Y266279D01*
X125282Y265537D01*
X126024Y264967D01*
X126888Y264610D01*
X127816Y264487D01*
X128743Y264610D01*
X129607Y264967D01*
X130350Y265537D01*
X130919Y266279D01*
X131277Y267143D01*
X131399Y268071D01*
X131277Y268998D01*
X130919Y269863D01*
X130350Y270605D01*
X129607Y271174D01*
X128743Y271532D01*
X127816Y271654D01*
D02*
G37*
G36*
X177816D02*
X176888Y271532D01*
X176024Y271174D01*
X175282Y270605D01*
X174712Y269863D01*
X174354Y268998D01*
X174232Y268071D01*
X174354Y267143D01*
X174712Y266279D01*
X175282Y265537D01*
X176024Y264967D01*
X176888Y264610D01*
X177816Y264487D01*
X178743Y264610D01*
X179607Y264967D01*
X180350Y265537D01*
X180919Y266279D01*
X181277Y267143D01*
X181399Y268071D01*
X181277Y268998D01*
X180919Y269863D01*
X180350Y270605D01*
X179607Y271174D01*
X178743Y271532D01*
X177816Y271654D01*
D02*
G37*
G36*
X207816D02*
X206888Y271532D01*
X206024Y271174D01*
X205282Y270605D01*
X204712Y269863D01*
X204354Y268998D01*
X204232Y268071D01*
X204354Y267143D01*
X204712Y266279D01*
X205282Y265537D01*
X206024Y264967D01*
X206888Y264610D01*
X207816Y264487D01*
X208743Y264610D01*
X209608Y264967D01*
X210350Y265537D01*
X210919Y266279D01*
X211277Y267143D01*
X211399Y268071D01*
X211277Y268998D01*
X210919Y269863D01*
X210350Y270605D01*
X209608Y271174D01*
X208743Y271532D01*
X207816Y271654D01*
D02*
G37*
G36*
X11811Y284106D02*
X10150Y283942D01*
X8552Y283457D01*
X7080Y282670D01*
X5790Y281612D01*
X4731Y280321D01*
X3944Y278849D01*
X3460Y277252D01*
X3296Y275591D01*
X3460Y273929D01*
X3944Y272332D01*
X4731Y270860D01*
X5790Y269569D01*
X7080Y268511D01*
X8552Y267724D01*
X10150Y267239D01*
X11811Y267076D01*
X13472Y267239D01*
X15070Y267724D01*
X16542Y268511D01*
X17832Y269569D01*
X18891Y270860D01*
X19678Y272332D01*
X20162Y273929D01*
X20326Y275591D01*
X20162Y277252D01*
X19678Y278849D01*
X18891Y280321D01*
X17832Y281612D01*
X16542Y282670D01*
X15070Y283457D01*
X13472Y283942D01*
X11811Y284106D01*
D02*
G37*
G36*
X322835D02*
X321174Y283942D01*
X319576Y283457D01*
X318104Y282670D01*
X316814Y281612D01*
X315755Y280321D01*
X314968Y278849D01*
X314483Y277252D01*
X314320Y275591D01*
X314483Y273929D01*
X314968Y272332D01*
X315755Y270860D01*
X316814Y269569D01*
X318104Y268511D01*
X319576Y267724D01*
X321174Y267239D01*
X322835Y267076D01*
X324496Y267239D01*
X326093Y267724D01*
X327565Y268511D01*
X328856Y269569D01*
X329915Y270860D01*
X330701Y272332D01*
X331186Y273929D01*
X331350Y275591D01*
X331186Y277252D01*
X330701Y278849D01*
X329915Y280321D01*
X328856Y281612D01*
X327565Y282670D01*
X326093Y283457D01*
X324496Y283942D01*
X322835Y284106D01*
D02*
G37*
G36*
X217816Y271654D02*
X216888Y271532D01*
X216024Y271174D01*
X215282Y270605D01*
X214712Y269863D01*
X214354Y268998D01*
X214232Y268071D01*
X214354Y267143D01*
X214712Y266279D01*
X215282Y265537D01*
X216024Y264967D01*
X216888Y264610D01*
X217816Y264487D01*
X218743Y264610D01*
X219607Y264967D01*
X220350Y265537D01*
X220919Y266279D01*
X221277Y267143D01*
X221399Y268071D01*
X221277Y268998D01*
X220919Y269863D01*
X220350Y270605D01*
X219607Y271174D01*
X218743Y271532D01*
X217816Y271654D01*
D02*
G37*
G36*
X231368Y271624D02*
X224263D01*
Y264518D01*
X231368D01*
Y271624D01*
D02*
G37*
G36*
X262050Y201286D02*
X261348Y201146D01*
X260753Y200748D01*
X260355Y200153D01*
X260215Y199450D01*
X260355Y198748D01*
X260753Y198153D01*
X261348Y197755D01*
X262050Y197615D01*
X262753Y197755D01*
X263348Y198153D01*
X263746Y198748D01*
X263886Y199450D01*
X263746Y200153D01*
X263348Y200748D01*
X262753Y201146D01*
X262050Y201286D01*
D02*
G37*
G36*
X266100Y202135D02*
X265398Y201996D01*
X264802Y201598D01*
X264404Y201002D01*
X264265Y200300D01*
X264404Y199598D01*
X264802Y199002D01*
X265398Y198604D01*
X266100Y198465D01*
X266802Y198604D01*
X267398Y199002D01*
X267796Y199598D01*
X267935Y200300D01*
X267796Y201002D01*
X267398Y201598D01*
X266802Y201996D01*
X266100Y202135D01*
D02*
G37*
G36*
X111600Y198735D02*
X110898Y198596D01*
X110302Y198198D01*
X109904Y197602D01*
X109765Y196900D01*
X109904Y196198D01*
X110302Y195602D01*
X110898Y195204D01*
X111600Y195065D01*
X112302Y195204D01*
X112898Y195602D01*
X113296Y196198D01*
X113435Y196900D01*
X113296Y197602D01*
X112898Y198198D01*
X112302Y198596D01*
X111600Y198735D01*
D02*
G37*
G36*
X270200Y203735D02*
X269498Y203596D01*
X268902Y203198D01*
X268504Y202602D01*
X268365Y201900D01*
X268504Y201198D01*
X268902Y200602D01*
X269498Y200204D01*
X269986Y200107D01*
X270052Y199950D01*
X269912Y199247D01*
X270052Y198545D01*
X270449Y197950D01*
X271045Y197552D01*
X271747Y197412D01*
X272450Y197552D01*
X273045Y197950D01*
X273443Y198545D01*
X273583Y199247D01*
X273443Y199950D01*
X273045Y200545D01*
X272450Y200943D01*
X271961Y201040D01*
X271896Y201198D01*
X272035Y201900D01*
X271896Y202602D01*
X271498Y203198D01*
X270902Y203596D01*
X270200Y203735D01*
D02*
G37*
G36*
X284600Y204835D02*
X283898Y204696D01*
X283302Y204298D01*
X282904Y203702D01*
X282765Y203000D01*
X282832Y202663D01*
X282620Y202452D01*
X282200Y202535D01*
X281498Y202396D01*
X280902Y201998D01*
X280504Y201402D01*
X280365Y200700D01*
X280504Y199998D01*
X280902Y199402D01*
X281498Y199004D01*
X282200Y198865D01*
X282902Y199004D01*
X283498Y199402D01*
X283896Y199998D01*
X284035Y200700D01*
X283968Y201037D01*
X284180Y201248D01*
X284600Y201165D01*
X285302Y201304D01*
X285898Y201702D01*
X286296Y202298D01*
X286435Y203000D01*
X286296Y203702D01*
X285898Y204298D01*
X285302Y204696D01*
X284600Y204835D01*
D02*
G37*
G36*
X288300Y214335D02*
X287598Y214196D01*
X287002Y213798D01*
X286604Y213202D01*
X286465Y212500D01*
X286604Y211798D01*
X287002Y211202D01*
X287598Y210804D01*
X288300Y210665D01*
X289002Y210804D01*
X289598Y211202D01*
X289996Y211798D01*
X290135Y212500D01*
X289996Y213202D01*
X289598Y213798D01*
X289002Y214196D01*
X288300Y214335D01*
D02*
G37*
G36*
X145110Y216725D02*
X144408Y216585D01*
X143813Y216188D01*
X143415Y215592D01*
X143275Y214890D01*
X143415Y214187D01*
X143813Y213592D01*
X144408Y213194D01*
X145110Y213054D01*
X145813Y213194D01*
X146408Y213592D01*
X146806Y214187D01*
X146946Y214890D01*
X146806Y215592D01*
X146408Y216188D01*
X145813Y216585D01*
X145110Y216725D01*
D02*
G37*
G36*
X31417Y211474D02*
X30347Y211333D01*
X29350Y210920D01*
X28493Y210263D01*
X27836Y209406D01*
X27423Y208409D01*
X27282Y207339D01*
X27423Y206268D01*
X27836Y205271D01*
X28493Y204414D01*
X29350Y203757D01*
X30347Y203344D01*
X31417Y203203D01*
X32488Y203344D01*
X33485Y203757D01*
X34341Y204414D01*
X34999Y205271D01*
X35412Y206268D01*
X35553Y207339D01*
X35412Y208409D01*
X34999Y209406D01*
X34341Y210263D01*
X33485Y210920D01*
X32488Y211333D01*
X31417Y211474D01*
D02*
G37*
G36*
X45517Y211439D02*
X37317D01*
Y203239D01*
X45517D01*
Y211439D01*
D02*
G37*
G36*
X272535Y192552D02*
X271917Y192429D01*
X271392Y192078D01*
X271042Y191554D01*
X270919Y190936D01*
X271042Y190318D01*
X271392Y189794D01*
X271917Y189444D01*
X272535Y189321D01*
X273153Y189444D01*
X273677Y189794D01*
X274027Y190318D01*
X274150Y190936D01*
X274027Y191554D01*
X273677Y192078D01*
X273153Y192429D01*
X272535Y192552D01*
D02*
G37*
G36*
X276865D02*
X276247Y192429D01*
X275723Y192078D01*
X275373Y191554D01*
X275250Y190936D01*
X275373Y190318D01*
X275723Y189794D01*
X276247Y189444D01*
X276865Y189321D01*
X277484Y189444D01*
X278008Y189794D01*
X278358Y190318D01*
X278481Y190936D01*
X278358Y191554D01*
X278008Y192078D01*
X277484Y192429D01*
X276865Y192552D01*
D02*
G37*
G36*
X80956Y194456D02*
X74244D01*
Y187744D01*
X80956D01*
Y194456D01*
D02*
G37*
G36*
X268204Y192552D02*
X267586Y192429D01*
X267062Y192078D01*
X266712Y191554D01*
X266589Y190936D01*
X266712Y190318D01*
X267062Y189794D01*
X267586Y189444D01*
X268204Y189321D01*
X268822Y189444D01*
X269346Y189794D01*
X269696Y190318D01*
X269819Y190936D01*
X269696Y191554D01*
X269346Y192078D01*
X268822Y192429D01*
X268204Y192552D01*
D02*
G37*
G36*
X281196D02*
X280578Y192429D01*
X280054Y192078D01*
X279704Y191554D01*
X279581Y190936D01*
X279704Y190318D01*
X280054Y189794D01*
X280578Y189444D01*
X281196Y189321D01*
X281814Y189444D01*
X282338Y189794D01*
X282688Y190318D01*
X282811Y190936D01*
X282688Y191554D01*
X282338Y192078D01*
X281814Y192429D01*
X281196Y192552D01*
D02*
G37*
G36*
X312465Y196192D02*
X309315D01*
X308466Y196023D01*
X307747Y195543D01*
X307266Y194823D01*
X307098Y193975D01*
X307266Y193126D01*
X307747Y192407D01*
X308466Y191926D01*
X309315Y191757D01*
X312465D01*
X313313Y191926D01*
X314033Y192407D01*
X314513Y193126D01*
X314682Y193975D01*
X314513Y194823D01*
X314033Y195543D01*
X313313Y196023D01*
X312465Y196192D01*
D02*
G37*
G36*
X326047D02*
X322898D01*
X322049Y196023D01*
X321330Y195543D01*
X320849Y194823D01*
X320680Y193975D01*
X320849Y193126D01*
X321330Y192407D01*
X322049Y191926D01*
X322898Y191757D01*
X326047D01*
X326896Y191926D01*
X327615Y192407D01*
X328096Y193126D01*
X328265Y193975D01*
X328096Y194823D01*
X327615Y195543D01*
X326896Y196023D01*
X326047Y196192D01*
D02*
G37*
G36*
X295700Y193435D02*
X294998Y193296D01*
X294402Y192898D01*
X294004Y192302D01*
X293865Y191600D01*
X294004Y190898D01*
X294402Y190302D01*
X294998Y189904D01*
X295700Y189765D01*
X296402Y189904D01*
X296998Y190302D01*
X297396Y190898D01*
X297535Y191600D01*
X297396Y192302D01*
X296998Y192898D01*
X296402Y193296D01*
X295700Y193435D01*
D02*
G37*
G36*
X94200Y193535D02*
X93498Y193396D01*
X92902Y192998D01*
X92504Y192402D01*
X92365Y191700D01*
X92504Y190998D01*
X92902Y190402D01*
X93498Y190004D01*
X94200Y189865D01*
X94902Y190004D01*
X95498Y190402D01*
X95896Y190998D01*
X96035Y191700D01*
X95896Y192402D01*
X95498Y192998D01*
X94902Y193396D01*
X94200Y193535D01*
D02*
G37*
G36*
X238000Y233359D02*
X236998Y233160D01*
X236148Y232592D01*
X235580Y231742D01*
X235381Y230740D01*
X235580Y229738D01*
X236148Y228888D01*
X236859Y228414D01*
Y228066D01*
X236148Y227592D01*
X235580Y226742D01*
X235381Y225740D01*
X235580Y224738D01*
X236148Y223888D01*
X236859Y223414D01*
Y223066D01*
X236148Y222592D01*
X235580Y221742D01*
X235381Y220740D01*
X235580Y219738D01*
X236148Y218888D01*
X236568Y218608D01*
X236477Y218309D01*
X235432D01*
Y213172D01*
X240568D01*
Y218309D01*
X239523D01*
X239432Y218608D01*
X239852Y218888D01*
X240420Y219738D01*
X240619Y220740D01*
X240420Y221742D01*
X239852Y222592D01*
X239142Y223066D01*
Y223414D01*
X239852Y223888D01*
X240420Y224738D01*
X240619Y225740D01*
X240420Y226742D01*
X239852Y227592D01*
X239142Y228066D01*
Y228414D01*
X239852Y228888D01*
X240420Y229738D01*
X240619Y230740D01*
X240420Y231742D01*
X239852Y232592D01*
X239002Y233160D01*
X238000Y233359D01*
D02*
G37*
G36*
X286500Y239509D02*
X285430Y239369D01*
X284432Y238955D01*
X283576Y238298D01*
X282919Y237442D01*
X282505Y236444D01*
X282365Y235374D01*
X282505Y234304D01*
X282919Y233306D01*
X283576Y232450D01*
X284432Y231793D01*
X285430Y231380D01*
X286500Y231239D01*
X287570Y231380D01*
X288568Y231793D01*
X289424Y232450D01*
X290081Y233306D01*
X290494Y234304D01*
X290635Y235374D01*
X290494Y236444D01*
X290081Y237442D01*
X289424Y238298D01*
X288568Y238955D01*
X287570Y239369D01*
X286500Y239509D01*
D02*
G37*
G36*
X31417Y241474D02*
X30347Y241333D01*
X29350Y240920D01*
X28493Y240263D01*
X27836Y239406D01*
X27423Y238409D01*
X27282Y237339D01*
X27423Y236268D01*
X27836Y235271D01*
X28493Y234414D01*
X29350Y233757D01*
X30347Y233344D01*
X31417Y233203D01*
X32488Y233344D01*
X33485Y233757D01*
X34341Y234414D01*
X34999Y235271D01*
X35412Y236268D01*
X35553Y237339D01*
X35412Y238409D01*
X34999Y239406D01*
X34341Y240263D01*
X33485Y240920D01*
X32488Y241333D01*
X31417Y241474D01*
D02*
G37*
G36*
X41417Y231474D02*
X40347Y231333D01*
X39350Y230920D01*
X38493Y230263D01*
X37836Y229406D01*
X37423Y228409D01*
X37282Y227339D01*
X37423Y226268D01*
X37836Y225271D01*
X38493Y224414D01*
X39350Y223757D01*
X40347Y223344D01*
X41417Y223203D01*
X42488Y223344D01*
X43485Y223757D01*
X44341Y224414D01*
X44999Y225271D01*
X45412Y226268D01*
X45553Y227339D01*
X45412Y228409D01*
X44999Y229406D01*
X44341Y230263D01*
X43485Y230920D01*
X42488Y231333D01*
X41417Y231474D01*
D02*
G37*
G36*
X190600Y232335D02*
X189898Y232196D01*
X189302Y231798D01*
X188904Y231202D01*
X188765Y230500D01*
X188904Y229798D01*
X189302Y229202D01*
X189898Y228804D01*
X190600Y228665D01*
X191302Y228804D01*
X191898Y229202D01*
X192296Y229798D01*
X192435Y230500D01*
X192296Y231202D01*
X191898Y231798D01*
X191302Y232196D01*
X190600Y232335D01*
D02*
G37*
G36*
X41417Y241474D02*
X40347Y241333D01*
X39350Y240920D01*
X38493Y240263D01*
X37836Y239406D01*
X37423Y238409D01*
X37282Y237339D01*
X37423Y236268D01*
X37836Y235271D01*
X38493Y234414D01*
X39350Y233757D01*
X40347Y233344D01*
X41417Y233203D01*
X42488Y233344D01*
X43485Y233757D01*
X44341Y234414D01*
X44999Y235271D01*
X45412Y236268D01*
X45553Y237339D01*
X45412Y238409D01*
X44999Y239406D01*
X44341Y240263D01*
X43485Y240920D01*
X42488Y241333D01*
X41417Y241474D01*
D02*
G37*
G36*
X127000Y246009D02*
X125930Y245868D01*
X124932Y245455D01*
X124076Y244798D01*
X123419Y243942D01*
X123005Y242944D01*
X122865Y241874D01*
X123005Y240804D01*
X123419Y239806D01*
X124076Y238950D01*
X124932Y238293D01*
X125930Y237880D01*
X127000Y237739D01*
X128070Y237880D01*
X129068Y238293D01*
X129924Y238950D01*
X130581Y239806D01*
X130994Y240804D01*
X131135Y241874D01*
X130994Y242944D01*
X130581Y243942D01*
X129924Y244798D01*
X129068Y245455D01*
X128070Y245868D01*
X127000Y246009D01*
D02*
G37*
G36*
X238000Y243359D02*
X236998Y243160D01*
X236148Y242592D01*
X235580Y241742D01*
X235381Y240740D01*
X235580Y239738D01*
X236148Y238888D01*
X236998Y238321D01*
X238000Y238121D01*
X239002Y238321D01*
X239852Y238888D01*
X240420Y239738D01*
X240619Y240740D01*
X240420Y241742D01*
X239852Y242592D01*
X239002Y243160D01*
X238000Y243359D01*
D02*
G37*
G36*
X187816Y261654D02*
X186888Y261532D01*
X186024Y261174D01*
X185282Y260605D01*
X184712Y259862D01*
X184354Y258998D01*
X184232Y258071D01*
X184354Y257143D01*
X184712Y256279D01*
X185282Y255537D01*
X186024Y254967D01*
X186504Y254769D01*
X186574Y254416D01*
X185479Y253321D01*
X185258Y252990D01*
X185180Y252600D01*
Y238600D01*
X185258Y238210D01*
X185479Y237879D01*
X187879Y235479D01*
X188210Y235258D01*
X188600Y235180D01*
X194016D01*
X194202Y234902D01*
X194798Y234504D01*
X195500Y234365D01*
X196202Y234504D01*
X196798Y234902D01*
X197196Y235498D01*
X197335Y236200D01*
X197196Y236902D01*
X196798Y237498D01*
X196202Y237896D01*
X195500Y238035D01*
X194798Y237896D01*
X194202Y237498D01*
X194016Y237220D01*
X189022D01*
X187220Y239022D01*
Y252178D01*
X188537Y253495D01*
X188758Y253826D01*
X188835Y254216D01*
Y254648D01*
X189608Y254967D01*
X190350Y255537D01*
X190919Y256279D01*
X191277Y257143D01*
X191399Y258071D01*
X191277Y258998D01*
X190919Y259862D01*
X190350Y260605D01*
X189608Y261174D01*
X188743Y261532D01*
X187816Y261654D01*
D02*
G37*
G36*
X214900Y241235D02*
X214198Y241096D01*
X213602Y240698D01*
X213204Y240102D01*
X213065Y239400D01*
X213204Y238698D01*
X213452Y238327D01*
X213439Y238254D01*
X213300Y238016D01*
X212698Y237896D01*
X212102Y237498D01*
X211704Y236902D01*
X211565Y236200D01*
X211704Y235498D01*
X212102Y234902D01*
X212698Y234504D01*
X213400Y234365D01*
X214102Y234504D01*
X214698Y234902D01*
X215096Y235498D01*
X215235Y236200D01*
X215096Y236902D01*
X214848Y237273D01*
X214861Y237346D01*
X215000Y237584D01*
X215602Y237704D01*
X216198Y238102D01*
X216596Y238698D01*
X216735Y239400D01*
X216596Y240102D01*
X216198Y240698D01*
X215602Y241096D01*
X214900Y241235D01*
D02*
G37*
G36*
X174300Y218335D02*
X173598Y218196D01*
X173002Y217798D01*
X172604Y217202D01*
X172465Y216500D01*
X172604Y215798D01*
X173002Y215202D01*
X173598Y214804D01*
X174300Y214665D01*
X175002Y214804D01*
X175598Y215202D01*
X175996Y215798D01*
X176135Y216500D01*
X175996Y217202D01*
X175598Y217798D01*
X175002Y218196D01*
X174300Y218335D01*
D02*
G37*
G36*
X209600Y219635D02*
X208898Y219496D01*
X208302Y219098D01*
X207904Y218502D01*
X207765Y217800D01*
X207904Y217098D01*
X208302Y216502D01*
X208898Y216104D01*
X209600Y215965D01*
X210302Y216104D01*
X210898Y216502D01*
X211296Y217098D01*
X211435Y217800D01*
X211296Y218502D01*
X210898Y219098D01*
X210302Y219496D01*
X209600Y219635D01*
D02*
G37*
G36*
X31417Y221474D02*
X30347Y221333D01*
X29350Y220920D01*
X28493Y220263D01*
X27836Y219406D01*
X27423Y218409D01*
X27282Y217339D01*
X27423Y216268D01*
X27836Y215271D01*
X28493Y214414D01*
X29350Y213757D01*
X30347Y213344D01*
X31417Y213203D01*
X32488Y213344D01*
X33485Y213757D01*
X34341Y214414D01*
X34999Y215271D01*
X35412Y216268D01*
X35553Y217339D01*
X35412Y218409D01*
X34999Y219406D01*
X34341Y220263D01*
X33485Y220920D01*
X32488Y221333D01*
X31417Y221474D01*
D02*
G37*
G36*
X41417D02*
X40347Y221333D01*
X39350Y220920D01*
X38493Y220263D01*
X37836Y219406D01*
X37423Y218409D01*
X37282Y217339D01*
X37423Y216268D01*
X37836Y215271D01*
X38493Y214414D01*
X39350Y213757D01*
X40347Y213344D01*
X41417Y213203D01*
X42488Y213344D01*
X43485Y213757D01*
X44341Y214414D01*
X44999Y215271D01*
X45412Y216268D01*
X45553Y217339D01*
X45412Y218409D01*
X44999Y219406D01*
X44341Y220263D01*
X43485Y220920D01*
X42488Y221333D01*
X41417Y221474D01*
D02*
G37*
G36*
X200400Y220435D02*
X199698Y220296D01*
X199102Y219898D01*
X198704Y219302D01*
X198565Y218600D01*
X198704Y217898D01*
X199102Y217302D01*
X199698Y216904D01*
X200400Y216765D01*
X201102Y216904D01*
X201698Y217302D01*
X202096Y217898D01*
X202235Y218600D01*
X202096Y219302D01*
X201698Y219898D01*
X201102Y220296D01*
X200400Y220435D01*
D02*
G37*
G36*
X122800Y221135D02*
X122098Y220996D01*
X121502Y220598D01*
X121104Y220002D01*
X120965Y219300D01*
X121104Y218598D01*
X121502Y218002D01*
X122098Y217604D01*
X122800Y217465D01*
X123502Y217604D01*
X124098Y218002D01*
X124496Y218598D01*
X124635Y219300D01*
X124496Y220002D01*
X124098Y220598D01*
X123502Y220996D01*
X122800Y221135D01*
D02*
G37*
G36*
X31417Y231474D02*
X30347Y231333D01*
X29350Y230920D01*
X28493Y230263D01*
X27836Y229406D01*
X27423Y228409D01*
X27282Y227339D01*
X27423Y226268D01*
X27836Y225271D01*
X28493Y224414D01*
X29350Y223757D01*
X30347Y223344D01*
X31417Y223203D01*
X32488Y223344D01*
X33485Y223757D01*
X34341Y224414D01*
X34999Y225271D01*
X35412Y226268D01*
X35553Y227339D01*
X35412Y228409D01*
X34999Y229406D01*
X34341Y230263D01*
X33485Y230920D01*
X32488Y231333D01*
X31417Y231474D01*
D02*
G37*
G36*
X295700Y220435D02*
X294998Y220296D01*
X294402Y219898D01*
X294004Y219302D01*
X293865Y218600D01*
X294004Y217898D01*
X294402Y217302D01*
X294998Y216904D01*
X295700Y216765D01*
X296402Y216904D01*
X296998Y217302D01*
X297396Y217898D01*
X297535Y218600D01*
X297396Y219302D01*
X296998Y219898D01*
X296402Y220296D01*
X295700Y220435D01*
D02*
G37*
G36*
X262600Y220625D02*
X261898Y220485D01*
X261302Y220087D01*
X260904Y219492D01*
X260765Y218790D01*
X260904Y218087D01*
X261302Y217492D01*
X261898Y217094D01*
X262600Y216954D01*
X263302Y217094D01*
X263898Y217492D01*
X264296Y218087D01*
X264435Y218790D01*
X264296Y219492D01*
X263898Y220087D01*
X263302Y220485D01*
X262600Y220625D01*
D02*
G37*
%LPD*%
D40*
X237700Y124700D02*
X240300Y127300D01*
X216100Y124700D02*
X237700D01*
X161100Y191900D02*
Y206100D01*
X157221Y171779D02*
Y193400D01*
X155400Y195221D02*
Y229280D01*
Y195221D02*
X157221Y193400D01*
X159200Y208000D02*
Y235500D01*
Y208000D02*
X161100Y206100D01*
X159800Y190600D02*
X161100Y191900D01*
X159800Y162700D02*
Y190600D01*
X189100Y88400D02*
X194100Y93400D01*
Y117800D01*
X161100Y285500D02*
X163031Y283569D01*
X131500Y285500D02*
X161100D01*
X129144Y283144D02*
X131500Y285500D01*
X128300Y282200D02*
X129194Y283094D01*
X163031Y278071D02*
Y283569D01*
X145600Y283600D02*
X148200Y281000D01*
X136900Y283600D02*
X145600D01*
X133300Y280000D02*
X136900Y283600D01*
X153032Y275669D02*
Y278071D01*
Y275669D02*
X155500Y273200D01*
X149900Y272900D02*
X152000D01*
X148200Y274600D02*
X149900Y272900D01*
X148200Y274600D02*
Y281000D01*
X128300Y274900D02*
Y282200D01*
Y274900D02*
X130300Y272900D01*
X132200D01*
X152300Y228000D02*
X154100Y229800D01*
X155400Y229280D02*
X156900Y230780D01*
X151800Y178200D02*
Y180600D01*
Y178200D02*
X153400Y176600D01*
X162500Y119400D02*
Y160000D01*
X159800Y162700D02*
X162500Y160000D01*
X153900Y110800D02*
X162500Y119400D01*
X154800Y167600D02*
X157500Y164900D01*
X154800Y167600D02*
Y180700D01*
X153400Y166500D02*
X156100Y163800D01*
X153400Y166500D02*
Y176600D01*
X150000Y78300D02*
X153900Y82200D01*
X103600Y78300D02*
X150000D01*
X101312Y80588D02*
X103600Y78300D01*
X101312Y80588D02*
Y95775D01*
X153900Y82200D02*
Y110800D01*
X144100Y171400D02*
Y180900D01*
Y171400D02*
X154700Y160800D01*
X142100Y79700D02*
X144000Y81600D01*
X111300Y79700D02*
X142100D01*
X109016Y81984D02*
X111300Y79700D01*
X109016Y81984D02*
Y88071D01*
X151000Y144600D02*
X154700Y148300D01*
Y160800D01*
X132200Y81100D02*
X134200Y83100D01*
X119900Y81100D02*
X132200D01*
X118900Y82100D02*
X119900Y81100D01*
X118900Y82100D02*
Y86500D01*
X134200Y117200D02*
X147800Y130800D01*
X134200Y83100D02*
Y117200D01*
X141100Y114200D02*
Y122120D01*
Y114200D02*
X144000Y111300D01*
X141100Y122120D02*
X151000Y132020D01*
Y144600D01*
X144000Y81600D02*
Y111300D01*
X156100Y130700D02*
Y163800D01*
X157500Y128800D02*
Y164900D01*
X184500Y93300D02*
X188828Y97628D01*
X184500Y82000D02*
Y93300D01*
X179200Y76700D02*
X184500Y82000D01*
X75200Y76700D02*
X179200D01*
X72200Y79700D02*
X75200Y76700D01*
X188828Y97628D02*
Y98072D01*
X141100Y170800D02*
Y182300D01*
Y170800D02*
X147800Y164100D01*
Y142300D02*
X149500Y144000D01*
X147800Y130800D02*
Y142300D01*
X135800Y172100D02*
X146400Y161500D01*
X147800Y157800D02*
Y164100D01*
Y157800D02*
X149500Y156100D01*
Y144000D02*
Y156100D01*
X146400Y156765D02*
X148100Y155065D01*
Y144580D02*
Y155065D01*
X146200Y142680D02*
X148100Y144580D01*
X146200Y131180D02*
Y142680D01*
X133220Y118200D02*
X146200Y131180D01*
X128600Y118200D02*
X133220D01*
X124400Y114000D02*
X128600Y118200D01*
X124400Y91600D02*
Y114000D01*
X146400Y156765D02*
Y161500D01*
X152300Y212600D02*
Y228000D01*
X137967Y183367D02*
X138767D01*
X135800Y181200D02*
X137967Y183367D01*
X135800Y172100D02*
Y181200D01*
X137167Y184767D02*
X137967D01*
X134200Y181800D02*
X137167Y184767D01*
X134200Y171100D02*
Y181800D01*
Y171100D02*
X135000Y170300D01*
Y162900D02*
Y170300D01*
X132900Y160800D02*
X135000Y162900D01*
X131300Y160800D02*
X132900D01*
X128600Y158100D02*
X131300Y160800D01*
X128600Y155700D02*
Y158100D01*
X144600Y189200D02*
Y198300D01*
X138767Y183367D02*
X144600Y189200D01*
X142400D02*
Y202700D01*
X137967Y184767D02*
X142400Y189200D01*
Y202700D02*
X152300Y212600D01*
X122600Y155900D02*
Y164300D01*
X131700Y173400D02*
Y187000D01*
X140800Y196100D01*
X122600Y164300D02*
X131700Y173400D01*
X140800Y196100D02*
Y233100D01*
X143300Y235600D01*
X129900Y188300D02*
X137300Y195700D01*
X129900Y173580D02*
Y188300D01*
X113300Y156980D02*
X129900Y173580D01*
X113300Y124100D02*
Y156980D01*
X109600Y120400D02*
X113300Y124100D01*
X89600Y120400D02*
X109600D01*
X84100Y114900D02*
X89600Y120400D01*
X84100Y103156D02*
Y114900D01*
X79016Y98072D02*
X84100Y103156D01*
X111800Y124580D02*
Y157460D01*
X109020Y121800D02*
X111800Y124580D01*
X87600Y121800D02*
X109020D01*
X79016Y113216D02*
X87600Y121800D01*
X79016Y108072D02*
Y113216D01*
X212200Y126100D02*
X235300D01*
X240300Y131100D01*
X211800Y123100D02*
X214500D01*
X216100Y124700D01*
X113031Y277432D02*
Y278071D01*
X106300Y273200D02*
X108800D01*
X103800Y270700D02*
X106300Y273200D01*
X103800Y251100D02*
Y270700D01*
X100600Y247900D02*
X103800Y251100D01*
X100600Y208400D02*
Y247900D01*
Y208400D02*
X103300Y205700D01*
X108800Y273200D02*
X113031Y277432D01*
X103300Y205700D02*
X122000D01*
X112000Y234100D02*
Y246800D01*
X108600Y230700D02*
X112000Y234100D01*
X108600Y210700D02*
Y230700D01*
Y210700D02*
X110400Y208900D01*
X124400D01*
X127250Y206050D01*
X124300Y199371D02*
X133200Y208271D01*
X111800Y157460D02*
X124300Y169960D01*
X121871Y278071D02*
X123031D01*
X112800Y270800D02*
X114300Y272300D01*
X112000Y246800D02*
X112800Y247600D01*
Y270800D01*
X114300Y272300D02*
X116100D01*
X121871Y278071D01*
X94000Y244700D02*
Y251700D01*
X92700Y253000D02*
X94000Y251700D01*
X92700Y253000D02*
Y264600D01*
X89000Y268300D02*
X92700Y264600D01*
X132200Y272900D02*
X133200Y271900D01*
Y208271D02*
Y271900D01*
X143300Y235600D02*
Y277100D01*
X154100Y229800D02*
Y248100D01*
X153000Y249200D02*
X154100Y248100D01*
X152000Y272900D02*
X153000Y271900D01*
Y249200D02*
Y271900D01*
X143600Y118200D02*
X156100Y130700D01*
X156900Y230780D02*
Y251000D01*
X177816Y247384D02*
Y258071D01*
Y247384D02*
X181400Y243800D01*
Y222300D02*
Y243800D01*
Y222300D02*
X184100Y219600D01*
Y210000D02*
Y219600D01*
X143800Y115100D02*
X157500Y128800D01*
X187816Y254216D02*
Y258071D01*
X186200Y252600D02*
X187816Y254216D01*
X186200Y238600D02*
Y252600D01*
Y238600D02*
X188600Y236200D01*
X195500D01*
X233300Y184300D02*
Y184700D01*
Y184300D02*
X237200Y180400D01*
X256700D01*
X259400Y177700D01*
Y168500D02*
Y177700D01*
X124300Y169960D02*
Y199371D01*
X124400Y91600D02*
X128500Y87500D01*
X137300Y195700D02*
Y200600D01*
X166800Y196700D02*
X167400Y197300D01*
X159200Y235500D02*
X161800Y238100D01*
X155500Y273200D02*
X159400D01*
X161800Y270800D01*
Y238100D02*
Y270800D01*
X167400Y197300D02*
Y234689D01*
X163863Y238226D02*
X167400Y234689D01*
X163863Y238226D02*
Y264118D01*
X167816Y268071D01*
D42*
X214300Y159800D02*
Y168300D01*
X210000Y172600D02*
X214300Y168300D01*
X202700Y172600D02*
X210000D01*
D43*
X218400Y242200D02*
Y242600D01*
X207816Y253184D02*
X218400Y242600D01*
X207816Y253184D02*
Y258071D01*
X243300Y184700D02*
Y184900D01*
X238400Y189800D02*
X243300Y184900D01*
X227900Y192100D02*
Y229000D01*
X232600Y233700D01*
Y247700D01*
X234700Y249800D01*
Y269700D01*
X227900Y192100D02*
X230200Y189800D01*
X238400D01*
X194290Y124090D02*
Y128110D01*
D44*
X233300Y194700D02*
X238300Y199700D01*
Y208500D01*
X239800Y210000D01*
X241200D01*
X243900Y212700D01*
Y222600D01*
X245800Y224500D01*
X247600D01*
X243300Y204700D02*
X249200D01*
X252900Y208400D01*
Y239100D01*
X259174Y245374D01*
X316526D02*
X331400Y230500D01*
Y104400D02*
Y230500D01*
X325740Y98740D02*
X331400Y104400D01*
X322000Y98740D02*
X325740D01*
X259174Y245374D02*
X316526D01*
D45*
X69000Y145500D02*
Y241400D01*
X193100Y252100D02*
Y273200D01*
X203000Y252100D02*
Y273200D01*
X174000Y273100D02*
X183900D01*
X183300Y252000D02*
Y273100D01*
X173300Y251900D02*
Y273000D01*
D46*
X46253Y175653D02*
Y190747D01*
X42050Y171450D02*
X46253Y175653D01*
X39700Y197300D02*
X46253Y190747D01*
X30100Y197300D02*
X39700D01*
X24000Y203400D02*
X30100Y197300D01*
X24000Y203400D02*
Y254500D01*
X26839Y257339D01*
X31417D01*
D47*
X306800Y59200D02*
Y78400D01*
X24800Y59800D02*
Y79000D01*
D52*
X295000Y274240D02*
D03*
X285000D02*
D03*
D53*
X312000Y108740D02*
D03*
X322000D02*
D03*
X312000Y118740D02*
D03*
Y138740D02*
D03*
X322000D02*
D03*
Y128740D02*
D03*
X312000D02*
D03*
X322000Y98740D02*
D03*
X312000D02*
D03*
X322000Y118740D02*
D03*
X87600Y191100D02*
D03*
X250400Y259700D02*
D03*
X267400Y260100D02*
D03*
X49000Y273200D02*
D03*
X31400Y272900D02*
D03*
D54*
X77600Y191100D02*
D03*
D55*
X79100Y98200D02*
D03*
X227816Y268071D02*
D03*
D56*
X79100Y108200D02*
D03*
X89100Y98200D02*
D03*
Y108200D02*
D03*
X99100Y98200D02*
D03*
Y108200D02*
D03*
X109100Y98200D02*
D03*
Y108200D02*
D03*
X119100Y98200D02*
D03*
Y108200D02*
D03*
X129100D02*
D03*
X139100Y98200D02*
D03*
Y108200D02*
D03*
X149100Y98200D02*
D03*
Y108200D02*
D03*
X159100Y98200D02*
D03*
Y108200D02*
D03*
X169100Y98200D02*
D03*
Y108200D02*
D03*
X179100Y98200D02*
D03*
Y108200D02*
D03*
X189100Y98200D02*
D03*
Y108200D02*
D03*
X199100Y98200D02*
D03*
Y108200D02*
D03*
X209100Y98200D02*
D03*
Y108200D02*
D03*
X219100Y98200D02*
D03*
Y108200D02*
D03*
X229100Y98200D02*
D03*
Y108200D02*
D03*
X129100Y98200D02*
D03*
X177816Y268071D02*
D03*
X77816Y258071D02*
D03*
Y268071D02*
D03*
X87816Y258071D02*
D03*
Y268071D02*
D03*
X97816Y258071D02*
D03*
Y268071D02*
D03*
X107816Y258071D02*
D03*
Y268071D02*
D03*
X117816Y258071D02*
D03*
Y268071D02*
D03*
X127816Y258071D02*
D03*
Y268071D02*
D03*
X137816Y258071D02*
D03*
Y268071D02*
D03*
X147816Y258071D02*
D03*
Y268071D02*
D03*
X157816Y258071D02*
D03*
Y268071D02*
D03*
X167816Y258071D02*
D03*
Y268071D02*
D03*
X177816Y258071D02*
D03*
X187816D02*
D03*
Y268071D02*
D03*
X197816Y258071D02*
D03*
Y268071D02*
D03*
X207816Y258071D02*
D03*
Y268071D02*
D03*
X217816Y258071D02*
D03*
Y268071D02*
D03*
X227816Y258071D02*
D03*
X233300Y204700D02*
D03*
X243300D02*
D03*
X233300Y194700D02*
D03*
X243300D02*
D03*
X233300Y184700D02*
D03*
X243300D02*
D03*
X233300Y174700D02*
D03*
X243300D02*
D03*
X233300Y164700D02*
D03*
X243300D02*
D03*
X233300Y154700D02*
D03*
X243300D02*
D03*
X233300Y144700D02*
D03*
D57*
X199016Y88071D02*
D03*
X249016Y278071D02*
D03*
X163031D02*
D03*
X107000Y241874D02*
D03*
X109016Y88071D02*
D03*
D58*
X209016D02*
D03*
X219016D02*
D03*
X229016D02*
D03*
X239016D02*
D03*
X249016D02*
D03*
X179016Y278071D02*
D03*
X239016D02*
D03*
X229016D02*
D03*
X219016D02*
D03*
X209016D02*
D03*
X199016D02*
D03*
X189016D02*
D03*
X41417Y217339D02*
D03*
Y227339D02*
D03*
Y237339D02*
D03*
Y247339D02*
D03*
Y257339D02*
D03*
X31417Y207339D02*
D03*
Y217339D02*
D03*
Y227339D02*
D03*
Y237339D02*
D03*
Y247339D02*
D03*
Y257339D02*
D03*
X153032Y278071D02*
D03*
X143032D02*
D03*
X133031D02*
D03*
X123031D02*
D03*
X113031D02*
D03*
X103032D02*
D03*
X93032D02*
D03*
X83031D02*
D03*
X73032D02*
D03*
X117000Y241874D02*
D03*
X127000D02*
D03*
X286500Y235374D02*
D03*
Y245374D02*
D03*
X31417Y134043D02*
D03*
Y124043D02*
D03*
Y114043D02*
D03*
Y104043D02*
D03*
Y94043D02*
D03*
Y84043D02*
D03*
X41417Y134043D02*
D03*
Y124043D02*
D03*
Y114043D02*
D03*
Y104043D02*
D03*
Y94043D02*
D03*
X179016Y88071D02*
D03*
X119016D02*
D03*
X129016D02*
D03*
X139016D02*
D03*
X149016D02*
D03*
X159016D02*
D03*
X169016D02*
D03*
D59*
X41417Y207339D02*
D03*
X286500Y255374D02*
D03*
X41417Y84043D02*
D03*
D60*
X238000Y240740D02*
D03*
Y225740D02*
D03*
Y235740D02*
D03*
Y230740D02*
D03*
Y220740D02*
D03*
D61*
Y215740D02*
D03*
D62*
X310890Y165825D02*
D03*
X324472D02*
D03*
Y193975D02*
D03*
X310890D02*
D03*
D63*
X316126Y187774D02*
D03*
Y172026D02*
D03*
D64*
X243300Y144700D02*
D03*
D65*
X296100Y11800D02*
D03*
X322835Y275591D02*
D03*
X39370Y11811D02*
D03*
X11811Y275591D02*
D03*
X38598Y55902D02*
D03*
X296000Y55500D02*
D03*
D66*
X281196Y190936D02*
D03*
Y186606D02*
D03*
Y182275D02*
D03*
Y177944D02*
D03*
X276865Y190936D02*
D03*
Y186606D02*
D03*
Y182275D02*
D03*
Y177944D02*
D03*
X272535Y190936D02*
D03*
Y186606D02*
D03*
Y182275D02*
D03*
Y177944D02*
D03*
X268204Y190936D02*
D03*
Y186606D02*
D03*
Y182275D02*
D03*
Y177944D02*
D03*
D67*
X273900Y132800D02*
D03*
X251000Y149600D02*
D03*
X250100Y177400D02*
D03*
X240300Y127300D02*
D03*
X247600Y224500D02*
D03*
X176060Y135540D02*
D03*
X163600Y189200D02*
D03*
X111500Y183300D02*
D03*
X278000Y114700D02*
D03*
X122500Y17500D02*
D03*
X26700Y33200D02*
D03*
X312800Y36000D02*
D03*
X164800Y146200D02*
D03*
X202600Y130200D02*
D03*
X226200Y153000D02*
D03*
X189100Y88500D02*
D03*
X194100Y117800D02*
D03*
X77000Y120900D02*
D03*
X68800Y98800D02*
D03*
X132800Y168900D02*
D03*
X154800Y180700D02*
D03*
X151800Y180600D02*
D03*
X144100Y180900D02*
D03*
X141100Y182300D02*
D03*
X138200Y180400D02*
D03*
Y177400D02*
D03*
Y174400D02*
D03*
X109300Y135100D02*
D03*
X36400Y77000D02*
D03*
X97500Y83300D02*
D03*
X95200Y85700D02*
D03*
X17200Y184400D02*
D03*
X18200Y176600D02*
D03*
X112100Y161800D02*
D03*
X116400Y136100D02*
D03*
X111400Y188500D02*
D03*
X116800Y146400D02*
D03*
X137700Y188000D02*
D03*
X117000Y149700D02*
D03*
X117400Y153700D02*
D03*
X119600Y155900D02*
D03*
X122600D02*
D03*
X125600Y155800D02*
D03*
X128600Y155700D02*
D03*
X132000Y155600D02*
D03*
X135300Y155700D02*
D03*
X138300Y155600D02*
D03*
X141473Y155627D02*
D03*
X144600Y155500D02*
D03*
X149347Y171753D02*
D03*
X157221Y171779D02*
D03*
X141500Y146300D02*
D03*
X150600Y158400D02*
D03*
X159900Y146200D02*
D03*
X166200Y153900D02*
D03*
X136800Y146100D02*
D03*
X152200Y155700D02*
D03*
X145110Y214890D02*
D03*
X151700Y231800D02*
D03*
X149647Y216253D02*
D03*
X60300Y156200D02*
D03*
X262600Y218790D02*
D03*
X312900Y224500D02*
D03*
X315500D02*
D03*
X318200Y224600D02*
D03*
X288300Y212500D02*
D03*
X259900Y182800D02*
D03*
X273716Y169516D02*
D03*
X289900Y182500D02*
D03*
X290100Y145700D02*
D03*
X259100Y186700D02*
D03*
X274800Y166600D02*
D03*
X271747Y199247D02*
D03*
X287800Y134000D02*
D03*
X262050Y199450D02*
D03*
X266100Y200300D02*
D03*
X259400Y168500D02*
D03*
X270200Y201900D02*
D03*
X295700Y218600D02*
D03*
Y191600D02*
D03*
X177400Y157000D02*
D03*
X180490Y124090D02*
D03*
X143300Y141200D02*
D03*
X180000Y178700D02*
D03*
X181800Y163300D02*
D03*
X197942Y187958D02*
D03*
X198022Y177722D02*
D03*
X222700Y171600D02*
D03*
X221400Y180900D02*
D03*
X200400Y218600D02*
D03*
X209600Y217800D02*
D03*
X167244Y185556D02*
D03*
X188200Y196900D02*
D03*
X165200Y200500D02*
D03*
X202700Y172600D02*
D03*
X192300Y218000D02*
D03*
X213400Y236200D02*
D03*
X189600Y250600D02*
D03*
X167200Y193600D02*
D03*
X190100Y242500D02*
D03*
X184100Y210000D02*
D03*
X181300Y249900D02*
D03*
X178700Y236200D02*
D03*
X162058Y215942D02*
D03*
X179100Y218900D02*
D03*
X174300Y216500D02*
D03*
X72100Y269700D02*
D03*
X173300Y251900D02*
D03*
X167700Y237500D02*
D03*
X158000Y200500D02*
D03*
X227200Y235100D02*
D03*
X137500Y200600D02*
D03*
X218300Y174700D02*
D03*
X144600Y198300D02*
D03*
X167200Y179600D02*
D03*
X254300Y111400D02*
D03*
X226900Y122000D02*
D03*
X218800Y120600D02*
D03*
X215600Y120700D02*
D03*
X159800Y156800D02*
D03*
X176100Y245800D02*
D03*
X148500Y201100D02*
D03*
X127250Y206050D02*
D03*
X122000Y205700D02*
D03*
X156700Y251000D02*
D03*
X148100Y190600D02*
D03*
X143600Y118300D02*
D03*
X143800Y115300D02*
D03*
X72200Y79700D02*
D03*
X212200Y126100D02*
D03*
X240300Y131100D02*
D03*
X194290Y124090D02*
D03*
X178490Y153891D02*
D03*
X211800Y123100D02*
D03*
X214300Y159800D02*
D03*
X66300Y100500D02*
D03*
X85200Y134500D02*
D03*
X127000Y222400D02*
D03*
X111224Y225724D02*
D03*
X122800Y219300D02*
D03*
X169600Y210300D02*
D03*
X124265Y199335D02*
D03*
X69000Y145500D02*
D03*
X66400Y129500D02*
D03*
X137800Y230700D02*
D03*
X170960Y241640D02*
D03*
X262900Y162500D02*
D03*
X293334Y163734D02*
D03*
X321700Y246200D02*
D03*
X113500Y117400D02*
D03*
X207400Y144800D02*
D03*
X111600Y196900D02*
D03*
X106500Y187200D02*
D03*
X94200Y191700D02*
D03*
X161100Y195500D02*
D03*
X69000Y241400D02*
D03*
X140100Y242600D02*
D03*
X83300Y254300D02*
D03*
Y244300D02*
D03*
X82200Y233200D02*
D03*
X54600Y231500D02*
D03*
X60700Y232000D02*
D03*
X14400Y244200D02*
D03*
X14100Y231900D02*
D03*
Y214800D02*
D03*
X8500Y175000D02*
D03*
X7800Y167900D02*
D03*
X11900Y132700D02*
D03*
X12100Y119700D02*
D03*
X11900Y105200D02*
D03*
X12600Y92700D02*
D03*
X94000Y244700D02*
D03*
X147700Y243900D02*
D03*
X190600Y230500D02*
D03*
X195500Y236200D02*
D03*
X214900Y239400D02*
D03*
X218400Y242200D02*
D03*
X106800Y157774D02*
D03*
X234700Y269700D02*
D03*
X170600Y272900D02*
D03*
X290400Y187800D02*
D03*
X250009Y171010D02*
D03*
X115344Y211956D02*
D03*
X170100Y162400D02*
D03*
X289000Y201900D02*
D03*
X284600Y203000D02*
D03*
X282200Y200700D02*
D03*
X166800Y196700D02*
D03*
X232800Y122000D02*
D03*
D68*
X84600Y154600D02*
D03*
X74700Y154400D02*
D03*
D69*
X40600Y273900D02*
D03*
D70*
X99100Y79200D02*
D03*
X317500Y251500D02*
D03*
X46253Y184301D02*
D03*
X42050Y171450D02*
D03*
X329200Y257300D02*
D03*
D71*
X54500Y129500D02*
X69400D01*
X286500Y255374D02*
X289926Y258800D01*
X309000D01*
X209016Y278071D02*
Y280616D01*
X212700Y284300D01*
X302200D01*
X309000Y277500D01*
Y258800D02*
Y277500D01*
Y258800D02*
X316300Y251500D01*
X79100Y79500D02*
X98700D01*
X72600Y86000D02*
X79100Y79500D01*
X72600Y86000D02*
Y126300D01*
X69400Y129500D02*
X72600Y126300D01*
X52100Y131900D02*
X54500Y129500D01*
X52100Y131900D02*
Y151600D01*
X42050Y161650D02*
X52100Y151600D01*
X42050Y161650D02*
Y171450D01*
M02*
