M48
;Layer_Color=9474304
;FILE_FORMAT=2:5
INCH,LZ
;TYPE=PLATED
T1F00S00C0.00787
T2F00S00C0.01181
T3F00S00C0.01200
T5F00S00C0.02000
T6F00S00C0.02362
T7F00S00C0.02559
T8F00S00C0.02800
T9F00S00C0.03500
T10F00S00C0.03543
T11F00S00C0.04000
T12F00S00C0.12598
%
T01
X0268204Y0177944
X0272535
X0276865
X0281196
Y0182275
Y0186606
Y0190936
X0276865
Y0186606
Y0182275
X0272535
Y0186606
Y0190936
X0268204
Y0186606
Y0182275
T02
X00846Y01546
X00747Y01544
T03
X00267Y00332
X01225Y00175
X03128Y0036
X0278Y01147
X02739Y01328
X02878Y0134
X02901Y01457
X0293334Y0163734
X02748Y01666
X0273716Y0169516
X02594Y01685
X02629Y01625
X0250009Y017101
X02501Y01774
X02599Y01828
X02591Y01867
X026205Y019945
X02661Y02003
X02702Y02019
X0271747Y0199247
X02822Y02007
X02846Y0203
X0289Y02019
X02883Y02125
X02957Y02186
X03129Y02245
X03155
X03182Y02246
X02957Y01916
X02904Y01878
X02899Y01825
X02626Y021879
X02476Y02245
X0251Y01496
X02403Y01311
Y01273
X02543Y01114
X02328Y0122
X02269
X02188Y01206
X02156Y01207
X02118Y01231
X02122Y01261
X02026Y01302
X019429Y012409
X01941Y01178
X018049Y012409
X017606Y013554
X017849Y0153891
X01774Y0157
X01818Y01633
X01701Y01624
X01662Y01539
X01648Y01462
X01599
X01598Y01568
X01522Y01557
X01506Y01584
X01446Y01555
X0141473Y0155627
X01383Y01556
X01353Y01557
X0132Y01556
X01286Y01557
X01256Y01558
X01226Y01559
X01196
X01174Y01537
X0117Y01497
X01168Y01464
X01164Y01361
X01093Y01351
X01135Y01174
X01436Y01183
X01438Y01153
X01433Y01412
X01415Y01463
X01368Y01461
X01328Y01689
X01382Y01744
Y01774
Y01804
X01411Y01823
X01441Y01809
X01518Y01806
X01548Y01807
X0157221Y0171779
X0149347Y0171753
X01481Y01906
X01485Y02011
X01446Y01983
X01375Y02006
X01377Y0188
X0124265Y0199335
X0122Y02057
X012725Y020605
X0127Y02224
X01228Y02193
X0115344Y0211956
X0111224Y0225724
X01116Y01969
X01114Y01885
X01115Y01833
X01065Y01872
X00942Y01917
X01068Y0157774
X01121Y01618
X00852Y01345
X00952Y00857
X00975Y00833
X01891Y00885
X02074Y01448
X02143Y01598
X02262Y0153
X02227Y01716
X02183Y01747
X02214Y01809
X0198022Y0177722
X02027Y01726
X0197942Y0187958
X01882Y01969
X01841Y021
X01791Y02189
X01743Y02165
X01696Y02103
X0162058Y0215942
X0149647Y0216253
X014511Y021489
X0158Y02005
X01652
X01668Y01967
X01672Y01936
X01636Y01892
X0167244Y0185556
X01672Y01796
X018Y01787
X01611Y01955
X01923Y0218
X02004Y02186
X02096Y02178
X00141Y02148
X00172Y01844
X00182Y01766
X00085Y0175
X00078Y01679
X00119Y01327
X00121Y01197
X00119Y01052
X00126Y00927
X00364Y0077
X00722Y00797
X00688Y00988
X00663Y01005
X00664Y01295
X0069Y01455
X00603Y01562
X0077Y01209
X00822Y02332
X0069Y02414
X00607Y0232
X00546Y02315
X00141Y02319
X00144Y02442
X00721Y02697
X00833Y02543
Y02443
X0094Y02447
X01401Y02426
X01477Y02439
X01517Y02318
X01378Y02307
X01677Y02375
X017096Y024164
X01761Y02458
X01733Y02519
X01813Y02499
X01896Y02506
X01901Y02425
X01955Y02362
X01906Y02305
X01787Y02362
X02134
X02149Y02394
X02184Y02422
X02272Y02351
X02347Y02697
X01706Y02729
X01567Y0251
X03217Y02462
T05
X00991Y00792
X004205Y017145
X0046253Y0184301
X03175Y02515
X03292Y02573
T06
X0238Y021574
Y022074
Y022574
Y023074
Y023574
Y024074
T07
X0285Y027424
X0295
T08
X00406Y02739
T09
X0316126Y0172026
Y0187774
T10
X02433Y01447
Y01547
Y01647
Y01747
Y01847
Y01947
Y02047
X0312Y013874
X0322
Y012874
X0312
Y011874
Y010874
X0322
Y009874
X0312
X0322Y011874
X02291Y01082
X02191
X02091
X01991
X01891
X01791
X01691
X01591
X01491
X01391
X01291
X01191
X01091
X00991
X00891
Y00982
X00991
X01091
X01191
X01291
X01391
X01491
X01591
X01691
X01791
X01891
X01991
X02091
X02191
X02291
X02333Y01447
Y01547
Y01647
Y01747
Y01847
Y01947
Y02047
X00876Y01911
X00776
X00791Y01082
Y00982
X0077816Y0258071
Y0268071
X0049Y02732
X00314Y02729
X0087816Y0268071
Y0258071
X0097816
Y0268071
X0107816
Y0258071
X0117816
Y0268071
X0127816
Y0258071
X0137816
Y0268071
X0147816
Y0258071
X0157816
Y0268071
X0167816
X0177816
Y0258071
X0167816
X0187816
Y0268071
X0197816
Y0258071
X0207816
Y0268071
X0217816
Y0258071
X0227816
Y0268071
X02504Y02597
X02674Y02601
T11
X0249016Y0088071
X0239016
X0229016
X0219016
X0209016
X0199016
X0179016
X0169016
X0159016
X0149016
X0139016
X0129016
X0119016
X0109016
X0041417Y0084043
X0031417
Y0094043
Y0104043
Y0114043
Y0124043
Y0134043
X0041417
Y0124043
Y0114043
Y0104043
Y0094043
Y0207339
Y0217339
Y0227339
X0031417
Y0217339
Y0207339
Y0237339
X0041417
Y0247339
Y0257339
X0031417
Y0247339
X0073032Y0278071
X0083031
X0093032
X0103032
X0113031
X0123031
X0133031
X0143032
X0153032
X0163031
X0179016
X0189016
X0199016
X0209016
X0219016
X0229016
X0239016
X0127Y0241874
X0117
X0107
X0249016Y0278071
X02865Y0255374
Y0245374
Y0235374
T12
X003937Y0011811
X0038598Y0055902
X0296Y00555
X02961Y00118
X0011811Y0275591
X0322835
M30
