G04 Layer_Color=8388736*
%FSLAX25Y25*%
%MOIN*%
G70*
G01*
G75*
%ADD75C,0.00787*%
%ADD88C,0.03150*%
%ADD89R,0.04737X0.05524*%
%ADD90R,0.15761X0.07887*%
%ADD91R,0.11430X0.04737*%
%ADD92R,0.04737X0.11430*%
G04:AMPARAMS|DCode=93|XSize=59.18mil|YSize=43.43mil|CornerRadius=7.54mil|HoleSize=0mil|Usage=FLASHONLY|Rotation=90.000|XOffset=0mil|YOffset=0mil|HoleType=Round|Shape=RoundedRectangle|*
%AMROUNDEDRECTD93*
21,1,0.05918,0.02835,0,0,90.0*
21,1,0.04409,0.04343,0,0,90.0*
1,1,0.01509,0.01417,0.02205*
1,1,0.01509,0.01417,-0.02205*
1,1,0.01509,-0.01417,-0.02205*
1,1,0.01509,-0.01417,0.02205*
%
%ADD93ROUNDEDRECTD93*%
%ADD94R,0.04343X0.04737*%
%ADD95R,0.08674X0.05524*%
%ADD96R,0.10170X0.07257*%
%ADD97R,0.01981X0.03162*%
%ADD98O,0.04343X0.01784*%
%ADD99R,0.18517X0.18517*%
%ADD100O,0.01784X0.04343*%
%ADD101R,0.02769X0.02867*%
%ADD102R,0.02769X0.01784*%
%ADD103R,0.04658X0.04461*%
%ADD104R,0.06706X0.05918*%
%ADD105R,0.10642X0.08674*%
%ADD106O,0.07887X0.01981*%
%ADD107O,0.01981X0.07887*%
%ADD108O,0.07887X0.01981*%
%ADD109R,0.04737X0.04343*%
%ADD110R,0.03162X0.03556*%
%ADD111R,0.04737X0.03556*%
%ADD112R,0.09068X0.01981*%
%ADD113R,0.09068X0.01981*%
%ADD114R,0.04343X0.04737*%
G04:AMPARAMS|DCode=115|XSize=59.18mil|YSize=43.43mil|CornerRadius=7.54mil|HoleSize=0mil|Usage=FLASHONLY|Rotation=0.000|XOffset=0mil|YOffset=0mil|HoleType=Round|Shape=RoundedRectangle|*
%AMROUNDEDRECTD115*
21,1,0.05918,0.02835,0,0,0.0*
21,1,0.04409,0.04343,0,0,0.0*
1,1,0.01509,0.02205,-0.01417*
1,1,0.01509,-0.02205,-0.01417*
1,1,0.01509,-0.02205,0.01417*
1,1,0.01509,0.02205,0.01417*
%
%ADD115ROUNDEDRECTD115*%
G04:AMPARAMS|DCode=116|XSize=59.18mil|YSize=43.43mil|CornerRadius=7.54mil|HoleSize=0mil|Usage=FLASHONLY|Rotation=180.000|XOffset=0mil|YOffset=0mil|HoleType=Round|Shape=RoundedRectangle|*
%AMROUNDEDRECTD116*
21,1,0.05918,0.02835,0,0,180.0*
21,1,0.04409,0.04343,0,0,180.0*
1,1,0.01509,-0.02205,0.01417*
1,1,0.01509,0.02205,0.01417*
1,1,0.01509,0.02205,-0.01417*
1,1,0.01509,-0.02205,-0.01417*
%
%ADD116ROUNDEDRECTD116*%
%ADD117C,0.06312*%
%ADD118C,0.06312*%
%ADD119R,0.06312X0.06312*%
%ADD120R,0.06706X0.06706*%
%ADD121C,0.06706*%
%ADD122R,0.07800X0.07800*%
%ADD123C,0.07800*%
%ADD124R,0.07800X0.07800*%
%ADD125C,0.04737*%
%ADD126R,0.04737X0.04737*%
%ADD127O,0.07099X0.03950*%
%ADD128C,0.04343*%
%ADD129R,0.06706X0.06706*%
%ADD130C,0.16548*%
%ADD131C,0.02769*%
D75*
X101000Y189141D02*
Y194161D01*
X98933Y189141D02*
X102870D01*
X98933Y194259D02*
X102870D01*
X99032Y203259D02*
X102969D01*
X99032Y198141D02*
X102969D01*
X253430Y221941D02*
X257367D01*
X253430Y227059D02*
X257367D01*
X255300Y222039D02*
Y227059D01*
X157141Y136721D02*
Y140658D01*
X162259Y136721D02*
Y140658D01*
X172159Y136721D02*
Y140658D01*
X167041Y136721D02*
Y140658D01*
X147041Y136621D02*
Y140558D01*
X152159Y136621D02*
Y140558D01*
X139759Y136621D02*
Y140558D01*
X134641Y136621D02*
Y140558D01*
D88*
X101000Y199322D02*
Y202078D01*
X158322Y138690D02*
X161078D01*
X168222D02*
X170978D01*
X148222Y138590D02*
X150978D01*
X135822D02*
X138578D01*
D89*
X84794Y171758D02*
D03*
X96605Y144790D02*
D03*
X84794D02*
D03*
X96605Y171758D02*
D03*
X63095Y145016D02*
D03*
X74906Y171984D02*
D03*
X63095D02*
D03*
X74906Y145016D02*
D03*
D90*
X8140Y193703D02*
D03*
Y151577D02*
D03*
D91*
X25660Y184451D02*
D03*
Y176577D02*
D03*
Y168703D02*
D03*
Y160829D02*
D03*
D92*
X196631Y157040D02*
D03*
X187969D02*
D03*
D93*
X98736Y191700D02*
D03*
X103264D02*
D03*
X104150Y200700D02*
D03*
X97850D02*
D03*
X253036Y224500D02*
D03*
X257564D02*
D03*
D94*
X91250Y200300D02*
D03*
X84950D02*
D03*
X90850Y138500D02*
D03*
X97150D02*
D03*
X280550Y205240D02*
D03*
X274250D02*
D03*
X161550Y241640D02*
D03*
X167850D02*
D03*
X280550Y211840D02*
D03*
X274250D02*
D03*
X268350Y205140D02*
D03*
X262050D02*
D03*
X109650Y138500D02*
D03*
X103350D02*
D03*
X230350Y136000D02*
D03*
X236650D02*
D03*
X209650Y158000D02*
D03*
X203350D02*
D03*
X42050Y184274D02*
D03*
X35750D02*
D03*
Y176140D02*
D03*
X42050D02*
D03*
X230350Y130200D02*
D03*
X236650D02*
D03*
X313150Y236540D02*
D03*
X306850D02*
D03*
X313150Y243040D02*
D03*
X306850D02*
D03*
X115350Y188500D02*
D03*
X161450Y234040D02*
D03*
X167750D02*
D03*
X154650Y149890D02*
D03*
X148350D02*
D03*
X135850D02*
D03*
X142150D02*
D03*
X55550Y138240D02*
D03*
X61850D02*
D03*
X295850Y187640D02*
D03*
X302150D02*
D03*
X301850Y168640D02*
D03*
X295550D02*
D03*
X167650Y149890D02*
D03*
X161350D02*
D03*
D95*
X192500Y177722D02*
D03*
Y187958D02*
D03*
D96*
X315500Y225540D02*
D03*
D97*
X311661Y220028D02*
D03*
X314220D02*
D03*
X316779D02*
D03*
X319339D02*
D03*
X311661Y231052D02*
D03*
X314220D02*
D03*
X316779D02*
D03*
X319339D02*
D03*
D98*
X286019Y187393D02*
D03*
Y193298D02*
D03*
X263381Y175582D02*
D03*
Y177550D02*
D03*
Y179519D02*
D03*
Y181487D02*
D03*
Y183456D02*
D03*
Y185424D02*
D03*
Y187393D02*
D03*
Y189361D02*
D03*
Y191330D02*
D03*
Y193298D02*
D03*
X286019Y191330D02*
D03*
Y189361D02*
D03*
Y185424D02*
D03*
Y183456D02*
D03*
Y181487D02*
D03*
Y179519D02*
D03*
Y177550D02*
D03*
Y175582D02*
D03*
D99*
X274700Y184440D02*
D03*
D100*
X265842Y195759D02*
D03*
X267810D02*
D03*
X269779D02*
D03*
X271747D02*
D03*
X273716D02*
D03*
X275684D02*
D03*
X277653D02*
D03*
X279621D02*
D03*
X281590D02*
D03*
X283558D02*
D03*
Y173121D02*
D03*
X281590D02*
D03*
X279621D02*
D03*
X277653D02*
D03*
X275684D02*
D03*
X273716D02*
D03*
X271747D02*
D03*
X269779D02*
D03*
X267810D02*
D03*
X265842D02*
D03*
D101*
X285772Y156746D02*
D03*
Y163734D02*
D03*
X282228D02*
D03*
Y156746D02*
D03*
D102*
Y159256D02*
D03*
Y161224D02*
D03*
X285772Y159256D02*
D03*
Y161224D02*
D03*
D103*
X293600Y98405D02*
D03*
Y92343D02*
D03*
X121000Y125906D02*
D03*
Y119843D02*
D03*
X129000D02*
D03*
Y125906D02*
D03*
X286100Y98405D02*
D03*
Y92343D02*
D03*
D104*
X307020Y251500D02*
D03*
X321980D02*
D03*
D105*
X202300Y198657D02*
D03*
Y213224D02*
D03*
D106*
X174150Y191461D02*
D03*
X130450Y193430D02*
D03*
Y171776D02*
D03*
Y173745D02*
D03*
Y175713D02*
D03*
Y177682D02*
D03*
Y179650D02*
D03*
Y181619D02*
D03*
Y183587D02*
D03*
Y185556D02*
D03*
Y187524D02*
D03*
Y191461D02*
D03*
Y195398D02*
D03*
Y197367D02*
D03*
Y199335D02*
D03*
Y201304D02*
D03*
X174150D02*
D03*
Y199335D02*
D03*
Y197367D02*
D03*
Y195398D02*
D03*
Y193430D02*
D03*
Y189493D02*
D03*
Y187524D02*
D03*
Y185556D02*
D03*
Y183587D02*
D03*
Y181619D02*
D03*
Y179650D02*
D03*
Y177682D02*
D03*
Y175713D02*
D03*
Y173745D02*
D03*
Y171776D02*
D03*
D107*
X167064Y164690D02*
D03*
X165095D02*
D03*
X163127D02*
D03*
X161158D02*
D03*
X159190D02*
D03*
X157221D02*
D03*
X155253D02*
D03*
X153284D02*
D03*
X151316D02*
D03*
X149347D02*
D03*
X147379D02*
D03*
X145410D02*
D03*
X143442D02*
D03*
X141473D02*
D03*
X139505D02*
D03*
X137536D02*
D03*
Y208390D02*
D03*
X139505D02*
D03*
X141473D02*
D03*
X143442D02*
D03*
X145410D02*
D03*
X147379D02*
D03*
X149347D02*
D03*
X151316D02*
D03*
X153284D02*
D03*
X155253D02*
D03*
X157221D02*
D03*
X159190D02*
D03*
X161158D02*
D03*
X163127D02*
D03*
X165095D02*
D03*
X167064D02*
D03*
D108*
X130450Y189493D02*
D03*
D109*
X285500Y116224D02*
D03*
Y122524D02*
D03*
X53000Y149850D02*
D03*
Y156150D02*
D03*
X127000Y232150D02*
D03*
Y225850D02*
D03*
X267700Y212491D02*
D03*
Y218790D02*
D03*
X254700Y189990D02*
D03*
Y196290D02*
D03*
Y164990D02*
D03*
Y171290D02*
D03*
X194500Y247990D02*
D03*
Y241690D02*
D03*
X201000Y247990D02*
D03*
Y241690D02*
D03*
X317500Y204890D02*
D03*
Y211190D02*
D03*
X323700Y211190D02*
D03*
Y204890D02*
D03*
X293500Y122524D02*
D03*
Y116224D02*
D03*
X128500Y136224D02*
D03*
Y142524D02*
D03*
X121500Y136224D02*
D03*
Y142524D02*
D03*
X144100Y226990D02*
D03*
Y220690D02*
D03*
X137800Y226990D02*
D03*
Y220690D02*
D03*
X116500Y225724D02*
D03*
Y232024D02*
D03*
X184200Y124090D02*
D03*
Y117790D02*
D03*
X167900Y220690D02*
D03*
Y226990D02*
D03*
X161400Y220690D02*
D03*
Y226990D02*
D03*
X326000Y229890D02*
D03*
Y236190D02*
D03*
X189800Y124150D02*
D03*
Y117850D02*
D03*
X192300Y202590D02*
D03*
Y196291D02*
D03*
Y208591D02*
D03*
Y214890D02*
D03*
X184000Y179990D02*
D03*
Y173690D02*
D03*
Y185890D02*
D03*
Y192190D02*
D03*
X319500Y236790D02*
D03*
Y243090D02*
D03*
X299000Y220890D02*
D03*
Y227190D02*
D03*
X305500Y220890D02*
D03*
Y227190D02*
D03*
X150400Y226990D02*
D03*
Y220690D02*
D03*
X36400Y161490D02*
D03*
Y167790D02*
D03*
X181800Y160190D02*
D03*
Y153891D02*
D03*
X53000Y255524D02*
D03*
Y249224D02*
D03*
X267500Y163390D02*
D03*
Y157090D02*
D03*
X274500Y163390D02*
D03*
Y157090D02*
D03*
X254700Y183790D02*
D03*
Y177490D02*
D03*
X174300Y226990D02*
D03*
Y220690D02*
D03*
D110*
X294860Y174703D02*
D03*
X302340D02*
D03*
X294860Y182577D02*
D03*
D111*
X301553D02*
D03*
D112*
X311008Y179900D02*
D03*
Y177341D02*
D03*
Y185018D02*
D03*
Y174782D02*
D03*
D113*
Y182459D02*
D03*
D114*
X121650Y188500D02*
D03*
D115*
X159700Y141839D02*
D03*
X169600D02*
D03*
X149600Y141739D02*
D03*
Y135440D02*
D03*
X137200D02*
D03*
Y141739D02*
D03*
D116*
X159700Y135540D02*
D03*
X169600D02*
D03*
D117*
X295000Y274240D02*
D03*
X285000D02*
D03*
D118*
X312000Y108740D02*
D03*
X322000D02*
D03*
X312000Y118740D02*
D03*
Y138740D02*
D03*
X322000D02*
D03*
Y128740D02*
D03*
X312000D02*
D03*
X322000Y98740D02*
D03*
X312000D02*
D03*
X322000Y118740D02*
D03*
X87600Y191100D02*
D03*
X250400Y259700D02*
D03*
X267400Y260100D02*
D03*
X49000Y273200D02*
D03*
X31400Y272900D02*
D03*
D119*
X77600Y191100D02*
D03*
D120*
X79100Y98200D02*
D03*
X227816Y268071D02*
D03*
D121*
X79100Y108200D02*
D03*
X89100Y98200D02*
D03*
Y108200D02*
D03*
X99100Y98200D02*
D03*
Y108200D02*
D03*
X109100Y98200D02*
D03*
Y108200D02*
D03*
X119100Y98200D02*
D03*
Y108200D02*
D03*
X129100D02*
D03*
X139100Y98200D02*
D03*
Y108200D02*
D03*
X149100Y98200D02*
D03*
Y108200D02*
D03*
X159100Y98200D02*
D03*
Y108200D02*
D03*
X169100Y98200D02*
D03*
Y108200D02*
D03*
X179100Y98200D02*
D03*
Y108200D02*
D03*
X189100Y98200D02*
D03*
Y108200D02*
D03*
X199100Y98200D02*
D03*
Y108200D02*
D03*
X209100Y98200D02*
D03*
Y108200D02*
D03*
X219100Y98200D02*
D03*
Y108200D02*
D03*
X229100Y98200D02*
D03*
Y108200D02*
D03*
X129100Y98200D02*
D03*
X177816Y268071D02*
D03*
X77816Y258071D02*
D03*
Y268071D02*
D03*
X87816Y258071D02*
D03*
Y268071D02*
D03*
X97816Y258071D02*
D03*
Y268071D02*
D03*
X107816Y258071D02*
D03*
Y268071D02*
D03*
X117816Y258071D02*
D03*
Y268071D02*
D03*
X127816Y258071D02*
D03*
Y268071D02*
D03*
X137816Y258071D02*
D03*
Y268071D02*
D03*
X147816Y258071D02*
D03*
Y268071D02*
D03*
X157816Y258071D02*
D03*
Y268071D02*
D03*
X167816Y258071D02*
D03*
Y268071D02*
D03*
X177816Y258071D02*
D03*
X187816D02*
D03*
Y268071D02*
D03*
X197816Y258071D02*
D03*
Y268071D02*
D03*
X207816Y258071D02*
D03*
Y268071D02*
D03*
X217816Y258071D02*
D03*
Y268071D02*
D03*
X227816Y258071D02*
D03*
X233300Y204700D02*
D03*
X243300D02*
D03*
X233300Y194700D02*
D03*
X243300D02*
D03*
X233300Y184700D02*
D03*
X243300D02*
D03*
X233300Y174700D02*
D03*
X243300D02*
D03*
X233300Y164700D02*
D03*
X243300D02*
D03*
X233300Y154700D02*
D03*
X243300D02*
D03*
X233300Y144700D02*
D03*
D122*
X199016Y88071D02*
D03*
X249016Y278071D02*
D03*
X163031D02*
D03*
X107000Y241874D02*
D03*
X109016Y88071D02*
D03*
D123*
X209016D02*
D03*
X219016D02*
D03*
X229016D02*
D03*
X239016D02*
D03*
X249016D02*
D03*
X179016Y278071D02*
D03*
X239016D02*
D03*
X229016D02*
D03*
X219016D02*
D03*
X209016D02*
D03*
X199016D02*
D03*
X189016D02*
D03*
X41417Y217339D02*
D03*
Y227339D02*
D03*
Y237339D02*
D03*
Y247339D02*
D03*
Y257339D02*
D03*
X31417Y207339D02*
D03*
Y217339D02*
D03*
Y227339D02*
D03*
Y237339D02*
D03*
Y247339D02*
D03*
Y257339D02*
D03*
X153032Y278071D02*
D03*
X143032D02*
D03*
X133031D02*
D03*
X123031D02*
D03*
X113031D02*
D03*
X103032D02*
D03*
X93032D02*
D03*
X83031D02*
D03*
X73032D02*
D03*
X117000Y241874D02*
D03*
X127000D02*
D03*
X286500Y235374D02*
D03*
Y245374D02*
D03*
X31417Y134043D02*
D03*
Y124043D02*
D03*
Y114043D02*
D03*
Y104043D02*
D03*
Y94043D02*
D03*
Y84043D02*
D03*
X41417Y134043D02*
D03*
Y124043D02*
D03*
Y114043D02*
D03*
Y104043D02*
D03*
Y94043D02*
D03*
X179016Y88071D02*
D03*
X119016D02*
D03*
X129016D02*
D03*
X139016D02*
D03*
X149016D02*
D03*
X159016D02*
D03*
X169016D02*
D03*
D124*
X41417Y207339D02*
D03*
X286500Y255374D02*
D03*
X41417Y84043D02*
D03*
D125*
X238000Y240740D02*
D03*
Y225740D02*
D03*
Y235740D02*
D03*
Y230740D02*
D03*
Y220740D02*
D03*
D126*
Y215740D02*
D03*
D127*
X310890Y165825D02*
D03*
X324472D02*
D03*
Y193975D02*
D03*
X310890D02*
D03*
D128*
X316126Y187774D02*
D03*
Y172026D02*
D03*
D129*
X243300Y144700D02*
D03*
D130*
X322835Y275591D02*
D03*
X11811D02*
D03*
D131*
X281196Y190936D02*
D03*
Y186606D02*
D03*
Y182275D02*
D03*
Y177944D02*
D03*
X276865Y190936D02*
D03*
Y186606D02*
D03*
Y182275D02*
D03*
Y177944D02*
D03*
X272535Y190936D02*
D03*
Y186606D02*
D03*
Y182275D02*
D03*
Y177944D02*
D03*
X268204Y190936D02*
D03*
Y186606D02*
D03*
Y182275D02*
D03*
Y177944D02*
D03*
M02*
