G04 Layer_Color=2752767*
%FSLAX25Y25*%
%MOIN*%
G70*
G01*
G75*
%ADD10C,0.00500*%
%ADD11C,0.00667*%
%ADD12C,0.00400*%
D10*
X293000Y272240D02*
Y276240D01*
X297000D01*
Y272240D01*
X293000D01*
X283000D02*
Y276240D01*
X287000D01*
Y272240D01*
X283000D01*
X199016Y86071D02*
X197016Y90071D01*
X201016D01*
X199016Y86071D01*
X209016D02*
X207016Y90071D01*
X211016D01*
X209016Y86071D01*
X219016D02*
X217016Y90071D01*
X221016D01*
X219016Y86071D01*
X229016D02*
X227016Y90071D01*
X231016D01*
X229016Y86071D01*
X239016D02*
X237016Y90071D01*
X241016D01*
X239016Y86071D01*
X249016D02*
X247016Y90071D01*
X251016D01*
X249016Y86071D01*
X179016Y276071D02*
X177016Y280071D01*
X181016D01*
X179016Y276071D01*
X249016D02*
X247016Y280071D01*
X251016D01*
X249016Y276071D01*
X239016D02*
X237016Y280071D01*
X241016D01*
X239016Y276071D01*
X229016D02*
X227016Y280071D01*
X231016D01*
X229016Y276071D01*
X219016D02*
X217016Y280071D01*
X221016D01*
X219016Y276071D01*
X209016D02*
X207016Y280071D01*
X211016D01*
X209016Y276071D01*
X199016D02*
X197016Y280071D01*
X201016D01*
X199016Y276071D01*
X189016D02*
X187016Y280071D01*
X191016D01*
X189016Y276071D01*
X41417Y205339D02*
X39417Y209339D01*
X43417D01*
X41417Y205339D01*
Y215339D02*
X39417Y219339D01*
X43417D01*
X41417Y215339D01*
Y225339D02*
X39417Y229339D01*
X43417D01*
X41417Y225339D01*
Y235339D02*
X39417Y239339D01*
X43417D01*
X41417Y235339D01*
Y245339D02*
X39417Y249339D01*
X43417D01*
X41417Y245339D01*
Y255339D02*
X39417Y259339D01*
X43417D01*
X41417Y255339D01*
X31417Y205339D02*
X29417Y209339D01*
X33417D01*
X31417Y205339D01*
Y215339D02*
X29417Y219339D01*
X33417D01*
X31417Y215339D01*
Y225339D02*
X29417Y229339D01*
X33417D01*
X31417Y225339D01*
Y235339D02*
X29417Y239339D01*
X33417D01*
X31417Y235339D01*
Y245339D02*
X29417Y249339D01*
X33417D01*
X31417Y245339D01*
Y255339D02*
X29417Y259339D01*
X33417D01*
X31417Y255339D01*
X238000Y238740D02*
X239000Y239740D01*
X240000D01*
X239000Y240740D01*
X240000Y241740D01*
X239000D01*
X238000Y242740D01*
X237000Y241740D01*
X236000D01*
X237000Y240740D01*
X236000Y239740D01*
X237000D01*
X238000Y238740D01*
Y223740D02*
X239000Y224740D01*
X240000D01*
X239000Y225740D01*
X240000Y226740D01*
X239000D01*
X238000Y227740D01*
X237000Y226740D01*
X236000D01*
X237000Y225740D01*
X236000Y224740D01*
X237000D01*
X238000Y223740D01*
Y233740D02*
X239000Y234740D01*
X240000D01*
X239000Y235740D01*
X240000Y236740D01*
X239000D01*
X238000Y237740D01*
X237000Y236740D01*
X236000D01*
X237000Y235740D01*
X236000Y234740D01*
X237000D01*
X238000Y233740D01*
Y228740D02*
X239000Y229740D01*
X240000D01*
X239000Y230740D01*
X240000Y231740D01*
X239000D01*
X238000Y232740D01*
X237000Y231740D01*
X236000D01*
X237000Y230740D01*
X236000Y229740D01*
X237000D01*
X238000Y228740D01*
Y213740D02*
X239000Y214740D01*
X240000D01*
X239000Y215740D01*
X240000Y216740D01*
X239000D01*
X238000Y217740D01*
X237000Y216740D01*
X236000D01*
X237000Y215740D01*
X236000Y214740D01*
X237000D01*
X238000Y213740D01*
Y218740D02*
X239000Y219740D01*
X240000D01*
X239000Y220740D01*
X240000Y221740D01*
X239000D01*
X238000Y222740D01*
X237000Y221740D01*
X236000D01*
X237000Y220740D01*
X236000Y219740D01*
X237000D01*
X238000Y218740D01*
X163031Y276071D02*
X161031Y280071D01*
X165032D01*
X163031Y276071D01*
X153032D02*
X151031Y280071D01*
X155032D01*
X153032Y276071D01*
X143032D02*
X141032Y280071D01*
X145031D01*
X143032Y276071D01*
X133031D02*
X131032Y280071D01*
X135031D01*
X133031Y276071D01*
X123031D02*
X121031Y280071D01*
X125031D01*
X123031Y276071D01*
X113031D02*
X111031Y280071D01*
X115032D01*
X113031Y276071D01*
X103032D02*
X101031Y280071D01*
X105032D01*
X103032Y276071D01*
X93032D02*
X91031Y280071D01*
X95031D01*
X93032Y276071D01*
X83031D02*
X81032Y280071D01*
X85031D01*
X83031Y276071D01*
X73032D02*
X71031Y280071D01*
X75032D01*
X73032Y276071D01*
X117000Y239874D02*
X115000Y243874D01*
X119000D01*
X117000Y239874D01*
X127000D02*
X125000Y243874D01*
X129000D01*
X127000Y239874D01*
X107000D02*
X105000Y243874D01*
X109000D01*
X107000Y239874D01*
X308890Y163825D02*
X309890Y165825D01*
X308890Y167825D01*
X310890Y166825D01*
X312890Y167825D01*
X311890Y165825D01*
X312890Y163825D01*
X310890Y164825D01*
X308890Y163825D01*
X322472D02*
X323472Y165825D01*
X322472Y167825D01*
X324472Y166825D01*
X326472Y167825D01*
X325472Y165825D01*
X326472Y163825D01*
X324472Y164825D01*
X322472Y163825D01*
Y191975D02*
X323472Y193975D01*
X322472Y195975D01*
X324472Y194975D01*
X326472Y195975D01*
X325472Y193975D01*
X326472Y191975D01*
X324472Y192975D01*
X322472Y191975D01*
X315126Y186774D02*
Y185774D01*
X317126D01*
Y186774D01*
X318126D01*
Y188774D01*
X317126D01*
Y189774D01*
X315126D01*
Y188774D01*
X314126D01*
Y186774D01*
X315126D01*
Y171026D02*
Y170026D01*
X317126D01*
Y171026D01*
X318126D01*
Y173026D01*
X317126D01*
Y174026D01*
X315126D01*
Y173026D01*
X314126D01*
Y171026D01*
X315126D01*
X308890Y191975D02*
X309890Y193975D01*
X308890Y195975D01*
X310890Y194975D01*
X312890Y195975D01*
X311890Y193975D01*
X312890Y191975D01*
X310890Y192975D01*
X308890Y191975D01*
X294100Y9800D02*
X295100D01*
X296100Y10800D01*
X297100Y9800D01*
X298100D01*
Y10800D01*
X297100Y11800D01*
X298100Y12800D01*
Y13800D01*
X297100D01*
X296100Y12800D01*
X295100Y13800D01*
X294100D01*
Y12800D01*
X295100Y11800D01*
X294100Y10800D01*
Y9800D01*
X320835Y273591D02*
X321835D01*
X322835Y274591D01*
X323835Y273591D01*
X324835D01*
Y274591D01*
X323835Y275591D01*
X324835Y276591D01*
Y277591D01*
X323835D01*
X322835Y276591D01*
X321835Y277591D01*
X320835D01*
Y276591D01*
X321835Y275591D01*
X320835Y274591D01*
Y273591D01*
X37370Y9811D02*
X38370D01*
X39370Y10811D01*
X40370Y9811D01*
X41370D01*
Y10811D01*
X40370Y11811D01*
X41370Y12811D01*
Y13811D01*
X40370D01*
X39370Y12811D01*
X38370Y13811D01*
X37370D01*
Y12811D01*
X38370Y11811D01*
X37370Y10811D01*
Y9811D01*
X9811Y273591D02*
X10811D01*
X11811Y274591D01*
X12811Y273591D01*
X13811D01*
Y274591D01*
X12811Y275591D01*
X13811Y276591D01*
Y277591D01*
X12811D01*
X11811Y276591D01*
X10811Y277591D01*
X9811D01*
Y276591D01*
X10811Y275591D01*
X9811Y274591D01*
Y273591D01*
X36598Y53902D02*
X37598D01*
X38598Y54902D01*
X39598Y53902D01*
X40598D01*
Y54902D01*
X39598Y55902D01*
X40598Y56902D01*
Y57902D01*
X39598D01*
X38598Y56902D01*
X37598Y57902D01*
X36598D01*
Y56902D01*
X37598Y55902D01*
X36598Y54902D01*
Y53902D01*
X294000Y53500D02*
X295000D01*
X296000Y54500D01*
X297000Y53500D01*
X298000D01*
Y54500D01*
X297000Y55500D01*
X298000Y56500D01*
Y57500D01*
X297000D01*
X296000Y56500D01*
X295000Y57500D01*
X294000D01*
Y56500D01*
X295000Y55500D01*
X294000Y54500D01*
Y53500D01*
X286500Y253374D02*
X284500Y257374D01*
X288500D01*
X286500Y253374D01*
Y233374D02*
X284500Y237374D01*
X288500D01*
X286500Y233374D01*
Y243374D02*
X284500Y247374D01*
X288500D01*
X286500Y243374D01*
X31417Y132043D02*
X29417Y136043D01*
X33417D01*
X31417Y132043D01*
Y122043D02*
X29417Y126043D01*
X33417D01*
X31417Y122043D01*
Y112043D02*
X29417Y116043D01*
X33417D01*
X31417Y112043D01*
Y102043D02*
X29417Y106043D01*
X33417D01*
X31417Y102043D01*
Y92043D02*
X29417Y96043D01*
X33417D01*
X31417Y92043D01*
Y82043D02*
X29417Y86043D01*
X33417D01*
X31417Y82043D01*
X41417Y132043D02*
X39417Y136043D01*
X43417D01*
X41417Y132043D01*
Y122043D02*
X39417Y126043D01*
X43417D01*
X41417Y122043D01*
Y112043D02*
X39417Y116043D01*
X43417D01*
X41417Y112043D01*
Y102043D02*
X39417Y106043D01*
X43417D01*
X41417Y102043D01*
Y92043D02*
X39417Y96043D01*
X43417D01*
X41417Y92043D01*
Y82043D02*
X39417Y86043D01*
X43417D01*
X41417Y82043D01*
X179016Y86071D02*
X177016Y90071D01*
X181016D01*
X179016Y86071D01*
X109016D02*
X107016Y90071D01*
X111016D01*
X109016Y86071D01*
X119016D02*
X117016Y90071D01*
X121016D01*
X119016Y86071D01*
X129016D02*
X127016Y90071D01*
X131016D01*
X129016Y86071D01*
X139016D02*
X137016Y90071D01*
X141016D01*
X139016Y86071D01*
X149016D02*
X147016Y90071D01*
X151016D01*
X149016Y86071D01*
X159016D02*
X157016Y90071D01*
X161016D01*
X159016Y86071D01*
X169016D02*
X167016Y90071D01*
X171016D01*
X169016Y86071D01*
X279196Y190936D02*
X281196Y192936D01*
X283196Y190936D01*
X281196Y188936D01*
X279196Y190936D01*
Y186606D02*
X281196Y188605D01*
X283196Y186606D01*
X281196Y184606D01*
X279196Y186606D01*
Y182275D02*
X281196Y184275D01*
X283196Y182275D01*
X281196Y180275D01*
X279196Y182275D01*
Y177944D02*
X281196Y179944D01*
X283196Y177944D01*
X281196Y175944D01*
X279196Y177944D01*
X274865Y190936D02*
X276865Y192936D01*
X278865Y190936D01*
X276865Y188936D01*
X274865Y190936D01*
Y186606D02*
X276865Y188605D01*
X278865Y186606D01*
X276865Y184606D01*
X274865Y186606D01*
Y182275D02*
X276865Y184275D01*
X278865Y182275D01*
X276865Y180275D01*
X274865Y182275D01*
Y177944D02*
X276865Y179944D01*
X278865Y177944D01*
X276865Y175944D01*
X274865Y177944D01*
X270535Y190936D02*
X272535Y192936D01*
X274535Y190936D01*
X272535Y188936D01*
X270535Y190936D01*
Y186606D02*
X272535Y188605D01*
X274535Y186606D01*
X272535Y184606D01*
X270535Y186606D01*
Y182275D02*
X272535Y184275D01*
X274535Y182275D01*
X272535Y180275D01*
X270535Y182275D01*
Y177944D02*
X272535Y179944D01*
X274535Y177944D01*
X272535Y175944D01*
X270535Y177944D01*
X266204Y190936D02*
X268204Y192936D01*
X270204Y190936D01*
X268204Y188936D01*
X266204Y190936D01*
Y186606D02*
X268204Y188605D01*
X270204Y186606D01*
X268204Y184606D01*
X266204Y186606D01*
Y182275D02*
X268204Y184275D01*
X270204Y182275D01*
X268204Y180275D01*
X266204Y182275D01*
Y177944D02*
X268204Y179944D01*
X270204Y177944D01*
X268204Y175944D01*
X266204Y177944D01*
X271900Y130800D02*
Y134800D01*
X275900D01*
Y130800D01*
X271900D01*
X272700Y131600D02*
Y134000D01*
X275100D01*
Y131600D01*
X272700D01*
X249000Y147600D02*
Y151600D01*
X253000D01*
Y147600D01*
X249000D01*
X249800Y148400D02*
Y150800D01*
X252200D01*
Y148400D01*
X249800D01*
X248100Y175400D02*
Y179400D01*
X252100D01*
Y175400D01*
X248100D01*
X248900Y176200D02*
Y178600D01*
X251300D01*
Y176200D01*
X248900D01*
X238300Y125300D02*
Y129300D01*
X242300D01*
Y125300D01*
X238300D01*
X239100Y126100D02*
Y128500D01*
X241500D01*
Y126100D01*
X239100D01*
X245600Y222500D02*
Y226500D01*
X249600D01*
Y222500D01*
X245600D01*
X246400Y223300D02*
Y225700D01*
X248800D01*
Y223300D01*
X246400D01*
X40600Y271900D02*
X38600Y275900D01*
X42600D01*
X40600Y271900D01*
Y272700D02*
X39400Y275100D01*
X41800D01*
X40600Y272700D01*
X174060Y133540D02*
Y137540D01*
X178060D01*
Y133540D01*
X174060D01*
X174860Y134340D02*
Y136740D01*
X177260D01*
Y134340D01*
X174860D01*
X161600Y187200D02*
Y191200D01*
X165600D01*
Y187200D01*
X161600D01*
X162400Y188000D02*
Y190400D01*
X164800D01*
Y188000D01*
X162400D01*
X109500Y181300D02*
Y185300D01*
X113500D01*
Y181300D01*
X109500D01*
X110300Y182100D02*
Y184500D01*
X112700D01*
Y182100D01*
X110300D01*
X276000Y112700D02*
Y116700D01*
X280000D01*
Y112700D01*
X276000D01*
X276800Y113500D02*
Y115900D01*
X279200D01*
Y113500D01*
X276800D01*
X120500Y15500D02*
Y19500D01*
X124500D01*
Y15500D01*
X120500D01*
X121300Y16300D02*
Y18700D01*
X123700D01*
Y16300D01*
X121300D01*
X24700Y31200D02*
Y35200D01*
X28700D01*
Y31200D01*
X24700D01*
X25500Y32000D02*
Y34400D01*
X27900D01*
Y32000D01*
X25500D01*
X310800Y34000D02*
Y38000D01*
X314800D01*
Y34000D01*
X310800D01*
X311600Y34800D02*
Y37200D01*
X314000D01*
Y34800D01*
X311600D01*
X162800Y144200D02*
Y148200D01*
X166800D01*
Y144200D01*
X162800D01*
X163600Y145000D02*
Y147400D01*
X166000D01*
Y145000D01*
X163600D01*
X200600Y128200D02*
Y132200D01*
X204600D01*
Y128200D01*
X200600D01*
X201400Y129000D02*
Y131400D01*
X203800D01*
Y129000D01*
X201400D01*
X224200Y151000D02*
Y155000D01*
X228200D01*
Y151000D01*
X224200D01*
X225000Y151800D02*
Y154200D01*
X227400D01*
Y151800D01*
X225000D01*
X187100Y86500D02*
Y90500D01*
X191100D01*
Y86500D01*
X187100D01*
X187900Y87300D02*
Y89700D01*
X190300D01*
Y87300D01*
X187900D01*
X192100Y115800D02*
Y119800D01*
X196100D01*
Y115800D01*
X192100D01*
X192900Y116600D02*
Y119000D01*
X195300D01*
Y116600D01*
X192900D01*
X75000Y118900D02*
Y122900D01*
X79000D01*
Y118900D01*
X75000D01*
X75800Y119700D02*
Y122100D01*
X78200D01*
Y119700D01*
X75800D01*
X66800Y96800D02*
Y100800D01*
X70800D01*
Y96800D01*
X66800D01*
X67600Y97600D02*
Y100000D01*
X70000D01*
Y97600D01*
X67600D01*
X130800Y166900D02*
Y170900D01*
X134800D01*
Y166900D01*
X130800D01*
X131600Y167700D02*
Y170100D01*
X134000D01*
Y167700D01*
X131600D01*
X152800Y178700D02*
Y182700D01*
X156800D01*
Y178700D01*
X152800D01*
X153600Y179500D02*
Y181900D01*
X156000D01*
Y179500D01*
X153600D01*
X149800Y178600D02*
Y182600D01*
X153800D01*
Y178600D01*
X149800D01*
X150600Y179400D02*
Y181800D01*
X153000D01*
Y179400D01*
X150600D01*
X142100Y178900D02*
Y182900D01*
X146100D01*
Y178900D01*
X142100D01*
X142900Y179700D02*
Y182100D01*
X145300D01*
Y179700D01*
X142900D01*
X139100Y180300D02*
Y184300D01*
X143100D01*
Y180300D01*
X139100D01*
X139900Y181100D02*
Y183500D01*
X142300D01*
Y181100D01*
X139900D01*
X136200Y178400D02*
Y182400D01*
X140200D01*
Y178400D01*
X136200D01*
X137000Y179200D02*
Y181600D01*
X139400D01*
Y179200D01*
X137000D01*
X136200Y175400D02*
Y179400D01*
X140200D01*
Y175400D01*
X136200D01*
X137000Y176200D02*
Y178600D01*
X139400D01*
Y176200D01*
X137000D01*
X136200Y172400D02*
Y176400D01*
X140200D01*
Y172400D01*
X136200D01*
X137000Y173200D02*
Y175600D01*
X139400D01*
Y173200D01*
X137000D01*
X107300Y133100D02*
Y137100D01*
X111300D01*
Y133100D01*
X107300D01*
X108100Y133900D02*
Y136300D01*
X110500D01*
Y133900D01*
X108100D01*
X34400Y75000D02*
Y79000D01*
X38400D01*
Y75000D01*
X34400D01*
X35200Y75800D02*
Y78200D01*
X37600D01*
Y75800D01*
X35200D01*
X99100Y77200D02*
X100100Y78200D01*
X101100D01*
X100100Y79200D01*
X101100Y80200D01*
X100100D01*
X99100Y81200D01*
X98100Y80200D01*
X97100D01*
X98100Y79200D01*
X97100Y78200D01*
X98100D01*
X99100Y77200D01*
Y78000D02*
X99700Y78600D01*
X100300D01*
X99700Y79200D01*
X100300Y79800D01*
X99700D01*
X99100Y80400D01*
X98500Y79800D01*
X97900D01*
X98500Y79200D01*
X97900Y78600D01*
X98500D01*
X99100Y78000D01*
X95500Y81300D02*
Y85300D01*
X99500D01*
Y81300D01*
X95500D01*
X96300Y82100D02*
Y84500D01*
X98700D01*
Y82100D01*
X96300D01*
X93200Y83700D02*
Y87700D01*
X97200D01*
Y83700D01*
X93200D01*
X94000Y84500D02*
Y86900D01*
X96400D01*
Y84500D01*
X94000D01*
X15200Y182400D02*
Y186400D01*
X19200D01*
Y182400D01*
X15200D01*
X16000Y183200D02*
Y185600D01*
X18400D01*
Y183200D01*
X16000D01*
X16200Y174600D02*
Y178600D01*
X20200D01*
Y174600D01*
X16200D01*
X17000Y175400D02*
Y177800D01*
X19400D01*
Y175400D01*
X17000D01*
X110100Y159800D02*
Y163800D01*
X114100D01*
Y159800D01*
X110100D01*
X110900Y160600D02*
Y163000D01*
X113300D01*
Y160600D01*
X110900D01*
X114400Y134100D02*
Y138100D01*
X118400D01*
Y134100D01*
X114400D01*
X115200Y134900D02*
Y137300D01*
X117600D01*
Y134900D01*
X115200D01*
X109400Y186500D02*
Y190500D01*
X113400D01*
Y186500D01*
X109400D01*
X110200Y187300D02*
Y189700D01*
X112600D01*
Y187300D01*
X110200D01*
X114800Y144400D02*
Y148400D01*
X118800D01*
Y144400D01*
X114800D01*
X115600Y145200D02*
Y147600D01*
X118000D01*
Y145200D01*
X115600D01*
X135700Y186000D02*
Y190000D01*
X139700D01*
Y186000D01*
X135700D01*
X136500Y186800D02*
Y189200D01*
X138900D01*
Y186800D01*
X136500D01*
X115000Y147700D02*
Y151700D01*
X119000D01*
Y147700D01*
X115000D01*
X115800Y148500D02*
Y150900D01*
X118200D01*
Y148500D01*
X115800D01*
X115400Y151700D02*
Y155700D01*
X119400D01*
Y151700D01*
X115400D01*
X116200Y152500D02*
Y154900D01*
X118600D01*
Y152500D01*
X116200D01*
X117600Y153900D02*
Y157900D01*
X121600D01*
Y153900D01*
X117600D01*
X118400Y154700D02*
Y157100D01*
X120800D01*
Y154700D01*
X118400D01*
X120600Y153900D02*
Y157900D01*
X124600D01*
Y153900D01*
X120600D01*
X121400Y154700D02*
Y157100D01*
X123800D01*
Y154700D01*
X121400D01*
X123600Y153800D02*
Y157800D01*
X127600D01*
Y153800D01*
X123600D01*
X124400Y154600D02*
Y157000D01*
X126800D01*
Y154600D01*
X124400D01*
X126600Y153700D02*
Y157700D01*
X130600D01*
Y153700D01*
X126600D01*
X127400Y154500D02*
Y156900D01*
X129800D01*
Y154500D01*
X127400D01*
X130000Y153600D02*
Y157600D01*
X134000D01*
Y153600D01*
X130000D01*
X130800Y154400D02*
Y156800D01*
X133200D01*
Y154400D01*
X130800D01*
X133300Y153700D02*
Y157700D01*
X137300D01*
Y153700D01*
X133300D01*
X134100Y154500D02*
Y156900D01*
X136500D01*
Y154500D01*
X134100D01*
X136300Y153600D02*
Y157600D01*
X140300D01*
Y153600D01*
X136300D01*
X137100Y154400D02*
Y156800D01*
X139500D01*
Y154400D01*
X137100D01*
X139473Y153627D02*
Y157627D01*
X143473D01*
Y153627D01*
X139473D01*
X140273Y154427D02*
Y156827D01*
X142673D01*
Y154427D01*
X140273D01*
X142600Y153500D02*
Y157500D01*
X146600D01*
Y153500D01*
X142600D01*
X143400Y154300D02*
Y156700D01*
X145800D01*
Y154300D01*
X143400D01*
X147347Y169753D02*
Y173753D01*
X151347D01*
Y169753D01*
X147347D01*
X148147Y170553D02*
Y172953D01*
X150547D01*
Y170553D01*
X148147D01*
X155221Y169779D02*
Y173779D01*
X159221D01*
Y169779D01*
X155221D01*
X156021Y170579D02*
Y172979D01*
X158421D01*
Y170579D01*
X156021D01*
X139500Y144300D02*
Y148300D01*
X143500D01*
Y144300D01*
X139500D01*
X140300Y145100D02*
Y147500D01*
X142700D01*
Y145100D01*
X140300D01*
X148600Y156400D02*
Y160400D01*
X152600D01*
Y156400D01*
X148600D01*
X149400Y157200D02*
Y159600D01*
X151800D01*
Y157200D01*
X149400D01*
X157900Y144200D02*
Y148200D01*
X161900D01*
Y144200D01*
X157900D01*
X158700Y145000D02*
Y147400D01*
X161100D01*
Y145000D01*
X158700D01*
X164200Y151900D02*
Y155900D01*
X168200D01*
Y151900D01*
X164200D01*
X165000Y152700D02*
Y155100D01*
X167400D01*
Y152700D01*
X165000D01*
X134800Y144100D02*
Y148100D01*
X138800D01*
Y144100D01*
X134800D01*
X135600Y144900D02*
Y147300D01*
X138000D01*
Y144900D01*
X135600D01*
X150200Y153700D02*
Y157700D01*
X154200D01*
Y153700D01*
X150200D01*
X151000Y154500D02*
Y156900D01*
X153400D01*
Y154500D01*
X151000D01*
X143110Y212890D02*
Y216890D01*
X147110D01*
Y212890D01*
X143110D01*
X143910Y213690D02*
Y216090D01*
X146310D01*
Y213690D01*
X143910D01*
X149700Y229800D02*
Y233800D01*
X153700D01*
Y229800D01*
X149700D01*
X150500Y230600D02*
Y233000D01*
X152900D01*
Y230600D01*
X150500D01*
X147647Y214253D02*
Y218253D01*
X151647D01*
Y214253D01*
X147647D01*
X148447Y215053D02*
Y217453D01*
X150847D01*
Y215053D01*
X148447D01*
X58300Y154200D02*
Y158200D01*
X62300D01*
Y154200D01*
X58300D01*
X59100Y155000D02*
Y157400D01*
X61500D01*
Y155000D01*
X59100D01*
X260600Y216790D02*
Y220790D01*
X264600D01*
Y216790D01*
X260600D01*
X261400Y217590D02*
Y219990D01*
X263800D01*
Y217590D01*
X261400D01*
X310900Y222500D02*
Y226500D01*
X314900D01*
Y222500D01*
X310900D01*
X311700Y223300D02*
Y225700D01*
X314100D01*
Y223300D01*
X311700D01*
X313500Y222500D02*
Y226500D01*
X317500D01*
Y222500D01*
X313500D01*
X314300Y223300D02*
Y225700D01*
X316700D01*
Y223300D01*
X314300D01*
X316200Y222600D02*
Y226600D01*
X320200D01*
Y222600D01*
X316200D01*
X317000Y223400D02*
Y225800D01*
X319400D01*
Y223400D01*
X317000D01*
X286300Y210500D02*
Y214500D01*
X290300D01*
Y210500D01*
X286300D01*
X287100Y211300D02*
Y213700D01*
X289500D01*
Y211300D01*
X287100D01*
X257900Y180800D02*
Y184800D01*
X261900D01*
Y180800D01*
X257900D01*
X258700Y181600D02*
Y184000D01*
X261100D01*
Y181600D01*
X258700D01*
X271716Y167516D02*
Y171516D01*
X275716D01*
Y167516D01*
X271716D01*
X272516Y168316D02*
Y170716D01*
X274916D01*
Y168316D01*
X272516D01*
X287900Y180500D02*
Y184500D01*
X291900D01*
Y180500D01*
X287900D01*
X288700Y181300D02*
Y183700D01*
X291100D01*
Y181300D01*
X288700D01*
X288100Y143700D02*
Y147700D01*
X292100D01*
Y143700D01*
X288100D01*
X288900Y144500D02*
Y146900D01*
X291300D01*
Y144500D01*
X288900D01*
X257100Y184700D02*
Y188700D01*
X261100D01*
Y184700D01*
X257100D01*
X257900Y185500D02*
Y187900D01*
X260300D01*
Y185500D01*
X257900D01*
X272800Y164600D02*
Y168600D01*
X276800D01*
Y164600D01*
X272800D01*
X273600Y165400D02*
Y167800D01*
X276000D01*
Y165400D01*
X273600D01*
X269747Y197247D02*
Y201247D01*
X273747D01*
Y197247D01*
X269747D01*
X270547Y198047D02*
Y200447D01*
X272947D01*
Y198047D01*
X270547D01*
X285800Y132000D02*
Y136000D01*
X289800D01*
Y132000D01*
X285800D01*
X286600Y132800D02*
Y135200D01*
X289000D01*
Y132800D01*
X286600D01*
X260050Y197450D02*
Y201450D01*
X264050D01*
Y197450D01*
X260050D01*
X260850Y198250D02*
Y200650D01*
X263250D01*
Y198250D01*
X260850D01*
X264100Y198300D02*
Y202300D01*
X268100D01*
Y198300D01*
X264100D01*
X264900Y199100D02*
Y201500D01*
X267300D01*
Y199100D01*
X264900D01*
X257400Y166500D02*
Y170500D01*
X261400D01*
Y166500D01*
X257400D01*
X258200Y167300D02*
Y169700D01*
X260600D01*
Y167300D01*
X258200D01*
X268200Y199900D02*
Y203900D01*
X272200D01*
Y199900D01*
X268200D01*
X269000Y200700D02*
Y203100D01*
X271400D01*
Y200700D01*
X269000D01*
X293700Y216600D02*
Y220600D01*
X297700D01*
Y216600D01*
X293700D01*
X294500Y217400D02*
Y219800D01*
X296900D01*
Y217400D01*
X294500D01*
X293700Y189600D02*
Y193600D01*
X297700D01*
Y189600D01*
X293700D01*
X294500Y190400D02*
Y192800D01*
X296900D01*
Y190400D01*
X294500D01*
X175400Y155000D02*
Y159000D01*
X179400D01*
Y155000D01*
X175400D01*
X176200Y155800D02*
Y158200D01*
X178600D01*
Y155800D01*
X176200D01*
X178490Y122090D02*
Y126090D01*
X182490D01*
Y122090D01*
X178490D01*
X179290Y122890D02*
Y125290D01*
X181690D01*
Y122890D01*
X179290D01*
X141300Y139200D02*
Y143200D01*
X145300D01*
Y139200D01*
X141300D01*
X142100Y140000D02*
Y142400D01*
X144500D01*
Y140000D01*
X142100D01*
X178000Y176700D02*
Y180700D01*
X182000D01*
Y176700D01*
X178000D01*
X178800Y177500D02*
Y179900D01*
X181200D01*
Y177500D01*
X178800D01*
X179800Y161300D02*
Y165300D01*
X183800D01*
Y161300D01*
X179800D01*
X180600Y162100D02*
Y164500D01*
X183000D01*
Y162100D01*
X180600D01*
X195942Y185958D02*
Y189958D01*
X199942D01*
Y185958D01*
X195942D01*
X196742Y186758D02*
Y189158D01*
X199142D01*
Y186758D01*
X196742D01*
X196022Y175722D02*
Y179722D01*
X200022D01*
Y175722D01*
X196022D01*
X196822Y176522D02*
Y178922D01*
X199222D01*
Y176522D01*
X196822D01*
X220700Y169600D02*
Y173600D01*
X224700D01*
Y169600D01*
X220700D01*
X221500Y170400D02*
Y172800D01*
X223900D01*
Y170400D01*
X221500D01*
X219400Y178900D02*
Y182900D01*
X223400D01*
Y178900D01*
X219400D01*
X220200Y179700D02*
Y182100D01*
X222600D01*
Y179700D01*
X220200D01*
X198400Y216600D02*
Y220600D01*
X202400D01*
Y216600D01*
X198400D01*
X199200Y217400D02*
Y219800D01*
X201600D01*
Y217400D01*
X199200D01*
X207600Y215800D02*
Y219800D01*
X211600D01*
Y215800D01*
X207600D01*
X208400Y216600D02*
Y219000D01*
X210800D01*
Y216600D01*
X208400D01*
X165244Y183556D02*
Y187556D01*
X169244D01*
Y183556D01*
X165244D01*
X166044Y184356D02*
Y186756D01*
X168444D01*
Y184356D01*
X166044D01*
X186200Y194900D02*
Y198900D01*
X190200D01*
Y194900D01*
X186200D01*
X187000Y195700D02*
Y198100D01*
X189400D01*
Y195700D01*
X187000D01*
X163200Y198500D02*
Y202500D01*
X167200D01*
Y198500D01*
X163200D01*
X164000Y199300D02*
Y201700D01*
X166400D01*
Y199300D01*
X164000D01*
X200700Y170600D02*
Y174600D01*
X204700D01*
Y170600D01*
X200700D01*
X201500Y171400D02*
Y173800D01*
X203900D01*
Y171400D01*
X201500D01*
X190300Y216000D02*
Y220000D01*
X194300D01*
Y216000D01*
X190300D01*
X191100Y216800D02*
Y219200D01*
X193500D01*
Y216800D01*
X191100D01*
X211400Y234200D02*
Y238200D01*
X215400D01*
Y234200D01*
X211400D01*
X212200Y235000D02*
Y237400D01*
X214600D01*
Y235000D01*
X212200D01*
X187600Y248600D02*
Y252600D01*
X191600D01*
Y248600D01*
X187600D01*
X188400Y249400D02*
Y251800D01*
X190800D01*
Y249400D01*
X188400D01*
X165200Y191600D02*
Y195600D01*
X169200D01*
Y191600D01*
X165200D01*
X166000Y192400D02*
Y194800D01*
X168400D01*
Y192400D01*
X166000D01*
X188100Y240500D02*
Y244500D01*
X192100D01*
Y240500D01*
X188100D01*
X188900Y241300D02*
Y243700D01*
X191300D01*
Y241300D01*
X188900D01*
X182100Y208000D02*
Y212000D01*
X186100D01*
Y208000D01*
X182100D01*
X182900Y208800D02*
Y211200D01*
X185300D01*
Y208800D01*
X182900D01*
X179300Y247900D02*
Y251900D01*
X183300D01*
Y247900D01*
X179300D01*
X180100Y248700D02*
Y251100D01*
X182500D01*
Y248700D01*
X180100D01*
X176700Y234200D02*
Y238200D01*
X180700D01*
Y234200D01*
X176700D01*
X177500Y235000D02*
Y237400D01*
X179900D01*
Y235000D01*
X177500D01*
X160058Y213942D02*
Y217942D01*
X164058D01*
Y213942D01*
X160058D01*
X160858Y214742D02*
Y217142D01*
X163258D01*
Y214742D01*
X160858D01*
X177100Y216900D02*
Y220900D01*
X181100D01*
Y216900D01*
X177100D01*
X177900Y217700D02*
Y220100D01*
X180300D01*
Y217700D01*
X177900D01*
X172300Y214500D02*
Y218500D01*
X176300D01*
Y214500D01*
X172300D01*
X173100Y215300D02*
Y217700D01*
X175500D01*
Y215300D01*
X173100D01*
X317500Y249500D02*
X318500Y250500D01*
X319500D01*
X318500Y251500D01*
X319500Y252500D01*
X318500D01*
X317500Y253500D01*
X316500Y252500D01*
X315500D01*
X316500Y251500D01*
X315500Y250500D01*
X316500D01*
X317500Y249500D01*
Y250300D02*
X318100Y250900D01*
X318700D01*
X318100Y251500D01*
X318700Y252100D01*
X318100D01*
X317500Y252700D01*
X316900Y252100D01*
X316300D01*
X316900Y251500D01*
X316300Y250900D01*
X316900D01*
X317500Y250300D01*
X70100Y267700D02*
Y271700D01*
X74100D01*
Y267700D01*
X70100D01*
X70900Y268500D02*
Y270900D01*
X73300D01*
Y268500D01*
X70900D01*
X171300Y249900D02*
Y253900D01*
X175300D01*
Y249900D01*
X171300D01*
X172100Y250700D02*
Y253100D01*
X174500D01*
Y250700D01*
X172100D01*
X165700Y235500D02*
Y239500D01*
X169700D01*
Y235500D01*
X165700D01*
X166500Y236300D02*
Y238700D01*
X168900D01*
Y236300D01*
X166500D01*
X156000Y198500D02*
Y202500D01*
X160000D01*
Y198500D01*
X156000D01*
X156800Y199300D02*
Y201700D01*
X159200D01*
Y199300D01*
X156800D01*
X225200Y233100D02*
Y237100D01*
X229200D01*
Y233100D01*
X225200D01*
X226000Y233900D02*
Y236300D01*
X228400D01*
Y233900D01*
X226000D01*
X135500Y198600D02*
Y202600D01*
X139500D01*
Y198600D01*
X135500D01*
X136300Y199400D02*
Y201800D01*
X138700D01*
Y199400D01*
X136300D01*
X216300Y172700D02*
Y176700D01*
X220300D01*
Y172700D01*
X216300D01*
X217100Y173500D02*
Y175900D01*
X219500D01*
Y173500D01*
X217100D01*
X142600Y196300D02*
Y200300D01*
X146600D01*
Y196300D01*
X142600D01*
X143400Y197100D02*
Y199500D01*
X145800D01*
Y197100D01*
X143400D01*
X165200Y177600D02*
Y181600D01*
X169200D01*
Y177600D01*
X165200D01*
X166000Y178400D02*
Y180800D01*
X168400D01*
Y178400D01*
X166000D01*
X252300Y109400D02*
Y113400D01*
X256300D01*
Y109400D01*
X252300D01*
X253100Y110200D02*
Y112600D01*
X255500D01*
Y110200D01*
X253100D01*
X224900Y120000D02*
Y124000D01*
X228900D01*
Y120000D01*
X224900D01*
X225700Y120800D02*
Y123200D01*
X228100D01*
Y120800D01*
X225700D01*
X216800Y118600D02*
Y122600D01*
X220800D01*
Y118600D01*
X216800D01*
X217600Y119400D02*
Y121800D01*
X220000D01*
Y119400D01*
X217600D01*
X213600Y118700D02*
Y122700D01*
X217600D01*
Y118700D01*
X213600D01*
X214400Y119500D02*
Y121900D01*
X216800D01*
Y119500D01*
X214400D01*
X157800Y154800D02*
Y158800D01*
X161800D01*
Y154800D01*
X157800D01*
X158600Y155600D02*
Y158000D01*
X161000D01*
Y155600D01*
X158600D01*
X174100Y243800D02*
Y247800D01*
X178100D01*
Y243800D01*
X174100D01*
X174900Y244600D02*
Y247000D01*
X177300D01*
Y244600D01*
X174900D01*
X146500Y199100D02*
Y203100D01*
X150500D01*
Y199100D01*
X146500D01*
X147300Y199900D02*
Y202300D01*
X149700D01*
Y199900D01*
X147300D01*
X125250Y204050D02*
Y208050D01*
X129250D01*
Y204050D01*
X125250D01*
X126050Y204850D02*
Y207250D01*
X128450D01*
Y204850D01*
X126050D01*
X120000Y203700D02*
Y207700D01*
X124000D01*
Y203700D01*
X120000D01*
X120800Y204500D02*
Y206900D01*
X123200D01*
Y204500D01*
X120800D01*
X154700Y249000D02*
Y253000D01*
X158700D01*
Y249000D01*
X154700D01*
X155500Y249800D02*
Y252200D01*
X157900D01*
Y249800D01*
X155500D01*
X146100Y188600D02*
Y192600D01*
X150100D01*
Y188600D01*
X146100D01*
X146900Y189400D02*
Y191800D01*
X149300D01*
Y189400D01*
X146900D01*
X141600Y116300D02*
Y120300D01*
X145600D01*
Y116300D01*
X141600D01*
X142400Y117100D02*
Y119500D01*
X144800D01*
Y117100D01*
X142400D01*
X141800Y113300D02*
Y117300D01*
X145800D01*
Y113300D01*
X141800D01*
X142600Y114100D02*
Y116500D01*
X145000D01*
Y114100D01*
X142600D01*
X70200Y77700D02*
Y81700D01*
X74200D01*
Y77700D01*
X70200D01*
X71000Y78500D02*
Y80900D01*
X73400D01*
Y78500D01*
X71000D01*
X210200Y124100D02*
Y128100D01*
X214200D01*
Y124100D01*
X210200D01*
X211000Y124900D02*
Y127300D01*
X213400D01*
Y124900D01*
X211000D01*
X238300Y129100D02*
Y133100D01*
X242300D01*
Y129100D01*
X238300D01*
X239100Y129900D02*
Y132300D01*
X241500D01*
Y129900D01*
X239100D01*
X192290Y122090D02*
Y126090D01*
X196290D01*
Y122090D01*
X192290D01*
X193090Y122890D02*
Y125290D01*
X195490D01*
Y122890D01*
X193090D01*
X176490Y151891D02*
Y155891D01*
X180491D01*
Y151891D01*
X176490D01*
X177290Y152690D02*
Y155090D01*
X179691D01*
Y152690D01*
X177290D01*
X209800Y121100D02*
Y125100D01*
X213800D01*
Y121100D01*
X209800D01*
X210600Y121900D02*
Y124300D01*
X213000D01*
Y121900D01*
X210600D01*
X212300Y157800D02*
Y161800D01*
X216300D01*
Y157800D01*
X212300D01*
X213100Y158600D02*
Y161000D01*
X215500D01*
Y158600D01*
X213100D01*
X64300Y98500D02*
Y102500D01*
X68300D01*
Y98500D01*
X64300D01*
X65100Y99300D02*
Y101700D01*
X67500D01*
Y99300D01*
X65100D01*
X83200Y132500D02*
Y136500D01*
X87200D01*
Y132500D01*
X83200D01*
X84000Y133300D02*
Y135700D01*
X86400D01*
Y133300D01*
X84000D01*
X125000Y220400D02*
Y224400D01*
X129000D01*
Y220400D01*
X125000D01*
X125800Y221200D02*
Y223600D01*
X128200D01*
Y221200D01*
X125800D01*
X109224Y223724D02*
Y227724D01*
X113224D01*
Y223724D01*
X109224D01*
X110024Y224524D02*
Y226924D01*
X112424D01*
Y224524D01*
X110024D01*
X120800Y217300D02*
Y221300D01*
X124800D01*
Y217300D01*
X120800D01*
X121600Y218100D02*
Y220500D01*
X124000D01*
Y218100D01*
X121600D01*
X167600Y208300D02*
Y212300D01*
X171600D01*
Y208300D01*
X167600D01*
X168400Y209100D02*
Y211500D01*
X170800D01*
Y209100D01*
X168400D01*
X122265Y197335D02*
Y201335D01*
X126265D01*
Y197335D01*
X122265D01*
X123065Y198135D02*
Y200535D01*
X125465D01*
Y198135D01*
X123065D01*
X67000Y143500D02*
Y147500D01*
X71000D01*
Y143500D01*
X67000D01*
X67800Y144300D02*
Y146700D01*
X70200D01*
Y144300D01*
X67800D01*
X64400Y127500D02*
Y131500D01*
X68400D01*
Y127500D01*
X64400D01*
X65200Y128300D02*
Y130700D01*
X67600D01*
Y128300D01*
X65200D01*
X46253Y182301D02*
X47253Y183301D01*
X48253D01*
X47253Y184301D01*
X48253Y185301D01*
X47253D01*
X46253Y186301D01*
X45253Y185301D01*
X44253D01*
X45253Y184301D01*
X44253Y183301D01*
X45253D01*
X46253Y182301D01*
Y183101D02*
X46853Y183701D01*
X47453D01*
X46853Y184301D01*
X47453Y184901D01*
X46853D01*
X46253Y185501D01*
X45653Y184901D01*
X45053D01*
X45653Y184301D01*
X45053Y183701D01*
X45653D01*
X46253Y183101D01*
X42050Y169450D02*
X43050Y170450D01*
X44050D01*
X43050Y171450D01*
X44050Y172450D01*
X43050D01*
X42050Y173450D01*
X41050Y172450D01*
X40050D01*
X41050Y171450D01*
X40050Y170450D01*
X41050D01*
X42050Y169450D01*
Y170250D02*
X42650Y170850D01*
X43250D01*
X42650Y171450D01*
X43250Y172050D01*
X42650D01*
X42050Y172650D01*
X41450Y172050D01*
X40850D01*
X41450Y171450D01*
X40850Y170850D01*
X41450D01*
X42050Y170250D01*
X135800Y228700D02*
Y232700D01*
X139800D01*
Y228700D01*
X135800D01*
X136600Y229500D02*
Y231900D01*
X139000D01*
Y229500D01*
X136600D01*
X168960Y239640D02*
Y243640D01*
X172960D01*
Y239640D01*
X168960D01*
X169760Y240440D02*
Y242840D01*
X172160D01*
Y240440D01*
X169760D01*
X260900Y160500D02*
Y164500D01*
X264900D01*
Y160500D01*
X260900D01*
X261700Y161300D02*
Y163700D01*
X264100D01*
Y161300D01*
X261700D01*
X291334Y161734D02*
Y165734D01*
X295334D01*
Y161734D01*
X291334D01*
X292134Y162534D02*
Y164934D01*
X294534D01*
Y162534D01*
X292134D01*
X319700Y244200D02*
Y248200D01*
X323700D01*
Y244200D01*
X319700D01*
X320500Y245000D02*
Y247400D01*
X322900D01*
Y245000D01*
X320500D01*
X111500Y115400D02*
Y119400D01*
X115500D01*
Y115400D01*
X111500D01*
X112300Y116200D02*
Y118600D01*
X114700D01*
Y116200D01*
X112300D01*
X205400Y142800D02*
Y146800D01*
X209400D01*
Y142800D01*
X205400D01*
X206200Y143600D02*
Y146000D01*
X208600D01*
Y143600D01*
X206200D01*
X109600Y194900D02*
Y198900D01*
X113600D01*
Y194900D01*
X109600D01*
X110400Y195700D02*
Y198100D01*
X112800D01*
Y195700D01*
X110400D01*
X104500Y185200D02*
Y189200D01*
X108500D01*
Y185200D01*
X104500D01*
X105300Y186000D02*
Y188400D01*
X107700D01*
Y186000D01*
X105300D01*
X92200Y189700D02*
Y193700D01*
X96200D01*
Y189700D01*
X92200D01*
X93000Y190500D02*
Y192900D01*
X95400D01*
Y190500D01*
X93000D01*
X159100Y193500D02*
Y197500D01*
X163100D01*
Y193500D01*
X159100D01*
X159900Y194300D02*
Y196700D01*
X162300D01*
Y194300D01*
X159900D01*
X67000Y239400D02*
Y243400D01*
X71000D01*
Y239400D01*
X67000D01*
X67800Y240200D02*
Y242600D01*
X70200D01*
Y240200D01*
X67800D01*
X138100Y240600D02*
Y244600D01*
X142100D01*
Y240600D01*
X138100D01*
X138900Y241400D02*
Y243800D01*
X141300D01*
Y241400D01*
X138900D01*
X81300Y252300D02*
Y256300D01*
X85300D01*
Y252300D01*
X81300D01*
X82100Y253100D02*
Y255500D01*
X84500D01*
Y253100D01*
X82100D01*
X81300Y242300D02*
Y246300D01*
X85300D01*
Y242300D01*
X81300D01*
X82100Y243100D02*
Y245500D01*
X84500D01*
Y243100D01*
X82100D01*
X80200Y231200D02*
Y235200D01*
X84200D01*
Y231200D01*
X80200D01*
X81000Y232000D02*
Y234400D01*
X83400D01*
Y232000D01*
X81000D01*
X52600Y229500D02*
Y233500D01*
X56600D01*
Y229500D01*
X52600D01*
X53400Y230300D02*
Y232700D01*
X55800D01*
Y230300D01*
X53400D01*
X58700Y230000D02*
Y234000D01*
X62700D01*
Y230000D01*
X58700D01*
X59500Y230800D02*
Y233200D01*
X61900D01*
Y230800D01*
X59500D01*
X12400Y242200D02*
Y246200D01*
X16400D01*
Y242200D01*
X12400D01*
X13200Y243000D02*
Y245400D01*
X15600D01*
Y243000D01*
X13200D01*
X12100Y229900D02*
Y233900D01*
X16100D01*
Y229900D01*
X12100D01*
X12900Y230700D02*
Y233100D01*
X15300D01*
Y230700D01*
X12900D01*
X12100Y212800D02*
Y216800D01*
X16100D01*
Y212800D01*
X12100D01*
X12900Y213600D02*
Y216000D01*
X15300D01*
Y213600D01*
X12900D01*
X6500Y173000D02*
Y177000D01*
X10500D01*
Y173000D01*
X6500D01*
X7300Y173800D02*
Y176200D01*
X9700D01*
Y173800D01*
X7300D01*
X5800Y165900D02*
Y169900D01*
X9800D01*
Y165900D01*
X5800D01*
X6600Y166700D02*
Y169100D01*
X9000D01*
Y166700D01*
X6600D01*
X9900Y130700D02*
Y134700D01*
X13900D01*
Y130700D01*
X9900D01*
X10700Y131500D02*
Y133900D01*
X13100D01*
Y131500D01*
X10700D01*
X10100Y117700D02*
Y121700D01*
X14100D01*
Y117700D01*
X10100D01*
X10900Y118500D02*
Y120900D01*
X13300D01*
Y118500D01*
X10900D01*
X9900Y103200D02*
Y107200D01*
X13900D01*
Y103200D01*
X9900D01*
X10700Y104000D02*
Y106400D01*
X13100D01*
Y104000D01*
X10700D01*
X10600Y90700D02*
Y94700D01*
X14600D01*
Y90700D01*
X10600D01*
X11400Y91500D02*
Y93900D01*
X13800D01*
Y91500D01*
X11400D01*
X92000Y242700D02*
Y246700D01*
X96000D01*
Y242700D01*
X92000D01*
X92800Y243500D02*
Y245900D01*
X95200D01*
Y243500D01*
X92800D01*
X145700Y241900D02*
Y245900D01*
X149700D01*
Y241900D01*
X145700D01*
X146500Y242700D02*
Y245100D01*
X148900D01*
Y242700D01*
X146500D01*
X188600Y228500D02*
Y232500D01*
X192600D01*
Y228500D01*
X188600D01*
X189400Y229300D02*
Y231700D01*
X191800D01*
Y229300D01*
X189400D01*
X193500Y234200D02*
Y238200D01*
X197500D01*
Y234200D01*
X193500D01*
X194300Y235000D02*
Y237400D01*
X196700D01*
Y235000D01*
X194300D01*
X212900Y237400D02*
Y241400D01*
X216900D01*
Y237400D01*
X212900D01*
X213700Y238200D02*
Y240600D01*
X216100D01*
Y238200D01*
X213700D01*
X216400Y240200D02*
Y244200D01*
X220400D01*
Y240200D01*
X216400D01*
X217200Y241000D02*
Y243400D01*
X219600D01*
Y241000D01*
X217200D01*
X329200Y255300D02*
X330200Y256300D01*
X331200D01*
X330200Y257300D01*
X331200Y258300D01*
X330200D01*
X329200Y259300D01*
X328200Y258300D01*
X327200D01*
X328200Y257300D01*
X327200Y256300D01*
X328200D01*
X329200Y255300D01*
Y256100D02*
X329800Y256700D01*
X330400D01*
X329800Y257300D01*
X330400Y257900D01*
X329800D01*
X329200Y258500D01*
X328600Y257900D01*
X328000D01*
X328600Y257300D01*
X328000Y256700D01*
X328600D01*
X329200Y256100D01*
X104800Y155774D02*
Y159774D01*
X108800D01*
Y155774D01*
X104800D01*
X105600Y156574D02*
Y158974D01*
X108000D01*
Y156574D01*
X105600D01*
X232700Y267700D02*
Y271700D01*
X236700D01*
Y267700D01*
X232700D01*
X233500Y268500D02*
Y270900D01*
X235900D01*
Y268500D01*
X233500D01*
X168600Y270900D02*
Y274900D01*
X172600D01*
Y270900D01*
X168600D01*
X169400Y271700D02*
Y274100D01*
X171800D01*
Y271700D01*
X169400D01*
X288400Y185800D02*
Y189800D01*
X292400D01*
Y185800D01*
X288400D01*
X289200Y186600D02*
Y189000D01*
X291600D01*
Y186600D01*
X289200D01*
X248009Y169009D02*
Y173010D01*
X252010D01*
Y169009D01*
X248009D01*
X248810Y169809D02*
Y172210D01*
X251209D01*
Y169809D01*
X248810D01*
X113344Y209956D02*
Y213956D01*
X117344D01*
Y209956D01*
X113344D01*
X114144Y210756D02*
Y213156D01*
X116544D01*
Y210756D01*
X114144D01*
X168100Y160400D02*
Y164400D01*
X172100D01*
Y160400D01*
X168100D01*
X168900Y161200D02*
Y163600D01*
X171300D01*
Y161200D01*
X168900D01*
X287000Y199900D02*
Y203900D01*
X291000D01*
Y199900D01*
X287000D01*
X287800Y200700D02*
Y203100D01*
X290200D01*
Y200700D01*
X287800D01*
X282600Y201000D02*
Y205000D01*
X286600D01*
Y201000D01*
X282600D01*
X283400Y201800D02*
Y204200D01*
X285800D01*
Y201800D01*
X283400D01*
X280200Y198700D02*
Y202700D01*
X284200D01*
Y198700D01*
X280200D01*
X281000Y199500D02*
Y201900D01*
X283400D01*
Y199500D01*
X281000D01*
X164800Y194700D02*
Y198700D01*
X168800D01*
Y194700D01*
X164800D01*
X165600Y195500D02*
Y197900D01*
X168000D01*
Y195500D01*
X165600D01*
X230800Y120000D02*
Y124000D01*
X234800D01*
Y120000D01*
X230800D01*
X231600Y120800D02*
Y123200D01*
X234000D01*
Y120800D01*
X231600D01*
D11*
X314000Y108740D02*
G03*
X314000Y108740I-2000J0D01*
G01*
X324000D02*
G03*
X324000Y108740I-2000J0D01*
G01*
X314000Y118740D02*
G03*
X314000Y118740I-2000J0D01*
G01*
Y138740D02*
G03*
X314000Y138740I-2000J0D01*
G01*
X324000D02*
G03*
X324000Y138740I-2000J0D01*
G01*
Y128740D02*
G03*
X324000Y128740I-2000J0D01*
G01*
X314000D02*
G03*
X314000Y128740I-2000J0D01*
G01*
X324000Y98740D02*
G03*
X324000Y98740I-2000J0D01*
G01*
X314000D02*
G03*
X314000Y98740I-2000J0D01*
G01*
X324000Y118740D02*
G03*
X324000Y118740I-2000J0D01*
G01*
X79600Y191100D02*
G03*
X79600Y191100I-2000J0D01*
G01*
X89600D02*
G03*
X89600Y191100I-2000J0D01*
G01*
X81100Y98200D02*
G03*
X81100Y98200I-2000J0D01*
G01*
Y108200D02*
G03*
X81100Y108200I-2000J0D01*
G01*
X91100Y98200D02*
G03*
X91100Y98200I-2000J0D01*
G01*
Y108200D02*
G03*
X91100Y108200I-2000J0D01*
G01*
X101100Y98200D02*
G03*
X101100Y98200I-2000J0D01*
G01*
Y108200D02*
G03*
X101100Y108200I-2000J0D01*
G01*
X111100Y98200D02*
G03*
X111100Y98200I-2000J0D01*
G01*
Y108200D02*
G03*
X111100Y108200I-2000J0D01*
G01*
X121100Y98200D02*
G03*
X121100Y98200I-2000J0D01*
G01*
Y108200D02*
G03*
X121100Y108200I-2000J0D01*
G01*
X131100D02*
G03*
X131100Y108200I-2000J0D01*
G01*
X141100Y98200D02*
G03*
X141100Y98200I-2000J0D01*
G01*
Y108200D02*
G03*
X141100Y108200I-2000J0D01*
G01*
X151100Y98200D02*
G03*
X151100Y98200I-2000J0D01*
G01*
Y108200D02*
G03*
X151100Y108200I-2000J0D01*
G01*
X161100Y98200D02*
G03*
X161100Y98200I-2000J0D01*
G01*
Y108200D02*
G03*
X161100Y108200I-2000J0D01*
G01*
X171100Y98200D02*
G03*
X171100Y98200I-2000J0D01*
G01*
Y108200D02*
G03*
X171100Y108200I-2000J0D01*
G01*
X181100Y98200D02*
G03*
X181100Y98200I-2000J0D01*
G01*
Y108200D02*
G03*
X181100Y108200I-2000J0D01*
G01*
X191100Y98200D02*
G03*
X191100Y98200I-2000J0D01*
G01*
Y108200D02*
G03*
X191100Y108200I-2000J0D01*
G01*
X201100Y98200D02*
G03*
X201100Y98200I-2000J0D01*
G01*
Y108200D02*
G03*
X201100Y108200I-2000J0D01*
G01*
X211100Y98200D02*
G03*
X211100Y98200I-2000J0D01*
G01*
Y108200D02*
G03*
X211100Y108200I-2000J0D01*
G01*
X221100Y98200D02*
G03*
X221100Y98200I-2000J0D01*
G01*
Y108200D02*
G03*
X221100Y108200I-2000J0D01*
G01*
X231100Y98200D02*
G03*
X231100Y98200I-2000J0D01*
G01*
Y108200D02*
G03*
X231100Y108200I-2000J0D01*
G01*
X131100Y98200D02*
G03*
X131100Y98200I-2000J0D01*
G01*
X179816Y268071D02*
G03*
X179816Y268071I-2000J0D01*
G01*
X79816Y258071D02*
G03*
X79816Y258071I-2000J0D01*
G01*
Y268071D02*
G03*
X79816Y268071I-2000J0D01*
G01*
X89816Y258071D02*
G03*
X89816Y258071I-2000J0D01*
G01*
Y268071D02*
G03*
X89816Y268071I-2000J0D01*
G01*
X99816Y258071D02*
G03*
X99816Y258071I-2000J0D01*
G01*
Y268071D02*
G03*
X99816Y268071I-2000J0D01*
G01*
X109816Y258071D02*
G03*
X109816Y258071I-2000J0D01*
G01*
Y268071D02*
G03*
X109816Y268071I-2000J0D01*
G01*
X119816Y258071D02*
G03*
X119816Y258071I-2000J0D01*
G01*
Y268071D02*
G03*
X119816Y268071I-2000J0D01*
G01*
X129816Y258071D02*
G03*
X129816Y258071I-2000J0D01*
G01*
Y268071D02*
G03*
X129816Y268071I-2000J0D01*
G01*
X139816Y258071D02*
G03*
X139816Y258071I-2000J0D01*
G01*
Y268071D02*
G03*
X139816Y268071I-2000J0D01*
G01*
X149816Y258071D02*
G03*
X149816Y258071I-2000J0D01*
G01*
Y268071D02*
G03*
X149816Y268071I-2000J0D01*
G01*
X159816Y258071D02*
G03*
X159816Y258071I-2000J0D01*
G01*
Y268071D02*
G03*
X159816Y268071I-2000J0D01*
G01*
X169816Y258071D02*
G03*
X169816Y258071I-2000J0D01*
G01*
Y268071D02*
G03*
X169816Y268071I-2000J0D01*
G01*
X179816Y258071D02*
G03*
X179816Y258071I-2000J0D01*
G01*
X189816D02*
G03*
X189816Y258071I-2000J0D01*
G01*
Y268071D02*
G03*
X189816Y268071I-2000J0D01*
G01*
X199816Y258071D02*
G03*
X199816Y258071I-2000J0D01*
G01*
Y268071D02*
G03*
X199816Y268071I-2000J0D01*
G01*
X209816Y258071D02*
G03*
X209816Y258071I-2000J0D01*
G01*
Y268071D02*
G03*
X209816Y268071I-2000J0D01*
G01*
X219816Y258071D02*
G03*
X219816Y258071I-2000J0D01*
G01*
Y268071D02*
G03*
X219816Y268071I-2000J0D01*
G01*
X229816Y258071D02*
G03*
X229816Y258071I-2000J0D01*
G01*
Y268071D02*
G03*
X229816Y268071I-2000J0D01*
G01*
X235300Y204700D02*
G03*
X235300Y204700I-2000J0D01*
G01*
X245300D02*
G03*
X245300Y204700I-2000J0D01*
G01*
X235300Y194700D02*
G03*
X235300Y194700I-2000J0D01*
G01*
X245300D02*
G03*
X245300Y194700I-2000J0D01*
G01*
X235300Y184700D02*
G03*
X235300Y184700I-2000J0D01*
G01*
X245300D02*
G03*
X245300Y184700I-2000J0D01*
G01*
X235300Y174700D02*
G03*
X235300Y174700I-2000J0D01*
G01*
X245300D02*
G03*
X245300Y174700I-2000J0D01*
G01*
X235300Y164700D02*
G03*
X235300Y164700I-2000J0D01*
G01*
X245300D02*
G03*
X245300Y164700I-2000J0D01*
G01*
X235300Y154700D02*
G03*
X235300Y154700I-2000J0D01*
G01*
X245300D02*
G03*
X245300Y154700I-2000J0D01*
G01*
X235300Y144700D02*
G03*
X235300Y144700I-2000J0D01*
G01*
X245300D02*
G03*
X245300Y144700I-2000J0D01*
G01*
X252400Y259700D02*
G03*
X252400Y259700I-2000J0D01*
G01*
X269400Y260100D02*
G03*
X269400Y260100I-2000J0D01*
G01*
X51000Y273200D02*
G03*
X51000Y273200I-2000J0D01*
G01*
X33400Y272900D02*
G03*
X33400Y272900I-2000J0D01*
G01*
X86600Y154600D02*
G03*
X86600Y154600I-2000J0D01*
G01*
X76700Y154400D02*
G03*
X76700Y154400I-2000J0D01*
G01*
D12*
X85800Y154600D02*
G03*
X85800Y154600I-1200J0D01*
G01*
X75900Y154400D02*
G03*
X75900Y154400I-1200J0D01*
G01*
M02*
