G04 Layer_Color=128*
%FSLAX25Y25*%
%MOIN*%
G70*
G01*
G75*
G04:AMPARAMS|DCode=15|XSize=51.18mil|YSize=35.43mil|CornerRadius=3.54mil|HoleSize=0mil|Usage=FLASHONLY|Rotation=90.000|XOffset=0mil|YOffset=0mil|HoleType=Round|Shape=RoundedRectangle|*
%AMROUNDEDRECTD15*
21,1,0.05118,0.02835,0,0,90.0*
21,1,0.04409,0.03543,0,0,90.0*
1,1,0.00709,0.01417,0.02205*
1,1,0.00709,0.01417,-0.02205*
1,1,0.00709,-0.01417,-0.02205*
1,1,0.00709,-0.01417,0.02205*
%
%ADD15ROUNDEDRECTD15*%
%ADD31R,0.03937X0.03543*%
G04:AMPARAMS|DCode=38|XSize=51.18mil|YSize=35.43mil|CornerRadius=3.54mil|HoleSize=0mil|Usage=FLASHONLY|Rotation=0.000|XOffset=0mil|YOffset=0mil|HoleType=Round|Shape=RoundedRectangle|*
%AMROUNDEDRECTD38*
21,1,0.05118,0.02835,0,0,0.0*
21,1,0.04409,0.03543,0,0,0.0*
1,1,0.00709,0.02205,-0.01417*
1,1,0.00709,-0.02205,-0.01417*
1,1,0.00709,-0.02205,0.01417*
1,1,0.00709,0.02205,0.01417*
%
%ADD38ROUNDEDRECTD38*%
D15*
X96064Y128900D02*
D03*
X91536D02*
D03*
X109650D02*
D03*
X103350D02*
D03*
X169850Y122500D02*
D03*
X176150D02*
D03*
X215350Y153000D02*
D03*
X221650D02*
D03*
X229750Y217600D02*
D03*
X223450D02*
D03*
X55350Y81500D02*
D03*
X61650D02*
D03*
X55350Y100500D02*
D03*
X61650D02*
D03*
X55350Y129500D02*
D03*
X61650D02*
D03*
X157236Y122500D02*
D03*
X161764D02*
D03*
X220764Y146000D02*
D03*
X216236D02*
D03*
X275236Y220000D02*
D03*
X279764D02*
D03*
X203336Y178700D02*
D03*
X207864D02*
D03*
X203336Y188200D02*
D03*
X207864D02*
D03*
X60764Y91000D02*
D03*
X56236D02*
D03*
X60764Y110000D02*
D03*
X56236D02*
D03*
X60764Y120000D02*
D03*
X56236D02*
D03*
X295936Y136500D02*
D03*
X300464D02*
D03*
D31*
X244600Y240950D02*
D03*
Y234650D02*
D03*
D38*
X211500Y229450D02*
D03*
Y223150D02*
D03*
X201000Y229450D02*
D03*
Y223150D02*
D03*
X53500Y149350D02*
D03*
Y155650D02*
D03*
X294500Y119350D02*
D03*
Y125650D02*
D03*
X285000Y119350D02*
D03*
Y125650D02*
D03*
M02*
