<svg id="グループ_12076" data-name="グループ 12076" xmlns="http://www.w3.org/2000/svg" width="40" height="20" viewBox="0 0 40 20">
  <g id="base" fill="#1e6199" stroke="#0078d3" stroke-width="1">
    <path d="M0,0H32a8,8,0,0,1,8,8V20a0,0,0,0,1,0,0H0a0,0,0,0,1,0,0V0A0,0,0,0,1,0,0Z" stroke="none"/>
    <path d="M.5.5H32A7.5,7.5,0,0,1,39.5,8V19.5a0,0,0,0,1,0,0H.5a0,0,0,0,1,0,0V.5A0,0,0,0,1,.5.5Z" fill="none"/>
  </g>
  <path id="パス_11295" data-name="パス 11295" d="M383.109,544.038l6-6,6,6" transform="translate(-368.609 -530.538)" fill="none" stroke="#e6e6e6" stroke-width="2"/>
</svg>
