<svg id="コンポーネント_90_3" data-name="コンポーネント 90 – 3" xmlns="http://www.w3.org/2000/svg" width="36" height="36" viewBox="0 0 36 36">
  <g id="長方形_538" data-name="長方形 538" fill="#fff" stroke="#333" stroke-width="1">
    <path d="M8,0H36a0,0,0,0,1,0,0V36a0,0,0,0,1,0,0H8a8,8,0,0,1-8-8V8A8,8,0,0,1,8,0Z" stroke="none"/>
    <path d="M8,.5H35.5a0,0,0,0,1,0,0v35a0,0,0,0,1,0,0H8A7.5,7.5,0,0,1,.5,28V8A7.5,7.5,0,0,1,8,.5Z" fill="none"/>
  </g>
  <g id="グループ_12153" data-name="グループ 12153" transform="translate(5 6)">
    <rect id="長方形_525" data-name="長方形 525" width="28" height="24" rx="4" fill="none"/>
    <g id="グループ_12135" data-name="グループ 12135" transform="translate(4 5)">
      <g id="グループ_12134" data-name="グループ 12134">
        <g id="長方形_528" data-name="長方形 528" fill="none" stroke="#0bb" stroke-width="1" opacity="0.2">
          <rect width="20" height="14" stroke="none"/>
          <rect x="0.5" y="0.5" width="19" height="13" fill="none"/>
        </g>
        <g id="長方形_527" data-name="長方形 527" fill="none" stroke="#0bb" stroke-width="1">
          <rect width="9" height="14" stroke="none"/>
          <rect x="0.5" y="0.5" width="8" height="13" fill="none"/>
        </g>
      </g>
      <g id="グループ_12133" data-name="グループ 12133" transform="translate(10 3)">
        <path id="多角形_11" data-name="多角形 11" d="M4,0,8,4H0Z" transform="translate(0 8) rotate(-90)" fill="#0bb"/>
        <rect id="長方形_529" data-name="長方形 529" width="5" height="2" transform="translate(3 3)" fill="#0bb"/>
      </g>
    </g>
  </g>
</svg>
